<svg width="46" height="46" viewBox="0 0 46 46" fill="none" xmlns="http://www.w3.org/2000/svg">
<rect width="46" height="46" rx="23" fill="white"/>
<path d="M39.9412 23C39.9412 27.5265 38.1677 31.6559 35.2824 34.6735C32.1853 37.9294 27.8177 39.9412 23 39.9412C18.1559 39.9412 13.7882 37.903 10.7177 34.6471C7.83237 31.6294 6.05884 27.5265 6.05884 23C6.05884 13.6559 13.6294 6.05884 23 6.05884C32.3441 6.05884 39.9412 13.603 39.9412 23Z" fill="#F3F3F3"/>
<path d="M26.6 17.8647H31.6823V34.8589H26.6V17.8647Z" fill="#71C6CE"/>
<path d="M19.7441 17.8647H26.6265V34.8589H19.7441V17.8647Z" fill="#7DCEDC"/>
<path d="M29.1412 13.5764L26.6 17.8647H31.6823L29.1412 13.5764Z" fill="#49C2C2"/>
<path d="M29.1412 13.5764L26.6 17.8647H19.7441L22.2853 13.5764H29.1412Z" fill="#55C5CA"/>
<path d="M28.6118 12.2266H22.7883C22.4971 12.2266 22.2588 12.5177 22.2588 12.8619V13.5501H29.1412V12.8619C29.1412 12.5177 28.903 12.2266 28.6118 12.2266ZM19.7441 23.6619H26.6265V29.0354H19.7441V23.6619Z" fill="#474F59"/>
<path d="M23.1853 28.056C23.9455 28.056 24.5618 27.2975 24.5618 26.3618C24.5618 25.4262 23.9455 24.6677 23.1853 24.6677C22.4251 24.6677 21.8088 25.4262 21.8088 26.3618C21.8088 27.2975 22.4251 28.056 23.1853 28.056Z" fill="white"/>
<path d="M7.77942 24.8H23.3177V34.8589H7.77942V24.8Z" fill="#FDDA7F"/>
<path d="M7.77942 24.8H23.3177V25.3559H7.77942V24.8Z" fill="#F7D280"/>
<path d="M7.35596 22.3381H23.7413V24.8264H7.35596V22.3381Z" fill="#F6BB53"/>
<path d="M38.6441 19.6913V34.8854H27.9764V19.6913C27.9764 17.2295 29.6441 15.1648 31.8941 14.556V8.6001H34.7529V14.5295C37.0029 15.1648 38.6441 17.2295 38.6441 19.6913Z" fill="#F37C5A"/>
<path d="M34.9647 7.19702H31.6558C31.5235 7.19702 31.4176 7.3029 31.4176 7.43526V9.81761C31.4176 9.94996 31.5235 10.0558 31.6558 10.0558H34.9647C35.097 10.0558 35.2029 9.94996 35.2029 9.81761V7.43526C35.2029 7.27643 35.097 7.19702 34.9647 7.19702Z" fill="#474F59"/>
<path d="M31.8941 10.0295H34.7529V10.3472H31.8941V10.0295ZM27.9764 22.3119H38.6441V28.6648H27.9764V22.3119Z" fill="#DB674C"/>
<path d="M27.9764 22.6824H38.6441V28.2941H27.9764V22.6824Z" fill="white"/>
<path d="M33.3236 22.947L28.9294 25.4882L33.3236 28.0294L37.7177 25.4882L33.3236 22.947Z" fill="#474F59"/>
<path d="M11.803 13.8413L12.2265 16.7266L12.6765 19.6913L13.0736 22.3119H15.2971V13.8413H11.803Z" fill="#25313B"/>
<path d="M15.2971 13.8413V22.3119H17.5206L17.9177 19.6913L18.3677 16.7266L18.8177 13.8413H15.2971Z" fill="#474F59"/>
<path d="M17.8911 16.7266L17.4411 19.6119V19.6913H13.1794L12.7294 16.7266H17.8911Z" fill="white"/>
<path d="M18.6059 13.3118H12.0148C11.7236 13.3118 11.4854 13.55 11.4854 13.8412H19.1354C19.1354 13.55 18.8971 13.3118 18.6059 13.3118Z" fill="#F37C5A"/>
<path d="M17.4677 12.9941H13.1265C12.9412 12.9941 12.8088 13.153 12.8088 13.3118H17.8118C17.8118 13.1265 17.653 12.9941 17.4677 12.9941Z" fill="#DB674C"/>
<path d="M15.297 19.2146C15.8526 19.2146 16.3029 18.7643 16.3029 18.2088C16.3029 17.6532 15.8526 17.2029 15.297 17.2029C14.7415 17.2029 14.2911 17.6532 14.2911 18.2088C14.2911 18.7643 14.7415 19.2146 15.297 19.2146Z" fill="#FDDA7F"/>
</svg>
