<svg width="65" height="65" viewBox="0 0 65 65" fill="none" xmlns="http://www.w3.org/2000/svg">
<circle cx="32.5" cy="32.5" r="32.5" fill="white"/>
<g clip-path="url(#clip0_33_7057)">
<path d="M21.6313 21.427C21.659 21.2693 21.6229 21.1071 21.5311 20.976C21.4392 20.845 21.2991 20.7557 21.1415 20.7279C21.0634 20.7141 20.9833 20.7158 20.9059 20.733C20.8285 20.7501 20.7552 20.7824 20.6903 20.8279C20.6253 20.8733 20.5699 20.9312 20.5273 20.9981C20.4847 21.0649 20.4558 21.1396 20.442 21.2177C20.4251 21.3136 20.1397 22.976 20.3075 24.7759L18.389 19.2013C18.3632 19.1263 18.3228 19.0571 18.2703 18.9977C18.2178 18.9383 18.1541 18.8899 18.0828 18.8551C17.9389 18.7849 17.773 18.7747 17.6215 18.8268C17.4701 18.8789 17.3456 18.989 17.2754 19.133C17.2051 19.2769 17.195 19.4428 17.2471 19.5942L18.9518 24.5474C18.915 24.481 18.8776 24.4144 18.8393 24.3473C17.7385 22.4163 16.6144 21.2203 15.4984 20.7925C15.1872 20.6731 14.8379 20.8288 14.7185 21.1402C14.6901 21.2142 14.6766 21.2931 14.6787 21.3724C14.6808 21.4516 14.6985 21.5297 14.7308 21.6021C14.7631 21.6746 14.8093 21.7399 14.8668 21.7945C14.9244 21.849 14.9921 21.8917 15.0661 21.9201C16.4013 22.432 17.7148 24.6642 18.4809 26.2667L18.9288 27.4062L21.853 26.4404L21.5755 25.2017C21.2972 23.3849 21.6272 21.4509 21.6313 21.427Z" fill="#77D057"/>
<path d="M45.1699 24.3467H38.9117L36.7865 28.4213C36.7118 28.5645 36.6728 28.7237 36.6727 28.8853V39.4807C36.6727 40.0348 37.1219 40.4839 37.676 40.4839H46.4055C46.9596 40.4839 47.4087 40.0347 47.4087 39.4807V28.8853C47.4087 28.7237 47.3698 28.5646 47.295 28.4213L45.1699 24.3467Z" fill="#E9EAEB"/>
<path d="M47.2951 28.4213L45.1699 24.3467H40.8255L42.9507 28.4213C43.0254 28.5645 43.0645 28.7237 43.0645 28.8853V39.4807C43.0645 40.0349 42.6153 40.484 42.0612 40.484H46.4056C46.9597 40.484 47.4089 40.0348 47.4089 39.4807V28.8853C47.4089 28.7237 47.3698 28.5645 47.2951 28.4213Z" fill="#C8CBCE"/>
<path d="M46.2213 25.0555H37.8604C37.699 25.0555 37.5443 24.9914 37.4302 24.8773C37.3161 24.7632 37.252 24.6084 37.252 24.4471V23.5547C37.252 23.3934 37.3161 23.2386 37.4302 23.1245C37.5443 23.0104 37.699 22.9463 37.8604 22.9463H46.2213C46.3827 22.9463 46.5375 23.0104 46.6516 23.1245C46.7657 23.2386 46.8298 23.3934 46.8298 23.5547V24.4471C46.8297 24.6084 46.7656 24.7632 46.6515 24.8773C46.5374 24.9914 46.3827 25.0555 46.2213 25.0555Z" fill="#FD9727"/>
<path d="M46.2213 22.9463H42.4691V25.0555H46.2213C46.3827 25.0555 46.5374 24.9914 46.6516 24.8773C46.7657 24.7632 46.8298 24.6084 46.8298 24.4471V23.5546C46.8297 23.3933 46.7656 23.2386 46.6515 23.1245C46.5374 23.0104 46.3827 22.9463 46.2213 22.9463Z" fill="#F9662B"/>
<path d="M44.9964 36.9461H39.0852C39.0526 36.9461 39.0203 36.9397 38.9902 36.9272C38.96 36.9147 38.9326 36.8964 38.9096 36.8734C38.8865 36.8503 38.8682 36.8229 38.8557 36.7928C38.8432 36.7626 38.8368 36.7303 38.8368 36.6977V30.7865C38.8368 30.7539 38.8432 30.7216 38.8557 30.6915C38.8682 30.6613 38.8865 30.6339 38.9096 30.6109C38.9326 30.5878 38.96 30.5695 38.9902 30.557C39.0203 30.5445 39.0526 30.5381 39.0852 30.5381H44.9964C45.0623 30.5381 45.1255 30.5643 45.1721 30.6109C45.2187 30.6574 45.2448 30.7206 45.2448 30.7865V36.6977C45.2448 36.7636 45.2187 36.8268 45.1721 36.8734C45.1255 36.92 45.0623 36.9461 44.9964 36.9461Z" fill="#5BDCFD"/>
<path d="M44.9964 30.5371H43.0645V36.9452H44.9964C45.0623 36.9452 45.1255 36.919 45.1721 36.8724C45.2187 36.8258 45.2448 36.7626 45.2448 36.6967V30.7855C45.2448 30.7197 45.2187 30.6565 45.1721 30.6099C45.1255 30.5633 45.0623 30.5371 44.9964 30.5371Z" fill="#48C7E5"/>
<path d="M33.9892 20.2605V13.4219H30.4883V20.2605C30.4883 21.5127 30.008 22.7173 29.1465 23.6259C28.2849 24.5346 27.8047 25.7391 27.8047 26.9913V46.8436C27.8047 47.523 28.3555 48.0737 29.0348 48.0737H35.4426C36.122 48.0737 36.6727 47.523 36.6727 46.8436V26.9913C36.6727 25.7391 36.1925 24.5346 35.3309 23.6259C34.4694 22.7172 33.9892 21.5127 33.9892 20.2605Z" fill="#602952"/>
<path d="M35.331 23.6259C34.4694 22.7172 33.9892 21.5127 33.9892 20.2605V13.4219H30.4883V20.2605C30.4883 20.9577 30.339 21.6398 30.0584 22.2645C30.2836 22.7664 30.592 23.2267 30.9704 23.626C31.8319 24.5347 32.3121 25.7392 32.3122 26.9914V46.8437C32.3122 47.523 31.7614 48.0738 31.082 48.0738H35.4426C36.122 48.0738 36.6728 47.523 36.6728 46.8437V26.9913C36.6727 25.7391 36.1925 24.5346 35.331 23.6259Z" fill="#4C1C40"/>
<path d="M34.2613 19.0626V13.2073C34.2613 13.1524 34.2394 13.0996 34.2006 13.0607C34.1617 13.0218 34.1089 13 34.0539 13H30.4235C30.3685 13 30.3157 13.0218 30.2769 13.0607C30.238 13.0996 30.2161 13.1524 30.2161 13.2073V19.0626C30.2161 19.1176 30.238 19.1703 30.2769 19.2092C30.3157 19.2481 30.3685 19.2699 30.4235 19.2699H34.0539C34.1089 19.2699 34.1616 19.248 34.2005 19.2092C34.2394 19.1703 34.2613 19.1176 34.2613 19.0626Z" fill="#FDC74F"/>
<path d="M36.6727 39.0563H31.476C31.3134 39.0563 31.1575 38.9918 31.0426 38.8768C30.9277 38.7619 30.8631 38.606 30.8631 38.4434V29.7203C30.8631 29.5578 30.9277 29.4019 31.0426 29.2869C31.1575 29.172 31.3134 29.1074 31.476 29.1074H36.6727V39.0563Z" fill="#E8B19C"/>
<path d="M32.3117 29.1074H36.6723V39.0566H32.3117V29.1074Z" fill="#D09C84"/>
<path d="M29.2927 47.7335L25.8934 27.8647C25.5962 26.1275 23.8128 25.0707 22.1463 25.6442L18.2502 26.9851C16.5837 27.5586 15.8284 29.4892 16.6633 31.0413L26.2117 48.7938C27.0977 50.4412 29.6082 49.5772 29.2927 47.7335Z" fill="#FD9727"/>
<path d="M29.2927 47.7335L25.8934 27.8647C25.5962 26.1275 23.8128 25.0707 22.1463 25.6442L20.7012 26.1416L26.2116 48.7938C27.0977 50.4412 29.6082 49.5772 29.2927 47.7335Z" fill="#F9662B"/>
<path d="M44.2533 52.9998H21.7466C20.6789 52.9998 19.7547 52.2577 19.5243 51.2152L16.1818 36.0977H49.8182L46.4757 51.2152C46.2452 52.2577 45.3211 52.9998 44.2533 52.9998Z" fill="#FDC74F"/>
<path d="M45.4709 36.0977L42.1285 51.2152C41.898 52.2577 40.9738 52.9998 39.9061 52.9998H44.2534C45.3211 52.9998 46.2453 52.2577 46.4757 51.2152L49.8182 36.0977H45.4709Z" fill="#FCA629"/>
<path d="M51.1245 38.6017H14.8754C14.6938 38.6017 14.5195 38.5295 14.391 38.4011C14.2625 38.2726 14.1904 38.0983 14.1904 37.9166V36.2144C14.1904 36.0327 14.2625 35.8584 14.391 35.73C14.5195 35.6015 14.6938 35.5293 14.8754 35.5293H51.1244C51.3061 35.5293 51.4804 35.6015 51.6089 35.73C51.7373 35.8584 51.8095 36.0327 51.8095 36.2144V37.9166C51.8095 38.0066 51.7918 38.0957 51.7574 38.1788C51.723 38.2619 51.6725 38.3375 51.6089 38.4011C51.5453 38.4647 51.4698 38.5152 51.3867 38.5496C51.3036 38.584 51.2145 38.6017 51.1245 38.6017Z" fill="#FC502A"/>
<path d="M51.1245 35.5293H47.449V38.6018H51.1245C51.3062 38.6018 51.4805 38.5296 51.6089 38.4011C51.7374 38.2727 51.8096 38.0984 51.8096 37.9167V36.2145C51.8096 36.0328 51.7374 35.8585 51.6089 35.73C51.4805 35.6015 51.3062 35.5293 51.1245 35.5293Z" fill="#E60D28"/>
<path d="M29.6959 49.3123C29.7014 49.3915 29.7224 49.4688 29.7578 49.5398C29.7931 49.6108 29.8422 49.6742 29.902 49.7263C29.9619 49.7783 30.0314 49.8181 30.1067 49.8433C30.1819 49.8684 30.2614 49.8785 30.3406 49.873C30.4197 49.8674 30.497 49.8463 30.568 49.8109C30.639 49.7754 30.7023 49.7263 30.7543 49.6664C30.8063 49.6065 30.8459 49.5369 30.871 49.4616C30.8961 49.3863 30.9061 49.3068 30.9005 49.2277L30.385 41.8868C30.3616 41.5541 30.0729 41.3029 29.7404 41.3268C29.6613 41.3323 29.5841 41.3534 29.5131 41.3888C29.4422 41.4242 29.3789 41.4732 29.3269 41.5331C29.2749 41.5929 29.2352 41.6624 29.21 41.7377C29.1849 41.8129 29.1748 41.8923 29.1804 41.9714L29.6959 49.3123ZM25.0364 49.9853C24.9953 49.994 24.9534 49.9984 24.9113 49.9984C24.7729 49.9982 24.6387 49.9505 24.5313 49.8632C24.4239 49.7759 24.3496 49.6544 24.3211 49.5189L22.7747 42.178C22.7417 42.0213 22.7723 41.8579 22.8597 41.7238C22.9472 41.5897 23.0843 41.4958 23.241 41.4628C23.5674 41.3937 23.8875 41.6029 23.9563 41.9291L25.5027 49.27C25.519 49.3476 25.5199 49.4277 25.5053 49.5056C25.4908 49.5835 25.461 49.6578 25.4177 49.7242C25.3744 49.7906 25.3184 49.8479 25.253 49.8927C25.1876 49.9375 25.114 49.9689 25.0364 49.9853ZM36.9063 49.3123C36.9009 49.3915 36.8798 49.4688 36.8445 49.5398C36.8091 49.6108 36.7601 49.6742 36.7002 49.7263C36.6404 49.7783 36.5708 49.8181 36.4956 49.8433C36.4203 49.8684 36.3409 49.8785 36.2617 49.873C36.1826 49.8674 36.1053 49.8463 36.0343 49.8109C35.9633 49.7754 35.9 49.7263 35.848 49.6664C35.796 49.6065 35.7563 49.5369 35.7312 49.4616C35.7061 49.3863 35.6961 49.3068 35.7018 49.2277L36.2173 41.8868C36.2406 41.5541 36.5294 41.3029 36.8619 41.3268C36.941 41.3323 37.0182 41.3534 37.0892 41.3888C37.1601 41.4242 37.2234 41.4732 37.2754 41.5331C37.3274 41.5929 37.3671 41.6624 37.3922 41.7377C37.4174 41.8129 37.4274 41.8923 37.4219 41.9714L36.9063 49.3123ZM41.5659 49.9853C41.6071 49.994 41.649 49.9984 41.691 49.9984C41.8294 49.9982 41.9636 49.9505 42.071 49.8632C42.1785 49.7759 42.2527 49.6544 42.2812 49.5189L43.8277 42.178C43.8607 42.0213 43.8301 41.8579 43.7426 41.7238C43.6552 41.5897 43.518 41.4958 43.3613 41.4628C43.0349 41.3937 42.7148 41.6029 42.6461 41.9291L41.0997 49.27C41.0833 49.3476 41.0824 49.4277 41.097 49.5056C41.1115 49.5835 41.1413 49.6578 41.1846 49.7243C41.2279 49.7907 41.2839 49.8479 41.3493 49.8927C41.4147 49.9375 41.4883 49.969 41.5659 49.9853Z" fill="white"/>
<path d="M22.0043 31.5616C22.1543 31.5084 22.2773 31.3981 22.3464 31.2547C22.4155 31.1114 22.4252 30.9465 22.3734 30.796C22.3216 30.6455 22.2125 30.5216 22.0698 30.4511C21.9271 30.3806 21.7623 30.3693 21.6114 30.4197L17.1539 31.9526L17.7335 33.0302L22.0043 31.5616ZM19.2454 35.5286L22.2527 34.551C22.4027 34.4977 22.5256 34.3875 22.5947 34.2441C22.6638 34.1007 22.6736 33.9359 22.6218 33.7854C22.57 33.6349 22.4609 33.5109 22.3182 33.4405C22.1755 33.37 22.0107 33.3587 21.8597 33.4091L18.5468 34.5422L19.0773 35.5286H19.2454Z" fill="#FDC74F"/>
</g>
<defs>
<clipPath id="clip0_33_7057">
<rect width="40" height="40" fill="white" transform="translate(13 13)"/>
</clipPath>
</defs>
</svg>
