<svg width="46" height="46" viewBox="0 0 46 46" fill="none" xmlns="http://www.w3.org/2000/svg">
<rect width="46" height="46" rx="23" fill="white"/>
<g clip-path="url(#clip0_40_11744)">
<path d="M34.3236 33.0416C34.3236 31.7753 34.8162 30.5852 35.7109 29.69C35.7985 29.6028 35.868 29.4992 35.9155 29.385C35.9629 29.2709 35.9874 29.1485 35.9875 29.0249H13.9625C11.7477 29.0249 9.9458 30.8268 9.9458 33.0416C9.9458 35.2564 11.7477 37.0583 13.9625 37.0583H35.9875C35.9875 36.8077 35.8869 36.5686 35.7111 36.3935C34.8162 35.4982 34.3236 34.308 34.3236 33.0416Z" fill="#ECF7FB"/>
<path d="M35.7111 36.3935C34.8163 35.4983 34.3235 34.308 34.3235 33.0416C34.3235 31.7753 34.8162 30.5852 35.7108 29.69C35.7985 29.6028 35.868 29.4992 35.9155 29.385C35.9629 29.2709 35.9874 29.1485 35.9875 29.0249H24.5062V37.0582H35.9875C35.9875 36.8077 35.8869 36.5686 35.7111 36.3935Z" fill="#C6E4F4"/>
<path d="M36.0542 7H13.9625C11.2308 7 9.00842 9.22244 9.00842 11.9542V33.0417C9.00842 33.166 9.05781 33.2852 9.14572 33.3731C9.23362 33.4611 9.35285 33.5104 9.47717 33.5104C9.60149 33.5104 9.72072 33.4611 9.80863 33.3731C9.89654 33.2852 9.94592 33.166 9.94592 33.0417C9.94592 30.8269 11.7478 29.025 13.9626 29.025H35.1167C36.1523 29.025 36.9917 28.1856 36.9917 27.15V7.9375C36.9917 7.41975 36.572 7 36.0542 7Z" fill="#FF7038"/>
<path d="M36.9916 27.15V7.9375C36.9916 7.41975 36.5718 7 36.0541 7H24.5062V29.025H35.1166C36.1522 29.025 36.9916 28.1856 36.9916 27.15Z" fill="#FF405C"/>
<path d="M13.9625 29.9624H36.0541C36.5719 29.9624 36.9916 29.5427 36.9916 29.0249V27.1499C36.9916 27.6677 36.5719 28.0874 36.0541 28.0874H13.9625C11.2307 28.0874 9.0083 30.3098 9.0083 33.0416C9.0083 35.7733 11.2307 37.9958 13.9625 37.9958H36.0541C36.5719 37.9958 36.9916 37.576 36.9916 37.0583C36.9916 36.5405 36.5719 36.1208 36.0541 36.1208H13.9625C12.2646 36.1208 10.8833 34.7395 10.8833 33.0416C10.8833 31.3437 12.2647 29.9624 13.9625 29.9624Z" fill="#FF405C"/>
<path d="M36.0541 29.9624C36.5718 29.9624 36.9916 29.5427 36.9916 29.0249V27.1499C36.9916 27.6677 36.5718 28.0874 36.0541 28.0874H24.5062V29.9624H36.0541ZM36.9916 37.0582C36.9916 36.5405 36.5718 36.1207 36.0541 36.1207H24.5062V37.9957H36.0541C36.5719 37.9957 36.9916 37.576 36.9916 37.0582Z" fill="#D01273"/>
<path d="M21.9958 33.0417H15.9708C15.4531 33.0417 15.0333 33.4615 15.0333 33.9792V38.0626C15.0333 38.2111 15.0686 38.3575 15.1363 38.4898C15.204 38.622 15.3021 38.7363 15.4226 38.8231C15.5431 38.91 15.6826 38.967 15.8294 38.9894C15.9763 39.0118 16.1263 38.9989 16.2673 38.9519L18.9833 38.0466L21.6993 38.9519C21.8402 38.9989 21.9903 39.0118 22.1371 38.9894C22.284 38.967 22.4234 38.91 22.5439 38.8231C22.6644 38.7363 22.7626 38.622 22.8303 38.4898C22.8979 38.3575 22.9332 38.2111 22.9332 38.0626V33.9792C22.9333 33.4614 22.5136 33.0417 21.9958 33.0417Z" fill="#FF7038"/>
<path d="M34.4158 32.1042H13.9625C13.4448 32.1042 13.025 32.524 13.025 33.0417C13.025 33.5595 13.4448 33.9792 13.9625 33.9792H34.4158C34.3549 33.6739 34.3236 33.3602 34.3236 33.0417C34.3236 32.7232 34.3549 32.4096 34.4158 32.1042Z" fill="#C6E4F4"/>
<path d="M34.3235 33.0417C34.3235 32.7232 34.3549 32.4096 34.4157 32.1042H24.5062V33.9792H34.4157C34.3543 33.6705 34.3234 33.3565 34.3235 33.0417Z" fill="#96CFEB"/>
<path d="M25.5104 18.4812H23.5021C22.9843 18.4812 22.5646 18.0615 22.5646 17.5437C22.5646 17.026 22.9843 16.6062 23.5021 16.6062H25.5104C26.0282 16.6062 26.4479 17.026 26.4479 17.5437C26.4479 18.0615 26.0282 18.4812 25.5104 18.4812Z" fill="#ECF7FB"/>
<path d="M32.0375 21.4938H28.0208C27.8511 21.4937 27.6846 21.4477 27.539 21.3605C27.3934 21.2733 27.2743 21.1482 27.1942 20.9986C27.1141 20.849 27.0762 20.6805 27.0844 20.511C27.0926 20.3415 27.1466 20.1774 27.2407 20.0363L30.2857 15.4688H28.0208C27.503 15.4688 27.0833 15.049 27.0833 14.5313C27.0833 14.0135 27.503 13.5938 28.0208 13.5938H32.0375C32.2072 13.5938 32.3736 13.6398 32.5192 13.727C32.6647 13.8142 32.7839 13.9393 32.864 14.0889C32.944 14.2385 32.982 14.407 32.9738 14.5765C32.9656 14.746 32.9116 14.9101 32.8175 15.0513L29.7725 19.6188H32.0375C32.5552 19.6188 32.975 20.0385 32.975 20.5563C32.975 21.074 32.5552 21.4938 32.0375 21.4938ZM25.5104 16.6063H24.5062V18.4813H25.5104C26.0282 18.4813 26.4479 18.0615 26.4479 17.5438C26.4479 17.026 26.0282 16.6063 25.5104 16.6063Z" fill="#C6E4F4"/>
<path d="M21.8571 20.1956L19.3466 14.1706C19.2754 13.9998 19.1553 13.8539 19.0013 13.7512C18.8473 13.6485 18.6663 13.5938 18.4812 13.5938C18.2962 13.5938 18.1152 13.6485 17.9612 13.7512C17.8072 13.8539 17.6871 13.9998 17.6159 14.1706L15.1054 20.1956C14.9063 20.6736 15.1323 21.2225 15.6102 21.4216C16.0881 21.6206 16.6371 21.3947 16.8362 20.9168L17.0142 20.4895H19.9482L20.1262 20.9168C20.3253 21.3947 20.8743 21.6206 21.3521 21.4216C21.8302 21.2225 22.0562 20.6736 21.8571 20.1956ZM17.7955 18.6145L18.4812 16.9687L19.167 18.6145H17.7955Z" fill="#ECF7FB"/>
</g>
<defs>
<clipPath id="clip0_40_11744">
<rect width="32" height="32" fill="white" transform="translate(7 7)"/>
</clipPath>
</defs>
</svg>
