<svg width="65" height="65" viewBox="0 0 65 65" fill="none" xmlns="http://www.w3.org/2000/svg">
<circle cx="32.5" cy="32.5" r="32.5" fill="white"/>
<path d="M31.1562 37.875H24.4375C24.4375 37.875 13.6875 40.3515 13.6875 42.5781L14.3594 51.9844H41.2344L41.9062 42.5781C41.9062 40.3515 31.1562 37.875 31.1562 37.875Z" fill="#A31900"/>
<path d="M39.0958 40.3613C39.1684 40.6012 39.2188 40.8478 39.2188 41.1031L38.5469 43.9229L36.5312 51.9854H41.2344L41.9062 42.5792C41.9062 41.8341 40.6989 41.0608 39.0958 40.3613Z" fill="#821400"/>
<path d="M19.3984 25.1094C18.953 25.1094 18.5257 25.2863 18.2107 25.6013C17.8957 25.9163 17.7188 26.3436 17.7188 26.7891C17.7188 27.2345 17.8957 27.6618 18.2107 27.9768C18.5257 28.2918 18.953 28.4688 19.3984 28.4688H20.4062V25.1094H19.3984ZM31.1562 39.2188V35.123L30.5771 35.4401C30.0755 35.7154 29.5126 35.8596 28.9404 35.8594H26.6527C26.0805 35.8595 25.5176 35.7153 25.016 35.4401L24.4375 35.123V39.2188C25.3285 40.1096 26.5369 40.61 27.7969 40.61C29.0568 40.61 30.2652 40.1096 31.1562 39.2188ZM36.1953 28.4688C36.6408 28.4688 37.068 28.2918 37.383 27.9768C37.698 27.6618 37.875 27.2345 37.875 26.7891C37.875 26.3436 37.698 25.9163 37.383 25.6013C37.068 25.2863 36.6408 25.1094 36.1953 25.1094H35.1875V28.4688H36.1953Z" fill="#FCE0B9"/>
<path d="M26.6533 35.8603H28.9411C29.5128 35.8603 30.0759 35.7166 30.5778 35.4411L31.1562 35.124L33.7369 33.7097C34.1909 33.3314 34.5562 32.8579 34.8068 32.3228C35.0575 31.7876 35.1875 31.2039 35.1875 30.613V22.1145C34.5512 22.314 33.874 22.4228 33.1719 22.4228H30.4844C29.0883 22.4235 27.7272 21.9867 26.5922 21.1738L20.4062 25.1103V30.613C20.4062 31.8096 20.9377 32.9437 21.8568 33.7097L24.4375 35.124L25.0167 35.4411C25.5182 35.7163 26.0812 35.8605 26.6533 35.8603ZM29.8125 31.1572C29.8125 31.4219 29.7604 31.684 29.6591 31.9286C29.5578 32.1731 29.4093 32.3953 29.2221 32.5825C29.035 32.7696 28.8128 32.9181 28.5682 33.0194C28.3237 33.1207 28.0616 33.1728 27.7969 33.1728C27.5322 33.1728 27.2701 33.1207 27.0255 33.0194C26.781 32.9181 26.5588 32.7696 26.3716 32.5825C26.1844 32.3953 26.036 32.1731 25.9347 31.9286C25.8334 31.684 25.7812 31.4219 25.7812 31.1572H29.8125Z" fill="#FCE0B9"/>
<path d="M27.7969 33.1719C28.3315 33.1719 28.8441 32.9595 29.2221 32.5815C29.6001 32.2035 29.8125 31.6908 29.8125 31.1562H25.7812C25.7812 31.6908 25.9936 32.2035 26.3716 32.5815C26.7496 32.9595 27.2623 33.1719 27.7969 33.1719Z" fill="#E18080"/>
<path d="M37.875 13.6875C37.1608 13.6875 35.4294 14.0604 34.2785 14.6207C32.6807 13.6761 29.3227 13.0156 27.125 13.0156C24.1567 13.0156 21.75 14.219 21.75 15.7031C19.895 15.7031 18.3906 17.2075 18.3906 19.0625C18.3906 20.9175 18.5512 25.1094 20.4062 25.1094L26.5922 21.1729C27.7272 21.9858 29.0883 22.4226 30.4844 22.4219H33.1719C33.874 22.4219 34.5512 22.313 35.1875 22.1135C37.9133 21.2575 39.8906 18.7118 39.8906 15.7031C39.8906 15.1685 39.6783 14.6559 39.3003 14.2779C38.9223 13.8999 38.4096 13.6875 37.875 13.6875Z" fill="#4D2817"/>
<path d="M21.75 17.0469C21.75 15.5627 24.1567 14.3594 27.125 14.3594C29.3227 14.3594 32.6807 15.0198 34.2785 15.9645C35.4294 15.4041 37.1608 15.0312 37.875 15.0312C38.8244 15.0312 39.6158 15.6904 39.8288 16.5745C39.8664 16.289 39.8906 15.9987 39.8906 15.7031C39.8906 15.1685 39.6783 14.6559 39.3003 14.2779C38.9223 13.8999 38.4096 13.6875 37.875 13.6875C37.1608 13.6875 35.4294 14.0604 34.2785 14.6207C32.6807 13.6761 29.3227 13.0156 27.125 13.0156C24.1567 13.0156 21.75 14.219 21.75 15.7031C20.859 15.7031 20.0046 16.0571 19.3746 16.6871C18.7446 17.3171 18.3906 18.1715 18.3906 19.0625C18.3906 19.3783 18.396 19.7646 18.4128 20.1839C18.5297 18.4343 19.9709 17.0469 21.75 17.0469Z" fill="#66351E"/>
<path d="M33.1719 22.4228H30.4844C29.0883 22.4235 27.7272 21.9867 26.5922 21.1738L20.4062 25.1103V26.4541L26.5922 22.5176C27.7272 23.3305 29.0883 23.7673 30.4844 23.7666H33.1719C33.874 23.7666 34.5512 23.6578 35.1875 23.4582V22.1145C34.5512 22.314 33.874 22.4228 33.1719 22.4228ZM29.6512 40.2322C30.2135 39.9949 30.7246 39.6511 31.1562 39.2197V35.124L30.5771 35.4411C30.0755 35.7163 29.5126 35.8605 28.9404 35.8603H26.6527C26.0805 35.8605 25.5176 35.7163 25.016 35.4411L24.4375 35.124V36.756L29.6512 40.2322Z" fill="#FAD3AC"/>
<path d="M42.5297 37.2031C42.1214 37.2032 41.7208 37.0922 41.3707 36.882L39.2248 35.594C39.0059 35.4624 38.7455 35.4184 38.4955 35.4707C38.2456 35.5229 38.0246 35.6676 37.8768 35.8758C37.7289 36.084 37.6652 36.3404 37.6982 36.5936C37.7313 36.8468 37.8587 37.0781 38.055 37.2414L40.3031 39.1153C40.5946 39.3578 40.8291 39.6615 40.9901 40.0049C41.151 40.3482 41.2344 40.7228 41.2344 41.102L40.5625 43.9219L38.5468 51.9844H43.25L47.2812 39.2187L42.5297 37.2031Z" fill="#FCE0B9"/>
<path d="M48.4624 41.1499L47.5668 34.4937L47.1026 31.0449C46.4515 32.0448 45.4434 32.7587 44.2839 33.0407C43.1245 33.3228 41.9012 33.1518 40.8635 32.5627L44.7073 43.3093L48.625 42.3566L48.4624 41.1499Z" fill="#606060"/>
<path d="M47.8685 34.5156H47.3659C46.8089 34.5158 46.2748 34.7371 45.881 35.131C45.4871 35.5248 45.2658 36.0589 45.2656 36.6159V39.1341C45.2656 40.2938 46.2062 41.2344 47.3659 41.2344H47.8685C49.0281 41.2344 49.9688 40.2938 49.9688 39.1341V36.6159C49.9688 35.4562 49.0281 34.5156 47.8685 34.5156Z" fill="#FCE0B9"/>
<path d="M47.7422 27.359C47.4473 26.147 46.6831 25.1018 45.6177 24.4533C44.5522 23.8048 43.2728 23.606 42.0608 23.9008C40.8665 24.1902 39.8338 24.9372 39.1852 25.981C39.6701 25.6348 40.2168 25.3844 40.7957 25.2432C42.0076 24.9484 43.2871 25.1472 44.3525 25.7957C45.418 26.4442 46.1822 27.4894 46.477 28.7014C46.6256 29.3123 46.6494 29.947 46.5471 30.5673C46.4449 31.1877 46.2186 31.7811 45.8818 32.312C46.3645 31.9699 46.7787 31.5401 47.1026 31.0449C47.4568 30.5074 47.6964 29.9028 47.8064 29.2686C47.9165 28.6344 47.8946 27.9843 47.7422 27.359Z" fill="#9E9E9E"/>
<path d="M19.0625 46.6094H20.4062V51.9844H19.0625V46.6094ZM35.1875 46.6094H36.5312V51.9844H35.1875V46.6094Z" fill="#821400"/>
<path d="M51.3125 18.3908V21.8738C51.0973 21.7942 50.87 21.7524 50.6406 21.7502C49.5293 21.7502 48.625 22.6545 48.625 23.7658C48.625 24.8771 49.5293 25.7814 50.6406 25.7814C51.7519 25.7814 52.6562 24.8771 52.6562 23.7658V18.3908H51.3125ZM49.1511 12.3594L46.4636 12.9567C46.3143 12.99 46.1809 13.0732 46.0852 13.1925C45.9896 13.3118 45.9375 13.4602 45.9375 13.6131V17.0961C45.7223 17.0165 45.495 16.9747 45.2656 16.9725C44.1543 16.9725 43.25 17.8768 43.25 18.9881C43.25 20.0994 44.1543 21.0037 45.2656 21.0037C46.3769 21.0037 47.2812 20.0994 47.2812 18.9881V14.1513L49.4427 13.6715L49.1511 12.3594Z" fill="#EACA65"/>
<path d="M45.2656 20.3914C44.8515 20.3902 44.4479 20.2613 44.1098 20.0222C43.7717 19.7832 43.5155 19.4457 43.3763 19.0557C43.3393 19.1582 43.3099 19.2633 43.2883 19.3701C43.3771 19.8296 43.623 20.2439 43.9837 20.542C44.3445 20.8401 44.7976 21.0035 45.2656 21.0041C46.3769 21.0041 47.2812 20.0998 47.2812 18.9885V18.3758C47.2812 19.487 46.3769 20.3914 45.2656 20.3914ZM50.6406 25.11C50.1652 25.1089 49.7055 24.9397 49.3429 24.6323C48.9802 24.3249 48.7381 23.8991 48.6592 23.4303C48.6383 23.5411 48.6268 23.6535 48.625 23.7662C48.625 24.8775 49.5293 25.7818 50.6406 25.7818C51.7519 25.7818 52.6562 24.8775 52.6562 23.7662V23.0943C52.6562 24.2056 51.7519 25.11 50.6406 25.11ZM49.1551 13.123L47.2812 13.5389V14.1517L49.2848 13.7076L49.1551 13.123Z" fill="#CFB259"/>
<path d="M24.4375 29.1406C24.8086 29.1406 25.1094 28.6894 25.1094 28.1328C25.1094 27.5762 24.8086 27.125 24.4375 27.125C24.0664 27.125 23.7656 27.5762 23.7656 28.1328C23.7656 28.6894 24.0664 29.1406 24.4375 29.1406Z" fill="#2B2210"/>
<path d="M31.1562 29.1406C31.5273 29.1406 31.8281 28.6894 31.8281 28.1328C31.8281 27.5762 31.5273 27.125 31.1562 27.125C30.7852 27.125 30.4844 27.5762 30.4844 28.1328C30.4844 28.6894 30.7852 29.1406 31.1562 29.1406Z" fill="#2B2210"/>
<path d="M24.7734 28.4688C24.959 28.4688 25.1094 28.3183 25.1094 28.1328C25.1094 27.9473 24.959 27.7969 24.7734 27.7969C24.5879 27.7969 24.4375 27.9473 24.4375 28.1328C24.4375 28.3183 24.5879 28.4688 24.7734 28.4688Z" fill="white"/>
<path d="M31.4922 28.4688C31.6777 28.4688 31.8281 28.3183 31.8281 28.1328C31.8281 27.9473 31.6777 27.7969 31.4922 27.7969C31.3067 27.7969 31.1562 27.9473 31.1562 28.1328C31.1562 28.3183 31.3067 28.4688 31.4922 28.4688Z" fill="white"/>
</svg>
