<svg width="46" height="46" viewBox="0 0 46 46" fill="none" xmlns="http://www.w3.org/2000/svg">
<rect width="46" height="46" rx="23" fill="white"/>
<g clip-path="url(#clip0_84_1133)">
<path d="M23.5 41C33.165 41 41 33.165 41 23.5C41 13.835 33.165 6 23.5 6C13.835 6 6 13.835 6 23.5C6 33.165 13.835 41 23.5 41Z" fill="#EE4B68"/>
<path d="M41 23.5C41 30.0352 37.418 35.7227 32.1406 38.7305C31.4023 39.1406 30.6367 39.5234 29.8164 39.8242C29.625 39.9062 29.4336 39.9609 29.2422 40.043C27.4375 40.6719 25.5234 41 23.5 41C23.1719 41 22.8438 41 22.5156 40.9727C22.4062 40.9727 22.2969 40.9453 22.1875 40.9453C21.9688 40.9453 21.7773 40.918 21.5859 40.8906H21.5586C21.2578 40.8633 20.957 40.8086 20.6836 40.7812C19.7539 40.6172 18.8242 40.3984 17.9492 40.0977C17.7031 40.0156 17.457 39.9336 17.2109 39.8242C17.1836 39.8242 17.1562 39.7969 17.1289 39.7969C16.9375 39.7148 16.7734 39.6602 16.582 39.5781C16.1992 39.4141 15.8164 39.2227 15.4336 39.0312C11.9883 37.2266 9.19922 34.3281 7.58594 30.7734C6.54688 28.5586 6 26.0977 6 23.5C6 13.8477 13.8477 6 23.5 6C33.1523 6 41 13.8477 41 23.5Z" fill="#EE4B68"/>
<path d="M33.8359 30.9102C26.4805 36.7891 20.4922 36.7891 13.1641 30.9102C15.8711 26.125 16.0898 20.8477 16.7188 15.1328C17.0195 11.4141 19.6992 9.08984 23.418 9.08984H23.5547C27.3008 9.11719 29.9531 11.4141 30.2539 15.1328C30.9102 20.8477 31.1289 26.125 33.8359 30.9102Z" fill="#343843"/>
<path d="M18.2655 21.044C18.8839 20.903 19.1703 19.8458 18.9052 18.6826C18.64 17.5194 17.9238 16.6907 17.3054 16.8317C16.687 16.9726 16.4006 18.0299 16.6657 19.1931C16.9308 20.3562 17.6471 21.1849 18.2655 21.044Z" fill="#F8CFA3"/>
<path d="M18.1407 20.5742C17.8672 20.5742 17.3477 20.0273 17.1289 19.0703C16.9102 18.0859 17.1563 17.3203 17.4297 17.2656H17.4571C17.7305 17.2656 18.25 17.8125 18.4688 18.7695C18.5782 19.2617 18.5782 19.7539 18.4961 20.1094C18.4141 20.3555 18.3047 20.5469 18.1953 20.5742H18.1407Z" fill="#F1B97C"/>
<path d="M30.3355 19.169C30.6005 18.0057 30.3139 16.9486 29.6955 16.8077C29.077 16.6669 28.3609 17.4957 28.096 18.6589C27.8311 19.8221 28.1177 20.8793 28.7361 21.0202C29.3545 21.161 30.0706 20.3322 30.3355 19.169Z" fill="#F8CFA3"/>
<path d="M28.8594 20.5744H28.8321C28.7227 20.547 28.586 20.3556 28.5313 20.1095C28.4219 19.7267 28.4493 19.2619 28.5586 18.7697C28.7774 17.7853 29.3516 17.2111 29.625 17.2658C29.8985 17.3205 30.1446 18.0861 29.9258 19.0705C29.6524 20.0549 29.1329 20.5744 28.8594 20.5744Z" fill="#F1B97C"/>
<path d="M19.7812 27.3008L20.1641 25.5781L20.793 25.25L26.2344 25.1953L27.4375 26.8086L27.1367 27.3008H19.7812Z" fill="#E7E7E8"/>
<path d="M35.668 33.4531V36.0508C32.5234 39.1133 28.2305 41 23.5 41C18.7695 41 14.4766 39.1133 11.332 36.0781V33.4805C11.6602 29.8711 13.875 29.3789 14.8867 29.3516C15.4609 29.3242 16.0078 29.2695 16.5547 29.1328C20.8477 28.0664 20.875 25.4687 20.875 25.4687V23.0078H26.125V25.4687C26.125 25.4687 26.1523 28.0664 30.4453 29.1328C30.9922 29.2695 31.5391 29.3242 32.1133 29.3516C33.125 29.3789 35.3398 29.8711 35.668 33.4531Z" fill="#F1B97C"/>
<path d="M35.668 33.4531V36.0508C32.5234 39.1133 28.2305 41 23.5 41C18.7695 41 14.4766 39.1133 11.332 36.0781V33.4805C11.6602 29.8711 13.875 29.3789 14.8867 29.3516C15.4609 29.3242 16.0078 29.2695 16.5547 29.1328C18.3867 28.668 19.4531 27.9297 20.0547 27.2461L21.1484 29.543L23.5 35.2578L26.2344 28.9961L27.1641 27.4648C27.793 28.0938 28.832 28.7227 30.4727 29.1328C31.0195 29.2695 31.5664 29.3242 32.1406 29.3516C33.125 29.3789 35.3398 29.8711 35.668 33.4531Z" fill="#E9BB06"/>
<path d="M29.2969 18.2227C29.2969 21.7227 26.6992 25.9336 23.5 25.9336C20.3008 25.9336 17.7031 21.7227 17.7031 18.2227C17.7031 14.7227 20.3008 11.9062 23.5 11.9062C26.6992 11.9062 29.2969 14.7227 29.2969 18.2227Z" fill="#F8CFA3"/>
<path d="M26.7812 27.957C26.1523 31.8672 23.8008 35.8594 23.5273 36.3242C23.5273 36.3516 23.5 36.3516 23.4727 36.3242C23.1992 35.8594 20.8477 31.8672 20.2188 27.957L20.5742 27.8477L21.0938 28.2578L21.5586 28.9414C21.5586 28.9414 22.5703 31.9219 23.4727 34.1094C24.4023 31.9219 25.3867 28.9414 25.3867 28.9414L25.8516 28.2578L26.3711 27.8477L26.7812 27.957Z" fill="#E7E7E8"/>
<path d="M29.2969 29.0234L29.5703 31.1289C29.5703 31.1289 28.6406 29.7344 27.6562 28.75C27.0273 28.0938 25.9609 28.1484 25.4141 28.8867C25.4141 28.8867 25.4141 28.9141 25.3867 28.9141C25.3867 28.9141 25.5234 28.4219 26.2617 27.5195C26.4531 27.3008 26.5625 27.0547 26.5898 26.8086C26.6719 26.2891 26.5078 25.7422 26.0703 25.4141V25.0586C26.4805 25.168 27 25.3867 27.5469 25.8516C28.5313 26.6719 29.1328 27.8203 29.2969 29.0234ZM21.5859 28.9141C21.5859 28.9141 21.5859 28.8867 21.5586 28.8867C21.0117 28.1484 19.9453 28.0938 19.3164 28.75C18.3594 29.7617 17.4023 31.1289 17.4023 31.1289L17.6758 29.0234C17.8398 27.793 18.4414 26.6719 19.3711 25.8516C19.918 25.3867 20.4102 25.168 20.8477 25.0586V25.4141C20.4375 25.7422 20.2461 26.2891 20.3281 26.8086C20.3828 27.0547 20.4922 27.3008 20.6562 27.5195C21.4492 28.4219 21.5859 28.9141 21.5859 28.9141Z" fill="#FCFCFC"/>
<path d="M30.5273 19.3164L30.6914 19.1523C30.582 18.1953 30.5 17.2383 30.3906 16.2812C30.1172 15.9258 29.8438 15.5977 29.6523 15.2969L28.7773 13.7656L26.125 10.5117L23.7461 9.0625H23.418C19.6992 9.08984 17.0195 11.3867 16.7188 15.1055C16.6094 16.1719 16.5 17.2383 16.3906 18.2773C18.25 17.3477 20.2461 15.625 21.3398 12.3711C23.7461 19.5352 30.5273 19.3164 30.5273 19.3164Z" fill="#343843"/>
<path d="M27.5195 17.3203C27.793 17.457 28.4766 17.8125 29.8711 18.0859C29.5156 17.9492 28.5859 17.6758 27.4922 17.0742C28.5039 17.5391 29.0508 17.6484 29.6797 17.7852C29.3516 17.6758 28.4766 17.4023 27.4648 16.8281C28.4492 17.293 28.9961 17.375 29.4883 17.457C29.1875 17.3477 28.3672 17.1016 27.4375 16.582C28.3672 17.0195 28.9141 17.1016 29.2969 17.1562C28.9414 17.0195 28.1758 16.8008 27.1094 16.1445C28.0391 16.6641 28.75 16.8008 29.3242 16.9102C28.9688 16.7734 28.2305 16.5547 27.2188 15.9258C28.2031 16.4727 28.9961 16.582 29.3242 16.6641C28.8867 16.5 28.2578 16.3086 27.3281 15.7344C28.2031 16.1992 28.9141 16.3359 29.3242 16.418C28.6953 16.1719 28.3125 16.0625 27.4102 15.5156C28.2578 15.9805 28.8047 16.0625 29.3242 16.1719C27.2734 15.3516 25.6602 14.1758 24.7031 12.0977C24.6758 12.0156 24.6211 11.9609 24.6211 11.9063C24.7852 12.6445 25.25 13.4648 25.4687 13.7383C25.1406 13.3555 24.5391 12.3711 24.375 11.8516C24.4297 12.2891 24.7578 13.1367 25.2773 13.875C24.7305 13.1914 24.2656 12.2891 24.1016 11.8516C24.1836 12.2891 24.4844 13.1094 25.0586 13.9844C24.457 13.1914 23.9922 12.3164 23.8281 11.8789C23.8828 12.2617 24.1836 13.1641 24.8398 14.1211C24.1836 13.2461 23.7461 12.4258 23.5547 11.9063C23.6094 12.2891 23.8828 13.0273 24.2383 13.6289C23.7461 12.918 23.3906 12.1523 23.2539 11.7422C23.3359 12.1523 23.6094 12.9453 23.9922 13.6016C23.4727 12.8359 23.0898 12.0156 22.9258 11.5781C23.0078 12.0156 23.3359 12.8906 23.7461 13.6016C23.3359 12.9727 22.8438 12.0703 22.625 11.4141C22.707 11.8516 23.0352 12.8086 23.5273 13.6016C23.0898 12.9453 22.5703 11.9883 22.3242 11.2773C22.5977 12.7812 24.5938 17.293 30.0625 18.3867C29.543 18.2227 28.668 17.9766 27.5195 17.3203ZM20.0273 13.7383C20.2734 13.1367 20.3828 12.6719 20.4375 12.043C20.2461 12.7539 20.1641 13.0547 19.8633 13.6836C20.1094 13.1094 20.1914 12.6719 20.2461 12.0703C20.0547 12.7813 20 13 19.6992 13.6289C19.918 13.082 20 12.6992 20.0547 12.0703C19.5625 13.7656 18.8242 15.2695 17.0195 16.1172C17.375 16.0352 18.0313 15.6797 18.4414 15.2969C18.1133 15.625 17.4023 16.1445 17.0469 16.3086C17.375 16.2266 17.9766 15.9258 18.5508 15.4336C18.0313 15.9531 17.375 16.3633 17.0742 16.5C17.4297 16.418 18.0312 16.1172 18.6602 15.5703C18.1133 16.0898 17.4844 16.5273 17.1016 16.6914C17.4844 16.582 18.1133 16.2812 18.7695 15.707C18.4961 15.9531 20.3555 14.6953 20.6016 12.0156C20.4375 12.8359 20.3281 13.1367 20.0273 13.7383Z" fill="#454652"/>
</g>
<defs>
<clipPath id="clip0_84_1133">
<rect width="35" height="35" fill="white" transform="translate(6 6)"/>
</clipPath>
</defs>
</svg>
