<svg width="65" height="65" viewBox="0 0 65 65" fill="none" xmlns="http://www.w3.org/2000/svg">
<circle cx="32.5" cy="32.5" r="32.5" fill="white"/>
<path d="M18.1394 17.6074H27.8364V46.4862H18.1394V17.6074Z" fill="#EBB99C"/>
<path d="M25.8788 37.4194V23.6315C25.8788 23.383 25.6728 23.177 25.4243 23.177C25.1758 23.177 24.9697 23.383 24.9697 23.6315V37.4194H25.8788ZM20.5576 40.1164C20.3091 40.1164 20.1031 39.9103 20.1031 39.6618V23.6315C20.1031 23.383 20.3091 23.177 20.5576 23.177C20.8061 23.177 21.0122 23.383 21.0122 23.6315V39.6618C21.0122 39.9103 20.8061 40.1164 20.5576 40.1164ZM22.994 42.7406C22.7455 42.7406 22.5394 42.5346 22.5394 42.2861V21.0073C22.5394 20.7588 22.7455 20.5527 22.994 20.5527C23.2425 20.5527 23.4485 20.7588 23.4485 21.0073V42.2861C23.4485 42.5346 23.2425 42.7406 22.994 42.7406ZM16.0909 46.4861H29.8909V49.0436H16.0909V46.4861Z" fill="#F38177"/>
<path d="M13.9818 49.043H32V51.6005H13.9818V49.043Z" fill="#EBB99C"/>
<path d="M49.4848 18.8673C48.3273 17.9097 46.6 18.0794 45.5333 19.146L38.097 26.5763C36.9757 27.6976 36.9757 29.5218 38.097 30.6491C39.2182 31.7763 41.0424 31.7703 42.1697 30.6491L49.6909 23.1279C49.9747 22.8437 50.1961 22.5034 50.3407 22.1286C50.4853 21.7539 50.5499 21.3531 50.5305 20.952C50.5111 20.5508 50.4081 20.1581 50.228 19.7991C50.0479 19.4401 49.7948 19.1227 49.4848 18.8673Z" fill="#FCB73E"/>
<path d="M49.4 45.8496H21.5939C20.4667 45.8496 19.5515 46.7648 19.5515 47.892C19.5515 49.0193 20.4667 49.9345 21.5939 49.9345H49.4C49.0455 49.3121 48.8591 48.6082 48.8591 47.892C48.8591 47.1758 49.0455 46.4719 49.4 45.8496Z" fill="#E7E7E7"/>
<path d="M49.4 45.8496H48.1879C47.8334 46.4708 47.647 47.1737 47.647 47.889C47.647 48.6043 47.8334 49.3072 48.1879 49.9284H49.4C49.0455 49.3072 48.8591 48.6043 48.8591 47.889C48.8591 47.1737 49.0455 46.4708 49.4 45.8496Z" fill="black" fill-opacity="0.0627451"/>
<path d="M25.0909 38.0547H43.8C44.9273 38.0547 45.8425 38.9698 45.8425 40.0971C45.8425 41.2244 44.9273 42.1395 43.8 42.1395H25.0909C25.4454 41.5172 25.6318 40.8133 25.6318 40.0971C25.6318 39.3809 25.4454 38.677 25.0909 38.0547Z" fill="#E7E7E7"/>
<path d="M41.8242 40.3817L40.3757 39.2847L38.9272 40.3817V37.1211H41.8242V40.3817Z" fill="#3D5670"/>
<path d="M28.9758 48.1278L27.5273 47.0308L26.0788 48.1278V44.8672H28.9758V48.1278Z" fill="#D9903B"/>
<path d="M49.7879 49.9275H21.5939C20.3273 49.9275 19.3333 48.776 19.6 47.4608C19.7939 46.5093 20.6788 45.8487 21.6485 45.8487H49.7939C50.3091 45.8487 50.7212 45.4305 50.7212 44.9214C50.7212 44.4123 50.303 43.9941 49.7939 43.9941H21.7576C19.6242 43.9941 17.7636 45.6366 17.697 47.7699C17.681 48.2917 17.7699 48.8114 17.9586 49.2982C18.1472 49.7849 18.4317 50.2289 18.7952 50.6036C19.1586 50.9784 19.5936 51.2763 20.0744 51.4798C20.5552 51.6832 21.0719 51.7881 21.5939 51.7881H49.7939C50.3091 51.7881 50.7212 51.3699 50.7212 50.8608C50.7212 50.3457 50.303 49.9275 49.7879 49.9275Z" fill="#3D5670"/>
<g opacity="0.1">
<path d="M49.5091 44.9214C49.5091 45.4366 49.0909 45.8487 48.5818 45.8487H49.7939C50.3091 45.8487 50.7212 45.4305 50.7212 44.9214C50.7212 44.4123 50.303 43.9941 49.7939 43.9941H48.5818C49.0909 43.9941 49.5091 44.4063 49.5091 44.9214ZM49.7879 49.9275H48.5757C48.8217 49.9275 49.0575 50.0252 49.2314 50.1991C49.4053 50.373 49.503 50.6088 49.503 50.8547C49.503 51.1007 49.4053 51.3365 49.2314 51.5104C49.0575 51.6843 48.8217 51.782 48.5757 51.782H49.7879C50.303 51.782 50.7151 51.3638 50.7151 50.8547C50.7212 50.3457 50.303 49.9275 49.7879 49.9275Z" fill="black"/>
</g>
<path d="M24.697 42.1345H43.8C45.0667 42.1345 46.0606 40.983 45.794 39.6678C45.6 38.7163 44.7152 38.0557 43.7455 38.0557H24.697C24.1818 38.0557 23.7697 37.6375 23.7697 37.1284C23.7697 36.6194 24.1879 36.2012 24.697 36.2012H43.6364C45.7697 36.2012 47.6303 37.8436 47.697 39.9769C47.713 40.4987 47.624 41.0184 47.4354 41.5052C47.2467 41.992 46.9622 42.4359 46.5988 42.8106C46.2353 43.1854 45.8003 43.4833 45.3196 43.6868C44.8388 43.8903 44.3221 43.9951 43.8 43.9951H24.697C24.1818 43.9951 23.7697 43.5769 23.7697 43.0678C23.7697 42.5466 24.1879 42.1345 24.697 42.1345Z" fill="#55A6EF"/>
<path d="M43.6364 36.1953H42.4243C44.5576 36.1953 46.4182 37.8377 46.4849 39.9711C46.5008 40.4929 46.4119 41.0126 46.2232 41.4993C46.0346 41.9861 45.7501 42.43 45.3867 42.8048C45.0232 43.1795 44.5882 43.4775 44.1074 43.6809C43.6267 43.8844 43.1099 43.9893 42.5879 43.9893H43.8C45.994 43.9893 47.7636 42.1771 47.697 39.9711C47.6303 37.8377 45.7697 36.1953 43.6364 36.1953Z" fill="black" fill-opacity="0.0627451"/>
<path d="M29.303 14.2129H16.6788C14.8061 14.2129 13.2849 15.7341 13.2849 17.6068C13.2849 19.4796 14.8061 21.0008 16.6788 21.0008C18.5515 21.0008 20.0727 19.4796 20.0727 17.6068H25.9091C25.9091 19.4796 27.4303 21.0008 29.303 21.0008C31.1758 21.0008 32.697 19.4796 32.697 17.6068C32.697 15.7341 31.1818 14.2129 29.303 14.2129Z" fill="#F38177"/>
<path d="M48.2667 22.3403H47.0546L47.8667 21.5282C48.0425 21.3525 48.0425 21.0616 47.8667 20.8858C47.6909 20.71 47.4 20.71 47.2243 20.8858L46.4122 21.6979V20.4858C46.4122 20.2373 46.2061 20.0312 45.9576 20.0312C45.7091 20.0312 45.5031 20.2373 45.5031 20.4858V22.607L44.7515 23.3585V22.1464C44.7515 21.8979 44.5455 21.6919 44.297 21.6919C44.0485 21.6919 43.8425 21.8979 43.8425 22.1464V24.2676L43.0909 25.0191V23.807C43.0909 23.5585 42.8849 23.3525 42.6364 23.3525C42.3879 23.3525 42.1818 23.5585 42.1818 23.807V25.9282L41.4303 26.6797V25.4676C41.4303 25.2191 41.2243 25.0131 40.9758 25.0131C40.7273 25.0131 40.5212 25.2191 40.5212 25.4676V27.5888L39.7697 28.3403V27.1282C39.7697 26.8797 39.5637 26.6737 39.3152 26.6737C39.0667 26.6737 38.8606 26.8797 38.8606 27.1282V29.2494L34.1273 33.9828C33.9515 34.1585 33.9515 34.4494 34.1273 34.6252C34.2182 34.7161 34.3334 34.7585 34.4485 34.7585C34.5637 34.7585 34.6788 34.7161 34.7697 34.6252L39.5031 29.8919H41.6243C41.8728 29.8919 42.0788 29.6858 42.0788 29.4373C42.0788 29.1888 41.8728 28.9828 41.6243 28.9828H40.4122L41.1637 28.2312H43.2849C43.5334 28.2312 43.7394 28.0252 43.7394 27.7767C43.7394 27.5282 43.5334 27.3222 43.2849 27.3222H42.0728L42.8243 26.5706H44.9455C45.194 26.5706 45.4 26.3646 45.4 26.1161C45.4 25.8676 45.194 25.6616 44.9455 25.6616H43.7334L44.4849 24.91H46.6061C46.8546 24.91 47.0606 24.704 47.0606 24.4555C47.0606 24.207 46.8546 24.0009 46.6061 24.0009H45.394L46.1455 23.2494H48.2667C48.5152 23.2494 48.7212 23.0434 48.7212 22.7949C48.7212 22.5464 48.5152 22.3403 48.2667 22.3403Z" fill="#D9903B"/>
<path d="M16.6788 19.1221C17.5156 19.1221 18.1939 18.4437 18.1939 17.6069C18.1939 16.7702 17.5156 16.0918 16.6788 16.0918C15.842 16.0918 15.1636 16.7702 15.1636 17.6069C15.1636 18.4437 15.842 19.1221 16.6788 19.1221Z" fill="#EBB99C"/>
<path d="M29.3031 19.1221C30.1398 19.1221 30.8182 18.4437 30.8182 17.6069C30.8182 16.7702 30.1398 16.0918 29.3031 16.0918C28.4663 16.0918 27.7879 16.7702 27.7879 17.6069C27.7879 18.4437 28.4663 19.1221 29.3031 19.1221Z" fill="#EBB99C"/>
<path d="M49.4848 18.8678C49.3273 18.7406 49.1636 18.6315 48.9879 18.5466C49.5576 19.6315 49.3939 21.0012 48.4788 21.9163L40.9576 29.4375C40.0485 30.3466 38.6788 30.5103 37.5939 29.9406C37.7272 30.1951 37.8848 30.4375 38.0969 30.6497C39.2182 31.7709 41.0424 31.7709 42.1697 30.6497L49.6909 23.1284C49.9747 22.8443 50.1961 22.5039 50.3407 22.1292C50.4852 21.7545 50.5499 21.3537 50.5305 20.9526C50.5111 20.5514 50.4081 20.1587 50.228 19.7997C50.0479 19.4407 49.7948 19.1233 49.4848 18.8678ZM17.2363 16.2012C17.303 16.3769 17.3454 16.5648 17.3454 16.7648C17.3454 17.1667 17.1858 17.552 16.9017 17.8362C16.6175 18.1203 16.2321 18.28 15.8303 18.28C15.6363 18.28 15.4485 18.2375 15.2727 18.1709C15.4038 18.4974 15.6445 18.7681 15.9534 18.9366C16.2624 19.1051 16.6203 19.1607 16.9658 19.0941C17.3113 19.0274 17.6229 18.8426 17.8469 18.5713C18.071 18.3 18.1937 17.9591 18.1939 17.6072C18.1939 16.9709 17.7939 16.4254 17.2363 16.2012ZM29.8666 16.2012C29.9333 16.3769 29.9757 16.5648 29.9757 16.7648C29.9757 17.1667 29.8161 17.552 29.532 17.8362C29.2478 18.1203 28.8624 18.28 28.4606 18.28C28.2606 18.28 28.0727 18.2375 27.8969 18.1709C27.9901 18.4036 28.1396 18.6096 28.3319 18.7704C28.5243 18.9312 28.7535 19.0417 28.9991 19.0921C29.2447 19.1424 29.499 19.1311 29.7391 19.059C29.9792 18.987 30.1977 18.8565 30.375 18.6792C30.5522 18.5019 30.6828 18.2834 30.7548 18.0433C30.8269 17.8032 30.8382 17.5489 30.7878 17.3034C30.7375 17.0578 30.6269 16.8285 30.4662 16.6362C30.3054 16.4438 30.0994 16.2943 29.8666 16.2012Z" fill="black" fill-opacity="0.0627451"/>
</svg>
