<svg width="65" height="65" viewBox="0 0 65 65" fill="none" xmlns="http://www.w3.org/2000/svg">
<circle cx="32.5" cy="32.5" r="32.5" fill="white"/>
<g clip-path="url(#clip0_40_11074)">
<path d="M35.4304 33.4121H38.1331V38.3819H35.4304V33.4121Z" fill="#FECF05"/>
<path d="M30.0196 29.1231C30.0097 29.1231 29.9997 29.1228 29.9898 29.1219C28.0372 28.9512 26.2072 27.7748 24.8366 25.8097C23.3702 23.7078 22.5628 20.9206 22.5628 17.962C22.5628 17.7201 22.7593 17.5234 23.0009 17.5234H27.1529C27.2386 17.5235 27.3211 17.5557 27.3842 17.6138C27.4472 17.6718 27.4861 17.7515 27.4932 17.8369C27.5356 18.3478 27.5884 18.8578 27.6516 19.3666C27.6576 19.4146 27.6534 19.4634 27.6391 19.5097C27.6248 19.556 27.6008 19.5987 27.5688 19.635C27.5367 19.6713 27.4973 19.7004 27.4532 19.7203C27.409 19.7402 27.3611 19.7505 27.3127 19.7505H25.3334C25.2244 19.7505 25.1215 19.7982 25.051 19.8814C25.0163 19.9224 24.9909 19.9705 24.9766 20.0224C24.9624 20.0742 24.9595 20.1285 24.9682 20.1815C25.272 22.0128 25.9052 23.7538 26.6617 24.8384C27.5106 26.0556 28.4359 26.867 29.3378 27.1854C29.381 27.2006 29.4208 27.2243 29.4546 27.2552C29.4885 27.2861 29.5158 27.3235 29.5349 27.3652C29.6521 27.6214 29.7727 27.7806 29.9004 27.9489C30.0169 28.1024 30.1373 28.2609 30.2614 28.5051C30.2818 28.5447 30.3023 28.5847 30.3228 28.6244C30.3498 28.6764 30.363 28.7346 30.361 28.7932C30.359 28.8518 30.342 28.9089 30.3115 28.959C30.281 29.0091 30.2382 29.0506 30.187 29.0793C30.1359 29.108 30.0783 29.1231 30.0196 29.1231ZM43.5432 29.1231C43.4871 29.1231 43.4318 29.1093 43.3824 29.0829C43.3329 29.0565 43.2906 29.0183 43.2594 28.9717C43.2254 28.9208 43.2057 28.8617 43.2023 28.8005C43.1989 28.7394 43.2119 28.6785 43.24 28.6241C43.2606 28.5845 43.281 28.5447 43.3014 28.5049C43.4253 28.2612 43.5459 28.1024 43.6623 27.9489C43.7903 27.7806 43.9108 27.6214 44.028 27.3652C44.0471 27.3235 44.0743 27.2861 44.1082 27.2552C44.142 27.2243 44.1817 27.2006 44.2249 27.1854C45.1267 26.867 46.0522 26.0556 46.9011 24.8384C47.6578 23.7536 48.2909 22.0127 48.5946 20.1817C48.6035 20.1286 48.6007 20.0743 48.5864 20.0224C48.5722 19.9706 48.5468 19.9225 48.512 19.8814C48.4773 19.8404 48.434 19.8074 48.3852 19.7848C48.3364 19.7622 48.2832 19.7505 48.2295 19.7505H46.25C46.2016 19.7505 46.1537 19.7402 46.1096 19.7203C46.0654 19.7005 46.026 19.6714 45.9939 19.6352C45.9619 19.5988 45.938 19.5561 45.9237 19.5098C45.9094 19.4635 45.9051 19.4147 45.911 19.3666C45.9743 18.8578 46.0271 18.3478 46.0696 17.8369C46.0766 17.7515 46.1155 17.6718 46.1786 17.6138C46.2416 17.5557 46.3241 17.5235 46.4098 17.5234H50.5618C50.8034 17.5234 51 17.7201 51 17.962C51 20.9209 50.1926 23.7079 48.7261 25.8097C47.3556 27.7748 45.5256 28.9512 43.573 29.1219C43.5629 29.1228 43.5531 29.1231 43.5432 29.1231Z" fill="#F8B816"/>
<path d="M46.5231 15.0527C46.4741 15.0026 46.4156 14.9629 46.3509 14.9357C46.2863 14.9085 46.2169 14.8945 46.1469 14.8945H27.4158C27.3457 14.8945 27.2762 14.9085 27.2116 14.9357C27.1469 14.9629 27.0883 15.0028 27.0393 15.0529C26.9903 15.1031 26.9517 15.1625 26.926 15.2277C26.9002 15.293 26.8877 15.3627 26.8893 15.4328C26.9955 20.4567 28.0363 25.1544 29.8202 28.6602C31.0266 31.0308 32.4986 32.7057 34.1097 33.5838H39.4531C41.0642 32.7058 42.5362 31.0308 43.7426 28.6602C45.5265 25.1544 46.5672 20.4567 46.6735 15.4328C46.675 15.3627 46.6624 15.2929 46.6366 15.2276C46.6108 15.1624 46.5722 15.1029 46.5231 15.0527Z" fill="#FECF05"/>
<path d="M35.778 33.5838C34.1657 32.7066 32.6925 31.0322 31.4854 28.6602C29.7015 25.1544 28.6607 20.4567 28.5544 15.4328C28.5529 15.3627 28.5654 15.293 28.5912 15.2278C28.617 15.1626 28.6555 15.1032 28.7046 15.053C28.7536 15.0029 28.8122 14.9631 28.8768 14.9358C28.9414 14.9086 29.0108 14.8946 29.081 14.8945H27.4158C27.3457 14.8945 27.2762 14.9085 27.2116 14.9357C27.1469 14.9629 27.0883 15.0028 27.0393 15.0529C26.9903 15.1031 26.9517 15.1625 26.926 15.2277C26.9002 15.293 26.8877 15.3627 26.8893 15.4328C26.9955 20.4567 28.0363 25.1544 29.8202 28.6602C31.0266 31.0308 32.4986 32.7057 34.1097 33.5838H35.778Z" fill="black" fill-opacity="0.1"/>
<path d="M40.1088 40.6417V38.6943C40.1088 38.6311 40.0964 38.5685 40.0722 38.5101C40.0481 38.4517 40.0126 38.3986 39.968 38.3539C39.9233 38.3092 39.8702 38.2738 39.8119 38.2496C39.7535 38.2254 39.6909 38.2129 39.6277 38.2129H33.9352C33.872 38.2129 33.8094 38.2253 33.751 38.2495C33.6926 38.2737 33.6395 38.3092 33.5949 38.3539C33.5502 38.3986 33.5147 38.4517 33.4906 38.5101C33.4664 38.5685 33.454 38.6311 33.454 38.6943V40.6417H40.1088Z" fill="#F8B816"/>
<path d="M42.2617 47.0967V40.8627C42.2617 40.6578 42.0942 40.4902 41.8895 40.4902H31.6733C31.4685 40.4902 31.301 40.6578 31.301 40.8627V47.0967H42.2617Z" fill="#A67C52"/>
<path d="M44.4148 48.4884C44.4148 48.6933 44.2473 48.8609 44.0426 48.8609H29.5202C29.3155 48.8609 29.1479 48.6933 29.1479 48.4884V47.3216C29.1479 47.1168 29.3155 46.9492 29.5202 46.9492H44.0425C44.2473 46.9492 44.4147 47.1168 44.4147 47.3216V48.4884H44.4148Z" fill="#8C6239"/>
<path d="M40.2556 45.0775C40.2554 45.1367 40.2319 45.1934 40.19 45.2353C40.1482 45.2772 40.0915 45.3008 40.0323 45.301H33.5306C33.4714 45.3008 33.4147 45.2772 33.3728 45.2353C33.331 45.1934 33.3074 45.1367 33.3073 45.0775V42.5633C33.3074 42.5041 33.331 42.4474 33.3728 42.4055C33.4147 42.3636 33.4714 42.34 33.5306 42.3398H40.0323C40.0915 42.34 40.1482 42.3636 40.19 42.4055C40.2319 42.4474 40.2554 42.5041 40.2556 42.5633V45.0775Z" fill="#FECF05"/>
<path d="M33.7834 33.4122V35.4859C33.7834 35.6896 33.95 35.8563 34.1536 35.8563H39.4093C39.6128 35.8563 39.7794 35.6896 39.7794 35.4859V33.4122H33.7834ZM41.2967 23.8346C41.2967 26.3296 39.2751 28.3526 36.7814 28.3526C34.2878 28.3526 32.2661 26.3297 32.2661 23.8346C32.2661 21.3392 34.2878 19.3164 36.7814 19.3164C39.2751 19.3163 41.2967 21.3392 41.2967 23.8346Z" fill="#F8B816"/>
<path d="M36.7814 28.8936C33.9928 28.8936 31.7241 26.6237 31.7241 23.8336C31.7241 21.0434 33.9928 18.7734 36.7814 18.7734C39.57 18.7734 41.8387 21.0434 41.8387 23.8336C41.8387 26.6237 39.57 28.8936 36.7814 28.8936ZM36.7814 19.8574C34.5905 19.8574 32.808 21.6412 32.808 23.8336C32.808 26.0259 34.5905 27.8096 36.7814 27.8096C38.9723 27.8096 40.7547 26.0259 40.7547 23.8336C40.7547 21.6412 38.9723 19.8574 36.7814 19.8574Z" fill="#A67C52"/>
<path d="M37.5295 23.1555H36.0335C35.9555 23.1554 35.8807 23.1243 35.8255 23.0691C35.7704 23.0139 35.7394 22.9391 35.7394 22.861V22.6849C35.7394 22.6068 35.7704 22.532 35.8255 22.4768C35.8807 22.4216 35.9555 22.3905 36.0335 22.3904H37.7494C38.0488 22.3904 38.2914 22.1478 38.2914 21.8484C38.2914 21.549 38.0488 21.3064 37.7494 21.3064H37.3234V20.8799C37.3234 20.5805 37.0808 20.3379 36.7815 20.3379C36.4821 20.3379 36.2395 20.5805 36.2395 20.8799V21.3064H36.0335C35.2736 21.3064 34.6554 21.9248 34.6554 22.6849V22.861C34.6554 23.6212 35.2736 24.2395 36.0335 24.2395H37.5295C37.6075 24.2396 37.6823 24.2707 37.7374 24.3259C37.7925 24.3811 37.8235 24.4559 37.8235 24.5339V24.7102C37.8235 24.7882 37.7925 24.863 37.7374 24.9182C37.6822 24.9733 37.6075 25.0044 37.5295 25.0045H35.4614C35.1621 25.0045 34.9194 25.2471 34.9194 25.5465C34.9194 25.8459 35.1621 26.0885 35.4614 26.0885H36.2395V26.5593C36.2395 26.8587 36.4821 27.1013 36.7815 27.1013C37.0808 27.1013 37.3234 26.8587 37.3234 26.5593V26.0885H37.5295C38.2893 26.0885 38.9075 25.4701 38.9075 24.7102V24.5339C38.9074 23.7739 38.2893 23.1555 37.5295 23.1555Z" fill="#A67C52"/>
<path d="M32.6357 37.1292L34.0784 32.6863C32.8173 30.898 31.0392 29.5013 28.9619 28.713L25.0468 31.5591L21.1318 28.7129C19.0727 29.4946 17.3078 30.8743 16.0488 32.6404L17.5351 37.2175L14.0246 39.7694C14.159 41.8646 14.876 43.8011 16.0165 45.4177H20.7339L22.1288 49.7139C23.0797 49.9736 24.0611 50.105 25.0468 50.1044C26.0443 50.105 27.0373 49.9705 27.9987 49.7046L29.4482 45.2409H34.2001C35.294 43.6247 35.9698 41.7029 36.0769 39.6307L32.6357 37.1292Z" fill="#E9EAEC"/>
<path d="M33.1779 37.5237L36.0784 39.6325C36.0884 39.44 36.0936 39.2462 36.0936 39.0514C36.0936 36.6812 35.3477 34.4856 34.0786 32.686L32.8425 36.4927L28.6625 37.7319L25.5887 35.4972V31.1655L28.962 28.7132C27.745 28.2514 26.4255 27.998 25.0467 27.998C23.668 27.998 22.3486 28.2515 21.1315 28.7132L24.5047 31.1655V35.4972L21.4117 37.7459L17.3583 36.6735L16.0482 32.6389C14.7586 34.4474 14 36.6607 14 39.0514C14 39.2932 14.0087 39.5326 14.0239 39.7703L16.9059 37.6752L21.1153 38.7888L22.3163 42.4874L20.1523 45.4182H16.016C17.4745 47.4858 19.6243 49.0298 22.1288 49.7144L20.9677 46.1387L23.2854 42.9997H26.793L29.2291 45.9161L27.9986 49.7053C30.5596 48.9963 32.7472 47.3884 34.2 45.2415H30.0779L27.7773 42.4872L28.9854 38.7669L33.1779 37.5237Z" fill="#0059AD"/>
<path d="M44.6587 36.9454C44.6135 36.9454 44.5694 36.932 44.5318 36.9068C44.4943 36.8817 44.465 36.8461 44.4478 36.8043C43.9708 35.6517 43.6193 35.2998 42.468 34.822C42.4262 34.8047 42.3906 34.7754 42.3655 34.7379C42.3404 34.7003 42.327 34.6561 42.327 34.6109C42.327 34.5185 42.3827 34.4351 42.468 34.3997C43.6194 33.9222 43.9708 33.5702 44.4478 32.4175C44.4651 32.3758 44.4943 32.3402 44.5319 32.3151C44.5694 32.29 44.6136 32.2766 44.6587 32.2766C44.7039 32.2766 44.748 32.29 44.7855 32.3151C44.8231 32.3402 44.8524 32.3758 44.8696 32.4175C45.3466 33.5702 45.6981 33.9221 46.8495 34.3997C46.8912 34.417 46.9269 34.4463 46.952 34.4839C46.9771 34.5215 46.9905 34.5657 46.9905 34.6108C46.9905 34.656 46.9771 34.7002 46.952 34.7378C46.9269 34.7754 46.8912 34.8047 46.8495 34.822C45.6982 35.2997 45.3467 35.6516 44.8696 36.8043C44.8524 36.8461 44.8231 36.8817 44.7856 36.9069C44.748 36.932 44.7039 36.9454 44.6587 36.9454ZM19.0494 21.7731C19.0128 21.773 18.9771 21.7622 18.9468 21.7419C18.9164 21.7216 18.8928 21.6927 18.8788 21.659C18.4931 20.727 18.209 20.4424 17.278 20.0563C17.2442 20.0423 17.2154 20.0186 17.1951 19.9882C17.1748 19.9579 17.164 19.9221 17.164 19.8856C17.164 19.8491 17.1748 19.8134 17.1951 19.783C17.2154 19.7526 17.2442 19.7289 17.278 19.7149C18.2089 19.3288 18.4931 19.0443 18.8787 18.1122C18.8927 18.0784 18.9163 18.0495 18.9467 18.0292C18.977 18.0089 19.0127 17.998 19.0493 17.998C19.0858 17.998 19.1215 18.0089 19.1519 18.0292C19.1822 18.0495 19.2059 18.0784 19.2198 18.1122C19.6054 19.0443 19.8897 19.3288 20.8206 19.7149C20.8543 19.7289 20.8832 19.7526 20.9035 19.783C20.9237 19.8134 20.9346 19.8491 20.9346 19.8856C20.9346 19.9221 20.9237 19.9579 20.9035 19.9882C20.8832 20.0186 20.8543 20.0423 20.8206 20.0563C19.8897 20.4424 19.6054 20.727 19.2198 21.659C19.2059 21.6928 19.1823 21.7216 19.1519 21.7419C19.1216 21.7622 19.0859 21.7731 19.0494 21.7731Z" fill="#F7931E"/>
<path d="M15.841 39.0514C15.841 33.2569 20.2971 28.5046 25.9673 28.0365C25.6611 28.011 25.354 27.9982 25.0467 27.998C18.9458 27.998 14 32.9467 14 39.0514C14 45.1559 18.9458 50.1049 25.0467 50.1049C25.3568 50.1049 25.6637 50.0914 25.9673 50.0665C20.2971 49.5982 15.841 44.8458 15.841 39.0514Z" fill="black" fill-opacity="0.1"/>
</g>
<defs>
<clipPath id="clip0_40_11074">
<rect width="37" height="37" fill="white" transform="translate(14 14)"/>
</clipPath>
</defs>
</svg>
