<svg width="65" height="65" viewBox="0 0 65 65" fill="none" xmlns="http://www.w3.org/2000/svg">
<circle cx="32.5" cy="32.5" r="32.5" fill="white"/>
<g clip-path="url(#clip0_40_11113)">
<path d="M28.9794 35.5823C29.9872 34.3393 30.1552 32.626 30.1283 31.027C30.1216 30.5163 30.0947 30.0057 29.9939 29.5085C29.873 28.9374 29.6513 28.3999 29.443 27.8557C28.2932 24.8863 27.484 21.7961 27.031 18.6443C26.7152 16.454 26.6346 14.0285 27.938 12.248C25.6335 14.734 24.283 17.9926 23.6044 21.3184C22.9325 24.6441 22.8922 28.064 22.9325 31.4502C22.9527 32.9418 22.9796 34.4401 23.0266 35.9316C23.0602 37.0537 23.1072 38.1757 23.2483 39.2843C24.3905 38.6259 25.526 37.9741 26.6682 37.3157C27.5147 36.8319 28.3747 36.3348 28.9794 35.5823Z" fill="#301A1C"/>
<path d="M26.6345 45.5071L26.5136 45.0368C26.5539 45.1913 26.5942 45.3459 26.6345 45.5071ZM26.3389 44.2776C26.1978 43.6124 26.0903 42.9473 26.0231 42.2754C26.097 42.9473 26.2045 43.6191 26.3389 44.2776ZM37.0486 43.7804C37.0755 43.6527 37.1024 43.5251 37.1292 43.3907C37.1024 43.5184 37.0822 43.6527 37.0486 43.7804ZM26.8092 46.132C26.7622 45.9841 26.7219 45.8363 26.6816 45.6818C26.7219 45.8363 26.7689 45.9841 26.8092 46.132ZM27.0578 46.9046C26.9906 46.703 26.9302 46.5082 26.8697 46.3066C26.9234 46.5082 26.9906 46.7098 27.0578 46.9046Z" fill="black"/>
<path d="M35.2076 53.8578C41.2276 53.2061 46.569 50.3036 50.3853 46.0103C50.224 44.0417 49.9486 42.0933 49.3775 40.212C48.8198 38.3845 47.8792 36.5167 46.1928 35.6231C45.2186 35.1125 44.1033 34.9714 43.0484 34.6758C42.0137 36.7855 41.4628 39.1236 40.7775 41.3811C39.4486 45.7561 37.5775 49.9475 35.2076 53.8578Z" fill="#870813"/>
<path d="M37.1494 43.2694L37.1292 43.3903C37.1091 43.5247 37.0822 43.6523 37.0486 43.78C36.9142 44.3713 36.6455 44.9222 36.3969 45.4731C36.1281 46.0644 35.8661 46.6691 35.6108 47.267C34.65 49.4977 33.6959 51.7283 32.8292 53.9992C33.6355 53.9925 34.4283 53.9455 35.2077 53.8581C37.5793 49.9497 39.4484 45.7577 40.7708 41.3814C41.4561 39.1172 42.0003 36.7858 43.0417 34.6761L42.9678 34.6559C42.128 34.4073 41.3284 34.0378 40.5894 33.5742C40.3945 34.1587 40.2198 34.7433 40.0855 35.3413C39.8973 36.1542 39.763 36.9873 39.548 37.7936C39.2389 38.9156 39.118 40.5013 38.1169 41.0858C37.7205 41.3209 37.5122 41.7039 37.3778 42.1541C37.2838 42.4698 37.23 42.8192 37.1763 43.1619C37.1634 43.1966 37.1544 43.2327 37.1494 43.2694Z" fill="#961424"/>
<path d="M26.3389 44.2773C26.3389 44.2841 26.3389 44.2908 26.3456 44.2975C26.3859 44.4923 26.433 44.6939 26.48 44.8887C26.4934 44.9358 26.5001 44.9828 26.5136 45.0298L26.6345 45.5002C26.648 45.5606 26.6681 45.6211 26.6816 45.6816C26.7219 45.8294 26.7689 45.9772 26.8092 46.1317C26.8294 46.1922 26.8428 46.2459 26.863 46.3064C26.9234 46.508 26.9906 46.7095 27.0511 46.9044C27.8573 49.3366 29.013 51.6344 30.2492 53.8784C31.0286 53.9523 31.8147 53.9927 32.6142 53.9927H32.8292C33.6959 51.7284 34.65 49.4911 35.6108 47.2605C35.8661 46.6625 36.1281 46.0645 36.3969 45.4666C36.6455 44.9156 36.9142 44.3647 37.0486 43.7734C37.0755 43.6458 37.1023 43.5181 37.1292 43.3838L37.1494 43.2628L37.1695 43.1486C37.2233 42.8059 37.2837 42.4566 37.3711 42.1408C33.528 42.47 29.6781 42.4767 25.9626 41.5898C25.9761 41.8183 25.9962 42.04 26.0231 42.2617C26.097 42.947 26.2045 43.6189 26.3389 44.2773Z" fill="#1C79BF"/>
<path d="M37.3711 42.1465C37.277 42.4623 37.2233 42.8116 37.1695 43.1543C37.2233 42.8116 37.277 42.469 37.3711 42.1465Z" fill="#1C79BF"/>
<path d="M27.4139 53.4275C26.6614 52.5944 25.9492 51.7344 25.3042 50.8139C23.5036 48.2406 22.2472 45.1836 22.3144 42.0392L24.0411 42.0997C23.8395 41.9653 23.638 41.8309 23.4431 41.6966C22.7041 41.1927 21.8978 40.6014 21.7366 39.7212C21.6291 39.1233 21.8441 38.5186 22.1061 37.9677C22.5595 37.0023 23.1703 36.1191 23.9134 35.3541L23.9941 35.2734C23.087 35.6363 22.1666 35.9587 21.2663 36.3216C19.3245 37.1144 17.3761 38.2162 16.3481 40.0437C15.8778 40.8836 15.6292 41.8242 15.3873 42.7514C15.1253 43.7525 14.87 44.7469 14.608 45.748C17.9431 49.6143 22.4325 52.3065 27.4139 53.4275Z" fill="#870813"/>
<path d="M22.1128 37.9606C21.8508 38.5115 21.6358 39.1162 21.7433 39.7142C21.9045 40.5944 22.7108 41.1923 23.4498 41.6895C23.6514 41.8239 23.853 41.9583 24.0478 42.0926L22.3211 42.0322C22.2539 45.1765 23.5103 48.2336 25.3109 50.8069C25.9559 51.7273 26.6681 52.594 27.4206 53.4205C28.3478 53.6287 29.2951 53.7833 30.2559 53.8773C29.0197 51.6333 27.8641 49.3287 27.0578 46.9033C26.9906 46.7017 26.9302 46.5069 26.8697 46.3053C26.8495 46.2448 26.8361 46.1911 26.8159 46.1306C26.7689 45.9828 26.7286 45.835 26.6883 45.6805C26.6748 45.62 26.6547 45.5595 26.6412 45.499L26.5203 45.0287C26.5069 44.9817 26.5001 44.9347 26.4867 44.8876C26.4397 44.6928 26.3927 44.498 26.3523 44.2964C26.3523 44.2897 26.3523 44.283 26.3456 44.2762C26.2045 43.6111 26.097 42.9459 26.0298 42.274C25.882 40.8497 25.8887 39.4186 26.1105 38.0076C26.2852 36.899 26.6076 35.777 27.3266 34.917C27.6356 34.5408 28.0387 34.0906 28.0656 33.6539C27.8909 33.3112 27.3333 33.5061 26.9973 33.7412C26.0769 34.3862 25.0556 34.8498 24.0075 35.2664L23.9269 35.347C23.1744 36.0995 22.5697 36.9998 22.1128 37.9606Z" fill="#961424"/>
<path d="M26.6816 45.6807C26.6681 45.6202 26.648 45.5598 26.6346 45.4993C26.648 45.5665 26.6681 45.627 26.6816 45.6807ZM26.3456 44.3034C26.3456 44.2966 26.3456 44.2899 26.3389 44.2832C26.3456 44.2832 26.3456 44.2966 26.3456 44.3034Z" fill="#961424"/>
<path d="M37.3711 42.1477C37.4987 41.7043 37.707 41.3146 38.1101 41.0794C39.118 40.4949 39.2389 38.9093 39.5412 37.7872C39.763 36.981 39.8906 36.1546 40.0787 35.3349C40.2198 34.7369 40.3878 34.1457 40.5826 33.5679C38.9836 32.5533 37.6801 31.0618 36.9209 29.3216C36.8201 29.0932 36.7059 28.8311 36.464 28.7505C36.2961 28.6968 36.1214 28.7438 35.9534 28.7908C33.7564 29.4089 31.4183 29.5568 29.1608 29.2208C28.939 29.1872 28.6972 29.1604 28.5158 29.2947C28.3747 29.4022 28.3209 29.5769 28.2806 29.7449C28.1271 30.4289 28.1317 31.139 28.294 31.821C28.4553 32.4794 28.6703 33.373 28.0656 33.6821L28.0455 33.6418C28.0253 34.0785 27.6222 34.5286 27.3064 34.9049C26.5875 35.7649 26.265 36.8869 26.0903 37.9955C25.9022 39.1847 25.8686 40.3874 25.9492 41.5833C29.6781 42.4836 33.528 42.4836 37.3711 42.1477Z" fill="#D3AA6E"/>
<path d="M32.0767 32.8219C35.8616 32.8219 38.9298 28.2797 38.9298 22.6766C38.9298 17.0735 35.8616 12.5312 32.0767 12.5312C28.2918 12.5312 25.2236 17.0735 25.2236 22.6766C25.2236 28.2797 28.2918 32.8219 32.0767 32.8219Z" fill="#EDC98F"/>
<path d="M40.2131 19.4245C40.2938 20.2442 40.3475 21.084 40.1392 21.8768C39.9242 22.6696 39.4002 23.4289 38.6342 23.7111C38.5603 20.9093 36.6656 18.4167 34.3275 16.8714C33.7094 16.4615 33.0442 16.0987 32.5538 15.5478C32.0633 14.9968 31.7677 14.1906 32.0566 13.5053C31.7542 14.6071 30.6322 15.2253 29.6983 15.877C27.3803 17.4962 25.7342 20.0426 25.2035 22.8242C24.2763 21.6282 24.4442 19.9351 24.7197 18.4436C25.0153 16.8512 25.3849 15.2387 26.2045 13.8479C27.031 12.4571 28.3747 11.2881 29.9805 11.0529C30.565 10.9656 31.1563 10.9992 31.7408 11.0395C33.6019 11.1604 35.5638 11.3351 37.0889 12.3967C38.1706 13.1559 38.9366 14.3115 39.4069 15.5478C39.8839 16.784 40.0855 18.1076 40.2131 19.4245Z" fill="#301A1C"/>
<path d="M34.65 45.2986C35.51 45.48 36.3498 45.7958 37.23 45.7958C38.52 45.7958 39.7898 45.0433 40.408 43.9078C41.4695 43.9078 42.5311 43.9145 43.5927 43.9145C44.0159 43.9145 44.4527 43.9145 44.8491 43.7667C45.2455 43.6189 45.6083 43.2897 45.662 42.8664C45.6889 42.6648 45.6553 42.4297 45.8031 42.2886C45.9241 42.1811 46.1055 42.1811 46.26 42.1475C46.9319 41.9863 47.0864 41.1128 47.0998 40.4208C47.1267 39.245 47.1267 37.9819 46.4414 37.0211C45.83 36.1678 44.7953 35.7378 44.0495 35.0055C42.5177 33.5005 42.4841 31.1086 42.3094 28.9653C42.1616 27.0706 41.8256 25.1894 41.4964 23.3148C40.8984 19.9219 40.1795 16.3005 37.7339 13.875C37.5928 17.5098 39.2591 21.1447 38.5133 24.7056C38.09 26.7145 36.9277 28.5152 36.5648 30.5375C36.4842 30.9877 36.4439 31.4445 36.3767 31.9014C36.0753 33.841 35.2348 35.6569 33.9513 37.142C33.3667 37.8139 32.6747 38.4253 31.8281 38.6941C31.21 38.8889 30.4709 38.9292 30.0611 39.4331C29.752 39.8161 29.7386 40.3603 29.7991 40.8575C29.8864 41.5831 30.1753 42.3827 30.8539 42.6514C31.5325 42.9202 32.4194 42.5708 32.977 43.0411C33.5817 43.545 33.3667 44.667 34.0252 45.097C34.2133 45.2113 34.435 45.2516 34.65 45.2986Z" fill="#301A1C"/>
</g>
<defs>
<clipPath id="clip0_40_11113">
<rect width="43" height="43" fill="white" transform="translate(11 11)"/>
</clipPath>
</defs>
</svg>
