<svg width="46" height="46" viewBox="0 0 46 46" fill="none" xmlns="http://www.w3.org/2000/svg">
<rect width="46" height="46" rx="23" fill="white"/>
<g clip-path="url(#clip0_40_11765)">
<path d="M30.8249 10.5366C30.8008 10.5114 30.7719 10.4912 30.74 10.4771C30.7081 10.463 30.6737 10.4553 30.6388 10.4546C30.604 10.4538 30.5693 10.4599 30.5367 10.4725C30.5042 10.4851 30.4745 10.504 30.4493 10.5281L29.3801 11.5502L28.725 11.6565V11.2292L29.417 10.7766C29.4467 10.7577 29.4723 10.7331 29.4924 10.7043C29.5125 10.6754 29.5266 10.6429 29.5341 10.6085C29.5415 10.5741 29.542 10.5386 29.5356 10.5041C29.5292 10.4695 29.516 10.4365 29.4967 10.4071C29.4775 10.3777 29.4526 10.3524 29.4235 10.3326C29.3944 10.3129 29.3617 10.2991 29.3272 10.2921C29.2927 10.2852 29.2572 10.2851 29.2227 10.2919C29.1882 10.2988 29.1555 10.3124 29.1263 10.332L28.419 10.7945L27.8883 10.628L28.4727 9.97833C28.5195 9.92591 28.5436 9.8571 28.5397 9.78696C28.5359 9.71681 28.5044 9.65104 28.4522 9.60405C28.4 9.55705 28.3313 9.53265 28.2611 9.53618C28.191 9.53972 28.1251 9.57091 28.0778 9.62292L27.3308 10.453L26.8792 10.3113L27.3329 9.67996C27.3533 9.65162 27.3678 9.61955 27.3758 9.58558C27.3837 9.5516 27.3849 9.51639 27.3793 9.48196C27.3736 9.44753 27.3613 9.41454 27.3429 9.38489C27.3245 9.35524 27.3004 9.32951 27.2721 9.30915C27.2437 9.2888 27.2117 9.27423 27.1777 9.26627C27.1437 9.25831 27.1085 9.25712 27.0741 9.26277C27.0396 9.26842 27.0066 9.28079 26.977 9.29919C26.9473 9.31758 26.9216 9.34164 26.9013 9.36998L26.4696 9.97023L25.7192 8.70851C25.7016 8.67809 25.6782 8.65147 25.6502 8.63018C25.6222 8.6089 25.5903 8.59337 25.5563 8.58451C25.5223 8.57565 25.4869 8.57362 25.4521 8.57855C25.4173 8.58348 25.3838 8.59527 25.3536 8.61323C25.3234 8.63119 25.297 8.65497 25.2761 8.68319C25.2551 8.7114 25.24 8.7435 25.2315 8.77761C25.223 8.81172 25.2214 8.84717 25.2268 8.88191C25.2321 8.91665 25.2443 8.94998 25.2626 8.97998L26.2201 10.5904L26.2209 10.5913C26.2242 10.5969 26.2286 10.6019 26.2323 10.6072C26.2381 10.6158 26.2443 10.6241 26.251 10.632C26.2552 10.6365 26.2601 10.6405 26.2646 10.6448C26.2724 10.6526 26.2806 10.6599 26.2893 10.6666C26.2908 10.6678 26.2919 10.6692 26.2934 10.6703C26.3001 10.675 26.3067 10.6785 26.3134 10.6825C26.3178 10.6852 26.3219 10.6881 26.3266 10.6905C26.3402 10.6976 26.3544 10.7035 26.3689 10.7081L28.1936 11.2804V12.7811C28.1936 12.8516 28.2216 12.9191 28.2714 12.969C28.3212 13.0188 28.3888 13.0468 28.4592 13.0468C28.5297 13.0468 28.5972 13.0188 28.647 12.969C28.6969 12.9191 28.7248 12.8516 28.7248 12.7811V12.1948L29.5464 12.0616C29.5995 12.053 29.6486 12.0286 29.6875 11.9914L30.8164 10.9123C30.8416 10.8882 30.8619 10.8594 30.8759 10.8275C30.89 10.7955 30.8977 10.7611 30.8985 10.7262C30.8993 10.6913 30.8932 10.6566 30.8806 10.6241C30.8679 10.5916 30.849 10.5618 30.8249 10.5366ZM17.2188 16.4999H19.875L20.3435 18.9308C20.3838 19.1397 20.3762 19.3551 20.3215 19.5608C20.2667 19.7665 20.1662 19.9571 20.0273 20.1184L19.0265 21.2811L19.4102 23.1721L20.0151 23.9374H19.0074L17.755 21.0919C17.709 20.9875 17.6908 20.873 17.7019 20.7595C17.7131 20.646 17.7533 20.5372 17.8187 20.4438L18.3477 19.6874L17.2188 16.4999ZM12.7917 13.1353C13.0242 12.4376 13.0826 11.6937 12.9617 10.9682L12.7917 9.94798L12.185 10.8577C11.9299 11.2404 11.7576 11.6722 11.6791 12.1254C11.6006 12.5786 11.6176 13.0432 11.7292 13.4894L12.7917 13.1353Z" fill="#D68233"/>
<path d="M33.6311 25H38.4688C38.4688 30.77 35.355 35.8475 30.8487 38.7879C28.2515 40.4833 25.1922 41.4688 22 41.4688C15.9398 41.4688 10.0157 37.916 7.36345 32.7005C6.15289 30.3145 5.52502 27.6755 5.5313 25H33.6311Z" fill="#4492B9"/>
<path d="M23.2837 27.3016C23.3279 27.4499 23.3505 27.6038 23.3508 27.7585C23.3508 28.4113 22.949 29.0156 22.3221 29.2201C21.51 29.4857 20.9893 30.3145 21.079 31.2004L21.2503 32.901C21.2704 33.103 21.3385 33.2972 21.4489 33.4675C21.5565 33.635 21.7042 33.773 21.8785 33.8692C22.1156 33.9991 22.3296 34.1672 22.512 34.3666C22.9583 34.8569 23.2047 35.4966 23.2027 36.1596C23.2026 36.2985 23.192 36.4373 23.1708 36.5746C23.1315 36.8367 22.9917 37.0732 22.781 37.234L22.0186 37.8091C21.9014 37.8989 21.7579 37.9477 21.6102 37.9479C21.4575 37.9462 21.3094 37.895 21.1882 37.8019C21.067 37.7089 20.9793 37.5791 20.9382 37.4319C20.8447 37.1184 20.8739 36.7811 21.0199 36.4883C21.0611 36.4065 21.0824 36.3162 21.0823 36.2246C21.0833 36.1217 21.0566 36.0204 21.0051 35.9313C20.9536 35.8422 20.8791 35.7685 20.7895 35.718C20.3737 35.4884 20.0248 35.1548 19.7768 34.7498C19.5233 34.3373 19.377 33.8679 19.3511 33.3845C19.3416 33.2074 19.3088 33.0323 19.2535 32.8638C19.1502 32.5361 18.9595 32.2427 18.7018 32.0153C18.4441 31.788 18.1293 31.6352 17.7912 31.5736L17.1006 31.456C17.074 31.4514 17.0475 31.4474 17.0209 31.4447C16.7055 31.4074 16.3858 31.4533 16.0935 31.5777C15.8012 31.7021 15.5466 31.9007 15.3548 32.1539L14.6216 33.1022C14.5419 33.2053 14.4475 33.2962 14.3414 33.3718C14.2366 33.4466 14.1211 33.5051 13.9988 33.5452C13.1607 33.8187 12.3127 33.1613 12.3127 32.2476V32.1891C12.3134 31.8541 12.2125 31.5267 12.0232 31.2502C11.3396 30.2523 10.432 29.4284 9.3729 28.8443C9.29146 28.7995 9.20026 28.7756 9.10736 28.7746C9.01446 28.7735 8.92274 28.7954 8.84032 28.8383C8.55272 28.988 8.30468 29.2038 8.11649 29.4678C7.85912 29.8286 7.7176 30.2592 7.71075 30.7023C7.68435 31.3808 7.56755 32.0528 7.36345 32.7005C6.15289 30.3145 5.52502 27.6755 5.5313 25H22.0392C22.0737 25.3309 22.2134 25.6421 22.4377 25.8879L22.5579 26.0187C22.7248 26.2006 22.8705 26.4009 22.9922 26.6157C23.1145 26.8328 23.2123 27.0629 23.2837 27.3016ZM30.9556 25.7431C31.0121 25.8615 31.0316 25.9942 31.0115 26.1238C30.9913 26.2534 30.9325 26.3739 30.8427 26.4696C30.7882 26.5278 30.7224 26.5743 30.6492 26.606C30.576 26.6378 30.4971 26.6542 30.4174 26.6542C30.3376 26.6542 30.2587 26.6378 30.1855 26.606C30.1124 26.5743 30.0465 26.5278 29.992 26.4696C29.9373 26.4117 29.8713 26.3655 29.7981 26.3339C29.7249 26.3022 29.6461 26.2858 29.5664 26.2856C29.4727 26.2855 29.3803 26.3083 29.2974 26.352C29.0675 26.4731 28.8116 26.5365 28.5517 26.5366C28.3305 26.5358 28.1117 26.4899 27.9088 26.4019C27.7058 26.3139 27.5228 26.1855 27.371 26.0246C27.2069 25.8512 27.1161 25.6212 27.1173 25.3825C27.117 25.2508 27.1444 25.1205 27.1977 25H30.5817C30.6294 25.0737 30.6722 25.1505 30.7099 25.2298L30.9556 25.7431ZM33.6311 25H38.4688C38.4688 30.77 35.355 35.8475 30.8487 38.7879C30.8201 38.4194 30.7922 37.9844 30.7922 37.8775C30.7921 37.7374 30.8012 37.5974 30.8195 37.4585C30.8319 37.3804 30.8263 37.3005 30.8033 37.2249C30.7803 37.1493 30.7403 37.0799 30.6865 37.022C30.6327 36.9641 30.5665 36.9192 30.4927 36.8907C30.419 36.8622 30.3398 36.8509 30.261 36.8575C30.0578 36.8807 29.8466 36.9053 29.6906 36.9232C29.6692 36.9259 29.6477 36.9272 29.6261 36.9272C29.4945 36.9267 29.3672 36.8797 29.2669 36.7944C29.1956 36.733 29.1393 36.6562 29.1022 36.5697C29.0651 36.4832 29.0483 36.3894 29.053 36.2955C29.0577 36.2015 29.0837 36.1099 29.1292 36.0275C29.1747 35.9451 29.2383 35.8743 29.3154 35.8202L29.7663 35.5161C29.9361 35.4009 30.0863 35.2592 30.2112 35.0964C30.3161 34.9589 30.3729 34.7906 30.3725 34.6176C30.3732 34.504 30.349 34.3916 30.3016 34.2884C30.2543 34.1851 30.1849 34.0935 30.0983 34.02C29.9454 33.89 29.849 33.7057 29.8293 33.506L29.6686 31.9687C29.6647 31.9307 29.6627 31.8926 29.6627 31.8545C29.6624 31.6173 29.7398 31.3866 29.8831 31.1977C29.9959 31.0472 30.1496 30.9324 30.3259 30.8671C30.5022 30.8017 30.6936 30.7885 30.8772 30.8291L31.8826 31.0563C32.0212 31.0878 32.1629 31.1036 32.305 31.1034C32.5938 31.1032 32.8788 31.038 33.139 30.9128C33.2984 30.8311 33.4353 30.7114 33.5375 30.5643C33.6397 30.4172 33.7042 30.2472 33.7252 30.0693C33.7462 29.8914 33.7231 29.7111 33.6579 29.5442C33.5928 29.3774 33.4875 29.2291 33.3515 29.1125C33.2467 29.0238 33.1601 28.9156 33.0965 28.7938C33.0319 28.6704 32.9913 28.5359 32.977 28.3973C32.9704 28.3334 32.9671 28.2691 32.967 28.2048C32.965 27.9134 33.0344 27.6261 33.169 27.3677C33.3036 27.1093 33.4994 26.8878 33.7393 26.7226C33.8795 26.6246 33.9812 26.4809 34.0272 26.3162C34.0731 26.1514 34.0603 25.9758 33.991 25.8195L33.6311 25ZM25.2993 32.9447C25.4524 32.7816 25.5377 32.5663 25.5377 32.3425C25.5377 32.1188 25.4524 31.9035 25.2993 31.7404C25.237 31.6751 25.1855 31.6004 25.1466 31.519L24.714 30.6137C24.6623 30.5055 24.6445 30.3843 24.6628 30.2658C24.6812 30.1473 24.7349 30.0371 24.8169 29.9497C24.8668 29.8965 24.9269 29.8541 24.9938 29.8251C25.0607 29.7961 25.1327 29.7812 25.2056 29.7812C25.2785 29.7812 25.3506 29.7961 25.4174 29.8251C25.4843 29.8541 25.5445 29.8965 25.5943 29.9497L25.5974 29.9529C25.6834 30.044 25.7871 30.1167 25.902 30.1665C26.017 30.2164 26.1409 30.2423 26.2662 30.2428C26.7885 30.2428 27.2119 30.686 27.2119 31.2326V31.2731C27.2109 31.3825 27.2398 31.4902 27.2954 31.5844C27.3511 31.6786 27.4314 31.7558 27.5277 31.8078C27.6233 31.8605 27.703 31.9379 27.7585 32.032C27.814 32.126 27.8433 32.2332 27.8433 32.3423C27.8433 32.4515 27.814 32.5587 27.7585 32.6527C27.703 32.7467 27.6233 32.8242 27.5277 32.8769L27.3823 32.953C27.2705 33.0122 27.1808 33.106 27.1268 33.2204L27.0069 33.4712C26.8865 33.7368 26.6716 33.948 26.404 34.064C26.1365 34.1799 25.8354 34.1923 25.5593 34.0987C25.0899 33.9351 24.9492 33.3111 25.2993 32.9447Z" fill="#B9C759"/>
<path d="M5.53125 23.9375H38.4688V25H5.53125V23.9375Z" fill="#7D5020"/>
<path d="M17.5959 23.9372C17.6851 23.763 17.7303 23.5697 17.7278 23.374C17.7252 23.1783 17.6748 22.9862 17.5811 22.8144C17.4873 22.6426 17.353 22.4963 17.1898 22.3883C17.0267 22.2802 16.8396 22.2137 16.6448 22.1945C16.6747 21.9936 16.6267 21.7889 16.5106 21.6223C16.3945 21.4557 16.2192 21.3398 16.0204 21.2982C15.8217 21.2566 15.6145 21.2926 15.4414 21.3987C15.2683 21.5048 15.1423 21.6731 15.0892 21.8691C14.9509 21.8137 14.7999 21.7984 14.6534 21.825C14.5068 21.8515 14.3707 21.9188 14.2607 22.0191C14.2492 21.8613 14.1909 21.7105 14.0933 21.586C13.9957 21.4615 13.8632 21.3689 13.7127 21.32C13.5623 21.2711 13.4006 21.2682 13.2485 21.3116C13.0964 21.355 12.9606 21.4428 12.8586 21.5637C12.707 21.4233 12.5179 21.3303 12.3142 21.2959C12.1106 21.2615 11.9013 21.2873 11.7121 21.3701C11.5229 21.4528 11.3619 21.589 11.249 21.7619C11.136 21.9348 11.076 22.1369 11.0762 22.3435C11.0762 22.3611 11.078 22.3782 11.0788 22.3956C10.8644 22.3364 10.6391 22.3275 10.4207 22.3696C10.2022 22.4118 9.99647 22.5038 9.81945 22.6386C9.64243 22.7733 9.49893 22.9472 9.40015 23.1465C9.30138 23.3459 9.24999 23.5653 9.25 23.7878C9.24999 23.8377 9.25254 23.8876 9.25764 23.9372H17.5959ZM33.4219 23.9372C33.5417 23.9375 33.6601 23.9108 33.7683 23.859C33.8764 23.8072 33.9714 23.7317 34.0463 23.638C34.1211 23.5444 34.1739 23.4351 34.2007 23.3183C34.2274 23.2014 34.2275 23.08 34.2008 22.9632C34.1742 22.8463 34.1215 22.7369 34.0467 22.6432C33.9719 22.5496 33.877 22.4739 33.7689 22.422C33.6609 22.3701 33.5425 22.3433 33.4226 22.3435C33.3027 22.3437 33.1845 22.3709 33.0766 22.4232C33.1491 22.2729 33.1727 22.1036 33.1438 21.9392C33.1149 21.7749 33.035 21.6237 32.9155 21.5072C32.796 21.3907 32.6429 21.3147 32.4779 21.29C32.3128 21.2653 32.1442 21.2931 31.9958 21.3694C31.9112 21.1846 31.7753 21.028 31.6043 20.9182C31.4332 20.8084 31.2342 20.75 31.031 20.75C30.8277 20.75 30.6287 20.8084 30.4577 20.9182C30.2867 21.028 30.1508 21.1846 30.0662 21.3694C29.9178 21.2931 29.7492 21.2654 29.5842 21.2901C29.4192 21.3149 29.2661 21.3909 29.1467 21.5074C29.0273 21.6239 28.9475 21.775 28.9186 21.9394C28.8898 22.1037 28.9133 22.2729 28.9859 22.4232C28.878 22.3709 28.7598 22.3437 28.6399 22.3435C28.52 22.3433 28.4016 22.3701 28.2936 22.422C28.1855 22.4739 28.0906 22.5496 28.0158 22.6432C27.941 22.7369 27.8883 22.8463 27.8617 22.9632C27.835 23.08 27.8351 23.2014 27.8618 23.3183C27.8886 23.4351 27.9414 23.5444 28.0162 23.638C28.0911 23.7317 28.1861 23.8072 28.2942 23.859C28.4024 23.9108 28.5208 23.9375 28.6406 23.9372H33.4219Z" fill="#678B3D"/>
<path d="M14.2057 12.2487C14.099 12.1953 13.98 12.1711 13.8608 12.1785C13.7417 12.1859 13.6266 12.2247 13.5273 12.2909L12.7917 12.7812L12.4229 13.0764L12.2384 12.3382C12.1387 11.9396 11.8941 11.5925 11.5522 11.3646C11.2104 11.1367 10.9657 10.7896 10.8661 10.391L10.6667 9.59375L10.4632 9.79729C10.2301 10.0303 10.0517 10.3122 9.9407 10.6226C9.82973 10.933 9.78902 11.2641 9.8215 11.5921C9.85398 11.9201 9.95884 12.2368 10.1285 12.5194C10.2982 12.802 10.5285 13.0434 10.8027 13.2262L11.5843 13.7473L11.021 14.198H9.60425L10.6667 15.9689L11.7292 14.5522H12.0398C12.4569 14.5522 12.8621 14.4128 13.1908 14.1561C13.5196 13.8994 13.7531 13.5402 13.8542 13.1355L14.5626 12.4271L14.2057 12.2487Z" fill="#F0A050"/>
<path d="M34.0656 13.4452L34.9253 12.8721C35.2566 12.6512 35.5171 12.3393 35.6754 11.9739C35.8337 11.6085 35.8831 11.2052 35.8176 10.8124C35.7468 10.3874 35.545 9.99523 35.2404 9.69057L35.0515 9.50171L34.8666 10.2415C34.774 10.6112 34.5471 10.9332 34.2299 11.1446C33.9128 11.356 33.6858 11.678 33.5933 12.0477L33.4087 12.7878L34.0656 13.4452Z" fill="#D68233"/>
<path d="M34.2846 13.4451L33.3116 11.7185C33.2748 11.6449 33.2183 11.583 33.1483 11.5398C33.0783 11.4965 32.9976 11.4736 32.9153 11.4736C32.833 11.4736 32.7524 11.4965 32.6824 11.5398C32.6124 11.583 32.5558 11.6449 32.519 11.7185L32.3676 12.0213L32.0938 12.2948L32.6415 12.1852V12.5809C32.6415 12.9084 32.7485 13.227 32.9463 13.488C33.1441 13.7491 33.4219 13.9383 33.7372 14.0269L34.141 15.4373L35.6609 14.4308L34.2846 13.4451Z" fill="#F0A050"/>
<path d="M23.2563 18.0707L25.9852 20.3559V22.8961L26.7813 22.3859V19.8457L25.2969 18.0707L26.2501 16.7953V15.4375H24.2767L23.2563 18.0707Z" fill="#D68233"/>
<path d="M30.0956 13.6007L28.4593 12.6172C28.2846 12.5123 28.0799 12.4688 27.8777 12.4936C27.6754 12.5184 27.4872 12.61 27.343 12.754L25.7187 14.375H17.8815C17.5109 14.375 17.1551 14.5208 16.8912 14.7809L15.6856 15.9687C15.8273 16.0455 15.9874 16.0817 16.1484 16.0733C16.3093 16.0649 16.4648 16.0123 16.5977 15.9211L17.3032 15.4375H17.5038C17.3167 15.7603 17.2183 16.1269 17.2187 16.5V19.1562L15.6124 20.4221C15.5336 20.4842 15.4698 20.5634 15.426 20.6538C15.3822 20.7441 15.3594 20.8432 15.3594 20.9436V23.9375H16.6453L16.1562 22.875V21.2812L18.2834 20.2591C18.5215 20.1448 18.7223 19.9655 18.8629 19.742C19.0035 19.5184 19.0781 19.2597 19.0781 18.9957V18.6079C19.1662 18.6191 19.2549 18.6248 19.3437 18.625H25.0427C25.5529 18.6251 26.0509 18.4689 26.4697 18.1776C26.8885 17.8863 27.2081 17.4737 27.3855 16.9954L27.9586 15.4514L28.3577 14.375L29.5491 14.537C29.5812 14.5415 29.6136 14.5438 29.646 14.5437C29.7619 14.5436 29.876 14.5153 29.9784 14.4611C30.0808 14.407 30.1684 14.3286 30.2337 14.2329C30.268 14.1829 30.2917 14.1264 30.3033 14.0669C30.3149 14.0074 30.3142 13.9462 30.3013 13.8869C30.2884 13.8277 30.2634 13.7718 30.2281 13.7225C30.1927 13.6733 30.1476 13.6318 30.0956 13.6007Z" fill="#F0A050"/>
<path d="M27.9586 15.4512L27.3855 16.9951C27.2081 17.4735 26.8885 17.886 26.4697 18.1773C26.0509 18.4687 25.5529 18.6248 25.0427 18.6247H20.4062C20.4062 18.3429 20.5182 18.0727 20.7174 17.8734C20.9167 17.6742 21.187 17.5622 21.4688 17.5622H23.8719C24.7253 17.5622 25.5552 17.2821 26.2341 16.765L27.9586 15.4512Z" fill="#D68233"/>
<path d="M26.7759 11.5332L26.7818 11.8232C26.785 11.981 26.8325 12.1348 26.9188 12.2669C27.0052 12.399 27.127 12.5042 27.2703 12.5704L28.0525 12.9317L27.8339 12.1547C27.7853 11.982 27.6828 11.8294 27.5414 11.7191C27.4 11.6088 27.227 11.5465 27.0477 11.5413L26.7759 11.5332ZM23.0013 17.3054L22.4556 19.2027C22.3626 19.5263 22.3404 19.8661 22.3905 20.199C22.4407 20.5319 22.562 20.8501 22.7462 21.1319L22.5016 22.3967L23.0782 23.9375H24.1091L23.6653 23.4274L23.4103 22.3301L24.7868 17.3054H23.0013Z" fill="#F0A050"/>
</g>
<defs>
<clipPath id="clip0_40_11765">
<rect width="34" height="34" fill="white" transform="translate(5 8)"/>
</clipPath>
</defs>
</svg>
