<svg width="46" height="46" viewBox="0 0 46 46" fill="none" xmlns="http://www.w3.org/2000/svg">
<rect width="46" height="46" rx="23" fill="white"/>
<g clip-path="url(#clip0_40_11777)">
<path d="M37.9999 23C37.9999 31.2843 31.2842 38 23 38C14.7157 38 8 31.2843 8 23C8 14.7158 14.7157 8.00009 23 8.00009C31.2842 8.00009 37.9999 14.7158 37.9999 23Z" fill="#F94A38"/>
<path d="M33.2538 13.6251C33.2538 13.7028 33.223 13.7773 33.168 13.8322C33.1131 13.8872 33.0386 13.918 32.9609 13.918H32.3749C32.2972 13.918 32.2227 13.8872 32.1678 13.8322C32.1128 13.7773 32.082 13.7028 32.082 13.6251V13.0391C32.082 12.9614 32.1128 12.8869 32.1678 12.832C32.2227 12.777 32.2972 12.7462 32.3749 12.7462H32.9609C33.0386 12.7462 33.1131 12.777 33.168 12.832C33.223 12.8869 33.2538 12.9614 33.2538 13.0391V13.6251ZM33.2538 16.8477C33.2538 16.9254 33.223 16.9999 33.168 17.0549C33.1131 17.1098 33.0386 17.1407 32.9609 17.1407H32.3749C32.2972 17.1407 32.2227 17.1098 32.1678 17.0549C32.1128 16.9999 32.082 16.9254 32.082 16.8477V16.2618C32.082 16.1841 32.1128 16.1096 32.1678 16.0546C32.2227 15.9997 32.2972 15.9688 32.3749 15.9688H32.9609C33.0386 15.9688 33.1131 15.9997 33.168 16.0546C33.223 16.1096 33.2538 16.1841 33.2538 16.2618V16.8477ZM33.2538 20.0704C33.2538 20.1481 33.223 20.2226 33.168 20.2775C33.1131 20.3325 33.0386 20.3633 32.9609 20.3633H32.3749C32.2972 20.3633 32.2227 20.3325 32.1678 20.2775C32.1128 20.2226 32.082 20.1481 32.082 20.0704V19.4844C32.082 19.4067 32.1128 19.3322 32.1678 19.2773C32.2227 19.2223 32.2972 19.1915 32.3749 19.1915H32.9609C33.0386 19.1915 33.1131 19.2223 33.168 19.2773C33.223 19.3322 33.2538 19.4067 33.2538 19.4844V20.0704ZM33.2538 23.293C33.2538 23.3707 33.223 23.4452 33.168 23.5002C33.1131 23.5551 33.0386 23.586 32.9609 23.586H32.3749C32.2972 23.586 32.2227 23.5551 32.1678 23.5002C32.1128 23.4452 32.082 23.3707 32.082 23.293V22.7071C32.082 22.6294 32.1128 22.5549 32.1678 22.4999C32.2227 22.445 32.2972 22.4141 32.3749 22.4141H32.9609C33.0386 22.4141 33.1131 22.445 33.168 22.4999C33.223 22.5549 33.2538 22.6294 33.2538 22.7071V23.293ZM33.2538 26.5157C33.2538 26.5934 33.223 26.6679 33.168 26.7228C33.1131 26.7778 33.0386 26.8086 32.9609 26.8086H32.3749C32.2972 26.8086 32.2227 26.7778 32.1678 26.7228C32.1128 26.6679 32.082 26.5934 32.082 26.5157V25.9297C32.082 25.852 32.1128 25.7775 32.1678 25.7226C32.2227 25.6676 32.2972 25.6368 32.3749 25.6368H32.9609C33.0386 25.6368 33.1131 25.6676 33.168 25.7226C33.223 25.7775 33.2538 25.852 33.2538 25.9297V26.5157ZM33.2538 29.7383C33.2538 29.816 33.223 29.8905 33.168 29.9455C33.1131 30.0004 33.0386 30.0313 32.9609 30.0313H32.3749C32.2972 30.0313 32.2227 30.0004 32.1678 29.9455C32.1128 29.8905 32.082 29.816 32.082 29.7383V29.1524C32.082 29.0747 32.1128 29.0002 32.1678 28.9452C32.2227 28.8903 32.2972 28.8594 32.3749 28.8594H32.9609C33.0386 28.8594 33.1131 28.8903 33.168 28.9452C33.223 29.0002 33.2538 29.0747 33.2538 29.1524V29.7383ZM33.2538 32.961C33.2538 33.0387 33.223 33.1132 33.168 33.1681C33.1131 33.2231 33.0386 33.2539 32.9609 33.2539H32.3749C32.2972 33.2539 32.2227 33.2231 32.1678 33.1681C32.1128 33.1132 32.082 33.0387 32.082 32.961V32.375C32.082 32.2973 32.1128 32.2228 32.1678 32.1679C32.2227 32.1129 32.2972 32.082 32.3749 32.082H32.9609C33.0386 32.082 33.1131 32.1129 33.168 32.1679C33.223 32.2228 33.2538 32.2973 33.2538 32.375V32.961ZM33.2538 36.1836C33.2538 36.2613 33.223 36.3358 33.168 36.3908C33.1131 36.4457 33.0386 36.4766 32.9609 36.4766H32.3749C32.2972 36.4766 32.2227 36.4457 32.1678 36.3908C32.1128 36.3358 32.082 36.2613 32.082 36.1836V35.5977C32.082 35.52 32.1128 35.4454 32.1678 35.3905C32.2227 35.3356 32.2972 35.3047 32.3749 35.3047H32.9609C33.0386 35.3047 33.1131 35.3356 33.168 35.3905C33.223 35.4454 33.2538 35.52 33.2538 35.5977V36.1836ZM13.918 13.6251C13.918 13.7028 13.8871 13.7773 13.8322 13.8322C13.7772 13.8872 13.7027 13.918 13.625 13.918H13.0391C12.9614 13.918 12.8868 13.8872 12.8319 13.8322C12.777 13.7773 12.7461 13.7028 12.7461 13.6251V13.0391C12.7461 12.9614 12.777 12.8869 12.8319 12.832C12.8868 12.777 12.9614 12.7462 13.0391 12.7462H13.625C13.7027 12.7462 13.7772 12.777 13.8322 12.832C13.8871 12.8869 13.918 12.9614 13.918 13.0391V13.6251ZM13.918 16.8477C13.918 16.9254 13.8871 16.9999 13.8322 17.0549C13.7772 17.1098 13.7027 17.1407 13.625 17.1407H13.0391C12.9614 17.1407 12.8868 17.1098 12.8319 17.0549C12.777 16.9999 12.7461 16.9254 12.7461 16.8477V16.2618C12.7461 16.1841 12.777 16.1096 12.8319 16.0546C12.8868 15.9997 12.9614 15.9688 13.0391 15.9688H13.625C13.7027 15.9688 13.7772 15.9997 13.8322 16.0546C13.8871 16.1096 13.918 16.1841 13.918 16.2618V16.8477ZM13.918 20.0704C13.918 20.1481 13.8871 20.2226 13.8322 20.2775C13.7772 20.3325 13.7027 20.3633 13.625 20.3633H13.0391C12.9614 20.3633 12.8868 20.3325 12.8319 20.2775C12.777 20.2226 12.7461 20.1481 12.7461 20.0704V19.4844C12.7461 19.4067 12.777 19.3322 12.8319 19.2773C12.8868 19.2223 12.9614 19.1915 13.0391 19.1915H13.625C13.7027 19.1915 13.7772 19.2223 13.8322 19.2773C13.8871 19.3322 13.918 19.4067 13.918 19.4844V20.0704ZM13.918 23.293C13.918 23.3707 13.8871 23.4452 13.8322 23.5002C13.7772 23.5551 13.7027 23.586 13.625 23.586H13.0391C12.9614 23.586 12.8868 23.5551 12.8319 23.5002C12.777 23.4452 12.7461 23.3707 12.7461 23.293V22.7071C12.7461 22.6294 12.777 22.5549 12.8319 22.4999C12.8868 22.445 12.9614 22.4141 13.0391 22.4141H13.625C13.7027 22.4141 13.7772 22.445 13.8322 22.4999C13.8871 22.5549 13.918 22.6294 13.918 22.7071V23.293ZM13.918 26.5157C13.918 26.5934 13.8871 26.6679 13.8322 26.7228C13.7772 26.7778 13.7027 26.8086 13.625 26.8086H13.0391C12.9614 26.8086 12.8868 26.7778 12.8319 26.7228C12.777 26.6679 12.7461 26.5934 12.7461 26.5157V25.9297C12.7461 25.852 12.777 25.7775 12.8319 25.7226C12.8868 25.6676 12.9614 25.6368 13.0391 25.6368H13.625C13.7027 25.6368 13.7772 25.6676 13.8322 25.7226C13.8871 25.7775 13.918 25.852 13.918 25.9297V26.5157ZM13.918 29.7383C13.918 29.816 13.8871 29.8905 13.8322 29.9455C13.7772 30.0004 13.7027 30.0313 13.625 30.0313H13.0391C12.9614 30.0313 12.8868 30.0004 12.8319 29.9455C12.777 29.8905 12.7461 29.816 12.7461 29.7383V29.1524C12.7461 29.0747 12.777 29.0002 12.8319 28.9452C12.8868 28.8903 12.9614 28.8594 13.0391 28.8594H13.625C13.7027 28.8594 13.7772 28.8903 13.8322 28.9452C13.8871 29.0002 13.918 29.0747 13.918 29.1524V29.7383ZM13.918 32.961C13.918 33.0387 13.8871 33.1132 13.8322 33.1681C13.7772 33.2231 13.7027 33.2539 13.625 33.2539H13.0391C12.9614 33.2539 12.8868 33.2231 12.8319 33.1681C12.777 33.1132 12.7461 33.0387 12.7461 32.961V32.375C12.7461 32.2973 12.777 32.2228 12.8319 32.1679C12.8868 32.1129 12.9614 32.082 13.0391 32.082H13.625C13.7027 32.082 13.7772 32.1129 13.8322 32.1679C13.8871 32.2228 13.918 32.2973 13.918 32.375V32.961ZM13.918 36.1836C13.918 36.2613 13.8871 36.3358 13.8322 36.3908C13.7772 36.4457 13.7027 36.4766 13.625 36.4766H13.0391C12.9614 36.4766 12.8868 36.4457 12.8319 36.3908C12.777 36.3358 12.7461 36.2613 12.7461 36.1836V35.5977C12.7461 35.52 12.777 35.4454 12.8319 35.3905C12.8868 35.3356 12.9614 35.3047 13.0391 35.3047H13.625C13.7027 35.3047 13.7772 35.3356 13.8322 35.3905C13.8871 35.4454 13.918 35.52 13.918 35.5977V36.1836ZM30.6171 10.0767H15.3828C13.8114 11.0051 12.4217 12.2112 11.2812 13.6362V36.8281C11.2812 37.4754 11.8059 38 12.4531 38H15.3828L23 35.041L30.6171 38H33.5468C34.194 38 34.7187 37.4754 34.7187 36.8281V13.6362C33.5783 12.2112 32.1885 11.0051 30.6171 10.0767Z" fill="#60194E"/>
<path d="M13.918 13.6251C13.918 13.7028 13.8871 13.7773 13.8322 13.8322C13.7772 13.8872 13.7027 13.918 13.625 13.918H13.0391C12.9614 13.918 12.8868 13.8872 12.8319 13.8322C12.777 13.7773 12.7461 13.7028 12.7461 13.6251V13.0391C12.7461 12.9614 12.777 12.8869 12.8319 12.832C12.8868 12.777 12.9614 12.7462 13.0391 12.7462H13.625C13.7027 12.7462 13.7772 12.777 13.8322 12.832C13.8871 12.8869 13.918 12.9614 13.918 13.0391V13.6251ZM13.918 16.8477C13.918 16.9254 13.8871 16.9999 13.8322 17.0549C13.7772 17.1098 13.7027 17.1407 13.625 17.1407H13.0391C12.9614 17.1407 12.8868 17.1098 12.8319 17.0549C12.777 16.9999 12.7461 16.9254 12.7461 16.8477V16.2618C12.7461 16.1841 12.777 16.1096 12.8319 16.0546C12.8868 15.9997 12.9614 15.9688 13.0391 15.9688H13.625C13.7027 15.9688 13.7772 15.9997 13.8322 16.0546C13.8871 16.1096 13.918 16.1841 13.918 16.2618V16.8477ZM13.918 20.0704C13.918 20.1481 13.8871 20.2226 13.8322 20.2775C13.7772 20.3325 13.7027 20.3633 13.625 20.3633H13.0391C12.9614 20.3633 12.8868 20.3325 12.8319 20.2775C12.777 20.2226 12.7461 20.1481 12.7461 20.0704V19.4844C12.7461 19.4067 12.777 19.3322 12.8319 19.2773C12.8868 19.2223 12.9614 19.1915 13.0391 19.1915H13.625C13.7027 19.1915 13.7772 19.2223 13.8322 19.2773C13.8871 19.3322 13.918 19.4067 13.918 19.4844V20.0704ZM13.918 23.293C13.918 23.3707 13.8871 23.4452 13.8322 23.5002C13.7772 23.5551 13.7027 23.586 13.625 23.586H13.0391C12.9614 23.586 12.8868 23.5551 12.8319 23.5002C12.777 23.4452 12.7461 23.3707 12.7461 23.293V22.7071C12.7461 22.6294 12.777 22.5549 12.8319 22.4999C12.8868 22.445 12.9614 22.4141 13.0391 22.4141H13.625C13.7027 22.4141 13.7772 22.445 13.8322 22.4999C13.8871 22.5549 13.918 22.6294 13.918 22.7071V23.293ZM13.918 26.5157C13.918 26.5934 13.8871 26.6679 13.8322 26.7228C13.7772 26.7778 13.7027 26.8086 13.625 26.8086H13.0391C12.9614 26.8086 12.8868 26.7778 12.8319 26.7228C12.777 26.6679 12.7461 26.5934 12.7461 26.5157V25.9297C12.7461 25.852 12.777 25.7775 12.8319 25.7226C12.8868 25.6676 12.9614 25.6368 13.0391 25.6368H13.625C13.7027 25.6368 13.7772 25.6676 13.8322 25.7226C13.8871 25.7775 13.918 25.852 13.918 25.9297V26.5157ZM13.918 29.7383C13.918 29.816 13.8871 29.8905 13.8322 29.9455C13.7772 30.0004 13.7027 30.0313 13.625 30.0313H13.0391C12.9614 30.0313 12.8868 30.0004 12.8319 29.9455C12.777 29.8905 12.7461 29.816 12.7461 29.7383V29.1524C12.7461 29.0747 12.777 29.0002 12.8319 28.9452C12.8868 28.8903 12.9614 28.8594 13.0391 28.8594H13.625C13.7027 28.8594 13.7772 28.8903 13.8322 28.9452C13.8871 29.0002 13.918 29.0747 13.918 29.1524V29.7383ZM13.918 32.961C13.918 33.0387 13.8871 33.1132 13.8322 33.1681C13.7772 33.2231 13.7027 33.2539 13.625 33.2539H13.0391C12.9614 33.2539 12.8868 33.2231 12.8319 33.1681C12.777 33.1132 12.7461 33.0387 12.7461 32.961V32.375C12.7461 32.2973 12.777 32.2228 12.8319 32.1679C12.8868 32.1129 12.9614 32.082 13.0391 32.082H13.625C13.7027 32.082 13.7772 32.1129 13.8322 32.1679C13.8871 32.2228 13.918 32.2973 13.918 32.375V32.961ZM13.918 36.1836C13.918 36.2613 13.8871 36.3358 13.8322 36.3908C13.7772 36.4457 13.7027 36.4766 13.625 36.4766H13.0391C12.9614 36.4766 12.8868 36.4457 12.8319 36.3908C12.777 36.3358 12.7461 36.2613 12.7461 36.1836V35.5977C12.7461 35.52 12.777 35.4454 12.8319 35.3905C12.8868 35.3356 12.9614 35.3047 13.0391 35.3047H13.625C13.7027 35.3047 13.7772 35.3356 13.8322 35.3905C13.8871 35.4454 13.918 35.52 13.918 35.5977V36.1836ZM19.4844 36.4067V32.082C19.0798 32.082 18.7519 31.7542 18.7519 31.3496C18.7519 30.9451 19.0798 30.6172 19.4844 30.6172V15.3829C19.0798 15.3829 18.7519 15.055 18.7519 14.6505C18.7519 14.2459 19.0798 13.918 19.4844 13.918V10.0767H15.3829C13.8114 11.005 12.4216 12.2111 11.2812 13.6362V36.8281C11.2812 37.4754 11.8059 38 12.4531 38H15.3828L19.4844 36.4067Z" fill="#510E3C"/>
<path d="M30.0312 30.6172H15.9687C15.6451 30.6172 15.3828 30.3549 15.3828 30.0313V15.9688C15.3828 15.6452 15.6451 15.3829 15.9687 15.3829H30.0312C30.3548 15.3829 30.6171 15.6452 30.6171 15.9688V30.0313C30.6171 30.3549 30.3548 30.6172 30.0312 30.6172Z" fill="#FFF9EB"/>
<path d="M19.582 27.6875V18.3125C19.582 16.6945 20.8937 15.3829 22.5117 15.3829H15.9687C15.6451 15.3829 15.3828 15.6452 15.3828 15.9688V30.0313C15.3828 30.3549 15.6451 30.6172 15.9687 30.6172H22.5117C20.8937 30.6172 19.582 29.3055 19.582 27.6875Z" fill="#FCF1D4"/>
<path d="M22.9999 17.4717L22.7706 20.7326L22.9999 22.1323L23.2292 20.7326L22.9999 17.4717Z" fill="#5088EA"/>
<path d="M22.7726 20.7439L23 22.1323L23.2274 20.7439C23.0762 20.7288 22.9238 20.7288 22.7726 20.7439Z" fill="#2F71D1"/>
<path d="M22.9999 28.5283L23.2292 25.2675L22.9999 23.8677L22.7706 25.2675L22.9999 28.5283Z" fill="#5088EA"/>
<path d="M23 25.2676C23.0767 25.2676 23.1526 25.2637 23.2274 25.2563L23 23.8678L22.7726 25.2563C22.8481 25.2638 22.924 25.2676 23 25.2676Z" fill="#2F71D1"/>
<path d="M21.5692 17.6604L22.1917 20.8695L22.7755 22.1621L22.6347 20.7508L21.5692 17.6604Z" fill="#5088EA"/>
<path d="M22.1964 20.8798L22.7754 22.1621L22.6357 20.7621C22.4858 20.7867 22.3386 20.8261 22.1964 20.8798Z" fill="#2F71D1"/>
<path d="M24.4308 28.3398L23.8083 25.1307L23.2245 23.8381L23.3653 25.2494L24.4308 28.3398Z" fill="#5088EA"/>
<path d="M23.5868 25.1899C23.6609 25.17 23.7332 25.1466 23.8035 25.1201L23.2245 23.8378L23.3642 25.2378C23.4384 25.2256 23.5127 25.2097 23.5868 25.1899Z" fill="#2F71D1"/>
<path d="M20.2358 18.2124L21.6677 21.151L22.5661 22.2485L22.0648 20.9217L20.2358 18.2124Z" fill="#5088EA"/>
<path d="M21.6749 21.1599L22.5661 22.2485L22.0689 20.9325C21.9303 20.995 21.7984 21.0712 21.6749 21.1599Z" fill="#2F71D1"/>
<path d="M25.7641 27.7876L24.3323 24.849L23.4338 23.7514L23.9351 25.0782L25.7641 27.7876Z" fill="#5088EA"/>
<path d="M24.1337 24.9635C24.1995 24.9255 24.2633 24.8843 24.325 24.84L23.4338 23.7513L23.9311 25.0674C24.0003 25.0361 24.0679 25.0015 24.1337 24.9635Z" fill="#2F71D1"/>
<path d="M19.0909 19.0912L21.2346 21.5591L22.3865 22.3867L21.5588 21.2348L19.0909 19.0912Z" fill="#5088EA"/>
<path d="M21.2439 21.5658L22.3865 22.3867L21.5655 21.2441C21.448 21.3405 21.3402 21.4482 21.2439 21.5658Z" fill="#2F71D1"/>
<path d="M26.9089 26.9092L24.7653 24.4413L23.6134 23.6136L24.441 24.7655L26.9089 26.9092Z" fill="#5088EA"/>
<path d="M24.6032 24.603C24.6569 24.5493 24.7079 24.493 24.756 24.4342L23.6134 23.6133L24.4344 24.7559C24.4931 24.7077 24.5495 24.6567 24.6032 24.603Z" fill="#2F71D1"/>
<path d="M18.2124 20.2361L20.9218 22.0651L22.2486 22.5664L21.151 21.668L18.2124 20.2361Z" fill="#5088EA"/>
<path d="M20.9325 22.0692L22.2486 22.5664L21.1599 21.6753C21.0712 21.7987 20.9951 21.9307 20.9325 22.0692Z" fill="#2F71D1"/>
<path d="M27.7875 25.7642L25.0781 23.9352L23.7513 23.4339L24.8489 24.3323L27.7875 25.7642Z" fill="#5088EA"/>
<path d="M24.9635 24.1339C25.0015 24.0681 25.0362 24.0005 25.0674 23.9313L23.7513 23.434L24.84 24.3252C24.8843 24.2635 24.9256 24.1997 24.9635 24.1339Z" fill="#2F71D1"/>
<path d="M17.6602 21.5691L20.7506 22.6346L22.1619 22.7754L20.8693 22.1916L17.6602 21.5691Z" fill="#5088EA"/>
<path d="M20.762 22.6357L22.1619 22.7754L20.8797 22.1964C20.826 22.3385 20.7865 22.4857 20.762 22.6357Z" fill="#2F71D1"/>
<path d="M28.3398 24.4307L25.2494 23.3652L23.838 23.2244L25.1306 23.8082L28.3398 24.4307Z" fill="#5088EA"/>
<path d="M25.1901 23.587C25.2099 23.5129 25.2258 23.4386 25.238 23.3644L23.838 23.2247L25.1203 23.8037C25.1468 23.7334 25.1702 23.6611 25.1901 23.587Z" fill="#2F71D1"/>
<path d="M17.4718 23.0002L20.7327 23.2295L22.1324 23.0002L20.7327 22.7709L17.4718 23.0002Z" fill="#5088EA"/>
<path d="M20.744 23.2275L22.1324 23.0001L20.744 22.7727C20.7289 22.9239 20.7289 23.0763 20.744 23.2275Z" fill="#2F71D1"/>
<path d="M28.5281 23.0002L25.2673 22.7709L23.8676 23.0002L25.2673 23.2295L28.5281 23.0002Z" fill="#5088EA"/>
<path d="M25.2673 23.0001C25.2673 22.9234 25.2634 22.8475 25.256 22.7727L23.8676 23.0001L25.256 23.2275C25.2634 23.1528 25.2673 23.0769 25.2673 23.0001Z" fill="#2F71D1"/>
<path d="M17.6602 24.4307L20.8693 23.8082L22.1619 23.2244L20.7506 23.3652L17.6602 24.4307Z" fill="#5088EA"/>
<path d="M20.8797 23.8037L22.1619 23.2247L20.762 23.3644C20.7865 23.5144 20.8259 23.6615 20.8797 23.8037Z" fill="#2F71D1"/>
<path d="M28.3398 21.5691L25.1306 22.1916L23.838 22.7754L25.2494 22.6346L28.3398 21.5691Z" fill="#5088EA"/>
<path d="M25.1901 22.4131C25.1704 22.3398 25.1471 22.2674 25.1203 22.1964L23.838 22.7754L25.238 22.6357C25.2257 22.5608 25.2097 22.4865 25.1901 22.4131Z" fill="#2F71D1"/>
<path d="M18.2124 25.7642L21.151 24.3323L22.2486 23.4339L20.9218 23.9352L18.2124 25.7642Z" fill="#5088EA"/>
<path d="M21.1599 24.3252L22.2486 23.434L20.9325 23.9313C20.995 24.0698 21.0712 24.2018 21.1599 24.3252Z" fill="#2F71D1"/>
<path d="M27.7875 20.2361L24.8489 21.668L23.7513 22.5664L25.0781 22.0651L27.7875 20.2361Z" fill="#5088EA"/>
<path d="M24.9635 21.8666C24.9256 21.8008 24.8843 21.7369 24.84 21.6753L23.7513 22.5664L25.0674 22.0692C25.0362 22 25.0015 21.9323 24.9635 21.8666Z" fill="#2F71D1"/>
<path d="M19.0909 26.9092L21.5588 24.7655L22.3865 23.6136L21.2346 24.4413L19.0909 26.9092Z" fill="#5088EA"/>
<path d="M21.5656 24.7559L22.3866 23.6133L21.244 24.4342C21.3404 24.5518 21.4481 24.6595 21.5656 24.7559Z" fill="#2F71D1"/>
<path d="M26.9089 19.0912L24.441 21.2348L23.6134 22.3867L24.7653 21.5591L26.9089 19.0912Z" fill="#5088EA"/>
<path d="M24.6032 21.397C24.5495 21.3433 24.4931 21.2923 24.4344 21.2441L23.6134 22.3867L24.756 21.5658C24.7079 21.507 24.6569 21.4507 24.6032 21.397Z" fill="#2F71D1"/>
<path d="M20.2358 27.7876L22.0648 25.0782L22.5661 23.7514L21.6677 24.849L20.2358 27.7876Z" fill="#5088EA"/>
<path d="M22.0689 25.0674L22.5661 23.7513L21.6749 24.84C21.7984 24.9286 21.9303 25.0048 22.0689 25.0674Z" fill="#2F71D1"/>
<path d="M25.7641 18.2124L23.9351 20.9217L23.4338 22.2485L24.3323 21.151L25.7641 18.2124Z" fill="#5088EA"/>
<path d="M24.1337 21.0364C24.0679 20.9984 24.0003 20.9637 23.9311 20.9325L23.4338 22.2485L24.325 21.1599C24.2633 21.1155 24.1995 21.0743 24.1337 21.0364Z" fill="#2F71D1"/>
<path d="M21.5692 28.3398L22.6347 25.2494L22.7755 23.8381L22.1917 25.1307L21.5692 28.3398Z" fill="#5088EA"/>
<path d="M22.6357 25.2378L22.7754 23.8378L22.1964 25.1201C22.3386 25.1738 22.4858 25.2132 22.6357 25.2378Z" fill="#2F71D1"/>
<path d="M24.4308 17.6604L23.3653 20.7508L23.2245 22.1621L23.8083 20.8695L24.4308 17.6604Z" fill="#5088EA"/>
<path d="M23.5868 20.8101C23.5127 20.7902 23.4384 20.7743 23.3642 20.7621L23.2245 22.1621L23.8035 20.8798C23.7332 20.8533 23.6609 20.8299 23.5868 20.8101Z" fill="#2F71D1"/>
<path d="M24.019 23C24.019 23.5628 23.5628 24.019 23 24.019C22.4372 24.019 21.981 23.5628 21.981 23C21.981 22.4373 22.4372 21.981 23 21.981C23.5628 21.981 24.019 22.4373 24.019 23Z" fill="#7AAEF9"/>
<path d="M23.7259 23.2931C23.1631 23.2931 22.7069 22.8369 22.7069 22.2741C22.7069 22.1844 22.7186 22.0973 22.7404 22.0145C22.3033 22.1293 21.981 22.527 21.981 23C21.981 23.5628 22.4372 24.019 23 24.019C23.473 24.019 23.8707 23.6967 23.9855 23.2596C23.9008 23.2818 23.8135 23.2931 23.7259 23.2931Z" fill="#659BF2"/>
<path d="M26.2995 26.8821C26.2578 26.8305 26.1975 26.7972 26.1316 26.7894C26.0657 26.7815 25.9993 26.7997 25.9467 26.8401C25.8939 26.8806 25.8591 26.9401 25.8497 27.0058C25.8402 27.0716 25.8569 27.1385 25.896 27.1922C25.6698 27.3488 25.4313 27.4868 25.1828 27.6049C25.1561 27.5439 25.1065 27.4958 25.0447 27.471C24.9829 27.4461 24.9138 27.4465 24.8523 27.4719C24.7908 27.4975 24.7417 27.5461 24.7156 27.6074C24.6895 27.6687 24.6885 27.7377 24.7127 27.7998C24.4535 27.8923 24.1873 27.9635 23.9166 28.0128C23.906 27.9475 23.8704 27.8889 23.8174 27.8494C23.7643 27.8099 23.698 27.7925 23.6324 27.8011C23.5668 27.8096 23.5072 27.8434 23.466 27.8951C23.4249 27.9469 23.4055 28.0127 23.412 28.0785C23.2749 28.0895 23.1375 28.0951 23 28.0951C22.8613 28.0951 22.7239 28.0893 22.588 28.0785C22.5948 28.0125 22.5756 27.9465 22.5344 27.8945C22.4933 27.8426 22.4334 27.8087 22.3677 27.8001C22.3019 27.7915 22.2354 27.809 22.1824 27.8487C22.1293 27.8884 22.0938 27.9473 22.0834 28.0128C21.8127 27.9635 21.5464 27.8923 21.2873 27.7998C21.3105 27.7379 21.3088 27.6695 21.2825 27.6089C21.2563 27.5483 21.2075 27.5003 21.1465 27.4751C21.0855 27.4498 21.017 27.4492 20.9556 27.4734C20.8941 27.4976 20.8445 27.5448 20.8172 27.6049C20.5687 27.4868 20.3301 27.3488 20.1039 27.1922C20.1431 27.1385 20.1598 27.0716 20.1503 27.0058C20.1409 26.9401 20.1061 26.8806 20.0534 26.8401C20.0007 26.7997 19.9343 26.7815 19.8684 26.7894C19.8025 26.7972 19.7422 26.8305 19.7005 26.8821C19.491 26.7039 19.2961 26.5091 19.1179 26.2995C19.1689 26.2576 19.2017 26.1975 19.2092 26.1318C19.2167 26.0662 19.1984 26.0002 19.1581 25.9478C19.1179 25.8954 19.0589 25.8607 18.9935 25.8511C18.9281 25.8414 18.8616 25.8575 18.8079 25.8961C18.6512 25.6699 18.5132 25.4313 18.3951 25.1828C18.4563 25.1562 18.5046 25.1066 18.5296 25.0447C18.5546 24.9829 18.5543 24.9137 18.5287 24.852C18.5032 24.7904 18.4544 24.7412 18.393 24.7152C18.3316 24.6891 18.2624 24.6882 18.2003 24.7127C18.1077 24.4536 18.0365 24.1873 17.9873 23.9166C18.0531 23.9065 18.1123 23.871 18.1522 23.8178C18.1922 23.7646 18.2097 23.6978 18.2011 23.6318C18.1924 23.566 18.1583 23.5061 18.106 23.465C18.0538 23.424 17.9876 23.4049 17.9216 23.412C17.9105 23.2749 17.905 23.1375 17.9049 23C17.9049 22.8613 17.9107 22.7239 17.9216 22.588C17.9876 22.5951 18.0538 22.5761 18.106 22.535C18.1583 22.4939 18.1924 22.4341 18.2011 22.3682C18.2097 22.3022 18.1922 22.2355 18.1522 22.1822C18.1123 22.129 18.0531 22.0935 17.9873 22.0834C18.0365 21.8127 18.1077 21.5465 18.2003 21.2873C18.2622 21.311 18.3309 21.3096 18.3918 21.2834C18.4527 21.2572 18.501 21.2083 18.5264 21.147C18.5517 21.0858 18.5522 21.0171 18.5277 20.9555C18.5032 20.8939 18.4556 20.8443 18.3951 20.8172C18.5132 20.5687 18.6513 20.3302 18.8079 20.104C18.8616 20.1425 18.9281 20.1586 18.9935 20.149C19.0589 20.1393 19.1179 20.1046 19.1581 20.0522C19.1984 19.9998 19.2167 19.9339 19.2092 19.8682C19.2017 19.8026 19.1689 19.7424 19.1179 19.7005C19.2961 19.491 19.491 19.2962 19.7005 19.1179C19.7425 19.1689 19.8026 19.2016 19.8682 19.2091C19.9338 19.2166 19.9998 19.1982 20.0522 19.158C20.1045 19.1178 20.1392 19.0587 20.1489 18.9934C20.1585 18.9281 20.1424 18.8616 20.1039 18.8079C20.3301 18.6513 20.5687 18.5132 20.8172 18.3952C20.8443 18.4557 20.8939 18.5032 20.9554 18.5278C21.017 18.5523 21.0858 18.5518 21.147 18.5264C21.2083 18.501 21.2572 18.4528 21.2834 18.3919C21.3096 18.331 21.311 18.2622 21.2873 18.2003C21.5464 18.1078 21.8127 18.0365 22.0834 17.9873C22.0935 18.0531 22.129 18.1123 22.1822 18.1523C22.2355 18.1922 22.3022 18.2098 22.3682 18.2011C22.4341 18.1924 22.4939 18.1583 22.535 18.106C22.5761 18.0538 22.5951 17.9876 22.588 17.9215C22.7239 17.9107 22.8613 17.905 23 17.905C23.1387 17.905 23.2761 17.9107 23.412 17.9215C23.4055 17.9874 23.4248 18.0532 23.466 18.105C23.5071 18.1568 23.5668 18.1905 23.6324 18.1991C23.698 18.2077 23.7643 18.1903 23.8174 18.1508C23.8704 18.1113 23.906 18.0526 23.9166 17.9873C24.1873 18.0365 24.4535 18.1078 24.7127 18.2003C24.6885 18.2624 24.6895 18.3314 24.7156 18.3927C24.7417 18.454 24.7908 18.5026 24.8523 18.5281C24.9138 18.5536 24.9829 18.5539 25.0447 18.529C25.1065 18.5042 25.1561 18.4561 25.1828 18.3952C25.4313 18.5132 25.6698 18.6512 25.896 18.8079C25.8579 18.8616 25.842 18.928 25.8518 18.9931C25.8615 19.0583 25.8962 19.1171 25.9484 19.1573C26.0007 19.1974 26.0664 19.2157 26.1319 19.2084C26.1974 19.201 26.2574 19.1686 26.2995 19.1179C26.509 19.2962 26.7038 19.491 26.8821 19.7005C26.8309 19.7424 26.798 19.8026 26.7904 19.8683C26.7828 19.934 26.8011 20.0001 26.8414 20.0526C26.8817 20.1051 26.9409 20.1398 27.0064 20.1494C27.0718 20.159 27.1384 20.1427 27.1921 20.104C27.3487 20.3302 27.4868 20.5687 27.6048 20.8172C27.5447 20.8446 27.4976 20.8942 27.4734 20.9556C27.4491 21.017 27.4497 21.0855 27.475 21.1465C27.5003 21.2075 27.5483 21.2563 27.6089 21.2826C27.6695 21.3088 27.7379 21.3106 27.7997 21.2873C27.8922 21.5465 27.9635 21.8127 28.0127 22.0834C27.9472 22.0938 27.8884 22.1293 27.8486 22.1824C27.8089 22.2355 27.7915 22.302 27.8001 22.3677C27.8086 22.4335 27.8425 22.4933 27.8945 22.5344C27.9465 22.5756 28.0125 22.5948 28.0785 22.588C28.0894 22.7239 28.0951 22.8613 28.0951 23C28.0951 23.1387 28.0894 23.2761 28.0785 23.412C28.0128 23.4057 27.9472 23.4252 27.8956 23.4664C27.844 23.5075 27.8104 23.5671 27.8019 23.6325C27.7934 23.698 27.8106 23.7642 27.8499 23.8172C27.8892 23.8702 27.9476 23.9058 28.0127 23.9166C27.9635 24.1873 27.8922 24.4536 27.7997 24.7127C27.7378 24.6889 27.669 24.6902 27.608 24.7164C27.547 24.7425 27.4987 24.7915 27.4732 24.8528C27.4478 24.9141 27.4474 24.9829 27.472 25.0446C27.4965 25.1062 27.5442 25.1558 27.6048 25.1828C27.4868 25.4313 27.3488 25.6699 27.1921 25.8961C27.1384 25.8574 27.0718 25.8411 27.0064 25.8507C26.9409 25.8603 26.8817 25.895 26.8414 25.9474C26.8011 25.9999 26.7828 26.066 26.7904 26.1317C26.798 26.1975 26.8309 26.2576 26.8821 26.2995C26.7038 26.5091 26.509 26.7039 26.2995 26.8821ZM23 17.1407C19.764 17.1407 17.1406 19.764 17.1406 23C17.1406 26.2361 19.764 28.8594 23 28.8594C26.236 28.8594 28.8593 26.2361 28.8593 23C28.8593 19.764 26.236 17.1407 23 17.1407Z" fill="#7AAEF9"/>
<path d="M26.6273 27.1217C26.5552 27.0505 26.5144 26.9535 26.5138 26.8522C26.5132 26.7508 26.5529 26.6534 26.6241 26.5813L26.6237 26.5809C26.52 26.6859 26.4119 26.7864 26.2995 26.8821C26.2578 26.8305 26.1975 26.7972 26.1316 26.7894C26.0657 26.7815 25.9993 26.7997 25.9467 26.8401C25.8939 26.8806 25.8591 26.9401 25.8497 27.0058C25.8402 27.0716 25.8569 27.1385 25.896 27.1922C25.6698 27.3488 25.4313 27.4868 25.1828 27.6049C25.1561 27.5439 25.1065 27.4958 25.0447 27.471C24.9829 27.4461 24.9138 27.4465 24.8523 27.4719C24.7908 27.4975 24.7417 27.5461 24.7156 27.6074C24.6895 27.6687 24.6885 27.7377 24.7127 27.7998C24.4535 27.8923 24.1873 27.9635 23.9166 28.0127C23.906 27.9474 23.8704 27.8888 23.8174 27.8492C23.7643 27.8097 23.698 27.7924 23.6324 27.8009C23.5668 27.8095 23.5071 27.8433 23.466 27.8951C23.4248 27.9469 23.4055 28.0127 23.412 28.0785C23.2749 28.0895 23.1375 28.0951 23 28.0951C22.8613 28.0951 22.7239 28.0893 22.588 28.0785C22.5956 28.0121 22.5768 27.9455 22.5356 27.8928C22.4945 27.8402 22.4343 27.8059 22.3681 27.7973C22.3019 27.7886 22.2349 27.8064 22.1816 27.8467C22.1284 27.887 22.0931 27.9466 22.0834 28.0127C21.8127 27.9635 21.5464 27.8923 21.2873 27.7998C21.3105 27.7379 21.3088 27.6695 21.2825 27.6089C21.2563 27.5483 21.2075 27.5003 21.1465 27.4751C21.0855 27.4498 21.017 27.4492 20.9556 27.4734C20.8941 27.4976 20.8445 27.5448 20.8172 27.6049C20.5687 27.4868 20.3301 27.3488 20.1039 27.1922C20.1431 27.1385 20.1598 27.0716 20.1503 27.0058C20.1409 26.9401 20.1061 26.8806 20.0534 26.8401C20.0007 26.7997 19.9343 26.7815 19.8684 26.7894C19.8025 26.7972 19.7422 26.8305 19.7005 26.8821C19.491 26.7039 19.2961 26.5091 19.1179 26.2995C19.1689 26.2576 19.2017 26.1975 19.2092 26.1318C19.2167 26.0662 19.1984 26.0002 19.1581 25.9478C19.1179 25.8954 19.0589 25.8607 18.9935 25.8511C18.9281 25.8414 18.8616 25.8575 18.8079 25.8961C18.6512 25.6699 18.5132 25.4313 18.3951 25.1828C18.4556 25.1557 18.5032 25.1061 18.5277 25.0446C18.5522 24.983 18.5517 24.9142 18.5264 24.853C18.501 24.7917 18.4527 24.7428 18.3918 24.7166C18.3309 24.6904 18.2622 24.689 18.2003 24.7127C18.1077 24.4536 18.0365 24.1873 17.9873 23.9166C18.0531 23.9065 18.1123 23.871 18.1522 23.8178C18.1922 23.7646 18.2097 23.6978 18.2011 23.6318C18.1924 23.566 18.1583 23.5061 18.106 23.465C18.0538 23.424 17.9876 23.4049 17.9216 23.412C17.9105 23.2749 17.905 23.1375 17.9049 23C17.9049 22.8613 17.9107 22.7239 17.9216 22.588C17.9876 22.5951 18.0538 22.5761 18.106 22.535C18.1583 22.4939 18.1924 22.4341 18.2011 22.3682C18.2097 22.3022 18.1922 22.2355 18.1522 22.1822C18.1123 22.129 18.0531 22.0935 17.9873 22.0834C18.0365 21.8127 18.1077 21.5465 18.2003 21.2873C18.2622 21.311 18.3309 21.3096 18.3918 21.2834C18.4527 21.2572 18.501 21.2083 18.5264 21.147C18.5517 21.0858 18.5522 21.0171 18.5277 20.9555C18.5032 20.8939 18.4556 20.8443 18.3951 20.8172C18.5132 20.5687 18.6513 20.3302 18.8079 20.104C18.8616 20.1425 18.9281 20.1586 18.9935 20.149C19.0589 20.1393 19.1179 20.1046 19.1581 20.0522C19.1984 19.9998 19.2167 19.9339 19.2092 19.8682C19.2017 19.8026 19.1689 19.7424 19.1179 19.7005C19.2005 19.6035 19.2867 19.5097 19.3763 19.4191L19.3759 19.4187C19.3051 19.4906 19.2088 19.5316 19.108 19.5328C19.0071 19.534 18.9099 19.4953 18.8375 19.425C18.7651 19.3548 18.7235 19.2588 18.7216 19.1579C18.7198 19.0571 18.7578 18.9596 18.8276 18.8867C17.7846 19.9447 17.1406 21.3971 17.1406 23C17.1406 26.2361 19.764 28.8594 23 28.8594C24.6285 28.8594 26.1018 28.1947 27.1637 27.1223C27.0922 27.1926 26.9958 27.232 26.8954 27.2319C26.795 27.2318 26.6987 27.1923 26.6273 27.1217Z" fill="#659BF2"/>
<path d="M30.6171 38H15.3828V32.668C15.3828 32.3444 15.6451 32.082 15.9687 32.082H30.0312C30.3548 32.082 30.6171 32.3444 30.6171 32.668V38Z" fill="#2FAD4F"/>
<path d="M22.5117 32.082H15.9687C15.6451 32.082 15.3828 32.3444 15.3828 32.668V38H19.582V35.0117C19.582 33.3937 20.8937 32.082 22.5117 32.082Z" fill="#2B8F49"/>
<path d="M15.3828 10.0766V13.332C15.3828 13.6556 15.6451 13.918 15.9687 13.918H30.0312C30.3548 13.918 30.6171 13.6556 30.6171 13.332V10.0766C28.3845 8.75775 25.7808 8.00002 23 8.00002C20.2191 8.00002 17.6155 8.75775 15.3828 10.0766Z" fill="#FB8B24"/>
<path d="M19.582 10.9883V8.39213C18.1048 8.73681 16.6887 9.30484 15.3828 10.0766V13.332C15.3828 13.6556 15.6451 13.918 15.9687 13.918H22.5117C20.8937 13.918 19.582 12.6063 19.582 10.9883Z" fill="#F97306"/>
</g>
<defs>
<clipPath id="clip0_40_11777">
<rect width="30" height="30" fill="white" transform="translate(8 8)"/>
</clipPath>
</defs>
</svg>
