<svg width="46" height="46" viewBox="0 0 46 46" fill="none" xmlns="http://www.w3.org/2000/svg">
<rect width="46" height="46" rx="23" fill="white"/>
<g clip-path="url(#clip0_40_11759)">
<path d="M10.8002 11.595H14.0361V13.7543H10.8002V11.595Z" fill="#48C1E1"/>
<path d="M14.7035 11.3572C14.7035 11.5343 14.5587 11.6792 14.3816 11.6792H10.4546C10.2775 11.6792 10.1327 11.5343 10.1327 11.3572V9.03678C10.1327 8.85972 10.2775 8.71484 10.4546 8.71484H14.3816C14.5586 8.71484 14.7034 8.85972 14.7034 9.03678L14.7035 11.3572Z" fill="#046699"/>
<path d="M11.4754 11.3572V9.03678C11.4754 8.85972 11.6202 8.71484 11.7973 8.71484H10.4546C10.2775 8.71484 10.1327 8.85972 10.1327 9.03678V11.3572C10.1327 11.5343 10.2775 11.6792 10.4546 11.6792H11.7973C11.6203 11.6792 11.4754 11.5343 11.4754 11.3572Z" fill="white" fill-opacity="0.2"/>
<path d="M9.79696 29.0989C9.80516 29.0955 9.81255 29.0905 9.81864 29.084C9.82473 29.0776 9.82937 29.0699 9.83227 29.0616C9.83517 29.0532 9.83625 29.0443 9.83544 29.0355C9.83463 29.0266 9.83195 29.0181 9.82758 29.0104C9.80077 28.963 9.78721 28.9165 9.78721 28.8721C9.78721 28.5276 10.5515 28.1588 11.6895 28.1588C12.0556 28.1588 12.4124 28.1995 12.7211 28.2765C12.7316 28.2792 12.7426 28.279 12.753 28.2761C12.7634 28.2733 12.7728 28.2677 12.7805 28.2601C12.7881 28.2525 12.7936 28.243 12.7965 28.2326C12.7994 28.2222 12.7995 28.2112 12.7969 28.2008C12.5983 27.4082 12.4846 26.5936 12.458 25.7612C12.4576 25.7515 12.457 25.7418 12.4566 25.7321C12.453 25.6129 12.4512 25.4938 12.4512 25.3746C12.4512 25.3054 12.4786 25.239 12.5275 25.19C12.5764 25.141 12.6427 25.1134 12.712 25.1132H13.2766C13.2854 25.1132 13.2941 25.1114 13.3022 25.1078C13.3102 25.1042 13.3174 25.099 13.3233 25.0924C13.3291 25.0858 13.3335 25.0781 13.3362 25.0697C13.3389 25.0614 13.3398 25.0525 13.3388 25.0438C13.3302 24.9715 13.3256 24.8988 13.3252 24.826C13.3252 23.9453 13.8883 23.1762 14.7265 22.9121C14.7351 22.9095 14.7429 22.905 14.7496 22.899C14.7562 22.893 14.7615 22.8856 14.7651 22.8774C14.7686 22.8692 14.7704 22.8603 14.7702 22.8513C14.77 22.8424 14.7679 22.8336 14.764 22.8255C14.6887 22.6691 14.6353 22.5032 14.6053 22.3322C14.4593 21.4896 14.9001 20.6508 15.6771 20.2922C15.7065 20.2786 15.7207 20.2449 15.7098 20.2144C15.6735 20.113 15.646 20.0087 15.6276 19.9026C15.5091 19.219 15.7765 18.556 16.2717 18.1361V15.4521C16.2717 14.464 15.4651 13.6555 14.4792 13.6555H10.3568C9.37096 13.6555 8.56433 14.464 8.56433 15.4521V29.8444C8.92352 29.5416 9.33758 29.2881 9.79696 29.0989Z" fill="#A2DFF9"/>
<path d="M14.7266 22.912C14.7351 22.9093 14.743 22.9048 14.7496 22.8988C14.7563 22.8928 14.7616 22.8855 14.7651 22.8772C14.7687 22.869 14.7704 22.8601 14.7702 22.8512C14.7701 22.8422 14.768 22.8334 14.7641 22.8254C14.6888 22.669 14.6353 22.503 14.6053 22.3321C14.4593 21.4895 14.9001 20.6506 15.6772 20.2921C15.7066 20.2785 15.7208 20.2447 15.7099 20.2142C15.6736 20.1128 15.6461 20.0085 15.6276 19.9024C15.5091 19.2188 15.7765 18.5558 16.2718 18.136V16.9275H8.56433V23.5776H13.7593C14.0077 23.2639 14.3447 23.032 14.7266 22.912Z" fill="#046699"/>
<path d="M10.5 28.3195V15.4518C10.5 14.4637 11.3065 13.6553 12.2924 13.6553H10.3568C9.37096 13.6553 8.56433 14.4637 8.56433 15.4518V29.8442C8.92352 29.5415 9.33758 29.288 9.79696 29.0987C9.80516 29.0954 9.81255 29.0903 9.81864 29.0839C9.82473 29.0774 9.82937 29.0698 9.83227 29.0614C9.83517 29.053 9.83625 29.0441 9.83544 29.0353C9.83463 29.0265 9.83195 29.0179 9.82758 29.0102C9.80077 28.9628 9.78721 28.9163 9.78721 28.8719C9.78727 28.6695 10.0516 28.4589 10.5 28.3195Z" fill="white" fill-opacity="0.2"/>
<path d="M22.1587 18.7655C22.1768 18.8697 22.1861 18.9779 22.1863 19.0869C22.1863 19.1025 22.1922 19.1176 22.2027 19.1291C22.2133 19.1406 22.2277 19.1477 22.2433 19.1491C23.0433 19.2194 23.7123 19.7894 23.908 20.5674C23.9107 20.578 23.916 20.5876 23.9236 20.5955C23.9311 20.6033 23.9405 20.609 23.951 20.6121C23.9614 20.6152 23.9724 20.6155 23.983 20.613C23.9936 20.6105 24.0033 20.6053 24.0113 20.5979C24.3373 20.2938 24.743 20.1111 25.1845 20.0694C25.1997 20.068 25.2138 20.0611 25.2242 20.05C25.2346 20.039 25.2406 20.0244 25.2411 20.0092C25.2695 19.1328 25.6259 18.3086 26.2447 17.6886C26.2576 17.6756 26.2711 17.6636 26.2842 17.6508C26.1473 16.7782 25.7452 15.9396 25.0757 15.2686C25.0444 15.2373 25.0073 15.2124 24.9663 15.1954C24.9254 15.1784 24.8815 15.1697 24.8372 15.1697C24.7929 15.1697 24.749 15.1784 24.7081 15.1954C24.6672 15.2124 24.63 15.2373 24.5987 15.2686L21.8552 18.0184C22.009 18.2427 22.1125 18.4975 22.1587 18.7655Z" fill="#EF5050"/>
<path d="M23.9081 20.5673C23.9107 20.5779 23.9161 20.5875 23.9236 20.5954C23.9311 20.6032 23.9406 20.6089 23.951 20.612C23.9614 20.6151 23.9725 20.6154 23.983 20.6129C23.9936 20.6104 24.0034 20.6052 24.0113 20.5978C24.1678 20.4515 24.3467 20.3313 24.5413 20.2418C24.5191 20.1678 24.4789 20.1004 24.4243 20.0458L23.9692 19.5896C23.8814 19.5016 23.7623 19.452 23.638 19.4519C23.5137 19.4517 23.3944 19.501 23.3064 19.5888C23.305 19.5901 23.3039 19.5915 23.3026 19.5929C23.6009 19.8468 23.8125 20.1874 23.9081 20.5673ZM24.8829 19.1798H24.2394C23.9804 19.1798 23.7706 18.9699 23.7706 18.7111C23.7706 18.4522 23.9804 18.2423 24.2394 18.2423H24.8829C25.0072 18.2423 25.1264 18.2917 25.2143 18.3796C25.3022 18.4675 25.3516 18.5868 25.3516 18.7111C25.3516 18.97 25.1418 19.1798 24.8829 19.1798ZM24.1486 17.8848C24.0559 17.8848 23.9653 17.8573 23.8883 17.8058C23.8112 17.7544 23.7511 17.6812 23.7156 17.5956C23.6801 17.5101 23.6708 17.4159 23.6888 17.325C23.7068 17.2341 23.7513 17.1506 23.8167 17.0849L24.272 16.6288C24.3598 16.5408 24.479 16.4913 24.6033 16.4912C24.7277 16.4911 24.8469 16.5404 24.9349 16.6282C25.0229 16.716 25.0724 16.8352 25.0725 16.9595C25.0727 17.0839 25.0234 17.2031 24.9355 17.2911L24.4803 17.7473C24.4368 17.7909 24.3851 17.8256 24.3282 17.8492C24.2712 17.8728 24.2102 17.8849 24.1486 17.8848Z" fill="#C0272D"/>
<path d="M30.0252 16.9289C30.0197 16.9147 30.0113 16.9019 30.0006 16.8911C29.9899 16.8803 29.977 16.8719 29.9629 16.8663C29.3284 16.6133 28.6337 16.5521 27.9648 16.6904C27.2959 16.8287 26.6823 17.1605 26.2003 17.6444C25.5569 18.2892 25.1898 19.1593 25.1771 20.0701C25.2427 20.0636 25.3085 20.0603 25.3743 20.0603C26.3464 20.0603 27.1585 20.7584 27.3387 21.6807C28.0628 21.5628 28.7313 21.2197 29.2491 20.7C30.2365 19.7102 30.5412 18.23 30.0252 16.9289Z" fill="#89C947"/>
<path d="M28.3411 18.5544C28.2976 18.5109 28.2459 18.4765 28.189 18.453C28.1321 18.4295 28.0711 18.4174 28.0095 18.4175C27.948 18.4176 27.887 18.4297 27.8302 18.4534C27.7734 18.477 27.7217 18.5116 27.6783 18.5552L26.0568 20.1804C26.3602 20.2913 26.6323 20.4739 26.8501 20.7125L28.342 19.2173C28.3854 19.1737 28.4199 19.122 28.4434 19.0651C28.4669 19.0082 28.4789 18.9473 28.4789 18.8857C28.4788 18.8241 28.4666 18.7632 28.443 18.7064C28.4193 18.6495 28.3847 18.5979 28.3411 18.5544Z" fill="#D5E962"/>
<path d="M30.6984 22.2969C30.7148 22.3925 30.7231 22.4893 30.7231 22.5862C30.7232 22.6186 30.7479 22.6455 30.7801 22.6484C31.0338 22.6707 31.2757 22.7494 31.499 22.8821C31.5116 22.8896 31.5264 22.8924 31.5408 22.8901C31.5553 22.8878 31.5685 22.8805 31.5781 22.8695C31.6243 22.816 31.6723 22.7641 31.7221 22.7139C32.0993 22.3358 32.5555 22.0659 33.0529 21.9188C33.1007 21.7422 33.125 21.56 33.1249 21.377C33.1249 20.2343 32.2007 19.3079 31.0605 19.3079C30.0881 19.3079 29.2732 19.9819 29.0543 20.8891C29.4495 20.8953 29.8301 21.0394 30.1303 21.2964C30.4305 21.5535 30.6315 21.9074 30.6984 22.2969ZM16.5505 25.068C16.3423 24.6989 16.2089 24.2923 16.1581 23.8716C15.86 23.823 15.578 23.7033 15.3358 23.5227C15.0937 23.3422 14.8986 23.106 14.7669 22.8342C13.8991 23.079 13.2628 23.8775 13.2628 24.8255C13.2628 24.9077 13.2691 24.9883 13.2784 25.0679H16.5505V25.068Z" fill="#FFC502"/>
<path d="M32.3059 24.0509C32.3666 24.3961 32.3182 24.7516 32.1674 25.0681H34.8202C35.1321 24.6302 35.3294 24.1212 35.3941 23.5875C35.4589 23.0538 35.3889 22.5124 35.1907 22.0127C35.1856 21.9997 35.1779 21.9879 35.168 21.978C35.1582 21.9682 35.1464 21.9604 35.1334 21.9552C34.5508 21.7228 33.9127 21.6666 33.2984 21.7936C32.6841 21.9207 32.1206 22.2253 31.6779 22.6698C31.6124 22.736 31.5498 22.805 31.4902 22.8766C31.9112 23.1239 32.2185 23.5467 32.3059 24.0509Z" fill="#89C947"/>
<path d="M32.1674 25.068H32.747L33.6716 24.1414C33.7151 24.0978 33.7496 24.0461 33.7731 23.9892C33.7966 23.9323 33.8086 23.8713 33.8085 23.8098C33.8085 23.7482 33.7962 23.6873 33.7726 23.6304C33.749 23.5736 33.7144 23.522 33.6708 23.4785C33.6272 23.435 33.5755 23.4005 33.5186 23.377C33.4617 23.3535 33.4008 23.3415 33.3392 23.3416C33.2776 23.3416 33.2167 23.3538 33.1599 23.3774C33.103 23.4011 33.0514 23.4357 33.0079 23.4793L32.3215 24.1673C32.3541 24.476 32.3008 24.7877 32.1674 25.068Z" fill="#D5E962"/>
<path d="M23.9798 20.6034C23.7917 19.7615 23.0791 19.1595 22.2488 19.0866C22.2488 18.9753 22.2392 18.8642 22.2203 18.7545C22.0362 17.6923 21.0245 16.9811 19.9608 17.1663C19.4086 17.2624 18.9515 17.5815 18.6645 18.0142C18.249 17.7037 17.7111 17.5579 17.159 17.654C16.095 17.8392 15.382 18.8506 15.5662 19.9129C15.5855 20.0244 15.6143 20.1319 15.6511 20.235C14.8661 20.5972 14.3895 21.4517 14.5438 22.3425C14.6897 23.1845 15.3559 23.8053 16.1558 23.9345C16.0783 23.3975 16.1405 22.8432 16.348 22.3197C16.35 22.3146 16.3531 22.31 16.3569 22.3061C16.3608 22.3022 16.3654 22.2992 16.3705 22.2972C16.7404 22.1493 17.1352 22.0734 17.5336 22.0736C18.3736 22.0736 19.1638 22.4018 19.7585 22.9978C19.8013 23.0409 19.8428 23.0853 19.883 23.1308C19.8494 22.9133 19.8325 22.6936 19.8325 22.4736C19.8325 22.3217 19.9556 22.1982 20.1071 22.1982H23.3798C23.3768 22.1544 23.3752 22.1105 23.375 22.0667C23.375 21.4953 23.6061 20.9779 23.9798 20.6034Z" fill="#368C0E"/>
<path d="M17.1347 20.7866L17.1266 20.7865C17.065 20.7855 17.0043 20.7724 16.9478 20.7478C16.8914 20.7233 16.8403 20.6879 16.7975 20.6437C16.7547 20.5994 16.7211 20.5472 16.6985 20.4899C16.6759 20.4326 16.6648 20.3715 16.6658 20.3099C16.6796 19.4984 17.3452 18.8469 18.1546 18.8469L18.1784 18.8471C18.381 18.8506 18.5807 18.8953 18.7654 18.9785C18.9502 19.0616 19.116 19.1816 19.2529 19.3309C19.3351 19.423 19.3777 19.5437 19.3714 19.667C19.3651 19.7903 19.3105 19.9061 19.2194 19.9893C19.1283 20.0726 19.008 20.1165 18.8847 20.1116C18.7613 20.1067 18.6449 20.0534 18.5607 19.9632C18.5104 19.9077 18.4492 19.8632 18.3808 19.8324C18.3125 19.8017 18.2386 19.7854 18.1637 19.7845C17.859 19.7796 17.6083 20.0226 17.6032 20.3259C17.6011 20.4487 17.5508 20.5659 17.4632 20.652C17.3756 20.7382 17.2576 20.7865 17.1347 20.7866ZM19.7225 21.5932C19.6469 21.5932 19.5724 21.5749 19.5054 21.5399C19.4384 21.5048 19.3808 21.4541 19.3376 21.3921C19.2945 21.33 19.267 21.2584 19.2574 21.1834C19.2479 21.1084 19.2567 21.0322 19.283 20.9613C19.5445 20.2564 20.3312 19.8946 21.037 20.1549C21.2112 20.2196 21.3705 20.3191 21.505 20.4473C21.6395 20.5755 21.7466 20.7298 21.8195 20.9007C21.8682 21.0152 21.8693 21.1442 21.8228 21.2595C21.7763 21.3748 21.6859 21.4669 21.5715 21.5155C21.457 21.5641 21.328 21.5653 21.2127 21.5188C21.0974 21.4723 21.0053 21.3818 20.9567 21.2674C20.9342 21.2139 20.9009 21.1655 20.8588 21.1254C20.8168 21.0853 20.7669 21.0544 20.7123 21.0344C20.4907 20.9527 20.244 21.0662 20.162 21.2873C20.1287 21.3771 20.0688 21.4545 19.9902 21.5092C19.9116 21.5638 19.8182 21.5932 19.7225 21.5932Z" fill="#89C947"/>
<path d="M27.3721 22.1931H27.355C27.3549 22.1975 27.3549 22.2019 27.3547 22.2063H27.9826C28.0269 22.2063 28.0708 22.2151 28.1118 22.2321C28.1527 22.2491 28.1899 22.274 28.2212 22.3054C28.2525 22.3368 28.2774 22.374 28.2943 22.415C28.3112 22.456 28.3199 22.4999 28.3198 22.5442C28.3198 23.4861 28.0158 24.357 27.5038 25.068H32.2348C32.3762 24.7567 32.4301 24.4021 32.3675 24.0401C32.2281 23.2356 31.5633 22.6544 30.7857 22.5861C30.7857 22.4856 30.7771 22.3853 30.76 22.2862C30.5937 21.3267 29.68 20.6844 28.7192 20.8517C28.2205 20.9386 27.8075 21.2267 27.5484 21.6176C27.4641 21.555 27.3744 21.5 27.2804 21.4532C27.3441 21.6515 27.3765 21.8585 27.3765 22.0667C27.3764 22.108 27.375 22.1497 27.3721 22.1931Z" fill="#368C0E"/>
<path d="M27.4339 22.1982C27.4368 22.1547 27.4389 22.111 27.4389 22.0667C27.4389 20.9239 26.5146 19.9976 25.3744 19.9976C24.2342 19.9976 23.3099 20.924 23.3099 22.0667C23.3099 22.111 23.312 22.1547 23.3148 22.1982H27.4339Z" fill="#F7931E"/>
<path d="M19.8028 22.9539C19.3601 22.5095 18.7966 22.2049 18.1823 22.0778C17.568 21.9508 16.9299 22.007 16.3473 22.2394C16.3343 22.2445 16.3225 22.2523 16.3126 22.2622C16.3028 22.2721 16.295 22.2839 16.2899 22.2969C16.1127 22.7437 16.0378 23.2245 16.0706 23.704C16.1035 24.1836 16.2432 24.6497 16.4797 25.0682H20.7347C20.3037 24.4941 20.0115 23.8098 19.9089 23.0656C19.8744 23.0275 19.839 22.9903 19.8028 22.9539Z" fill="#89C947"/>
<path d="M18.4501 25.0681H19.7744L18.4726 23.7634C18.3848 23.6754 18.2656 23.6259 18.1413 23.6257C18.017 23.6256 17.8977 23.6748 17.8097 23.7626C17.7661 23.8061 17.7315 23.8577 17.7079 23.9146C17.6843 23.9714 17.6721 24.0323 17.672 24.0939C17.6719 24.1555 17.684 24.2164 17.7075 24.2733C17.731 24.3302 17.7654 24.3819 17.8089 24.4255L18.4501 25.0681Z" fill="#D5E962"/>
<path d="M27.5354 25.0681C28.0785 24.3446 28.4023 23.4467 28.4023 22.4737C28.4023 22.4293 28.3936 22.3854 28.3767 22.3444C28.3598 22.3035 28.335 22.2662 28.3037 22.2348C28.2723 22.2035 28.2351 22.1785 28.1942 22.1615C28.1533 22.1445 28.1094 22.1358 28.065 22.1357H20.1071C20.0628 22.1358 20.0189 22.1446 19.978 22.1616C19.9371 22.1786 19.8999 22.2035 19.8686 22.2349C19.8373 22.2663 19.8125 22.3035 19.7955 22.3445C19.7786 22.3855 19.77 22.4294 19.77 22.4737C19.77 23.4467 20.0938 24.3446 20.637 25.0681H27.5354Z" fill="#EF5050"/>
<path d="M24.5719 25.0681V24.7438C24.5719 24.485 24.3621 24.2751 24.1031 24.2751C23.8442 24.2751 23.6344 24.485 23.6344 24.7438V25.0681H24.5719ZM25.4712 25.0681H26.2001C26.2736 24.9782 26.3112 24.8642 26.3055 24.7482C26.2997 24.6322 26.2511 24.5225 26.1691 24.4403L25.7141 23.9841C25.6263 23.8961 25.5071 23.8466 25.3828 23.8465C25.2585 23.8463 25.1392 23.8955 25.0512 23.9833C24.9632 24.0711 24.9137 24.1903 24.9135 24.3146C24.9134 24.4389 24.9626 24.5582 25.0504 24.6462L25.4712 25.0681ZM22.6612 25.0681L23.0819 24.6463C23.1691 24.5582 23.2179 24.4391 23.2175 24.3151C23.2171 24.1912 23.1676 24.0724 23.0798 23.9848C22.9921 23.8973 22.8732 23.848 22.7492 23.8479C22.6252 23.8478 22.5063 23.8968 22.4183 23.9841L21.9632 24.4403C21.8812 24.5225 21.8326 24.6322 21.8268 24.7482C21.8211 24.8641 21.8586 24.9781 21.9321 25.068L22.6612 25.0681ZM21.9405 23.804H21.2969C21.0379 23.804 20.8281 23.5941 20.8281 23.3352C20.8281 23.0763 21.0379 22.8665 21.2969 22.8665H21.9405C22.0648 22.8665 22.184 22.9158 22.272 23.0037C22.3599 23.0917 22.4093 23.2109 22.4093 23.3352C22.4093 23.4595 22.3599 23.5788 22.272 23.6667C22.184 23.7546 22.0648 23.804 21.9405 23.804ZM26.8754 23.804H26.2317C26.1074 23.804 25.9881 23.7546 25.9002 23.6667C25.8123 23.5788 25.7629 23.4595 25.7629 23.3352C25.7629 23.2109 25.8123 23.0917 25.9002 23.0037C25.9881 22.9158 26.1074 22.8665 26.2317 22.8665H26.8754C26.9997 22.8665 27.1189 22.9158 27.2068 23.0037C27.2947 23.0917 27.3441 23.2109 27.3441 23.3352C27.3441 23.4595 27.2947 23.5788 27.2068 23.6667C27.1189 23.7546 26.9997 23.804 26.8754 23.804Z" fill="#C0272D"/>
<path d="M12.8112 28.3C12.8205 28.3026 12.8303 28.3031 12.8398 28.3013C12.8492 28.2995 12.8582 28.2955 12.8659 28.2897C12.8736 28.2839 12.8798 28.2763 12.8841 28.2677C12.8884 28.2591 12.8907 28.2496 12.8907 28.2399V27.4466C12.8907 27.2226 13.0729 27.0404 13.2969 27.0404C13.5209 27.0404 13.7032 27.2226 13.7032 27.4466V28.2399C13.7031 28.2496 13.7054 28.2591 13.7097 28.2678C13.714 28.2764 13.7202 28.284 13.7279 28.2898C13.7356 28.2956 13.7446 28.2996 13.754 28.3014C13.7635 28.3031 13.7733 28.3027 13.7826 28.3C14.1114 28.2074 14.4994 28.1584 14.9043 28.1584C16.0421 28.1584 16.8065 28.5272 16.8065 28.8717C16.8065 28.9162 16.7929 28.9628 16.7661 29.0102C16.7617 29.0179 16.7591 29.0264 16.7583 29.0352C16.7575 29.0441 16.7585 29.053 16.7614 29.0613C16.7643 29.0697 16.7689 29.0774 16.775 29.0838C16.7811 29.0903 16.7885 29.0954 16.7967 29.0987C18.2535 29.6992 19.2858 30.973 19.4909 32.423C19.493 32.4379 19.5004 32.4515 19.5118 32.4614C19.5232 32.4712 19.5377 32.4767 19.5527 32.4767C19.5602 32.4767 19.5677 32.4754 19.5749 32.4727L29.4421 28.7242C29.6323 28.6518 29.8342 28.6148 30.0377 28.6149C30.3239 28.6149 30.6069 28.6887 30.8564 28.8283C31.2901 29.071 31.5907 29.4897 31.681 29.9769L31.7669 30.441C31.7687 30.4509 31.7729 30.4602 31.7791 30.4681C31.7853 30.4761 31.7933 30.4824 31.8025 30.4865C31.8116 30.4907 31.8217 30.4926 31.8317 30.4921C31.8417 30.4915 31.8515 30.4885 31.8602 30.4834L35.1777 28.525C35.4627 27.5092 35.6072 26.456 35.6072 25.3742C35.6073 25.3317 35.5989 25.2896 35.5827 25.2503C35.5665 25.211 35.5427 25.1754 35.5127 25.1453C35.4827 25.1152 35.447 25.0913 35.4078 25.075C35.3685 25.0587 35.3265 25.0503 35.284 25.0503H12.712C12.6696 25.0503 12.6275 25.0587 12.5882 25.075C12.549 25.0913 12.5134 25.1152 12.4833 25.1453C12.4533 25.1754 12.4295 25.211 12.4133 25.2503C12.3971 25.2896 12.3888 25.3317 12.3888 25.3742C12.3888 26.3711 12.512 27.3437 12.7542 28.2852C12.7732 28.2902 12.7927 28.2948 12.8112 28.3Z" fill="#E6E9ED"/>
<path d="M12.8112 28.3C12.8205 28.3026 12.8303 28.3031 12.8398 28.3013C12.8492 28.2995 12.8582 28.2955 12.8659 28.2897C12.8736 28.2839 12.8798 28.2763 12.8841 28.2677C12.8884 28.2591 12.8907 28.2496 12.8907 28.2399V27.4466C12.8907 27.2226 13.0729 27.0404 13.2969 27.0404C13.5209 27.0404 13.7032 27.2226 13.7032 27.4466V28.2399C13.7031 28.2496 13.7054 28.2591 13.7097 28.2678C13.714 28.2764 13.7202 28.284 13.7279 28.2898C13.7356 28.2956 13.7446 28.2996 13.754 28.3014C13.7635 28.3031 13.7733 28.3027 13.7826 28.3C14.064 28.2207 14.389 28.1737 14.7307 28.1618C14.5092 27.2588 14.397 26.3275 14.397 25.3742C14.3969 25.3317 14.4053 25.2896 14.4215 25.2503C14.4377 25.211 14.4615 25.1754 14.4915 25.1453C14.5215 25.1152 14.5572 25.0913 14.5964 25.075C14.6357 25.0587 14.6777 25.0503 14.7202 25.0503H12.712C12.6696 25.0503 12.6275 25.0587 12.5882 25.075C12.549 25.0913 12.5134 25.1152 12.4833 25.1453C12.4533 25.1754 12.4295 25.211 12.4133 25.2503C12.3971 25.2896 12.3888 25.3317 12.3888 25.3742C12.3888 26.3711 12.512 27.3437 12.7542 28.2852C12.7732 28.2902 12.7927 28.2948 12.8112 28.3Z" fill="white" fill-opacity="0.2"/>
<path d="M13.2969 28.5233C13.4252 28.4513 13.5842 28.3885 13.7657 28.3373V27.4468C13.7657 27.1879 13.5559 26.978 13.297 26.978C13.0381 26.978 12.8282 27.1879 12.8282 27.4468V28.3373C13.0097 28.3884 13.1686 28.4513 13.2969 28.5233Z" fill="#89C947"/>
<path d="M18.0856 37.2219L16.3926 37.2225H16.3919C15.586 37.2225 14.8949 36.6497 14.7488 35.8605L14.7321 35.7708C14.5859 34.9815 15.0266 34.2008 15.7799 33.9145L19.5619 32.4778C19.3672 30.92 18.2694 29.6154 16.7621 29.0169C16.6158 29.2627 16.1122 29.4767 15.4564 29.5536C15.4442 29.555 15.4326 29.5601 15.4232 29.568C15.4138 29.576 15.407 29.5866 15.4036 29.5984C15.4002 29.6103 15.4004 29.6229 15.4041 29.6346C15.4079 29.6464 15.415 29.6568 15.4246 29.6645C15.7645 29.9364 15.978 30.223 15.9958 30.4313C16.0023 30.5068 15.9838 30.568 15.939 30.6185C15.8593 30.7085 15.7026 30.7561 15.4858 30.7561C15.0638 30.7561 14.4931 30.5797 13.9592 30.2842C13.7241 30.1539 13.5149 30.0115 13.3373 29.861C13.326 29.8514 13.3117 29.8462 13.2969 29.8462C13.2821 29.8462 13.2678 29.8514 13.2565 29.861C13.0787 30.0117 12.8695 30.154 12.6346 30.2841C12.1007 30.5797 11.5301 30.7561 11.1081 30.7561C10.8912 30.7561 10.7346 30.7085 10.6549 30.6185C10.6101 30.568 10.5915 30.5069 10.598 30.4314C10.6159 30.223 10.8294 29.9364 11.1691 29.6645C11.1787 29.6568 11.1858 29.6464 11.1896 29.6346C11.1933 29.6229 11.1934 29.6103 11.1901 29.5985C11.1867 29.5866 11.1798 29.5761 11.1705 29.5681C11.1611 29.5601 11.1495 29.5551 11.1373 29.5536C10.4814 29.4767 9.97769 29.2625 9.83169 29.0166C8.16606 29.6779 7 31.201 7 32.975C7 35.3554 9.09881 37.285 11.6877 37.285H18.1875C18.2577 37.285 18.2034 37.2601 18.0856 37.2219Z" fill="#EF5050"/>
<path d="M9.02813 32.975C9.02813 31.5611 9.76863 30.3063 10.9124 29.5203C10.3677 29.4252 9.96044 29.2335 9.83162 29.0166C8.16606 29.6778 7 31.2009 7 32.975C7 35.3554 9.09881 37.285 11.6877 37.285H13.7159C11.127 37.285 9.02813 35.3554 9.02813 32.975Z" fill="white" fill-opacity="0.2"/>
<path d="M16.8691 28.872C16.8691 28.4435 15.9895 28.0962 14.9044 28.0962C14.2398 28.0962 13.6524 28.2266 13.2969 28.4262C12.9415 28.2267 12.3542 28.0962 11.6895 28.0962C10.6045 28.0962 9.72473 28.4435 9.72473 28.872C9.72473 29.2236 10.3176 29.5204 11.1299 29.6158C10.633 30.0134 10.4054 30.4314 10.6079 30.66C10.8762 30.9629 11.7972 30.8191 12.6647 30.3388C12.9083 30.2039 13.1217 30.0571 13.2967 29.9087C13.4719 30.0571 13.6855 30.2039 13.9289 30.3388C14.7964 30.8191 15.7174 30.9628 15.9856 30.66C16.1882 30.4314 15.9607 30.0134 15.4635 29.6158C16.2764 29.5204 16.8691 29.2236 16.8691 28.872Z" fill="#368C0E"/>
<path d="M38.9928 31.6475L38.8669 30.9685C38.8236 30.7341 38.5976 30.5793 38.3622 30.6224L33.504 31.5148L36.606 29.4413C36.676 29.3945 36.7309 29.3282 36.7637 29.2506C36.7966 29.173 36.806 29.0875 36.7908 29.0046C36.782 28.9578 36.7656 28.9128 36.7421 28.8713L36.3911 28.2496C36.3627 28.1994 36.3246 28.1553 36.279 28.1201C36.2334 28.0848 36.1812 28.059 36.1255 28.0443C36.0697 28.0294 36.0115 28.0257 35.9544 28.0336C35.8972 28.0414 35.8421 28.0605 35.7925 28.0899L31.7572 30.472L32.5206 34.5932L37.149 35.4249C37.206 35.4352 37.2646 35.434 37.3212 35.4213C37.3777 35.4085 37.4312 35.3846 37.4784 35.3509C37.5255 35.3173 37.5654 35.2746 37.5956 35.2252C37.6258 35.1758 37.6458 35.1209 37.6544 35.0636L37.759 34.3617C37.7663 34.3134 37.7653 34.2656 37.7568 34.2201C37.7413 34.1372 37.7019 34.0606 37.6434 33.9998C37.585 33.9389 37.51 33.8966 37.4277 33.8778L33.787 33.0428L38.6452 32.1503C38.8807 32.107 39.0361 31.882 38.9928 31.6475Z" fill="#89C947"/>
<path d="M14.6874 35.8719C14.8391 36.6909 15.5564 37.2853 16.3926 37.2849L31.0156 37.2793C31.2695 37.2793 31.5204 37.2236 31.7505 37.1161C31.9806 37.0087 32.1843 36.852 32.3473 36.6572C32.5098 36.4629 32.6275 36.2351 32.6918 35.9901C32.7562 35.7451 32.7657 35.4889 32.7196 35.2398L31.7427 29.9656C31.6492 29.4616 31.3358 29.0249 30.8871 28.7738C30.4384 28.5227 29.901 28.4833 29.4201 28.6658L15.7577 33.856C14.9764 34.1529 14.5191 34.963 14.6707 35.7821L14.6874 35.8719Z" fill="#F7931E"/>
<path d="M14.6874 35.8718C14.7107 35.9952 14.7475 36.1156 14.7971 36.231C15.0046 35.8621 15.3352 35.5778 15.7311 35.4279L29.9991 30.0076C30.2472 29.9134 30.5129 29.8747 30.7776 29.8942C31.0423 29.9136 31.2995 29.9909 31.5311 30.1204C31.6286 30.1752 31.7208 30.2389 31.8065 30.3107L31.7427 29.9656C31.6492 29.4616 31.3358 29.0249 30.8871 28.7738C30.4384 28.5227 29.901 28.4833 29.4201 28.6658L15.7577 33.856C14.9764 34.1529 14.5191 34.963 14.6707 35.7821L14.6874 35.8718Z" fill="white" fill-opacity="0.2"/>
<path d="M30.1773 35.0866C30.1528 34.9657 30.0815 34.8593 29.979 34.7905C29.8765 34.7217 29.751 34.6962 29.6298 34.7194C29.5086 34.7425 29.4014 34.8126 29.3315 34.9144C29.2616 35.0161 29.2347 35.1413 29.2565 35.2628L29.6424 37.2798L30.5968 37.2794L30.1773 35.0866ZM27.6364 35.6425C27.6125 35.5211 27.5416 35.4142 27.4392 35.3449C27.3368 35.2755 27.2112 35.2495 27.0897 35.2724C26.9682 35.2953 26.8606 35.3653 26.7905 35.4671C26.7203 35.569 26.6933 35.6944 26.7152 35.8161L26.9913 37.2808L27.9452 37.2804L27.6364 35.6425ZM25.1524 32.112C25.1779 32.2131 25.2364 32.3029 25.3187 32.3671C25.401 32.4313 25.5023 32.4662 25.6067 32.4663C25.678 32.4664 25.7484 32.4502 25.8126 32.4189C25.8767 32.3876 25.9328 32.3421 25.9767 32.2858C26.0206 32.2296 26.051 32.164 26.0658 32.0942C26.0805 32.0244 26.079 31.9521 26.0616 31.883L25.6154 30.1111L24.733 30.4463L25.1524 32.112ZM22.7133 35.234C22.6912 35.1116 22.6215 35.003 22.5193 34.9321C22.4172 34.8612 22.2911 34.8338 22.1688 34.8558C22.0464 34.8779 21.9379 34.9477 21.867 35.0498C21.796 35.1519 21.7686 35.278 21.7907 35.4003L22.1301 37.2826L23.0827 37.2823L22.7133 35.234ZM17.9845 34.3578C17.9969 34.4183 18.0211 34.4758 18.0558 34.5269C18.0904 34.578 18.1348 34.6217 18.1864 34.6556C18.2381 34.6895 18.2959 34.7128 18.3565 34.7243C18.4172 34.7358 18.4795 34.7352 18.54 34.7225C18.6004 34.7098 18.6577 34.6853 18.7086 34.6504C18.7596 34.6155 18.8031 34.5709 18.8368 34.5191C18.8704 34.4673 18.8935 34.4094 18.9047 34.3487C18.9159 34.288 18.9149 34.2256 18.902 34.1653L18.6097 32.7726L17.7225 33.1096L17.9845 34.3578Z" fill="#FFC502"/>
</g>
<defs>
<clipPath id="clip0_40_11759">
<rect width="32" height="32" fill="white" transform="translate(7 7)"/>
</clipPath>
</defs>
</svg>
