<svg width="46" height="46" viewBox="0 0 46 46" fill="none" xmlns="http://www.w3.org/2000/svg">
<rect width="46" height="46" rx="23" fill="white"/>
<g clip-path="url(#clip0_40_11774)">
<path d="M23 41.015C32.9494 41.015 41.0149 32.9495 41.0149 23.0002C41.0149 13.0509 32.9494 4.98535 23 4.98535C13.0507 4.98535 4.98523 13.0509 4.98523 23.0002C4.98523 32.9495 13.0507 41.015 23 41.015Z" fill="#4FE88D"/>
<path d="M36.9601 23.0001C36.9601 23.084 36.9601 23.1698 36.9578 23.2537C36.8227 30.8504 30.6267 36.9602 23 36.9602C16.1921 36.9602 10.5245 32.0906 9.29128 25.641C9.1235 24.7707 9.03933 23.8864 9.03992 23.0001C9.03992 15.2917 15.2894 9.04004 23 9.04004C30.7106 9.04004 36.9601 15.2917 36.9601 23.0001Z" fill="#35D175"/>
<path d="M24.8759 11.4989V21.6294C24.8759 22.2426 24.6323 22.8307 24.1987 23.2643C23.7651 23.6979 23.177 23.9415 22.5638 23.9415H8.39513C8.09148 23.9415 7.7908 23.8818 7.51025 23.7656C7.2297 23.6494 6.97479 23.4791 6.76006 23.2644C6.54533 23.0497 6.375 22.7948 6.25879 22.5143C6.14258 22.2337 6.08276 21.9331 6.08276 21.6294V11.4989C6.08273 11.1952 6.14251 10.8945 6.25871 10.6139C6.3749 10.3334 6.54523 10.0784 6.75996 9.86372C6.97469 9.64899 7.22962 9.47866 7.51018 9.36247C7.79075 9.24627 8.09146 9.18649 8.39513 9.18652H22.5638C23.177 9.18652 23.7651 9.43012 24.1987 9.86372C24.6323 10.2973 24.8759 10.8857 24.8759 11.4989Z" fill="#C68142"/>
<path d="M24.8761 19.6722V21.6291C24.8761 22.9056 23.8392 23.9423 22.5629 23.9423H8.39512C7.11889 23.9423 6.08191 22.9056 6.08191 21.6291V11.4983C6.08191 10.2218 7.11889 9.18506 8.39512 9.18506H9.21142V17.3593C9.21101 17.6629 9.27047 17.9636 9.38638 18.2442C9.5023 18.5248 9.6724 18.7799 9.88696 18.9947C10.1015 19.2095 10.3563 19.3799 10.6368 19.4962C10.9173 19.6124 11.2179 19.6722 11.5215 19.6722H24.8761Z" fill="#AF6223"/>
<path d="M9.25721 22.1371C8.8938 22.1371 8.54527 21.9927 8.2883 21.7358C8.03133 21.4788 7.88696 21.1303 7.88696 20.7669V12.361C7.88696 11.9976 8.03133 11.649 8.2883 11.3921C8.54527 11.1351 8.8938 10.9907 9.25721 10.9907H21.7012C22.0646 10.9907 22.4132 11.1351 22.6701 11.3921C22.9271 11.649 23.0715 11.9976 23.0715 12.361V20.7669C23.0715 21.1303 22.9271 21.4788 22.6701 21.7358C22.4132 21.9927 22.0646 22.1371 21.7012 22.1371H9.25721Z" fill="white"/>
<path d="M23.0715 20.6638V20.7674C23.0714 21.1309 22.927 21.4795 22.6699 21.7365C22.4128 21.9935 22.0642 22.1379 21.7007 22.1379H9.25725C8.89397 22.1372 8.54576 21.9926 8.28888 21.7357C8.032 21.4789 7.88739 21.1306 7.88672 20.7674V12.3604C7.88678 12.0156 8.017 11.6836 8.25134 11.4307C8.48567 11.1779 8.80683 11.0228 9.15057 10.9966V19.3003C9.15072 19.6637 9.29513 20.0121 9.55207 20.269C9.80901 20.526 10.1575 20.6704 10.5208 20.6705H22.9648C23.0003 20.6705 23.0361 20.6705 23.0718 20.6641L23.0715 20.6638Z" fill="#F8F7F5"/>
<path d="M15.525 14.8418C15.7792 14.6225 15.9455 14.2999 15.9455 13.9379C15.9453 13.6193 15.8187 13.3137 15.5936 13.0883C15.3684 12.8628 15.0631 12.7357 14.7445 12.7349H14.0695C14.0481 12.7349 14.0284 12.7349 14.009 12.7388C13.9873 12.7427 13.9679 12.7444 13.9462 12.7484H13.9442C13.8851 12.7619 13.8279 12.783 13.7742 12.8111C13.7386 12.8296 13.7051 12.8519 13.6743 12.8776C13.6608 12.8914 13.645 12.9052 13.6312 12.9187C13.5828 12.9642 13.5436 13.0187 13.5158 13.0791C13.4905 13.1261 13.4708 13.1771 13.4612 13.2317C13.4553 13.2514 13.4533 13.2728 13.4513 13.2944C13.4513 13.3139 13.4494 13.3353 13.4494 13.3569V16.3266C13.4494 16.348 13.4513 16.3696 13.4513 16.3891C13.4533 16.4107 13.4553 16.4321 13.4612 16.4518C13.4902 16.5922 13.5667 16.7183 13.6779 16.8089C13.7891 16.8994 13.9281 16.9487 14.0714 16.9486H14.7445C15.0629 16.9482 15.3681 16.8215 15.5933 16.5964C15.8184 16.3712 15.9451 16.066 15.9455 15.7476C15.9455 15.3836 15.7795 15.0627 15.525 14.8418ZM14.7445 16.3558H14.0695C14.054 16.3558 14.0422 16.342 14.0422 16.3266V15.139H14.7445C14.9036 15.1424 15.055 15.208 15.1663 15.3218C15.2776 15.4355 15.3399 15.5883 15.3399 15.7474C15.3399 15.9066 15.2776 16.0594 15.1663 16.1731C15.055 16.2868 14.9036 16.3524 14.7445 16.3558ZM14.7445 14.5462H14.0422V13.3569C14.0422 13.3412 14.054 13.3296 14.0695 13.3296H14.7445C14.9036 13.3331 15.055 13.3987 15.1663 13.5124C15.2776 13.6261 15.3399 13.7789 15.3399 13.9381C15.3399 14.0972 15.2776 14.25 15.1663 14.3637C15.055 14.4775 14.9036 14.5428 14.7445 14.5462ZM11.5753 12.77C11.5618 12.7661 11.546 12.7661 11.5302 12.7661C11.5167 12.7641 11.5029 12.7641 11.4872 12.7641C11.2618 12.7639 11.0406 12.8246 10.8471 12.94C10.6536 13.0554 10.4949 13.2211 10.388 13.4194C10.2877 13.6016 10.2352 13.8062 10.2354 14.0142V16.6238C10.2349 16.645 10.2375 16.6661 10.243 16.6866C10.247 16.7063 10.2529 16.7237 10.2607 16.7412C10.2762 16.7764 10.2979 16.8076 10.3232 16.8352C10.3781 16.8878 10.4505 16.9213 10.5327 16.9213C10.5501 16.9213 10.5659 16.9194 10.5816 16.9174C10.5916 16.9157 10.6014 16.9131 10.6109 16.9095C10.6129 16.9095 10.6165 16.9095 10.6188 16.9075H10.6208C10.6359 16.9037 10.6504 16.8977 10.6638 16.8898C10.7635 16.8411 10.8299 16.7412 10.8299 16.6238V15.2856H12.1427V16.6238C12.1427 16.7026 12.174 16.7783 12.2298 16.834C12.2855 16.8897 12.3611 16.9211 12.44 16.9211C12.5188 16.9211 12.5944 16.8897 12.6502 16.834C12.7059 16.7783 12.7372 16.7026 12.7372 16.6238V14.0145C12.737 13.6985 12.6169 13.3944 12.4013 13.1634C12.1857 12.9325 11.8905 12.7919 11.5753 12.77ZM12.1427 14.6912H10.8299V14.0142C10.83 13.8399 10.8992 13.6728 11.0225 13.5495C11.1457 13.4263 11.3129 13.357 11.4872 13.3569C11.6612 13.3573 11.828 13.4267 11.9509 13.55C12.0738 13.6732 12.1428 13.8402 12.1427 14.0142V14.6912Z" fill="#FC545D"/>
<path d="M18.5892 16.5327C18.5892 16.6822 18.4777 16.808 18.3305 16.8246C17.8278 16.7904 17.3567 16.5666 17.0128 16.1983C16.6688 15.8301 16.4774 15.3449 16.4775 14.841C16.4775 13.7922 17.2961 12.9283 18.3305 12.8594C18.4777 12.8763 18.5895 13.0018 18.5895 13.1513C18.5895 13.3151 18.4564 13.448 18.2925 13.448C17.9228 13.448 17.5682 13.5948 17.3068 13.8563C17.0454 14.1177 16.8985 14.4723 16.8985 14.842C16.8985 15.2117 17.0454 15.5663 17.3068 15.8277C17.5682 16.0892 17.9228 16.236 18.2925 16.236C18.4564 16.236 18.5892 16.3689 18.5892 16.5327Z" fill="#E87458"/>
<path d="M18.7623 16.5328C18.7623 16.6966 18.6295 16.8295 18.4659 16.8295C18.4209 16.8295 18.3759 16.827 18.3308 16.8247C17.828 16.7906 17.3569 16.5668 17.0129 16.1985C16.6688 15.8303 16.4775 15.3451 16.4775 14.8411C16.4775 13.7923 17.2961 12.9284 18.3305 12.8595C18.3756 12.8572 18.4206 12.855 18.4656 12.855C18.5427 12.8574 18.6158 12.8896 18.6695 12.945C18.7232 13.0003 18.7532 13.0744 18.7532 13.1515C18.7532 13.2286 18.7232 13.3027 18.6695 13.3581C18.6158 13.4134 18.5427 13.4457 18.4656 13.4481C18.096 13.4482 17.7416 13.595 17.4801 13.8561C17.2185 14.1173 17.0713 14.4715 17.0706 14.8411C17.0709 15.2111 17.218 15.5658 17.4796 15.8273C17.7413 16.0889 18.096 16.2359 18.4659 16.2361C18.6295 16.2361 18.7623 16.369 18.7623 16.5328ZM20.1711 16.4889C20.1711 16.6961 19.9994 16.8678 19.7923 16.8678C19.5823 16.8678 19.4106 16.6961 19.4106 16.4889C19.4106 16.2789 19.5823 16.1072 19.7923 16.1072C19.9997 16.1072 20.1711 16.2789 20.1711 16.4889Z" fill="#FC545D"/>
<path d="M37.1307 31.3554C36.9902 31.4102 36.8403 31.4366 36.6895 31.4332C36.5388 31.4297 36.3903 31.3965 36.2524 31.3355C36.1146 31.2744 35.9902 31.1867 35.8863 31.0774C35.7825 30.968 35.7014 30.8393 35.6475 30.6984L34.8416 28.0396V31.4185H25.9066V28.0308L25.0976 30.6987C25.0434 30.8393 24.9621 30.9678 24.8583 31.0769C24.7544 31.1859 24.63 31.2735 24.4923 31.3345C24.3546 31.3955 24.2062 31.4287 24.0556 31.4323C23.905 31.4359 23.7552 31.4098 23.6148 31.3554C23.474 31.3015 23.3453 31.2203 23.2361 31.1165C23.1268 31.0127 23.0391 30.8883 22.9781 30.7505C22.917 30.6127 22.8838 30.4642 22.8803 30.3136C22.8768 30.1629 22.9032 30.013 22.9578 29.8726C22.9578 29.8726 24.2672 26.488 25.1528 24.2044C25.3857 23.6037 25.7948 23.0875 26.3264 22.7236C26.858 22.3596 27.4872 22.1649 28.1314 22.165H32.6126C33.9311 22.165 35.1141 22.9749 35.5909 24.2044C36.4765 26.4878 37.7876 29.8726 37.7876 29.8726C37.8967 30.1564 37.8888 30.4718 37.7656 30.7498C37.6425 31.0277 37.4141 31.2455 37.1307 31.3554Z" fill="#2C8CFF"/>
<path d="M37.1318 31.3549C37.0727 31.3774 37.0107 31.3971 36.9516 31.4084C36.9939 31.2029 36.9798 30.9862 36.8981 30.7779C36.8981 30.7779 35.5893 27.3945 34.7026 25.1088C34.4697 24.5084 34.0607 23.9924 33.5292 23.6287C32.9977 23.2649 32.3686 23.0705 31.7245 23.0709H27.2433C26.5931 23.0709 25.9739 23.268 25.4587 23.6142C25.748 23.1692 26.1439 22.8035 26.6104 22.5504C27.0769 22.2972 27.5992 22.1646 28.13 22.1646H32.6112C33.9313 22.1646 35.1136 22.9752 35.5921 24.2053C36.4759 26.4881 37.7876 29.8715 37.7876 29.8715C38.0156 30.4626 37.7229 31.1269 37.1318 31.3549ZM23.1576 29.3567L22.9578 29.8726C22.9032 30.0131 22.8768 30.163 22.8803 30.3137C22.8838 30.4643 22.917 30.6128 22.9781 30.7506C23.0391 30.8884 23.1268 31.0128 23.2361 31.1166C23.3453 31.2204 23.474 31.3016 23.6148 31.3555C23.7552 31.4098 23.905 31.4359 24.0556 31.4323C24.2062 31.4287 24.3546 31.3954 24.4923 31.3345C24.63 31.2735 24.7543 31.1859 24.8582 31.0769C24.9621 30.9678 25.0434 30.8393 25.0976 30.6988L25.5046 29.3567H23.1576Z" fill="#1273FF"/>
<path d="M37.5878 29.3564H35.2411L35.6478 30.6985C35.7017 30.8393 35.7829 30.968 35.8867 31.0773C35.9905 31.1866 36.1149 31.2743 36.2527 31.3353C36.3905 31.3963 36.539 31.4295 36.6897 31.4329C36.8404 31.4364 36.9903 31.41 37.1307 31.3552C37.4142 31.2454 37.6425 31.0276 37.7657 30.7496C37.8888 30.4716 37.8967 30.1562 37.7877 29.8724L37.5878 29.3564ZM25.9066 29.3564H34.8417V31.4183H25.9066V29.3564Z" fill="#1273FF"/>
<path d="M31.7352 21.7827V22.6395C31.7351 22.8192 31.6994 22.9971 31.6302 23.163C31.561 23.3288 31.4597 23.4793 31.3322 23.6059C31.1413 23.7955 30.8987 23.9243 30.6347 23.9761C30.3707 24.028 30.0974 24.0005 29.849 23.8971C29.6007 23.7937 29.3885 23.6191 29.2393 23.3953C29.09 23.1715 29.0104 22.9085 29.0105 22.6395V21.7962C29.4305 22.0214 29.9121 22.1481 30.4241 22.1377C30.8839 22.1306 31.3347 22.0086 31.7352 21.7827Z" fill="#FFC27C"/>
<path d="M31.7352 21.7827V22.6395C31.7351 22.8192 31.6994 22.9971 31.6302 23.163C31.561 23.3288 31.4597 23.4793 31.3322 23.6059C31.2573 23.681 31.1717 23.7494 31.076 23.8038C31.3167 23.5517 31.4512 23.2168 31.4518 22.8684V22.7231C31.4518 22.3994 31.1405 22.1821 30.8283 22.2683C30.6085 22.3288 30.3779 22.3631 30.1406 22.3665C29.7538 22.3734 29.3695 22.3025 29.0105 22.1582V21.7962C29.4305 22.0214 29.9121 22.1481 30.4241 22.1377C30.8839 22.1306 31.3347 22.0086 31.7352 21.7827Z" fill="#F7B26D"/>
<path d="M32.1296 23.6939V23.8721C32.1296 24.1958 31.755 24.3706 31.5075 24.1671L30.376 23.2244L29.2405 24.1671C28.9931 24.3742 28.6184 24.1961 28.6184 23.8757V23.6939C28.6184 24.0176 28.9931 24.1924 29.2405 23.985L30.3101 23.0972L30.3757 23.1371L30.4413 23.0972L31.5075 23.985C31.755 24.1924 32.1296 24.0142 32.1296 23.6939Z" fill="#C0D7DD"/>
<path d="M31.3038 23.8174L31.2053 23.9159L30.8672 24.2543H29.8809L29.4443 23.8174L30.3105 23.0968L30.3758 23.0425L30.4413 23.0971L31.3038 23.8174Z" fill="#C0D7DD"/>
<path d="M30.8669 24.2555L31.3896 27.6195C31.4093 27.7459 31.3705 27.8743 31.2841 27.9685L30.7003 28.6072C30.6597 28.6517 30.61 28.6869 30.5546 28.7105C30.4992 28.7341 30.4394 28.7456 30.3792 28.7442C30.3191 28.7428 30.2599 28.7285 30.2057 28.7023C30.1514 28.6761 30.1035 28.6386 30.065 28.5923L29.54 27.9607C29.503 27.9161 29.4755 27.8644 29.4593 27.8088C29.4431 27.7531 29.4386 27.6947 29.446 27.6372L29.8809 24.2555H30.8669ZM32.1296 22.1655V23.6928C32.1296 24.0154 31.7536 24.1913 31.5059 23.9847L30.3757 23.0423L29.2416 23.9861C28.9939 24.1925 28.6182 24.0163 28.6182 23.694V22.1655H29.0077L30.3757 22.9551L31.7404 22.1655H32.1296Z" fill="white"/>
<path d="M26.6061 15.9012V18.3391H34.1417V15.9012C34.1417 13.8202 32.455 12.1333 30.374 12.1333C28.293 12.1333 26.6061 13.8202 26.6061 15.9012Z" fill="black"/>
<path d="M27.6104 17.4634H27.6112V19.5914L27.6104 19.5917C27.3283 19.5914 27.0578 19.4792 26.8584 19.2797C26.6589 19.0802 26.5467 18.8098 26.5464 18.5277C26.5466 18.2455 26.6588 17.975 26.8583 17.7754C27.0577 17.5759 27.3282 17.4637 27.6104 17.4634Z" fill="#FFC27C"/>
<path d="M26.6246 18.9217C26.7022 19.1192 26.8375 19.2887 27.0129 19.408C27.1883 19.5274 27.3957 19.5911 27.6078 19.5907H27.6112V17.4639H27.6078C27.5259 17.4639 27.444 17.474 27.3655 17.4912V18.5918C27.3655 18.9718 26.9039 19.1919 26.6303 18.9273C26.6284 18.9254 26.6265 18.9235 26.6246 18.9217Z" fill="#F7B26D"/>
<path d="M33.1376 17.4634H33.1367V19.5914L33.1376 19.5917C33.4197 19.5914 33.6901 19.4792 33.8896 19.2797C34.0891 19.0802 34.2013 18.8098 34.2016 18.5277C34.2013 18.2455 34.0892 17.975 33.8897 17.7754C33.6902 17.5759 33.4197 17.4637 33.1376 17.4634Z" fill="#FFC27C"/>
<path d="M34.1216 18.9217C34.0441 19.1192 33.9087 19.2887 33.7333 19.408C33.5579 19.5274 33.3506 19.5911 33.1384 19.5907H33.135V17.4639H33.1384C33.2203 17.4639 33.3022 17.474 33.3807 17.4912V18.5918C33.3807 18.9718 33.8424 19.1919 34.1157 18.9273C34.1177 18.9254 34.1196 18.9235 34.1216 18.9217Z" fill="#F7B26D"/>
<path d="M29.4215 14.4536C28.9142 14.4536 28.4276 14.6551 28.0688 15.0139C27.71 15.3726 27.5084 15.8592 27.5083 16.3666V19.2751C27.5083 20.8728 28.8197 22.1662 30.4236 22.1392C32.0041 22.1124 33.2395 20.7515 33.2395 19.171V16.3666C33.2395 15.8592 33.0379 15.3727 32.6792 15.014C32.3204 14.6553 31.8339 14.4537 31.3266 14.4536H29.4215Z" fill="#FFC27C"/>
<path d="M33.2409 16.3676V19.1706C33.2409 20.7514 32.0049 22.1138 30.4241 22.1377C29.7625 22.15 29.117 21.9329 28.5973 21.5232C28.9008 21.625 29.2196 21.6736 29.5397 21.6668C31.1205 21.6392 32.3565 20.2768 32.3565 18.696V15.8931C32.3569 15.6318 32.3034 15.3733 32.1994 15.1336C32.0954 14.8939 31.9432 14.6782 31.7521 14.5C32.1752 14.5966 32.5529 14.834 32.8234 15.1733C33.0938 15.5126 33.2411 15.9337 33.2409 16.3676Z" fill="#F7B26D"/>
<path d="M29.9155 17.9369L29.7993 18.6542C29.7854 18.7396 29.7415 18.8174 29.6756 18.8735C29.6096 18.9296 29.5259 18.9604 29.4393 18.9604H28.4158C28.3292 18.9604 28.2454 18.9296 28.1795 18.8735C28.1135 18.8174 28.0697 18.7396 28.0558 18.6542L27.9398 17.9369C27.9314 17.8848 27.9344 17.8315 27.9487 17.7806C27.9629 17.7298 27.988 17.6826 28.0222 17.6425C28.0565 17.6023 28.099 17.57 28.1469 17.5478C28.1949 17.5257 28.247 17.5142 28.2998 17.5142H29.5558C29.7804 17.5142 29.9513 17.7151 29.9155 17.9369Z" fill="#53C5FF"/>
<path d="M28.3208 18.2934L28.4301 18.9591H28.4165C28.2356 18.9591 28.0852 18.8297 28.0546 18.6551L27.9386 17.9385C27.9304 17.8862 27.9337 17.8328 27.9481 17.7819C27.9625 17.731 27.9878 17.6839 28.0221 17.6437C28.0565 17.6034 28.0991 17.5711 28.1471 17.549C28.1952 17.5268 28.2474 17.5152 28.3003 17.5151H29.5568C29.755 17.5151 29.9154 17.679 29.9188 17.8701H28.6795C28.4543 17.8701 28.2834 18.0716 28.3208 18.2934Z" fill="#33BAEF"/>
<path d="M32.8085 17.9369L32.6925 18.6542C32.6786 18.7397 32.6348 18.8175 32.5687 18.8736C32.5027 18.9297 32.4189 18.9605 32.3323 18.9604H31.3085C31.2219 18.9604 31.1381 18.9296 31.0722 18.8735C31.0062 18.8174 30.9624 18.7396 30.9485 18.6542L30.8325 17.9369C30.8241 17.8848 30.8271 17.8315 30.8414 17.7806C30.8556 17.7298 30.8807 17.6826 30.9149 17.6425C30.9492 17.6023 30.9917 17.57 31.0396 17.5478C31.0876 17.5257 31.1397 17.5142 31.1925 17.5142H32.4485C32.6731 17.5142 32.8443 17.7151 32.8085 17.9369Z" fill="#53C5FF"/>
<path d="M31.2146 18.2925L31.3238 18.9582H31.3103C31.1293 18.9582 30.979 18.8287 30.9483 18.6542L30.832 17.9375C30.8239 17.8852 30.8271 17.8318 30.8415 17.7809C30.856 17.73 30.8813 17.6828 30.9156 17.6426C30.95 17.6024 30.9927 17.5701 31.0408 17.5479C31.0888 17.5257 31.1411 17.5142 31.194 17.5142H32.4505C32.6484 17.5142 32.8089 17.678 32.8125 17.8691H31.5732C31.3477 17.8691 31.1771 18.0706 31.2146 18.2925Z" fill="#33BAEF"/>
<path d="M30.3741 19.6404C30.3293 19.6404 30.2863 19.6226 30.2546 19.5909C30.223 19.5592 30.2052 19.5163 30.2052 19.4715V18.9775C30.2052 18.9327 30.223 18.8897 30.2546 18.8581C30.2863 18.8264 30.3293 18.8086 30.3741 18.8086C30.4188 18.8086 30.4618 18.8264 30.4935 18.8581C30.5251 18.8897 30.5429 18.9327 30.5429 18.9775V19.4715C30.5429 19.5163 30.5251 19.5592 30.4935 19.5909C30.4618 19.6226 30.4188 19.6404 30.3741 19.6404ZM30.3724 20.6773C30.1616 20.6777 29.9592 20.5945 29.8097 20.446C29.7939 20.4303 29.7814 20.4118 29.7729 20.3913C29.7643 20.3708 29.7598 20.3488 29.7598 20.3267C29.7597 20.3045 29.764 20.2825 29.7724 20.2619C29.7808 20.2414 29.7932 20.2227 29.8088 20.207C29.8245 20.1912 29.8431 20.1787 29.8635 20.1702C29.884 20.1616 29.906 20.1572 29.9282 20.1571C29.9503 20.157 29.9723 20.1613 29.9929 20.1697C30.0134 20.1781 30.0321 20.1905 30.0478 20.2061C30.228 20.3849 30.5204 20.3843 30.6994 20.2039C30.7151 20.1882 30.7337 20.1756 30.7541 20.1671C30.7746 20.1585 30.7966 20.1541 30.8188 20.154C30.841 20.1539 30.8629 20.1582 30.8835 20.1666C30.904 20.175 30.9227 20.1874 30.9384 20.2031C30.9542 20.2187 30.9667 20.2373 30.9752 20.2577C30.9838 20.2782 30.9883 20.3002 30.9883 20.3224C30.9884 20.3446 30.9841 20.3665 30.9757 20.3871C30.9673 20.4076 30.9549 20.4263 30.9393 20.442C30.865 20.5168 30.7767 20.5761 30.6794 20.6165C30.5821 20.6569 30.4777 20.6776 30.3724 20.6773Z" fill="black"/>
<path d="M31.1377 15.8554H29.6101C29.5785 15.8554 29.5481 15.8428 29.5257 15.8204C29.5033 15.7981 29.4908 15.7677 29.4908 15.736C29.4908 15.7044 29.5033 15.674 29.5257 15.6517C29.5481 15.6293 29.5785 15.6167 29.6101 15.6167H31.1377C31.1694 15.6167 31.1997 15.6293 31.2221 15.6517C31.2445 15.674 31.2571 15.7044 31.2571 15.736C31.2571 15.7677 31.2445 15.7981 31.2221 15.8204C31.1997 15.8428 31.1694 15.8554 31.1377 15.8554ZM31.5439 16.3956H29.2039C29.1723 16.3956 29.1419 16.383 29.1196 16.3606C29.0972 16.3382 29.0846 16.3079 29.0846 16.2762C29.0846 16.2446 29.0972 16.2142 29.1196 16.1918C29.1419 16.1694 29.1723 16.1569 29.2039 16.1569H31.5439C31.5756 16.1569 31.6059 16.1694 31.6283 16.1918C31.6507 16.2142 31.6632 16.2446 31.6632 16.2762C31.6632 16.3079 31.6507 16.3382 31.6283 16.3606C31.6059 16.383 31.5756 16.3956 31.5439 16.3956Z" fill="#F7B26D"/>
<path d="M29.4393 19.0661H28.4158C28.1841 19.0661 27.9888 18.9 27.9516 18.6709L27.8354 17.9539C27.8245 17.8867 27.8284 17.8179 27.8467 17.7523C27.865 17.6866 27.8974 17.6258 27.9416 17.5739C27.9858 17.5221 28.0407 17.4804 28.1025 17.4519C28.1644 17.4234 28.2317 17.4086 28.2998 17.4087H29.5558C29.624 17.4086 29.6913 17.4234 29.7532 17.4519C29.8151 17.4805 29.87 17.5221 29.9142 17.574C29.9584 17.6259 29.9907 17.6868 30.0091 17.7524C30.0274 17.8181 30.0312 17.8869 30.0203 17.9542L29.904 18.6709C29.8865 18.7813 29.83 18.8819 29.7448 18.9543C29.6597 19.0268 29.5511 19.0664 29.4393 19.0661ZM28.2993 17.6198C28.2618 17.6198 28.2247 17.6279 28.1907 17.6437C28.1567 17.6594 28.1265 17.6824 28.1022 17.711C28.0778 17.7396 28.06 17.7731 28.0499 17.8093C28.0397 17.8454 28.0376 17.8834 28.0437 17.9204L28.1599 18.6374C28.1696 18.6982 28.2006 18.7535 28.2475 18.7934C28.2944 18.8333 28.354 18.8552 28.4155 18.8549H29.4393C29.5009 18.8552 29.5606 18.8335 29.6076 18.7936C29.6546 18.7536 29.6857 18.6982 29.6954 18.6374L29.8114 17.9204C29.8174 17.8833 29.8152 17.8454 29.805 17.8092C29.7947 17.773 29.7768 17.7395 29.7523 17.711C29.728 17.6824 29.6979 17.6594 29.6638 17.6437C29.6298 17.6279 29.5927 17.6198 29.5552 17.6198H28.2993ZM32.3326 19.0661H31.3086C31.0769 19.0661 30.8819 18.9 30.8447 18.6709L30.7285 17.9539C30.7176 17.8867 30.7214 17.8179 30.7397 17.7523C30.7581 17.6867 30.7904 17.6259 30.8346 17.574C30.8787 17.5222 30.9336 17.4806 30.9954 17.452C31.0572 17.4234 31.1245 17.4087 31.1926 17.4087H32.4486C32.5167 17.4086 32.5841 17.4234 32.646 17.4519C32.7079 17.4805 32.7628 17.5221 32.807 17.574C32.8512 17.6259 32.8835 17.6868 32.9018 17.7524C32.9202 17.8181 32.924 17.8869 32.913 17.9542L32.7965 18.6709C32.779 18.7812 32.7227 18.8817 32.6376 18.9542C32.5526 19.0267 32.4444 19.0664 32.3326 19.0661ZM31.1926 17.6198C31.1551 17.6198 31.1181 17.6279 31.084 17.6437C31.05 17.6594 31.0198 17.6824 30.9956 17.711C30.9711 17.7395 30.9531 17.773 30.9429 17.8092C30.9327 17.8454 30.9305 17.8833 30.9365 17.9204L31.053 18.6374C31.0626 18.6982 31.0937 18.7535 31.1405 18.7934C31.1874 18.8333 31.247 18.8552 31.3086 18.8549H32.3326C32.3942 18.8552 32.4538 18.8333 32.5007 18.7934C32.5475 18.7535 32.5786 18.6982 32.5882 18.6374L32.7045 17.9204C32.7105 17.8833 32.7083 17.8454 32.6982 17.8092C32.688 17.7731 32.6701 17.7395 32.6456 17.711C32.6214 17.6824 32.5912 17.6594 32.5572 17.6437C32.5231 17.6279 32.4861 17.6198 32.4486 17.6198H31.1926Z" fill="black"/>
<path d="M32.7089 17.7301C32.6867 17.7301 32.665 17.7231 32.647 17.7101C32.629 17.6972 32.6155 17.6788 32.6086 17.6577C32.6016 17.6367 32.6014 17.6139 32.6081 17.5928C32.6148 17.5716 32.628 17.5531 32.6458 17.5398L33.1767 17.1449C33.1992 17.129 33.227 17.1225 33.2543 17.1268C33.2815 17.1311 33.306 17.146 33.3224 17.1681C33.3389 17.1903 33.346 17.218 33.3423 17.2453C33.3385 17.2726 33.3243 17.2974 33.3025 17.3143L32.7716 17.7093C32.7535 17.7228 32.7315 17.7301 32.7089 17.7301ZM28.0318 17.738C28.0091 17.7379 27.9871 17.7305 27.969 17.7169L27.4381 17.3217C27.4262 17.3137 27.416 17.3034 27.4082 17.2914C27.4004 17.2794 27.3951 17.266 27.3927 17.2519C27.3902 17.2378 27.3907 17.2233 27.394 17.2094C27.3973 17.1954 27.4034 17.1823 27.412 17.1708C27.4205 17.1594 27.4313 17.1497 27.4437 17.1425C27.4561 17.1354 27.4698 17.1308 27.484 17.129C27.4982 17.1273 27.5126 17.1285 27.5264 17.1326C27.5401 17.1366 27.5529 17.1434 27.5639 17.1525L28.0948 17.5477C28.1126 17.5609 28.1258 17.5795 28.1325 17.6006C28.1392 17.6218 28.139 17.6445 28.1321 17.6656C28.1251 17.6867 28.1116 17.705 28.0936 17.718C28.0756 17.731 28.054 17.738 28.0318 17.738ZM30.8325 17.9283C30.8148 17.9283 30.7974 17.924 30.7818 17.9156C30.5015 17.7608 30.2355 17.7608 29.9678 17.9145C29.9558 17.9214 29.9425 17.9259 29.9288 17.9276C29.915 17.9294 29.901 17.9284 29.8877 17.9247C29.8743 17.9211 29.8618 17.9148 29.8508 17.9063C29.8399 17.8977 29.8308 17.8871 29.824 17.8751C29.8101 17.8509 29.8064 17.8222 29.8137 17.7952C29.821 17.7683 29.8386 17.7454 29.8628 17.7315C30.1949 17.5412 30.5381 17.5407 30.8832 17.7301C30.9035 17.7415 30.9195 17.7593 30.9287 17.7807C30.9379 17.8022 30.9398 17.826 30.934 17.8486C30.9282 17.8712 30.9151 17.8913 30.8968 17.9057C30.8784 17.9201 30.8558 17.928 30.8325 17.9283Z" fill="black"/>
<path d="M39.0183 30.9634L38.2124 32.8507C38.1592 32.9752 38.0706 33.0814 37.9576 33.156C37.8446 33.2306 37.7122 33.2704 37.5768 33.2704H22.9038C22.7684 33.2704 22.636 33.2306 22.523 33.156C22.41 33.0814 22.3214 32.9752 22.2682 32.8507L21.4623 30.9636C21.2675 30.5076 21.6022 30.001 22.0979 30.001H38.3827C38.8784 30.001 39.2131 30.5074 39.0183 30.9634Z" fill="#FFC27C"/>
<path d="M38.4239 32.3533L38.2122 32.8515C38.1588 32.9759 38.0702 33.0819 37.9573 33.1565C37.8444 33.2312 37.7122 33.2713 37.5769 33.2718H22.9027C22.7674 33.2713 22.6352 33.2313 22.5223 33.1567C22.4095 33.0821 22.3209 32.9761 22.2674 32.8518L21.4618 30.9636C21.2704 30.5164 21.5882 30.0212 22.0695 30.001C22.0763 30.028 22.0864 30.0553 22.0968 30.0792L22.9027 31.9674C22.9561 32.0916 23.0447 32.1976 23.1575 32.2722C23.2703 32.3468 23.4025 32.3868 23.5377 32.3874H38.2122C38.2837 32.3874 38.3555 32.3772 38.4239 32.3533Z" fill="#F7B26D"/>
<path d="M36.9601 33.269V34.3893C33.6313 38.4601 28.7206 40.8758 23.5222 41.007V33.269H36.9601Z" fill="#FFC27C"/>
<path d="M23.5194 33.2715H36.9601V34.1362H23.5194V33.2715Z" fill="#EFA765"/>
<path d="M34.6241 36.7926C32.2633 38.9966 29.2202 40.477 25.8441 40.8829V36.8321C25.8442 36.8168 25.8472 36.8016 25.8532 36.7875C25.8591 36.7734 25.8678 36.7606 25.8787 36.7499C25.8896 36.7392 25.9026 36.7308 25.9168 36.7251C25.931 36.7195 25.9462 36.7167 25.9615 36.7169C26.2111 36.7164 26.4504 36.617 26.6269 36.4405C26.8034 36.264 26.9028 36.0247 26.9033 35.7751C26.9033 35.7089 26.9546 35.6577 27.0207 35.6577H33.4596C33.4749 35.6577 33.49 35.6608 33.5041 35.6668C33.5182 35.6727 33.531 35.6814 33.5417 35.6923C33.5524 35.7032 33.5609 35.7162 33.5665 35.7304C33.5722 35.7446 33.575 35.7598 33.5747 35.7751C33.5754 36.0251 33.6752 36.2647 33.8522 36.4412C34.0293 36.6178 34.2691 36.7169 34.5191 36.7169C34.5678 36.7169 34.6095 36.7485 34.6241 36.7926Z" fill="#F7B26D"/>
<path opacity="0.4" d="M22.0197 10.5874H16.493C16.3749 10.5874 16.2617 10.5405 16.1782 10.457C16.0947 10.3734 16.0477 10.2602 16.0477 10.1421C16.0477 10.024 16.0947 9.91071 16.1782 9.8272C16.2617 9.74369 16.3749 9.69678 16.493 9.69678H22.0197C22.1378 9.69678 22.251 9.74369 22.3345 9.8272C22.418 9.91071 22.465 10.024 22.465 10.1421C22.465 10.2602 22.418 10.3734 22.3345 10.457C22.251 10.5405 22.1378 10.5874 22.0197 10.5874ZM14.8849 10.5874H14.74C14.6219 10.5874 14.5086 10.5405 14.4251 10.457C14.3416 10.3734 14.2947 10.2602 14.2947 10.1421C14.2947 10.024 14.3416 9.91071 14.4251 9.8272C14.5086 9.74369 14.6219 9.69678 14.74 9.69678H14.8849C15.003 9.69678 15.1163 9.74369 15.1998 9.8272C15.2833 9.91071 15.3302 10.024 15.3302 10.1421C15.3302 10.2602 15.2833 10.3734 15.1998 10.457C15.1163 10.5405 15.003 10.5874 14.8849 10.5874Z" fill="white"/>
<g opacity="0.6">
<path opacity="0.4" d="M37.2083 31.498H31.682C31.5639 31.498 31.4506 31.4511 31.3671 31.3676C31.2836 31.2841 31.2367 31.1708 31.2367 31.0527C31.2367 30.9346 31.2836 30.8214 31.3671 30.7378C31.4506 30.6543 31.5639 30.6074 31.682 30.6074H37.2083C37.3264 30.6074 37.4397 30.6543 37.5232 30.7378C37.6067 30.8214 37.6536 30.9346 37.6536 31.0527C37.6536 31.1708 37.6067 31.2841 37.5232 31.3676C37.4397 31.4511 37.3264 31.498 37.2083 31.498ZM30.0736 31.498H29.9289C29.8108 31.498 29.6976 31.4511 29.6141 31.3676C29.5306 31.2841 29.4836 31.1708 29.4836 31.0527C29.4836 30.9346 29.5306 30.8214 29.6141 30.7378C29.6976 30.6543 29.8108 30.6074 29.9289 30.6074H30.0736C30.1917 30.6074 30.305 30.6543 30.3885 30.7378C30.472 30.8214 30.5189 30.9346 30.5189 31.0527C30.5189 31.1708 30.472 31.2841 30.3885 31.3676C30.305 31.4511 30.1917 31.498 30.0736 31.498Z" fill="white"/>
</g>
<g opacity="0.6">
<path opacity="0.4" d="M24.1921 39.5462V37.1159C24.1921 36.9978 24.2391 36.8845 24.3226 36.801C24.4061 36.7175 24.5193 36.6705 24.6374 36.6705C24.7555 36.6705 24.8688 36.7175 24.9523 36.801C25.0358 36.8845 25.0827 36.9978 25.0827 37.1159V39.5462C25.0827 39.6643 25.0358 39.7775 24.9523 39.861C24.8688 39.9446 24.7555 39.9915 24.6374 39.9915C24.5193 39.9915 24.4061 39.9446 24.3226 39.861C24.2391 39.7775 24.1921 39.6643 24.1921 39.5462ZM24.1921 35.5077V35.3628C24.1921 35.2447 24.2391 35.1314 24.3226 35.0479C24.4061 34.9644 24.5193 34.9175 24.6374 34.9175C24.7555 34.9175 24.8688 34.9644 24.9523 35.0479C25.0358 35.1314 25.0827 35.2447 25.0827 35.3628V35.5077C25.0827 35.6258 25.0358 35.7391 24.9523 35.8226C24.8688 35.9061 24.7555 35.9531 24.6374 35.9531C24.5193 35.9531 24.4061 35.9061 24.3226 35.8226C24.2391 35.7391 24.1921 35.6258 24.1921 35.5077Z" fill="white"/>
</g>
<path opacity="0.4" d="M24.5555 27.5206L25.2452 25.7557C25.2586 25.7212 25.2787 25.6897 25.3044 25.663C25.33 25.6363 25.3606 25.6149 25.3945 25.6C25.4284 25.5851 25.4649 25.5771 25.5019 25.5763C25.539 25.5756 25.5758 25.5821 25.6102 25.5956C25.6447 25.609 25.6762 25.6291 25.7029 25.6548C25.7297 25.6804 25.7511 25.711 25.7659 25.7449C25.7808 25.7788 25.7889 25.8153 25.7896 25.8523C25.7904 25.8893 25.7839 25.9261 25.7704 25.9606L25.0808 27.7255C25.0536 27.7952 24.9999 27.8512 24.9314 27.8812C24.8629 27.9113 24.7853 27.9129 24.7157 27.8857C24.646 27.8585 24.59 27.8048 24.56 27.7363C24.53 27.6678 24.5284 27.5903 24.5555 27.5206ZM25.6156 24.8071L25.6491 24.7218C25.6626 24.6873 25.6827 24.6558 25.7083 24.6291C25.734 24.6024 25.7646 24.581 25.7986 24.5662C25.8325 24.5513 25.869 24.5433 25.906 24.5425C25.943 24.5418 25.9798 24.5483 26.0143 24.5618C26.0488 24.5753 26.0803 24.5954 26.107 24.6211C26.1337 24.6467 26.1551 24.6774 26.17 24.7113C26.1848 24.7452 26.1929 24.7817 26.1936 24.8187C26.1944 24.8557 26.1878 24.8925 26.1743 24.927L26.1408 25.0123C26.1136 25.082 26.0599 25.138 25.9914 25.168C25.9229 25.198 25.8453 25.1996 25.7756 25.1723C25.706 25.1451 25.65 25.0914 25.62 25.0229C25.59 24.9544 25.5884 24.8768 25.6156 24.8071Z" fill="white"/>
</g>
<defs>
<clipPath id="clip0_40_11774">
<rect width="38" height="38" fill="white" transform="translate(4 4)"/>
</clipPath>
</defs>
</svg>
