<svg width="14" height="13" viewBox="0 0 14 13" fill="none" xmlns="http://www.w3.org/2000/svg">
<path d="M12.8754 7.18704V7.70159H13.39V8.15793H12.8754V8.67249H12.4191V8.15793H11.9045V7.70159H12.4191V7.18704H12.8754ZM1.48542 8.1579H0.970894V8.67246H0.514554V8.1579H0V7.70156H0.514554V7.18701H0.970894V7.70156H1.48542V8.1579ZM1.09189 0.182129V0.696683H1.60642V1.15299H1.09189V1.66754H0.635554V1.15299H0.121032V0.696683H0.635554V0.182129H1.09189Z" fill="#FEA832"/>
<path fill-rule="evenodd" clip-rule="evenodd" d="M1.70441 9.57212C1.70441 8.58922 3.93898 7.79297 6.6955 7.79297C9.45203 7.79297 11.6866 8.58925 11.6866 9.57212V11.2072C11.6866 12.1891 9.45203 12.9854 6.6955 12.9854C3.93901 12.9854 1.70441 12.1891 1.70441 11.2072V9.57212Z" fill="#FE9923"/>
<path fill-rule="evenodd" clip-rule="evenodd" d="M6.6955 7.79297C9.45203 7.79297 11.6866 8.58925 11.6866 9.57212C11.6866 10.555 9.45203 11.3513 6.6955 11.3513C3.93901 11.3513 1.70441 10.555 1.70441 9.57212C1.70441 8.58922 3.93898 7.79297 6.6955 7.79297Z" fill="#FECD3D"/>
<path fill-rule="evenodd" clip-rule="evenodd" d="M6.6955 7.79297C8.99936 7.79297 10.9384 8.35001 11.5129 9.10657H6.6955V7.79297Z" fill="#CEA732"/>
<path fill-rule="evenodd" clip-rule="evenodd" d="M6.6955 8.62402C8.8885 8.62402 10.6658 9.04895 10.6658 9.5718C10.6658 10.0956 8.88854 10.5196 6.6955 10.5196C4.50247 10.5196 2.72424 10.0956 2.72424 9.5718C2.72424 9.04895 4.50247 8.62402 6.6955 8.62402Z" fill="#FEA832"/>
<path fill-rule="evenodd" clip-rule="evenodd" d="M6.6955 8.62402C8.17815 8.62402 9.47139 8.81893 10.1532 9.10622H6.6955V8.62402Z" fill="#CE8829"/>
<path d="M10.3369 11.5527V12.4229C10.4902 12.3647 10.6334 12.3028 10.7637 12.2372V11.5527H10.3369ZM9.221 12.7416C9.07962 12.7711 8.93764 12.7976 8.79515 12.821V11.9915L9.221 11.9924V12.7416ZM7.67924 12.9513C7.53884 12.9615 7.39751 12.9689 7.25339 12.9744V12.1836L7.67924 12.1845V12.9513ZM6.13749 12.9744C5.99511 12.9691 5.85283 12.9614 5.71071 12.9513V12.1837H6.13749V12.9744ZM4.59481 12.821C4.44885 12.797 4.3066 12.7702 4.16896 12.7416V11.9915L4.59481 11.9924V12.821ZM3.05305 12.4229C2.89969 12.3647 2.75652 12.3028 2.62628 12.2372V11.5527H3.05305V12.4229Z" fill="#C85929"/>
<path fill-rule="evenodd" clip-rule="evenodd" d="M6.69551 9.10648C9.2026 9.10648 11.2488 7.06125 11.2488 4.55324C11.2488 2.04523 9.2026 0 6.69551 0C4.1875 0 2.14227 2.04523 2.14227 4.55324C2.14227 7.06128 4.18747 9.10648 6.69551 9.10648Z" fill="#FEDB41"/>
<path fill-rule="evenodd" clip-rule="evenodd" d="M6.70374 0C9.21451 0.004605 11.2487 2.04151 11.2487 4.55324C11.2487 7.06493 9.21451 9.10184 6.70374 9.10647V0Z" fill="#FFCC33"/>
<path fill-rule="evenodd" clip-rule="evenodd" d="M6.69553 7.64509C8.39802 7.64509 9.78736 6.25574 9.78736 4.55326C9.78736 2.84982 8.39802 1.46143 6.69553 1.46143C4.99212 1.46143 3.6037 2.84985 3.6037 4.55326C3.6037 6.25574 4.99209 7.64509 6.69553 7.64509Z" fill="#FEA832"/>
<path fill-rule="evenodd" clip-rule="evenodd" d="M6.70374 1.46143C8.40717 1.46606 9.78725 2.84801 9.78725 4.55326C9.78725 6.25759 8.40714 7.64045 6.70374 7.64509V1.46143Z" fill="#FE9923"/>
<path d="M7.1287 4.12477V3.89658C7.12863 3.83903 7.10573 3.78385 7.06503 3.74315C7.02433 3.70246 6.96915 3.67957 6.91159 3.67951H6.58365C6.40587 3.67951 6.26124 3.82411 6.26124 4.0019C6.26124 4.17879 6.30227 4.3252 6.80628 4.3252C7.23566 4.3252 7.585 4.67454 7.585 5.10395C7.585 5.49395 7.29752 5.81795 6.9236 5.87477V6.40371H6.46729V5.88309C6.10111 5.87708 5.80493 5.57738 5.80493 5.2093V4.98111H6.26127V5.2093C6.26127 5.3295 6.35864 5.42729 6.47837 5.42729H6.80631C6.9841 5.42729 7.12873 5.28228 7.12873 5.10398C7.12873 4.9262 6.9841 4.7816 6.80631 4.7816C6.14186 4.7816 5.80496 4.51928 5.80496 4.00193C5.80496 3.61209 6.09292 3.28825 6.46732 3.23191V2.70312H6.92366V3.22381C7.28943 3.23032 7.58507 3.52936 7.58507 3.89665V4.12483H7.1287V4.12477Z" fill="#FEDB41"/>
</svg>
