<svg width="46" height="46" viewBox="0 0 46 46" fill="none" xmlns="http://www.w3.org/2000/svg">
<rect width="46" height="46" rx="23" fill="white"/>
<path d="M8 16H38V36H8V16Z" fill="#F4A93C"/>
<path d="M19.3325 15H10V32H18.1715C19.9825 32 21.7194 32.7195 23 34V25.2465C21.4142 24.1186 20.2125 22.5315 19.5567 20.6994C18.9009 18.8672 18.8227 16.878 19.3325 15Z" fill="#F2F2F2"/>
<path d="M23 34H11V32H18.1715C19.9825 32 21.7194 32.7195 23 34Z" fill="#CCCCCC"/>
<path d="M20 21.747V23H13V18H19.013C19.0795 19.3038 19.4156 20.5796 20 21.747Z" fill="#5E87CA"/>
<path d="M12.5 24.5H19.999V25.5H12.5V24.5ZM12.5 26.5H16.999V27.5H12.5V26.5ZM12.5 28.5H14.999V29.5H12.5V28.5Z" fill="#D8D8D8"/>
<path d="M23.5 24.5001L20 28.0001L18 26.0001L21.4605 22.5396L23.5 24.5001Z" fill="#9DA1BF"/>
<path d="M17.5 25.5L20.5 28.5L11.6215 37.3785C11.2237 37.7764 10.6841 37.9999 10.1215 38C9.84288 38.0001 9.56698 37.9452 9.30956 37.8386C9.05214 37.7321 8.81824 37.5758 8.62123 37.3788C8.42421 37.1818 8.26795 36.9479 8.16136 36.6904C8.05476 36.433 7.99993 36.1571 8 35.8785C8.00007 35.3159 8.22363 34.7763 8.6215 34.3785L17.5 25.5Z" fill="#858BB5"/>
<path d="M10.25 36.5C10.1017 36.5 9.95666 36.456 9.83332 36.3736C9.70999 36.2912 9.61386 36.1741 9.55709 36.037C9.50032 35.9 9.48547 35.7492 9.51441 35.6037C9.54335 35.4582 9.61478 35.3246 9.71967 35.2197C9.82456 35.1148 9.9582 35.0434 10.1037 35.0144C10.2492 34.9855 10.4 35.0003 10.537 35.0571C10.6741 35.1139 10.7912 35.21 10.8736 35.3333C10.956 35.4567 11 35.6017 11 35.75C11 35.9489 10.921 36.1397 10.7803 36.2803C10.6397 36.421 10.4489 36.5 10.25 36.5Z" fill="#4C506E"/>
<path d="M23 34H35V32H27.8285C26.0175 32 24.2806 32.7195 23 34Z" fill="#B5B5B5"/>
<path d="M33 32V38L31.5 36.5L30 38V32" fill="#559B2D"/>
<path d="M30 32V38L31.5 36.5V32H30Z" fill="#6BC13B"/>
<path d="M28.5 27C33.7467 27 38 22.7467 38 17.5C38 12.2533 33.7467 8 28.5 8C23.2533 8 19 12.2533 19 17.5C19 22.7467 23.2533 27 28.5 27Z" fill="#858BB5"/>
<path d="M35.573 15.0002H26C25.2044 15.0002 24.4413 15.3162 23.8787 15.8788C23.3161 16.4415 23 17.2045 23 18.0002C23.0002 17.4399 22.8435 16.8908 22.5477 16.415C22.2518 15.9392 21.8286 15.5558 21.326 15.3082C21.7879 13.7984 22.7143 12.4729 23.9733 11.5202C25.2323 10.5676 26.7597 10.0364 28.3382 10.0022C29.9166 9.96812 31.4656 10.4328 32.7646 11.3302C34.0636 12.2275 35.0464 13.5118 35.573 15.0002Z" fill="#E2E7F6"/>
<path d="M23 34.0001C24.2806 32.7195 26.0175 32.0001 27.8285 32.0001H36V23.3296C34.4972 25.2621 32.3065 26.54 29.8847 26.8971C27.4628 27.2541 24.9965 26.6627 23 25.2461V34.0001Z" fill="#D8D8D8"/>
<path d="M23 22.6001C22.1082 21.637 21.4844 20.4571 21.1906 19.1778C20.8968 17.8986 20.9433 16.5647 21.3255 15.3091C21.828 15.5566 22.2512 15.9398 22.5471 16.4154C22.8431 16.891 22.9999 17.4399 23 18.0001V22.6001Z" fill="#F2F2F2"/>
<path d="M23 22.6V18C23 17.2044 23.3161 16.4413 23.8787 15.8787C24.4413 15.3161 25.2044 15 26 15H35.573C36.1496 16.6273 36.1472 18.4036 35.5661 20.0293C34.985 21.655 33.8609 23.0304 32.3835 23.9235C30.906 24.8165 29.1657 25.1726 27.4562 24.9315C25.7468 24.6903 24.1728 23.8669 23 22.6Z" fill="#D8D8D8"/>
<path d="M25.5 28.5H33.4995V29.5H25.5V28.5Z" fill="#939393"/>
<path d="M26 18.5H33V23H26V18.5Z" fill="#5E87CA"/>
<path d="M26 18.5V23H29.2765C30.103 22.5111 30.8224 21.8606 31.3919 21.0874C31.9614 20.3143 32.3692 19.4343 32.591 18.5H26ZM18.4085 18H13V23H14.972C16.6933 21.8125 17.9167 20.0325 18.4085 18Z" fill="#78A0D4"/>
</svg>
