<svg width="69" height="27" viewBox="0 0 69 27" fill="none" xmlns="http://www.w3.org/2000/svg">
<path d="M24.4313 4.6066H26.9295L28.6479 8.79441H28.7346L30.453 4.6066H32.9513V12.0002H30.9873V7.72579H30.9296L29.2833 11.9425H28.0992L26.453 7.69691H26.3952V12.0002H24.4313V4.6066ZM34.4398 12.0002V6.45501H36.4326V12.0002H34.4398ZM35.4362 5.87738C35.1666 5.87738 34.9356 5.78833 34.743 5.61023C34.5505 5.43212 34.4542 5.21792 34.4542 4.96762C34.4542 4.71731 34.5505 4.50311 34.743 4.325C34.9356 4.1469 35.1666 4.05785 35.4362 4.05785C35.7081 4.05785 35.9392 4.1469 36.1293 4.325C36.3219 4.50311 36.4181 4.71731 36.4181 4.96762C36.4181 5.21792 36.3219 5.43212 36.1293 5.61023C35.9392 5.78833 35.7081 5.87738 35.4362 5.87738ZM39.9491 8.88105V12.0002H37.9562V6.45501H39.848V7.50918H39.9057C40.0261 7.15779 40.2379 6.88221 40.5411 6.68245C40.8468 6.48269 41.203 6.38281 41.6098 6.38281C42.0021 6.38281 42.3426 6.47306 42.6314 6.65357C42.9227 6.83167 43.1477 7.07716 43.3065 7.39005C43.4678 7.70293 43.5472 8.06034 43.5448 8.46227V12.0002H41.552V8.88105C41.5544 8.60668 41.4846 8.39127 41.3426 8.23483C41.203 8.07839 41.0081 8.00017 40.7577 8.00017C40.5941 8.00017 40.4509 8.03627 40.3281 8.10847C40.2078 8.17827 40.1151 8.27935 40.0502 8.41173C39.9852 8.54169 39.9515 8.69813 39.9491 8.88105ZM48.6326 9.5742V6.45501H50.6255V12.0002H48.7337V10.9461H48.676C48.5556 11.2999 48.345 11.5766 48.0442 11.7764C47.7433 11.9738 47.3859 12.0724 46.972 12.0724C46.5845 12.0724 46.2451 11.9834 45.9539 11.8053C45.6651 11.6272 45.44 11.3817 45.2788 11.0688C45.1199 10.7559 45.0393 10.3973 45.0369 9.99298V6.45501H47.0297V9.5742C47.0321 9.84858 47.1019 10.064 47.2391 10.2204C47.3787 10.3769 47.5736 10.4551 47.824 10.4551C47.99 10.4551 48.1332 10.4202 48.2536 10.3504C48.3763 10.2782 48.4702 10.1771 48.5352 10.0471C48.6025 9.91476 48.635 9.75712 48.6326 9.5742ZM55.4542 6.45501V7.89908H51.8007V6.45501H55.4542ZM52.5083 5.12646H54.5012V10.2168C54.5012 10.2938 54.5144 10.3588 54.5409 10.4118C54.5673 10.4623 54.6083 10.5008 54.6636 10.5273C54.719 10.5514 54.79 10.5634 54.8766 10.5634C54.9368 10.5634 55.0066 10.5562 55.086 10.5417C55.1678 10.5273 55.228 10.5153 55.2665 10.5056L55.5553 11.9064C55.4663 11.9329 55.3387 11.9653 55.1727 12.0039C55.009 12.0424 54.814 12.0676 54.5878 12.0797C54.1305 12.1037 53.7466 12.0568 53.4362 11.9389C53.1257 11.8185 52.8922 11.6296 52.7358 11.3721C52.5793 11.1145 52.5035 10.792 52.5083 10.4045V5.12646ZM59.3733 12.1013C58.7812 12.1013 58.271 11.9882 57.8426 11.762C57.4166 11.5333 57.088 11.206 56.857 10.78C56.6283 10.3516 56.514 9.83895 56.514 9.24207C56.514 8.66925 56.6295 8.16864 56.8606 7.74023C57.0916 7.31182 57.4178 6.97848 57.8389 6.74021C58.2601 6.50194 58.7571 6.38281 59.33 6.38281C59.7487 6.38281 60.1278 6.44779 60.4672 6.57775C60.8065 6.70772 61.0965 6.89665 61.3372 7.14455C61.5779 7.39005 61.7632 7.68849 61.8932 8.03988C62.0231 8.39127 62.0881 8.78718 62.0881 9.22763V9.68973H57.135V8.59223H60.2542C60.2518 8.43339 60.2108 8.29379 60.1314 8.17345C60.0544 8.05071 59.9497 7.95564 59.8173 7.88825C59.6874 7.81845 59.5393 7.78355 59.3733 7.78355C59.212 7.78355 59.064 7.81845 58.9292 7.88825C58.7944 7.95564 58.6861 8.0495 58.6043 8.16984C58.5249 8.29018 58.4828 8.43098 58.478 8.59223V9.77637C58.478 9.95448 58.5153 10.1133 58.5899 10.2529C58.6645 10.3925 58.7716 10.502 58.9112 10.5814C59.0508 10.6609 59.2192 10.7006 59.4166 10.7006C59.5538 10.7006 59.6789 10.6813 59.7921 10.6428C59.9076 10.6043 60.0063 10.549 60.0881 10.4767C60.1699 10.4021 60.2301 10.3131 60.2686 10.2096H62.0881C62.0256 10.5947 61.8775 10.9292 61.6441 11.2132C61.4106 11.4948 61.1013 11.7138 60.7163 11.8703C60.3336 12.0243 59.8859 12.1013 59.3733 12.1013ZM68.4783 8.2601H66.6444C66.6347 8.14698 66.595 8.0495 66.5252 7.96767C66.4554 7.88584 66.3652 7.82327 66.2545 7.77994C66.1462 7.73422 66.0258 7.71135 65.8934 7.71135C65.7226 7.71135 65.5757 7.74264 65.453 7.80522C65.3303 7.86779 65.2701 7.95684 65.2725 8.07237C65.2701 8.1542 65.305 8.23001 65.3772 8.29981C65.4518 8.36961 65.595 8.42376 65.8068 8.46227L66.9332 8.66444C67.5012 8.76793 67.9236 8.94242 68.2003 9.18791C68.4795 9.431 68.6203 9.75712 68.6227 10.1663C68.6203 10.561 68.5024 10.904 68.2689 11.1952C68.0379 11.484 67.7214 11.7078 67.3195 11.8667C66.9199 12.0231 66.4638 12.1013 65.9512 12.1013C65.104 12.1013 64.4409 11.928 63.962 11.5815C63.4855 11.2349 63.2195 10.7776 63.1641 10.2096H65.1425C65.169 10.3853 65.2556 10.5213 65.4025 10.6175C65.5517 10.7114 65.7394 10.7583 65.9656 10.7583C66.1486 10.7583 66.299 10.7271 66.4169 10.6645C66.5373 10.6019 66.5986 10.5129 66.601 10.3973C66.5986 10.2914 66.5457 10.2072 66.4422 10.1446C66.3411 10.082 66.1823 10.0315 65.9656 9.99298L64.9837 9.8197C64.4181 9.72102 63.9945 9.53329 63.7129 9.25651C63.4313 8.97973 63.2917 8.62352 63.2941 8.18789C63.2917 7.80281 63.3928 7.47669 63.5974 7.20954C63.8044 6.93998 64.0992 6.7354 64.4819 6.59581C64.8669 6.45381 65.323 6.38281 65.8501 6.38281C66.6516 6.38281 67.2834 6.54887 67.7455 6.88101C68.21 7.21315 68.4543 7.67284 68.4783 8.2601Z" fill="url(#paint0_linear_33_5971)"/>
<path d="M24.4313 4.6066V4.49783H24.3225V4.6066H24.4313ZM26.9295 4.6066L27.0301 4.56531L27.0024 4.49783H26.9295V4.6066ZM28.6479 8.7944L28.5473 8.8357L28.575 8.90317H28.6479V8.7944ZM28.7346 8.7944V8.90317H28.8075L28.8352 8.8357L28.7346 8.7944ZM30.453 4.6066V4.49783H30.3801L30.3524 4.56531L30.453 4.6066ZM32.9513 4.6066H33.06V4.49783H32.9513V4.6066ZM32.9513 12.0002V12.109H33.06V12.0002H32.9513ZM30.9873 12.0002H30.8786V12.109H30.9873V12.0002ZM30.9873 7.72579H31.0961V7.61702H30.9873V7.72579ZM30.9296 7.72579V7.61702H30.8553L30.8283 7.68624L30.9296 7.72579ZM29.2833 11.9425V12.0512H29.3576L29.3847 11.982L29.2833 11.9425ZM28.0992 11.9425L27.9978 11.9818L28.0247 12.0512H28.0992V11.9425ZM26.453 7.69691L26.5544 7.65759L26.5274 7.58814H26.453V7.69691ZM26.3952 7.69691V7.58814H26.2864V7.69691H26.3952ZM26.3952 12.0002V12.109H26.504V12.0002H26.3952ZM24.4313 12.0002H24.3225V12.109H24.4313V12.0002ZM24.4313 4.71536H26.9295V4.49783H24.4313V4.71536ZM26.8289 4.64789L28.5473 8.8357L28.7486 8.75311L27.0301 4.56531L26.8289 4.64789ZM28.6479 8.90317H28.7346V8.68564H28.6479V8.90317ZM28.8352 8.8357L30.5537 4.64789L30.3524 4.56531L28.634 8.75311L28.8352 8.8357ZM30.453 4.71536H32.9513V4.49783H30.453V4.71536ZM32.8425 4.6066V12.0002H33.06V4.6066H32.8425ZM32.9513 11.8915H30.9873V12.109H32.9513V11.8915ZM31.0961 12.0002V7.72579H30.8786V12.0002H31.0961ZM30.9873 7.61702H30.9296V7.83456H30.9873V7.61702ZM30.8283 7.68624L29.182 11.9029L29.3847 11.982L31.0309 7.76535L30.8283 7.68624ZM29.2833 11.8337H28.0992V12.0512H29.2833V11.8337ZM28.2006 11.9032L26.5544 7.65759L26.3515 7.73623L27.9978 11.9818L28.2006 11.9032ZM26.453 7.58814H26.3952V7.80568H26.453V7.58814ZM26.2864 7.69691V12.0002H26.504V7.69691H26.2864ZM26.3952 11.8915H24.4313V12.109H26.3952V11.8915ZM24.54 12.0002V4.6066H24.3225V12.0002H24.54ZM34.4398 12.0002H34.331V12.109H34.4398V12.0002ZM34.4398 6.45501V6.34624H34.331V6.45501H34.4398ZM36.4326 6.45501H36.5413V6.34624H36.4326V6.45501ZM36.4326 12.0002V12.109H36.5413V12.0002H36.4326ZM34.743 5.61023L34.6692 5.69007L34.743 5.61023ZM34.743 4.325L34.6692 4.24516L34.743 4.325ZM36.1293 4.325L36.055 4.40439L36.0555 4.40485L36.1293 4.325ZM36.1293 5.61023L36.0555 5.53038L36.055 5.53085L36.1293 5.61023ZM34.5485 12.0002V6.45501H34.331V12.0002H34.5485ZM34.4398 6.56378H36.4326V6.34624H34.4398V6.56378ZM36.3238 6.45501V12.0002H36.5413V6.45501H36.3238ZM36.4326 11.8915H34.4398V12.109H36.4326V11.8915ZM35.4362 5.76861C35.1931 5.76861 34.9887 5.68933 34.8169 5.53038L34.6692 5.69007C34.8824 5.88733 35.1401 5.98615 35.4362 5.98615V5.76861ZM34.8169 5.53038C34.6454 5.37175 34.563 5.18601 34.563 4.96762H34.3454C34.3454 5.24984 34.4556 5.49249 34.6692 5.69007L34.8169 5.53038ZM34.563 4.96762C34.563 4.74922 34.6454 4.56348 34.8169 4.40485L34.6692 4.24516C34.4556 4.44274 34.3454 4.68539 34.3454 4.96762H34.563ZM34.8169 4.40485C34.9887 4.2459 35.1931 4.16662 35.4362 4.16662V3.94908C35.1401 3.94908 34.8824 4.0479 34.6692 4.24516L34.8169 4.40485ZM35.4362 4.16662C35.6819 4.16662 35.8859 4.24606 36.055 4.40438L36.2037 4.24562C35.9924 4.04774 35.7344 3.94908 35.4362 3.94908V4.16662ZM36.0555 4.40485C36.2269 4.56348 36.3094 4.74922 36.3094 4.96762H36.5269C36.5269 4.68539 36.4168 4.44274 36.2032 4.24516L36.0555 4.40485ZM36.3094 4.96762C36.3094 5.18601 36.2269 5.37175 36.0555 5.53038L36.2032 5.69007C36.4168 5.49249 36.5269 5.24984 36.5269 4.96762H36.3094ZM36.055 5.53085C35.8859 5.68917 35.6819 5.76861 35.4362 5.76861V5.98615C35.7344 5.98615 35.9924 5.88749 36.2037 5.68961L36.055 5.53085ZM39.9491 8.88105L39.8403 8.87962V8.88105H39.9491ZM39.9491 12.0002V12.109H40.0578V12.0002H39.9491ZM37.9563 12.0002H37.8475V12.109H37.9563V12.0002ZM37.9563 6.45501V6.34624H37.8475V6.45501H37.9563ZM39.848 6.45501H39.9568V6.34624H39.848V6.45501ZM39.848 7.50918H39.7392V7.61795H39.848V7.50918ZM39.9057 7.50918V7.61795H39.9835L40.0086 7.54442L39.9057 7.50918ZM40.5411 6.68245L40.4816 6.5914L40.4813 6.59162L40.5411 6.68245ZM42.6314 6.65357L42.5738 6.74581L42.5747 6.74636L42.6314 6.65357ZM43.3065 7.39005L43.2095 7.43928L43.2099 7.43987L43.3065 7.39005ZM43.5448 8.46227L43.436 8.46162V8.46227H43.5448ZM43.5448 12.0002V12.109H43.6536V12.0002H43.5448ZM41.552 12.0002H41.4432V12.109H41.552V12.0002ZM41.552 8.88105L41.4432 8.8801V8.88105H41.552ZM41.3426 8.23483L41.2614 8.30725L41.2621 8.30793L41.3426 8.23483ZM40.3281 8.10847L40.3827 8.20256L40.3833 8.20222L40.3281 8.10847ZM40.0502 8.41173L40.1474 8.46037L40.1478 8.45966L40.0502 8.41173ZM39.8403 8.88105V12.0002H40.0578V8.88105H39.8403ZM39.9491 11.8915H37.9563V12.109H39.9491V11.8915ZM38.065 12.0002V6.45501H37.8475V12.0002H38.065ZM37.9563 6.56378H39.848V6.34624H37.9563V6.56378ZM39.7392 6.45501V7.50918H39.9568V6.45501H39.7392ZM39.848 7.61795H39.9057V7.40041H39.848V7.61795ZM40.0086 7.54442C40.1214 7.21526 40.3183 6.95947 40.601 6.77328L40.4813 6.59162C40.1574 6.80496 39.9308 7.10032 39.8028 7.47394L40.0086 7.54442ZM40.6006 6.7735C40.8866 6.58659 41.2216 6.49157 41.6098 6.49157V6.27404C41.1844 6.27404 40.807 6.37879 40.4816 6.5914L40.6006 6.7735ZM41.6098 6.49157C41.9848 6.49157 42.3048 6.57766 42.5738 6.7458L42.6891 6.56133C42.3805 6.36846 42.0193 6.27404 41.6098 6.27404V6.49157ZM42.5747 6.74636C42.8482 6.91365 43.0596 7.14384 43.2096 7.43928L43.4035 7.34081C43.2358 7.01049 42.9971 6.7497 42.6882 6.56078L42.5747 6.74636ZM43.2099 7.43987C43.362 7.73506 43.4384 8.07473 43.436 8.46162L43.6536 8.46292C43.6561 8.04594 43.5736 7.67079 43.4032 7.34022L43.2099 7.43987ZM43.436 8.46227V12.0002H43.6536V8.46227H43.436ZM43.5448 11.8915H41.552V12.109H43.5448V11.8915ZM41.6608 12.0002V8.88105H41.4432V12.0002H41.6608ZM41.6608 8.882C41.6633 8.58869 41.5885 8.3439 41.4231 8.16172L41.2621 8.30793C41.3807 8.43864 41.4455 8.62466 41.4432 8.8801L41.6608 8.882ZM41.4238 8.16241C41.2595 7.97836 41.0325 7.8914 40.7577 7.8914V8.10893C40.9836 8.10893 41.1465 8.17841 41.2614 8.30724L41.4238 8.16241ZM40.7577 7.8914C40.5776 7.8914 40.4148 7.93129 40.273 8.01472L40.3833 8.20222C40.487 8.14124 40.6105 8.10893 40.7577 8.10893V7.8914ZM40.2736 8.01438C40.1335 8.09563 40.0264 8.21334 39.9525 8.3638L40.1478 8.45966C40.2039 8.34537 40.2821 8.2609 40.3827 8.20256L40.2736 8.01438ZM39.9529 8.36308C39.8789 8.51101 39.8429 8.68443 39.8403 8.87962L40.0578 8.88248C40.0601 8.71184 40.0914 8.57237 40.1474 8.46037L39.9529 8.36308ZM48.6326 9.5742H48.5239L48.5239 9.57563L48.6326 9.5742ZM48.6326 6.45501V6.34624H48.5239V6.45501H48.6326ZM50.6255 6.45501H50.7342V6.34624H50.6255V6.45501ZM50.6255 12.0002V12.109H50.7342V12.0002H50.6255ZM48.7337 12.0002H48.625V12.109H48.7337V12.0002ZM48.7337 10.9461H48.8425V10.8373H48.7337V10.9461ZM48.676 10.9461V10.8373H48.5981L48.573 10.911L48.676 10.9461ZM48.0442 11.7764L48.1038 11.8674L48.1043 11.867L48.0442 11.7764ZM45.9539 11.8053L45.8968 11.8979L45.8971 11.8981L45.9539 11.8053ZM45.2788 11.0688L45.1818 11.1181L45.1821 11.1186L45.2788 11.0688ZM45.0369 9.99298H44.9281L44.9281 9.99363L45.0369 9.99298ZM45.0369 6.45501V6.34624H44.9281V6.45501H45.0369ZM47.0297 6.45501H47.1385V6.34624H47.0297V6.45501ZM47.0297 9.5742H46.9209L46.9209 9.57516L47.0297 9.5742ZM47.2391 10.2204L47.1573 10.2921L47.1579 10.2928L47.2391 10.2204ZM48.2536 10.3504L48.3081 10.4445L48.3087 10.4441L48.2536 10.3504ZM48.5352 10.0471L48.4382 9.99779L48.4379 9.9985L48.5352 10.0471ZM48.7414 9.5742V6.45501H48.5239V9.5742H48.7414ZM48.6326 6.56378H50.6255V6.34624H48.6326V6.56378ZM50.5167 6.45501V12.0002H50.7342V6.45501H50.5167ZM50.6255 11.8915H48.7337V12.109H50.6255V11.8915ZM48.8425 12.0002V10.9461H48.625V12.0002H48.8425ZM48.7337 10.8373H48.676V11.0548H48.7337V10.8373ZM48.573 10.911C48.4601 11.2429 48.2641 11.4998 47.984 11.6858L48.1043 11.867C48.4259 11.6535 48.6511 11.3568 48.7789 10.9811L48.573 10.911ZM47.9845 11.6855C47.7039 11.8695 47.368 11.9637 46.972 11.9637V12.1812C47.4038 12.1812 47.7827 12.078 48.1038 11.8674L47.9845 11.6855ZM46.972 11.9637C46.6017 11.9637 46.2825 11.8788 46.0106 11.7125L45.8971 11.8981C46.2077 12.088 46.5672 12.1812 46.972 12.1812V11.9637ZM46.011 11.7127C45.7396 11.5454 45.528 11.315 45.3755 11.019L45.1821 11.1186C45.3521 11.4484 45.5905 11.709 45.8968 11.8979L46.011 11.7127ZM45.3758 11.0196C45.2256 10.7239 45.148 10.3824 45.1457 9.99234L44.9281 9.99363C44.9306 10.4123 45.0142 10.788 45.1818 11.1181L45.3758 11.0196ZM45.1457 9.99298V6.45501H44.9281V9.99298H45.1457ZM45.0369 6.56378H47.0297V6.34624H45.0369V6.56378ZM46.9209 6.45501V9.5742H47.1385V6.45501H46.9209ZM46.9209 9.57516C46.9235 9.86716 46.9981 10.1106 47.1573 10.2921L47.3209 10.1487C47.2057 10.0174 47.1407 9.82999 47.1385 9.57325L46.9209 9.57516ZM47.1579 10.2928C47.3222 10.4769 47.5492 10.5639 47.824 10.5639V10.3463C47.5981 10.3463 47.4352 10.2768 47.3203 10.148L47.1579 10.2928ZM47.824 10.5639C48.0055 10.5639 48.1683 10.5256 48.3081 10.4445L48.199 10.2563C48.0982 10.3148 47.9746 10.3463 47.824 10.3463V10.5639ZM48.3087 10.4441C48.45 10.3611 48.5583 10.2441 48.6324 10.0958L48.4379 9.9985C48.3821 10.1101 48.3027 10.1953 48.1984 10.2566L48.3087 10.4441ZM48.6321 10.0965C48.7091 9.94516 48.744 9.7693 48.7414 9.57277L48.5239 9.57563C48.5261 9.74494 48.496 9.88437 48.4382 9.99779L48.6321 10.0965ZM55.4542 6.45501H55.563V6.34624H55.4542V6.45501ZM55.4542 7.89908V8.00785H55.563V7.89908H55.4542ZM51.8007 7.89908H51.692V8.00785H51.8007V7.89908ZM51.8007 6.45501V6.34624H51.692V6.45501H51.8007ZM52.5083 5.12646V5.0177H52.3996V5.12646H52.5083ZM54.5012 5.12646H54.6099V5.0177H54.5012V5.12646ZM54.5409 10.4118L54.4436 10.4604L54.4445 10.4622L54.5409 10.4118ZM54.6636 10.5273L54.6167 10.6255L54.6202 10.627L54.6636 10.5273ZM55.086 10.5417L55.0671 10.4346L55.0666 10.4347L55.086 10.5417ZM55.2665 10.5056L55.373 10.4837L55.3501 10.3726L55.2401 10.4001L55.2665 10.5056ZM55.5553 11.9064L55.5863 12.0106L55.682 11.9822L55.6619 11.8844L55.5553 11.9064ZM55.1727 12.0039L55.1481 11.8979L55.1477 11.898L55.1727 12.0039ZM54.5878 12.0797L54.5935 12.1883L54.5936 12.1883L54.5878 12.0797ZM53.4362 11.9389L53.3968 12.0403L53.3975 12.0406L53.4362 11.9389ZM52.7358 11.3721L52.6428 11.4285L52.7358 11.3721ZM52.5083 10.4045L52.6171 10.4059V10.4045H52.5083ZM55.3455 6.45501V7.89908H55.563V6.45501H55.3455ZM55.4542 7.79031H51.8007V8.00785H55.4542V7.79031ZM51.9095 7.89908V6.45501H51.692V7.89908H51.9095ZM51.8007 6.56378H55.4542V6.34624H51.8007V6.56378ZM52.5083 5.23523H54.5012V5.0177H52.5083V5.23523ZM54.3924 5.12646V10.2168H54.6099V5.12646H54.3924ZM54.3924 10.2168C54.3924 10.3058 54.4076 10.3885 54.4436 10.4604L54.6382 10.3631C54.6212 10.3291 54.6099 10.2818 54.6099 10.2168H54.3924ZM54.4445 10.4622C54.4827 10.5352 54.5418 10.5896 54.6167 10.6254L54.7105 10.4292C54.6747 10.412 54.652 10.3894 54.6372 10.3613L54.4445 10.4622ZM54.6202 10.627C54.6939 10.6591 54.781 10.6722 54.8766 10.6722V10.4546C54.7989 10.4546 54.7441 10.4437 54.707 10.4275L54.6202 10.627ZM54.8766 10.6722C54.9451 10.6722 55.0216 10.664 55.1055 10.6487L55.0666 10.4347C54.9915 10.4484 54.9285 10.4546 54.8766 10.4546V10.6722ZM55.1049 10.6488C55.1872 10.6343 55.2505 10.6218 55.2929 10.6111L55.2401 10.4001C55.2055 10.4088 55.1485 10.4203 55.0671 10.4346L55.1049 10.6488ZM55.16 10.5276L55.4488 11.9283L55.6619 11.8844L55.373 10.4837L55.16 10.5276ZM55.5243 11.8021C55.4385 11.8276 55.3135 11.8596 55.1481 11.8979L55.1972 12.1098C55.364 12.0711 55.4941 12.0381 55.5863 12.0106L55.5243 11.8021ZM55.1477 11.898C54.9921 11.9346 54.8039 11.9593 54.582 11.9711L54.5936 12.1883C54.8242 12.176 55.0259 12.1501 55.1976 12.1097L55.1477 11.898ZM54.5821 11.9711C54.1345 11.9946 53.7668 11.9481 53.4748 11.8372L53.3975 12.0406C53.7264 12.1655 54.1265 12.2129 54.5935 12.1883L54.5821 11.9711ZM53.4755 11.8375C53.1849 11.7248 52.9714 11.5505 52.8287 11.3156L52.6428 11.4285C52.813 11.7087 53.0665 11.9122 53.3968 12.0403L53.4755 11.8375ZM52.8287 11.3156C52.6855 11.0798 52.6125 10.7788 52.6171 10.4059L52.3996 10.4032C52.3946 10.8053 52.4732 11.1493 52.6428 11.4285L52.8287 11.3156ZM52.6171 10.4045V5.12646H52.3996V10.4045H52.6171ZM57.8426 11.762L57.7911 11.8578L57.7918 11.8582L57.8426 11.762ZM56.857 10.78L56.761 10.8312L56.7614 10.8319L56.857 10.78ZM56.8606 7.74023L56.9563 7.79186L56.8606 7.74023ZM57.8389 6.74021L57.8925 6.83488L57.8389 6.74021ZM60.4672 6.57775L60.5061 6.47618L60.4672 6.57775ZM61.3372 7.14455L61.2592 7.22032L61.2595 7.2207L61.3372 7.14455ZM61.8932 8.03988L61.7912 8.07761L61.8932 8.03988ZM62.0881 9.68973V9.7985H62.1969V9.68973H62.0881ZM57.135 9.68973H57.0262V9.7985H57.135V9.68973ZM57.135 8.59224V8.48347H57.0262V8.59224H57.135ZM60.2542 8.59224V8.701H60.3646L60.3629 8.59059L60.2542 8.59224ZM60.1314 8.17345L60.0393 8.23128L60.0406 8.23337L60.1314 8.17345ZM59.8173 7.88825L59.7659 7.9841L59.768 7.98518L59.8173 7.88825ZM58.9292 7.88825L58.9779 7.98554L58.9792 7.98483L58.9292 7.88825ZM58.6043 8.16984L58.5144 8.10868L58.5135 8.10993L58.6043 8.16984ZM58.478 8.59224L58.3692 8.58899V8.59224H58.478ZM58.5899 10.2529L58.4939 10.3042L58.5899 10.2529ZM58.9112 10.5814L58.8574 10.676L58.9112 10.5814ZM59.7921 10.6428L59.7577 10.5396L59.757 10.5399L59.7921 10.6428ZM60.0881 10.4767L60.1601 10.5583L60.1614 10.5571L60.0881 10.4767ZM60.2686 10.2096V10.1008H60.193L60.1667 10.1717L60.2686 10.2096ZM62.0881 10.2096L62.1955 10.227L62.216 10.1008H62.0881V10.2096ZM61.6441 11.2132L61.7278 11.2826L61.7281 11.2823L61.6441 11.2132ZM60.7163 11.8703L60.7569 11.9712L60.7572 11.971L60.7163 11.8703ZM59.3733 11.9926C58.795 11.9926 58.303 11.8821 57.8934 11.6658L57.7918 11.8582C58.2389 12.0943 58.7674 12.2101 59.3733 12.2101V11.9926ZM57.894 11.6661C57.4867 11.4476 57.1735 11.1355 56.9526 10.7281L56.7614 10.8319C57.0025 11.2765 57.3464 11.6191 57.7911 11.8578L57.894 11.6661ZM56.9529 10.7288C56.7344 10.3194 56.6228 9.82513 56.6228 9.24207H56.4052C56.4052 9.85277 56.5223 10.3838 56.761 10.8312L56.9529 10.7288ZM56.6228 9.24207C56.6228 8.68408 56.7352 8.20182 56.9563 7.79186L56.7649 7.6886C56.5239 8.13546 56.4052 8.65442 56.4052 9.24207H56.6228ZM56.9563 7.79186C57.1777 7.38138 57.4893 7.063 57.8925 6.83488L57.7854 6.64555C57.3463 6.89397 57.0056 7.24227 56.7649 7.6886L56.9563 7.79186ZM57.8925 6.83488C58.2946 6.60742 58.7724 6.49157 59.33 6.49157V6.27404C58.7418 6.27404 58.2257 6.39647 57.7854 6.64555L57.8925 6.83488ZM59.33 6.49157C59.7374 6.49157 60.1031 6.55478 60.4283 6.67933L60.5061 6.47618C60.1525 6.34079 59.76 6.27404 59.33 6.27404V6.49157ZM60.4283 6.67933C60.7536 6.80394 61.0301 6.98435 61.2592 7.22032L61.4152 7.06879C61.163 6.80896 60.8594 6.6115 60.5061 6.47618L60.4283 6.67933ZM61.2595 7.2207C61.4886 7.45429 61.666 7.73929 61.7912 8.07761L61.9952 8.00215C61.8604 7.63768 61.6672 7.3258 61.4149 7.06841L61.2595 7.2207ZM61.7912 8.07761C61.916 8.41501 61.9794 8.79785 61.9794 9.22763H62.1969C62.1969 8.77652 62.1303 8.36753 61.9952 8.00215L61.7912 8.07761ZM61.9794 9.22763V9.68973H62.1969V9.22763H61.9794ZM62.0881 9.58096H57.135V9.7985H62.0881V9.58096ZM57.2437 9.68973V8.59224H57.0262V9.68973H57.2437ZM57.135 8.701H60.2542V8.48347H57.135V8.701ZM60.3629 8.59059C60.3602 8.41319 60.3142 8.25293 60.2222 8.11354L60.0406 8.23337C60.1075 8.33466 60.1433 8.45359 60.1454 8.59388L60.3629 8.59059ZM60.2235 8.11565C60.1358 7.97579 60.0161 7.8674 59.8667 7.79132L59.768 7.98518C59.8833 8.04388 59.973 8.12562 60.0393 8.23126L60.2235 8.11565ZM59.8688 7.79243C59.7211 7.71311 59.555 7.67479 59.3733 7.67479V7.89232C59.5237 7.89232 59.6536 7.92379 59.7659 7.98407L59.8688 7.79243ZM59.3733 7.67479C59.1957 7.67479 59.0304 7.71337 58.8792 7.79167L58.9792 7.98483C59.0976 7.92354 59.2283 7.89232 59.3733 7.89232V7.67479ZM58.8806 7.79097C58.7298 7.86636 58.607 7.97241 58.5144 8.10868L58.6942 8.231C58.7652 8.1266 58.8591 8.04492 58.9779 7.98553L58.8806 7.79097ZM58.5135 8.10993C58.4217 8.24908 58.3746 8.41001 58.3692 8.58899L58.5867 8.59548C58.591 8.45195 58.6281 8.33129 58.6951 8.22976L58.5135 8.10993ZM58.3692 8.59224V9.77637H58.5867V8.59224H58.3692ZM58.3692 9.77637C58.3692 9.97009 58.4099 10.1469 58.4939 10.3042L58.6858 10.2016C58.6206 10.0797 58.5867 9.93886 58.5867 9.77637H58.3692ZM58.4939 10.3042C58.5784 10.4622 58.7002 10.5866 58.8574 10.676L58.965 10.4869C58.8429 10.4175 58.7506 10.3229 58.6858 10.2016L58.4939 10.3042ZM58.8574 10.676C59.0167 10.7666 59.2047 10.8093 59.4166 10.8093V10.5918C59.2338 10.5918 59.0848 10.5551 58.965 10.4869L58.8574 10.676ZM59.4166 10.8093C59.564 10.8093 59.7012 10.7887 59.8271 10.7458L59.757 10.5399C59.6567 10.574 59.5436 10.5918 59.4166 10.5918V10.8093ZM59.8265 10.746C59.9542 10.7034 60.0661 10.6412 60.1601 10.5583L60.0161 10.3952C59.9464 10.4567 59.8609 10.5052 59.7577 10.5396L59.8265 10.746ZM60.1614 10.5571C60.256 10.4709 60.326 10.3673 60.3705 10.2475L60.1667 10.1717C60.1342 10.2589 60.0839 10.3334 60.0148 10.3964L60.1614 10.5571ZM60.2686 10.3184H62.0881V10.1008H60.2686V10.3184ZM61.9808 10.1921C61.9211 10.5595 61.7806 10.8759 61.5601 11.1442L61.7281 11.2823C61.9745 10.9825 62.13 10.6299 62.1955 10.227L61.9808 10.1921ZM61.5603 11.1438C61.3398 11.4098 61.0461 11.6189 60.6753 11.7695L60.7572 11.971C61.1566 11.8088 61.4814 11.5798 61.7278 11.2826L61.5603 11.1438ZM60.6756 11.7694C60.3086 11.9171 59.8753 11.9926 59.3733 11.9926V12.2101C59.8966 12.2101 60.3586 12.1315 60.7569 11.9712L60.6756 11.7694ZM68.4783 8.2601V8.36887H68.5916L68.587 8.25564L68.4783 8.2601ZM66.6444 8.2601L66.536 8.26932L66.5445 8.36887H66.6444V8.2601ZM66.5252 7.96767L66.608 7.89709L66.5252 7.96767ZM66.2545 7.77994L66.2121 7.88018L66.2148 7.88123L66.2545 7.77994ZM65.453 7.80522L65.4036 7.70831L65.453 7.80522ZM65.2725 8.07237L65.3813 8.07557L65.3812 8.0701L65.2725 8.07237ZM65.3772 8.29981L65.3016 8.37802L65.3029 8.37924L65.3772 8.29981ZM65.8068 8.46227L65.7873 8.56928L65.7876 8.56932L65.8068 8.46227ZM66.9332 8.66444L66.9527 8.55743L66.9524 8.55738L66.9332 8.66444ZM68.2003 9.18791L68.1282 9.26929L68.1289 9.26994L68.2003 9.18791ZM68.6227 10.1663L68.7315 10.1669L68.7315 10.1656L68.6227 10.1663ZM68.2689 11.1952L68.1841 11.1271L68.184 11.1272L68.2689 11.1952ZM67.3195 11.8667L67.3591 11.9679L67.3594 11.9678L67.3195 11.8667ZM63.962 11.5815L63.898 11.6694L63.8982 11.6696L63.962 11.5815ZM63.1641 10.2096V10.1008H63.0443L63.0559 10.2201L63.1641 10.2096ZM65.1425 10.2096L65.2501 10.1934L65.2361 10.1008H65.1425V10.2096ZM65.4025 10.6175L65.3428 10.7085L65.3445 10.7096L65.4025 10.6175ZM66.4169 10.6645L66.3667 10.568L66.3659 10.5684L66.4169 10.6645ZM66.601 10.3973L66.7099 10.3996L66.7098 10.3949L66.601 10.3973ZM66.4422 10.1446L66.3849 10.2371L66.3859 10.2377L66.4422 10.1446ZM65.9656 9.99298L65.9847 9.8859L65.9845 9.88587L65.9656 9.99298ZM64.9837 9.8197L65.0026 9.71258L65.0024 9.71255L64.9837 9.8197ZM63.7129 9.25651L63.7891 9.17894L63.7129 9.25651ZM63.2941 8.18789L63.4029 8.1885L63.4029 8.18722L63.2941 8.18789ZM63.5974 7.20954L63.5111 7.14329L63.511 7.14341L63.5974 7.20954ZM64.4819 6.59581L64.5191 6.69799L64.5195 6.69786L64.4819 6.59581ZM67.7455 6.88101L67.682 6.96933L67.6822 6.96949L67.7455 6.88101ZM68.4783 8.15133H66.6444V8.36887H68.4783V8.15133ZM66.7527 8.25087C66.7413 8.11646 66.6934 7.99719 66.608 7.89709L66.4425 8.03826C66.4967 8.10182 66.5282 8.1775 66.536 8.26932L66.7527 8.25087ZM66.608 7.89709C66.5254 7.80024 66.4197 7.72781 66.2941 7.67866L66.2148 7.88123C66.3106 7.91873 66.3855 7.97145 66.4425 8.03826L66.608 7.89709ZM66.2968 7.67974C66.1735 7.62769 66.0385 7.60258 65.8934 7.60258V7.82012C66.0131 7.82012 66.1188 7.84074 66.2122 7.88015L66.2968 7.67974ZM65.8934 7.60258C65.7094 7.60258 65.5449 7.63629 65.4036 7.70831L65.5024 7.90212C65.6066 7.84899 65.7357 7.82012 65.8934 7.82012V7.60258ZM65.4036 7.70831C65.3303 7.74566 65.2686 7.79455 65.2257 7.85804C65.1821 7.92262 65.1621 7.99618 65.1637 8.07463L65.3812 8.0701C65.3805 8.03303 65.3894 8.00431 65.4059 7.97983C65.4232 7.95427 65.4529 7.92734 65.5024 7.90212L65.4036 7.70831ZM65.1638 8.06917C65.1603 8.18834 65.2128 8.29215 65.3016 8.37801L65.4528 8.22161C65.3972 8.16788 65.3799 8.12006 65.3812 8.07557L65.1638 8.06917ZM65.3029 8.37924C65.4022 8.47216 65.5732 8.53036 65.7873 8.56928L65.8263 8.35526C65.6167 8.31716 65.5014 8.26705 65.4515 8.22038L65.3029 8.37924ZM65.7876 8.56932L66.914 8.77149L66.9524 8.55738L65.826 8.35521L65.7876 8.56932ZM66.9137 8.77144C67.4721 8.8732 67.8724 9.04243 68.1282 9.26929L68.2725 9.10654C67.9747 8.84241 67.5302 8.66266 66.9527 8.55743L66.9137 8.77144ZM68.1289 9.26994C68.3819 9.49022 68.5117 9.78531 68.514 10.1669L68.7315 10.1656C68.7289 9.72893 68.5772 9.37178 68.2718 9.10588L68.1289 9.26994ZM68.514 10.1656C68.5117 10.5373 68.4013 10.8562 68.1841 11.1271L68.3538 11.2632C68.6035 10.9517 68.729 10.5846 68.7315 10.1669L68.514 10.1656ZM68.184 11.1272C67.9667 11.3989 67.6668 11.6124 67.2795 11.7655L67.3594 11.9678C67.776 11.8032 68.1091 11.5691 68.3539 11.2631L68.184 11.1272ZM67.2798 11.7654C66.8951 11.916 66.4529 11.9926 65.9512 11.9926V12.2101C66.4748 12.2101 66.9448 12.1302 67.3591 11.9679L67.2798 11.7654ZM65.9512 11.9926C65.1174 11.9926 64.4797 11.8218 64.0258 11.4933L63.8982 11.6696C64.4022 12.0343 65.0907 12.2101 65.9512 12.2101V11.9926ZM64.026 11.4935C63.5736 11.1645 63.3246 10.735 63.2724 10.199L63.0559 10.2201C63.1144 10.8202 63.3973 11.3052 63.898 11.6694L64.026 11.4935ZM63.1641 10.3184H65.1425V10.1008H63.1641V10.3184ZM65.035 10.2258C65.066 10.4317 65.1698 10.595 65.3428 10.7085L65.4621 10.5266C65.3415 10.4475 65.272 10.3389 65.2501 10.1934L65.035 10.2258ZM65.3445 10.7096C65.5154 10.8171 65.7246 10.8671 65.9656 10.8671V10.6496C65.7542 10.6496 65.588 10.6057 65.4604 10.5255L65.3445 10.7096ZM65.9656 10.8671C66.1601 10.8671 66.3295 10.834 66.4679 10.7606L66.3659 10.5684C66.2684 10.6201 66.137 10.6496 65.9656 10.6496V10.8671ZM66.4671 10.761C66.6153 10.6839 66.7064 10.5625 66.7098 10.3996L66.4923 10.3951C66.4909 10.4632 66.4592 10.5199 66.3667 10.568L66.4671 10.761ZM66.7098 10.3949C66.7064 10.246 66.6285 10.1301 66.4985 10.0515L66.3859 10.2377C66.4629 10.2842 66.4909 10.3369 66.4923 10.3998L66.7098 10.3949ZM66.4994 10.0521C66.3806 9.97854 66.2053 9.92512 65.9847 9.8859L65.9466 10.1001C66.1592 10.1379 66.3016 10.1855 66.3849 10.2371L66.4994 10.0521ZM65.9845 9.88587L65.0026 9.71258L64.9648 9.92681L65.9467 10.1001L65.9845 9.88587ZM65.0024 9.71255C64.4491 9.61602 64.0493 9.43469 63.7891 9.17894L63.6367 9.33408C63.9396 9.63189 64.3871 9.82601 64.965 9.92684L65.0024 9.71255ZM63.7891 9.17894C63.5308 8.92499 63.4006 8.59809 63.4029 8.1885L63.1853 8.18729C63.1828 8.64896 63.3318 9.03447 63.6367 9.33408L63.7891 9.17894ZM63.4029 8.18722C63.4006 7.82261 63.4959 7.52094 63.6837 7.27566L63.511 7.14341C63.2897 7.43244 63.1828 7.783 63.1853 8.18857L63.4029 8.18722ZM63.6836 7.27578C63.8757 7.02561 64.152 6.83192 64.5191 6.69799L64.4446 6.49363C64.0464 6.63888 63.733 6.85434 63.5111 7.14329L63.6836 7.27578ZM64.5195 6.69786C64.8897 6.56136 65.3324 6.49157 65.8501 6.49157V6.27404C65.3137 6.27404 64.8442 6.34625 64.4442 6.49376L64.5195 6.69786ZM65.8501 6.49157C66.6378 6.49157 67.2446 6.65493 67.682 6.96933L67.8089 6.79269C67.3222 6.44282 66.6653 6.27404 65.8501 6.27404V6.49157ZM67.6822 6.96949C68.1185 7.28146 68.3469 7.70966 68.3697 8.26455L68.587 8.25564C68.5616 7.63602 68.3014 7.14483 67.8087 6.79253L67.6822 6.96949Z" fill="url(#paint1_linear_33_5971)"/>
<path d="M26.334 19.3503H27.2325L27.7647 20.0403L28.1444 20.4895L29.0563 21.6608H28.0936L27.4732 20.8746L27.2084 20.5002L26.334 19.3503ZM29.1873 18.4518C29.1873 19.0419 29.0768 19.5473 28.8557 19.9681C28.6365 20.387 28.3369 20.7079 27.9572 20.9308C27.5793 21.1536 27.1505 21.2651 26.6709 21.2651C26.1913 21.2651 25.7617 21.1536 25.3819 20.9308C25.004 20.7062 24.7045 20.3844 24.4834 19.9654C24.2641 19.5447 24.1545 19.0401 24.1545 18.4518C24.1545 17.8617 24.2641 17.3572 24.4834 16.9382C24.7045 16.5175 25.004 16.1957 25.3819 15.9728C25.7617 15.75 26.1913 15.6385 26.6709 15.6385C27.1505 15.6385 27.5793 15.75 27.9572 15.9728C28.3369 16.1957 28.6365 16.5175 28.8557 16.9382C29.0768 17.3572 29.1873 17.8617 29.1873 18.4518ZM28.1899 18.4518C28.1899 18.0364 28.1248 17.6861 27.9946 17.4008C27.8663 17.1138 27.688 16.8972 27.4598 16.751C27.2316 16.603 26.9686 16.529 26.6709 16.529C26.3732 16.529 26.1102 16.603 25.882 16.751C25.6538 16.8972 25.4747 17.1138 25.3445 17.4008C25.2161 17.6861 25.152 18.0364 25.152 18.4518C25.152 18.8672 25.2161 19.2184 25.3445 19.5054C25.4747 19.7907 25.6538 20.0073 25.882 20.1553C26.1102 20.3015 26.3732 20.3746 26.6709 20.3746C26.9686 20.3746 27.2316 20.3015 27.4598 20.1553C27.688 20.0073 27.8663 19.7907 27.9946 19.5054C28.1248 19.2184 28.1899 18.8672 28.1899 18.4518ZM37.0757 19.4626V17.0826H38.0437V21.1902H37.1051V20.4601H37.0623C36.9696 20.6901 36.8172 20.8782 36.605 21.0244C36.3946 21.1706 36.1352 21.2437 35.8268 21.2437C35.5576 21.2437 35.3196 21.1839 35.1128 21.0645C34.9078 20.9433 34.7473 20.7677 34.6314 20.5377C34.5156 20.3059 34.4576 20.026 34.4576 19.698V17.0826H35.4257V19.5482C35.4257 19.8085 35.497 20.0153 35.6396 20.1686C35.7822 20.322 35.9694 20.3986 36.2012 20.3986C36.3438 20.3986 36.482 20.3639 36.6157 20.2943C36.7494 20.2248 36.8591 20.1214 36.9446 19.9841C37.032 19.8451 37.0757 19.6712 37.0757 19.4626ZM43.4069 21.1902V17.0826H44.375V21.1902H43.4069ZM43.8936 16.4996C43.7403 16.4996 43.6084 16.4488 43.4979 16.3472C43.3873 16.2438 43.3321 16.1199 43.3321 15.9755C43.3321 15.8293 43.3873 15.7054 43.4979 15.6038C43.6084 15.5004 43.7403 15.4487 43.8936 15.4487C44.0487 15.4487 44.1807 15.5004 44.2894 15.6038C44.4 15.7054 44.4552 15.8293 44.4552 15.9755C44.4552 16.1199 44.4 16.2438 44.2894 16.3472C44.1807 16.4488 44.0487 16.4996 43.8936 16.4996ZM49.6847 21.1902V20.5751L51.8027 17.9196V17.8849H49.7542V17.0826H52.9874V17.7431L50.971 20.3532V20.3879H53.0569V21.1902H49.6847Z" fill="white"/>
<path d="M19.9141 2.11225C19.9473 1.92241 19.8948 1.72762 19.7708 1.5801C19.6468 1.43258 19.4639 1.3474 19.2712 1.3474H5.61261C5.29637 1.3474 5.02564 1.57413 4.97014 1.88546L3.28755 11.3229C3.24493 11.5619 3.33857 11.8049 3.5306 11.9535L7.63809 15.1325C7.75243 15.2209 7.89292 15.269 8.03751 15.269H11.7873L11.1839 19.448H9.34213L9.72182 16.9709C9.75066 16.7828 9.69592 16.5914 9.57194 16.447C9.44796 16.3025 9.2671 16.2194 9.07675 16.2194H2.84129C2.52551 16.2194 2.25503 16.4455 2.19903 16.7563L1.35774 21.4254C1.31753 21.6485 1.39605 21.8766 1.56513 22.0277L5.17774 25.2563C5.29736 25.3632 5.45217 25.4223 5.61261 25.4223H13.1348C13.2678 25.4223 13.3976 25.3817 13.5068 25.3058L18.1587 22.0772C18.3082 21.9735 18.4076 21.812 18.4329 21.6318L19.6701 12.8196C19.702 12.5922 19.6121 12.3648 19.4333 12.2207L15.9196 9.38948C15.8102 9.30132 15.6753 9.25083 15.5349 9.24551L11.0592 9.07599L11.3901 7.47066H18.4299C18.7471 7.47066 19.0183 7.2427 19.0728 6.93031L19.9141 2.11225Z" fill="#D9D9D9" stroke="black" stroke-width="1.3052" stroke-linejoin="round"/>
<path d="M19.6394 2.06429C19.6584 1.95557 19.6283 1.84401 19.5573 1.75953C19.4863 1.67504 19.3816 1.62626 19.2712 1.62626H5.61261C5.4315 1.62626 5.27646 1.75611 5.24467 1.9344L3.56209 11.3718C3.53768 11.5087 3.5913 11.6479 3.70128 11.733L7.80876 14.9119C7.87425 14.9626 7.95471 14.9901 8.03751 14.9901H12.1093L11.4254 19.7269H9.01726L9.44618 16.9287C9.46269 16.8209 9.43134 16.7113 9.36034 16.6286C9.28934 16.5459 9.18576 16.4983 9.07675 16.4983H2.84129C2.66045 16.4983 2.50555 16.6278 2.47348 16.8058L1.63218 21.4748C1.60916 21.6026 1.65412 21.7332 1.75095 21.8198L5.36356 25.0484C5.43207 25.1096 5.52073 25.1434 5.61261 25.1434H13.1348C13.2109 25.1434 13.2853 25.1202 13.3478 25.0767L17.9997 21.8481C18.0853 21.7887 18.1422 21.6962 18.1567 21.5931L19.3939 12.7808C19.4122 12.6506 19.3607 12.5204 19.2583 12.4379L15.7447 9.60663C15.682 9.55614 15.6047 9.52722 15.5243 9.52417L10.7196 9.34219L11.1629 7.1918H18.4299C18.6116 7.1918 18.7669 7.06125 18.7981 6.88235L19.6394 2.06429Z" fill="#D9D9D9" stroke="#4D6FE1" stroke-width="0.747478" stroke-linejoin="round"/>
<path d="M19.4662 2.03405C19.4763 1.97647 19.4604 1.91738 19.4228 1.87263C19.3852 1.82789 19.3297 1.80205 19.2712 1.80205H5.61261C5.51669 1.80205 5.43457 1.87082 5.41773 1.96526L3.73515 11.4027C3.72222 11.4752 3.75062 11.5489 3.80887 11.594L7.91635 14.7729C7.95104 14.7997 7.99365 14.8143 8.03751 14.8143H12.3123L11.5777 19.9027H8.81248L9.27242 16.902C9.28117 16.845 9.26456 16.7869 9.22695 16.7431C9.18935 16.6993 9.13449 16.6741 9.07675 16.6741H2.84129C2.74551 16.6741 2.66346 16.7427 2.64648 16.8369L1.80519 21.506C1.79299 21.5737 1.81681 21.6429 1.86809 21.6887L5.4807 24.9173C5.51698 24.9497 5.56394 24.9676 5.61261 24.9676H13.1348C13.1751 24.9676 13.2145 24.9553 13.2476 24.9323L17.8995 21.7037C17.9448 21.6722 17.975 21.6233 17.9826 21.5686L19.2198 12.7564C19.2295 12.6874 19.2022 12.6184 19.148 12.5747L15.6344 9.74351C15.6012 9.71676 15.5602 9.70145 15.5177 9.69983L10.5055 9.51L11.0196 7.01601H18.4299C18.5261 7.01601 18.6084 6.94686 18.6249 6.85211L19.4662 2.03405Z" fill="white" stroke="black" stroke-width="0.395902" stroke-linejoin="round"/>
<path d="M8.91226 17.0146L8.44231 20.0806L8.41738 20.2431H8.58187H11.7491H11.8714L11.8888 20.1221L12.6806 14.6378L12.7039 14.4765H12.5409H8.08683L4.46343 11.5935C4.28883 11.4546 4.38755 11.1734 4.61068 11.1741L16.9392 11.2119L18.8159 12.7368L17.6549 21.462L13.0906 24.6298H5.66651L2.15296 21.4897L2.95932 17.0146H8.91226Z" fill="url(#paint2_linear_33_5971)" stroke="white" stroke-width="0.282396"/>
<defs>
<linearGradient id="paint0_linear_33_5971" x1="46.4774" y1="3.74159" x2="46.4774" y2="11.5781" gradientUnits="userSpaceOnUse">
<stop stop-color="#2B49AE"/>
<stop offset="1" stop-color="#6084FF"/>
</linearGradient>
<linearGradient id="paint1_linear_33_5971" x1="46.4774" y1="3.74159" x2="46.4774" y2="11.5781" gradientUnits="userSpaceOnUse">
<stop stop-color="#2B49AE"/>
<stop offset="1" stop-color="#6084FF"/>
</linearGradient>
<linearGradient id="paint2_linear_33_5971" x1="10.4831" y1="12.9668" x2="10.4831" y2="21.6851" gradientUnits="userSpaceOnUse">
<stop stop-color="#2B49AE"/>
<stop offset="1" stop-color="#B4C5FF"/>
</linearGradient>
</defs>
</svg>
