<svg width="46" height="46" viewBox="0 0 46 46" fill="none" xmlns="http://www.w3.org/2000/svg">
<rect width="46" height="46" rx="23" fill="white"/>
<path d="M8.43763 23.6815C8.32156 23.6815 8.21025 23.6354 8.12818 23.5533C8.04611 23.4713 8 23.36 8 23.2439V22.1352C8 21.8935 8.19594 21.6976 8.43763 21.6976C8.67931 21.6976 8.87525 21.8935 8.87525 22.1352V23.3468C8.87525 23.5885 8.67931 23.6815 8.43763 23.6815ZM36.5624 23.6815C36.3207 23.6815 36.1247 23.7273 36.1247 23.4856V22.1352C36.1247 21.8935 36.3207 21.6976 36.5624 21.6976C36.8041 21.6976 37 21.8935 37 22.1352V23.2439C37 23.2439 36.8041 23.6815 36.5624 23.6815ZM12.5221 14.8706L12.0845 14.433V13.3244C12.0845 13.0826 12.2804 12.8867 12.5221 12.8867C12.7638 12.8867 12.9598 13.0826 12.9598 13.3244V14.5581C12.9598 14.7998 12.5221 14.8706 12.5221 14.8706ZM32.4779 14.8706C32.2362 14.8706 32.0402 14.9727 32.0402 14.731V13.3244C32.0402 13.0826 32.2362 12.8867 32.4779 12.8867C32.7196 12.8867 32.9155 13.0826 32.9155 13.3244V14.433C32.9155 14.5491 32.8694 14.6604 32.7873 14.7425C32.7052 14.8245 32.5939 14.8706 32.4779 14.8706ZM27.0556 11.1052L26.2344 11.1071V10.0568C26.2344 9.81502 26.4303 9.61914 26.672 9.61914C26.9137 9.61914 27.1097 9.81502 27.1097 10.0568V10.932L27.0556 11.1052ZM17.9487 11.0673L17.8903 10.932V10.0568C17.8903 9.81502 18.0863 9.61914 18.328 9.61914C18.5697 9.61914 18.7656 9.81502 18.7656 10.0568V11.0673H17.9487Z" fill="#FFA442"/>
<path d="M10.1881 32.0547L9.75049 31.5879V30.0416C9.75049 29.7999 9.94643 29.604 10.1881 29.604C10.4298 29.604 10.6257 29.7999 10.6257 30.0416V31.5879C10.6257 31.8297 10.4298 32.0547 10.1881 32.0547ZM34.8119 32.0547C34.6958 32.0547 34.5845 32.0086 34.5024 31.9265C34.4203 31.8445 34.3742 31.7331 34.3742 31.6171V30.0416C34.3742 29.7999 34.5702 29.604 34.8119 29.604C35.0535 29.604 35.2495 29.7999 35.2495 30.0416V31.5879L34.8119 32.0547Z" fill="#5A545E"/>
<path d="M12.4899 29.0156H32.4779V32.0548H12.4899V29.0156Z" fill="#F0E5E0"/>
<path d="M32.0402 29.6915C31.3486 29.1729 30.3978 29.1729 29.7062 29.6915H28.2474C27.5559 29.1729 26.605 29.1729 25.9134 29.6915H24.4547C23.2963 29.1729 21.7036 29.1729 20.5452 29.6915H19.0865C18.3949 29.1729 17.444 29.1729 16.7525 29.6915H15.2937C14.6022 29.1729 13.6513 29.1729 12.9597 29.6915H12.6959V27.6201H32.2796L32.2569 29.6915H32.0402Z" fill="#95D6A4"/>
<path d="M32.2796 27.3867H12.6959V28.4954H32.27L32.2796 27.3867Z" fill="#78C2A4"/>
<path d="M11.676 27.3867H12.9597V31.8213H11.676V27.3867ZM15.4688 27.3867H16.7525V31.8213H15.4688V27.3867ZM19.2615 27.3867H20.5452V31.8213H19.2615V27.3867ZM33.499 31.8213H32.2153V27.3867L33.499 27.6201V31.8213ZM28.4225 27.3867H29.7062V31.8213H28.4225V27.3867ZM24.6297 27.3867H25.9134V31.8213H24.6297V27.3867Z" fill="#D82F3C"/>
<path d="M11.501 27.6201V31.8213H12.2595V27.3867L11.501 27.6201ZM15.2937 27.3867H16.0523V31.8213H15.2937V27.3867ZM19.0865 27.3867H19.845V31.8213H19.0865V27.3867ZM32.0402 27.3867H32.7988V31.8213H32.0402V27.3867ZM28.2475 27.3867H29.006V31.8213H28.2475V27.3867ZM24.4547 27.3867H25.2132V31.8213H24.4547V27.3867Z" fill="#C42430"/>
<path d="M16.48 17.1172H28.4877V20.1564H16.48V17.1172Z" fill="#F0E5E0"/>
<path d="M16.48 16.8838H28.4877V17.9924H16.48V16.8838Z" fill="#E2D6D1"/>
<path d="M15.7314 16.9419H17.0151V19.626H15.7314V16.9419ZM19.8743 16.9419H21.158V19.626H19.8743V16.9419ZM29.4437 19.4509L28.16 19.626V16.9419H29.4437V19.4509ZM24.0172 16.9419H25.3009V19.626H24.0172V16.9419Z" fill="#D82F3C"/>
<path d="M15.5564 16.9419V19.4509L16.3149 19.626V16.9419H15.5564ZM19.6993 16.9419H20.4578V19.626H19.6993V16.9419ZM27.985 16.9419H28.7435V19.626H27.985V16.9419ZM23.8421 16.9419H24.6007V19.626H23.8421V16.9419Z" fill="#C42430"/>
<path d="M9.98389 33.4626V31.7629L10.6257 31.5879H11.0634L11.4979 31.7629L11.9386 31.5879H14.8561L15.3192 31.7046L15.7314 31.5879H18.6489L19.1442 31.7046L19.5241 31.5879H25.4758L25.9526 31.7046L26.3511 31.5879H29.2686L29.7416 31.7046L30.1438 31.5879H33.0613L33.4835 31.7046L33.9366 31.5879H35.2495V33.6376L35.1173 33.8127H10.6257L9.98389 33.4626Z" fill="#766D78"/>
<path d="M9.75049 31.5879V33.6376L10.6257 33.8127V31.5879H9.75049ZM11.501 34.0461C11.2593 34.0461 11.0634 33.9669 11.0634 33.7251V31.5879H11.9386V33.7251C11.9386 33.9669 11.7427 34.0461 11.501 34.0461ZM15.2937 34.0461C15.0521 34.0461 14.8561 33.9675 14.8561 33.7257V31.5879H15.7314V33.7257C15.7314 33.9675 15.5354 34.0461 15.2937 34.0461ZM19.0865 34.0461C18.8448 34.0461 18.6489 33.9675 18.6489 33.7257V31.5879H19.5241V33.7257C19.5241 33.9675 19.3282 34.0461 19.0865 34.0461ZM25.9135 34.0461C25.6718 34.0461 25.4758 33.9675 25.4758 33.7257V31.5879H26.3511V33.7257C26.3511 33.9675 26.1552 34.0461 25.9135 34.0461ZM29.7062 34.0461C29.4645 34.0461 29.2686 33.9675 29.2686 33.7257V31.5879H30.1438V33.7257C30.1438 33.9675 29.9479 34.0461 29.7062 34.0461ZM33.499 34.0461C33.2573 34.0461 33.0614 33.9675 33.0614 33.7257V31.5879H33.9366V33.7257C33.9366 33.9675 33.7407 34.0461 33.499 34.0461Z" fill="#655E67"/>
<path d="M35.2495 33.6377V34.5055L35.0744 34.9139C35.0744 34.9913 35.0437 35.0655 34.989 35.1202C34.9343 35.1749 34.8601 35.2057 34.7827 35.2057H10.2173C10.1399 35.2057 10.0657 35.1749 10.011 35.1202C9.95628 35.0655 9.92554 34.9913 9.92554 34.9139V33.8127L10.6257 33.6377H35.2495Z" fill="#655E67"/>
<path d="M10.6257 33.6377H9.75049V35.089C9.75049 35.1664 9.78123 35.2406 9.83594 35.2953C9.89065 35.35 9.96486 35.3807 10.0422 35.3807H34.9577C35.0351 35.3807 35.1093 35.35 35.164 35.2953C35.2187 35.2406 35.2495 35.1664 35.2495 35.089V34.5055H11.4935C11.0143 34.5055 10.6257 34.1169 10.6257 33.6377Z" fill="#5A545E"/>
<path d="M33.499 27.6201H12.2595L11.676 27.4451V25.8696H33.3239L33.499 26.7449V27.6201Z" fill="#FAF2F3"/>
<path d="M13.0501 26.7451H33.499V25.6948H11.501V27.6204H12.2595V27.5357C12.2595 27.0991 12.6135 26.7451 13.0501 26.7451Z" fill="#F0E5E0"/>
<path d="M26.9346 12.2158H18.0654V11.1072L18.7656 10.9321H27.1097V11.6323L26.9346 12.2158Z" fill="#FFBF54"/>
<path d="M18.7656 10.9321H17.8904V12.3909L18.0654 12.5659H26.9582L27.1097 12.3909V11.6323H19.4658C19.0791 11.6323 18.7656 11.3188 18.7656 10.9321Z" fill="#FFA442"/>
<path d="M37 23.2439C34.7477 23.6193 32.4364 23.1394 30.5197 21.8984L29.4437 21.2017L29.2425 20.8516H15.7314L15.5563 21.2017L14.4803 21.8984C12.8178 22.9748 10.8511 23.483 8.87525 23.3468L8.1167 23.3606V24.3757C8.1167 24.4369 8.13596 24.4966 8.17177 24.5463C8.20757 24.5959 8.2581 24.6331 8.3162 24.6524L11.501 25.753H33.499L36.6838 24.6525C36.7419 24.6331 36.7924 24.596 36.8282 24.5463C36.864 24.4966 36.8833 24.437 36.8833 24.3757L37 23.8275V23.2439Z" fill="#FFBF54"/>
<path d="M11.4561 24.9792L9.60825 24.3632C9.39479 24.2921 9.20913 24.1556 9.07758 23.9731C8.94602 23.7905 8.87524 23.5712 8.87525 23.3462C8.58202 23.3261 8.28994 23.2919 8 23.2437L8 24.4921C8 24.5533 8.01926 24.613 8.05507 24.6627C8.09088 24.7124 8.14141 24.7495 8.1995 24.7689L11.501 25.8694H33.499L36.8005 24.7689C36.8586 24.7496 36.9091 24.7124 36.9449 24.6627C36.9807 24.6131 37 24.5534 37 24.4922V23.8272L33.5439 24.9792C33.5142 24.9891 33.483 24.9941 33.4517 24.9942H11.5483C11.517 24.9941 11.4858 24.9891 11.4561 24.9792Z" fill="#FFA442"/>
<path d="M29.327 21.085H15.6731V19.5679L16.3149 19.4512H29.4437V20.3264L29.327 21.085Z" fill="#FFBF54"/>
<path d="M16.3149 19.4512H15.5564V21.2017H29.4437V20.3264H17.1902C16.7068 20.3264 16.3149 19.9345 16.3149 19.4512Z" fill="#FFA442"/>
<path d="M32.9155 14.4329L31.9391 14.5723C30.0424 14.8433 28.16 13.9929 27.1096 12.3906H17.8903C16.8399 13.993 14.9576 14.8433 13.0608 14.5723L12.9597 14.5579L12.2595 14.6079V15.5101C12.2595 15.5705 12.2782 15.6294 12.3131 15.6786C12.348 15.7279 12.3973 15.7652 12.4542 15.7853L15.5563 16.9419H29.4436L32.6041 15.8436C32.661 15.8235 32.7103 15.7863 32.7452 15.737C32.78 15.6877 32.7988 15.6288 32.7988 15.5685L32.9155 15.0164V14.4329Z" fill="#FFBF54"/>
<path d="M15.5092 16.2253L13.6833 15.5809C13.4717 15.5062 13.2885 15.3678 13.1589 15.1846C13.0293 15.0014 12.9597 14.7825 12.9597 14.5581L12.0845 14.4331V15.6854C12.0845 15.7458 12.1032 15.8047 12.1381 15.8539C12.1729 15.9032 12.2222 15.9404 12.2791 15.9605L15.5563 17.1172H29.4436L32.7208 15.9605C32.7777 15.9404 32.827 15.9032 32.8619 15.8539C32.8967 15.8047 32.9155 15.7458 32.9155 15.6854V15.0166L29.4908 16.2253C29.4596 16.2363 29.4268 16.242 29.3937 16.242H15.6063C15.5732 16.242 15.5403 16.2363 15.5092 16.2253Z" fill="#FFA442"/>
</svg>
