<svg width="46" height="46" viewBox="0 0 46 46" fill="none" xmlns="http://www.w3.org/2000/svg">
<rect width="46" height="46" rx="23" fill="white"/>
<g clip-path="url(#clip0_40_11756)">
<mask id="mask0_40_11756" style="mask-type:luminance" maskUnits="userSpaceOnUse" x="7" y="7" width="32" height="32">
<path d="M7 7.00009H38.9999V39H7V7.00009Z" fill="white"/>
</mask>
<g mask="url(#mask0_40_11756)">
<path d="M29.8743 33.4924C33.0285 33.4924 35.8745 31.5689 37.0198 28.6299C37.0268 28.6117 37.034 28.5934 37.041 28.5751C37.8823 26.3916 38.2428 23.9776 37.9976 21.4699C37.997 21.4762 37.9961 21.4825 37.9955 21.4887C37.9908 21.1377 37.8202 20.141 37.6996 19.6006L37.6983 19.5997C37.6106 19.206 37.5074 18.816 37.3891 18.4305L37.3895 18.43C35.4381 12.0814 29.5275 7.46651 22.5391 7.46651C14.4766 7.46651 7.84867 13.6091 7.08005 21.4698C7.07947 21.4766 7.07909 21.4834 7.07893 21.4902C7.03029 21.992 7.00582 22.4959 7.00562 23C7.00556 23.5623 7.03566 24.1242 7.0958 24.6833C7.63749 29.7096 11.9331 33.4924 16.9886 33.4924H29.8743Z" fill="#F5415F"/>
<path d="M37.0399 28.5747C35.2598 30.5287 32.187 29.8026 31.3462 27.4555L31.188 27.0111C30.2289 24.3161 30.9068 21.3098 32.9295 19.287L32.2772 18.6347L33.4482 17.4616C33.8378 17.0714 34.3604 17.0485 34.9117 17.0485L36.9072 17.0981L36.8098 16.8565C36.6382 16.4586 36.4501 16.068 36.2457 15.6858H34.9072C34.0428 15.6858 33.2305 16.0228 32.6197 16.6345L31.4494 17.8069L30.654 17.0115L28.4289 19.2366L27.3541 16.1973V12.6394H28.0394V10.0446H21.9854V12.6394H22.4691V16.1973L19.3283 25.0794L19.2629 25.2643C18.144 28.4301 13.8425 28.8618 12.1184 25.9805C11.681 25.2494 11.3007 24.4515 11.025 23.5934C10.2852 21.2906 6.84992 22.0139 7.07167 24.4225C7.37454 27.7122 8.7161 30.9073 11.0858 33.4924H33.9915C35.3527 32.0056 36.3665 30.3218 37.0399 28.5747Z" fill="#CD2846"/>
<path d="M12.3008 33.1019C15.1497 36.4264 17.8177 38.5334 22.5392 38.5334C27.2607 38.5334 31.4897 36.4264 34.3386 33.1019H12.3008Z" fill="#FFDC64"/>
<path d="M16.0049 33.1019H10.7397C13.5887 36.4264 17.8176 38.5334 22.5391 38.5334C23.4366 38.5334 24.316 38.4569 25.1717 38.3108C21.5252 37.6881 18.3123 35.7945 16.0049 33.1019Z" fill="#FFC305"/>
<path d="M28.3034 26.3278L25.1626 17.4457V12.138H21.4482L20.8368 26.3278L24.9227 27.0662L28.3034 26.3278Z" fill="white"/>
<path d="M20.8368 26.3277L18.2246 30.9827C17.3959 32.4596 18.3951 34.329 20.0873 34.3976C20.1215 34.399 20.1556 34.3997 20.1898 34.3997H28.8952C30.0085 34.3997 30.7861 33.2972 30.4125 32.2484L28.3034 26.3277H20.8368Z" fill="#05CDFF"/>
<path d="M18.569 26.9561L20.8368 26.3276L23.9776 17.4455V12.1378H20.2775V17.4455L17.1367 26.3276L18.569 26.9561Z" fill="#E8D6FF"/>
<path d="M18.7462 32.2513L20.8295 26.3684L20.8368 26.3277H17.1367L15.039 32.2513C14.6679 33.2995 15.4454 34.3997 16.5574 34.3997H20.2645C19.1525 34.3997 18.375 33.2995 18.7462 32.2513Z" fill="#05ACFF"/>
<path d="M24.1236 13.8877H19.7939V11.2929H24.1236V13.8877Z" fill="#E8D6FF"/>
<path d="M26.2532 25.0203L23.9777 22.7448L28.4625 18.2599L30.7381 20.5354L26.2532 25.0203Z" fill="white"/>
<path d="M32.7157 16.934C31.8514 16.934 31.039 17.271 30.4283 17.8828L27.1425 21.1744V22.002H27.9704L31.2567 18.7098C31.6464 18.3197 32.1645 18.1047 32.7157 18.1047H38.9942V16.934H32.7157Z" fill="#FFDC64"/>
<path d="M27.3485 20.968L23.1727 25.1513L24.0012 25.9783L28.1478 21.8243C27.6162 21.8607 27.2995 21.4455 27.3485 20.968Z" fill="#FFC305"/>
<path d="M21.9127 30.4264C21.9127 30.9504 21.4879 31.3752 20.9639 31.3752C20.4398 31.3752 20.015 30.9504 20.015 30.4264C20.015 29.9023 20.4398 29.4775 20.9639 29.4775C21.4879 29.4775 21.9127 29.9023 21.9127 30.4264Z" fill="#05ACFF"/>
<path d="M26.5106 31.5585C26.5106 32.0825 26.0858 32.5073 25.5617 32.5073C25.0377 32.5073 24.6129 32.0825 24.6129 31.5585C24.6129 31.0345 25.0377 30.6096 25.5617 30.6096C26.0858 30.6096 26.5106 31.0345 26.5106 31.5585Z" fill="#05ACFF"/>
<path d="M25.0409 28.6945C25.0409 28.8203 24.9909 28.941 24.902 29.03C24.813 29.119 24.6923 29.1689 24.5665 29.1689C24.4406 29.1689 24.32 29.119 24.231 29.03C24.142 28.941 24.092 28.8203 24.092 28.6945C24.092 28.5687 24.142 28.448 24.231 28.359C24.32 28.2701 24.4406 28.2201 24.5665 28.2201C24.6923 28.2201 24.813 28.2701 24.902 28.359C24.9909 28.448 25.0409 28.5687 25.0409 28.6945Z" fill="#05ACFF"/>
<path d="M25.8479 13.8877H24.0679C23.3514 13.8877 22.7705 13.3068 22.7705 12.5903V12.5903C22.7705 11.8738 23.3514 11.2929 24.0679 11.2929H25.8479V13.8877Z" fill="white"/>
</g>
</g>
<defs>
<clipPath id="clip0_40_11756">
<rect width="32" height="32" fill="white" transform="translate(7 7)"/>
</clipPath>
</defs>
</svg>
