<svg width="46" height="46" viewBox="0 0 46 46" fill="none" xmlns="http://www.w3.org/2000/svg">
<rect width="46" height="46" rx="23" fill="white"/>
<g clip-path="url(#clip0_40_11762)">
<path fill-rule="evenodd" clip-rule="evenodd" d="M32.0524 26.5364H27.9703C27.4766 26.5364 27.4768 25.7864 27.9703 25.7864H32.0524C32.5459 25.7864 32.5459 26.5364 32.0524 26.5364ZM32.0524 23.578H28.787C28.2934 23.578 28.2934 22.828 28.787 22.828H32.0524C32.5461 22.828 32.5459 23.578 32.0524 23.578ZM32.0524 20.6187H28.787C28.2934 20.6187 28.2935 19.8687 28.787 19.8687H32.0524C32.5461 19.8687 32.5461 20.6187 32.0524 20.6187Z" fill="black"/>
<path fill-rule="evenodd" clip-rule="evenodd" d="M25.0539 26.1504H20.9463C19.8245 26.1504 18.9118 25.2376 18.9118 24.1158C18.9118 17.3549 15.8831 18.8795 15.8831 14.1168C15.8831 10.1926 19.0758 7 23 7C26.9242 7 30.1168 10.1928 30.1168 14.1168C30.1168 18.8785 27.0877 17.356 27.0883 24.1158C27.0885 25.2376 26.1757 26.1504 25.0539 26.1504ZM23 7.75C19.4894 7.75 16.6331 10.6062 16.6331 14.1168C16.6331 18.4925 19.6618 17.1444 19.6618 24.1153C19.6618 24.8236 20.2379 25.3996 20.9463 25.3996H25.0539C25.7623 25.3996 26.3385 24.8236 26.3385 24.1153C26.3385 17.1451 29.3672 18.4925 29.367 14.1168C29.3666 10.606 26.5106 7.74982 23 7.74982V7.75Z" fill="black"/>
<path fill-rule="evenodd" clip-rule="evenodd" d="M26.7763 22.9021H19.224C18.7303 22.9021 18.7303 22.1521 19.224 22.1521H26.7763C27.27 22.1521 27.27 22.9021 26.7763 22.9021ZM23.1247 28.2872H22.8756C21.7537 28.2872 20.841 27.3744 20.841 26.2526C20.841 25.9297 20.7583 25.4006 21.216 25.4006H24.7839C25.2418 25.4006 25.1589 25.9301 25.1589 26.2526C25.1593 27.3744 24.2464 28.2872 23.1247 28.2872ZM21.591 26.1504C21.591 28.0153 24.4091 28.0159 24.4091 26.1504H21.591ZM26.7137 24.5263H19.2892C18.7955 24.5263 18.7955 23.7763 19.2892 23.7763H26.7137C27.2074 23.7763 27.2074 24.5263 26.7137 24.5263ZM23.7328 19.1152C21.6161 19.1152 21.6141 19.2899 21.6141 17.6967C21.5412 17.6691 21.4693 17.6392 21.3982 17.6071C20.273 18.7323 20.3814 18.5969 18.8966 17.1121C18.3394 16.5549 19.0687 16.016 19.4377 15.647C19.4057 15.5759 19.3757 15.5039 19.3481 15.4312C17.7551 15.4312 17.9299 15.4291 17.9299 13.3124C17.9299 12.5245 18.8267 12.6594 19.3481 12.6594C19.3757 12.5864 19.4057 12.5142 19.4377 12.4434C18.3114 11.317 18.4354 11.441 19.9331 9.94228C20.489 9.38597 21.0512 10.1367 21.3982 10.4838C21.4693 10.4517 21.5413 10.4217 21.6141 10.3942C21.6141 8.80115 21.6159 8.97572 23.7332 8.97553C24.5211 8.97553 24.3864 9.87234 24.3864 10.394C24.4588 10.4215 24.5308 10.4515 24.6021 10.4836C25.7276 9.35747 25.6187 9.49453 27.1035 10.9784C27.6606 11.5351 26.9312 12.074 26.562 12.4434C26.5939 12.5144 26.6237 12.5864 26.6516 12.6592C28.2454 12.6592 28.0705 12.6614 28.0705 14.7779C28.0705 15.5658 27.1733 15.431 26.6518 15.431C26.6241 15.5038 26.5943 15.5758 26.5622 15.6468C27.6866 16.7712 27.5678 16.6484 26.067 18.1483C25.5103 18.7046 24.9484 17.9536 24.6021 17.6071C24.531 17.639 24.4588 17.6692 24.3863 17.6967C24.3863 18.2186 24.5207 19.1154 23.7328 19.1154V19.1152ZM22.3641 18.3652H23.6362C23.6362 16.7662 23.5554 17.3319 24.4988 16.8221C24.8513 16.6316 25.1698 17.114 25.6054 17.5497L26.5048 16.6501C25.3779 15.5231 25.7141 15.9839 26.0239 14.9487C26.1384 14.5653 26.7058 14.6812 27.3205 14.681V13.4092C25.7207 13.4092 26.2873 13.4896 25.7773 12.547C25.5866 12.1945 26.0704 11.8749 26.5048 11.4402L25.6054 10.5408C24.4779 11.6682 24.9396 11.3311 23.9042 11.0217C23.5206 10.9072 23.6364 10.3402 23.6364 9.72516H22.3642C22.3642 11.326 22.4443 10.7581 21.5016 11.2683C21.1494 11.459 20.8309 10.9763 20.3949 10.5406L19.4955 11.44C20.6229 12.5675 20.2858 12.106 19.9764 13.1414C19.8617 13.525 19.2952 13.4092 18.68 13.4092V14.6814C20.2798 14.6814 19.7132 14.6009 20.2232 15.5439C20.4139 15.8964 19.9301 16.2159 19.4955 16.6505L20.3951 17.5499C21.5235 16.4216 21.0615 16.7598 22.0963 17.069C22.4799 17.1836 22.3641 17.7506 22.3641 18.3654V18.3652Z" fill="black"/>
<path fill-rule="evenodd" clip-rule="evenodd" d="M23 16.7068C21.5322 16.7068 20.3382 15.5128 20.3382 14.0451C20.3382 12.5773 21.5322 11.3833 23 11.3833C24.4678 11.3833 25.6619 12.5773 25.6619 14.0451C25.6619 15.513 24.4676 16.7068 23 16.7068ZM23 12.1335C21.9459 12.1335 21.0882 12.9911 21.0882 14.0452C21.0882 15.0994 21.9459 15.957 23 15.957C24.0541 15.957 24.9118 15.0994 24.9118 14.0452C24.9118 12.9911 24.0541 12.1335 23 12.1335ZM18.0299 26.5365H13.948C13.4545 26.5365 13.4545 25.7865 13.948 25.7865H18.0299C18.5234 25.7865 18.5236 26.5365 18.0299 26.5365ZM17.2134 23.5782H13.948C13.4545 23.5782 13.4543 22.8282 13.948 22.8282H17.2134C17.707 22.8282 17.7072 23.5782 17.2134 23.5782ZM17.2134 20.6188H13.948C13.4543 20.6188 13.4543 19.8688 13.948 19.8688H17.2134C17.7069 19.8688 17.7072 20.6188 17.2134 20.6188Z" fill="black"/>
<path fill-rule="evenodd" clip-rule="evenodd" d="M23.0001 39.0002C22.9121 39.0002 22.8244 38.9692 22.7535 38.9077C18.9804 35.6158 8.3255 37.5026 8.21806 37.5223C7.98837 37.5639 7.77612 37.3864 7.77612 37.1531V18.6914C7.77612 18.4844 7.94412 18.3164 8.15112 18.3164H10.6867C11.1804 18.3164 11.1804 19.0664 10.6867 19.0664H8.52613V36.7099C10.604 36.3793 19.2274 35.2286 22.9999 38.1401C26.7728 35.229 35.3967 36.38 37.4736 36.7097V19.0664H35.313C34.8194 19.0664 34.8195 18.3164 35.313 18.3164H37.8486C38.0556 18.3164 38.2236 18.4844 38.2236 18.6914V37.1533C38.2236 37.3875 38.0102 37.5643 37.7813 37.5225C37.6741 37.503 27.0171 35.6184 23.2459 38.9079C23.1778 38.9675 23.0903 39.0003 22.9999 39.0002H23.0001Z" fill="black"/>
<path fill-rule="evenodd" clip-rule="evenodd" d="M23.0001 36.2078C22.9271 36.2078 22.8542 36.1864 22.791 36.144C18.6392 33.3544 10.7902 33.8471 10.7122 33.8518C10.4956 33.8636 10.3119 33.696 10.3119 33.4776V15.1085C10.3119 14.9051 10.4739 14.7389 10.677 14.7339C12.6339 14.6829 14.571 14.81 16.4312 15.1124C16.9181 15.1918 16.7985 15.9316 16.3106 15.8529C14.6122 15.5763 12.8475 15.4511 11.0617 15.4762V33.0833C12.7336 33.0156 19.1177 32.9329 22.9999 35.3854C26.8821 32.9333 33.2648 33.0141 34.938 33.0833V15.4754C33.1534 15.4513 31.3881 15.5758 29.6893 15.8519C29.2028 15.9307 29.0813 15.191 29.5688 15.1115C31.4293 14.8089 33.3632 14.6814 35.3232 14.7328C35.5262 14.7384 35.6882 14.9045 35.6882 15.1074V33.4766C35.6882 33.6945 35.5041 33.8627 35.2879 33.8509C35.2096 33.846 27.358 33.3555 23.2089 36.1431C23.1474 36.185 23.0747 36.2074 23.0003 36.2074L23.0001 36.2078Z" fill="black"/>
<path fill-rule="evenodd" clip-rule="evenodd" d="M23.0001 34.186C22.7931 34.186 22.6251 34.0178 22.6251 33.811V29.473C22.6251 28.9793 23.3751 28.9795 23.3751 29.473V33.811C23.3751 34.018 23.2071 34.186 23.0001 34.186ZM23.0001 39.0001C22.7931 39.0001 22.6251 38.8319 22.6251 38.6251V35.8326C22.6251 35.3389 23.3751 35.3391 23.3751 35.8326V38.6251C23.3751 38.8321 23.2071 39.0001 23.0001 39.0001ZM32.0525 29.0425H26.2486C25.7549 29.0425 25.755 28.2925 26.2486 28.2925H32.0525C32.546 28.2925 32.546 29.0425 32.0525 29.0425ZM32.0525 31.4549H26.2486C25.7549 31.4549 25.755 30.7049 26.2486 30.7049H32.0525C32.546 30.7049 32.546 31.4549 32.0525 31.4549ZM19.752 29.0425H13.9481C13.4546 29.0425 13.4546 28.2925 13.9481 28.2925H19.752C20.2457 28.2925 20.2457 29.0425 19.752 29.0425ZM19.752 31.4549H13.9481C13.4546 31.4549 13.4546 30.7049 13.9481 30.7049H19.752C20.2457 30.7049 20.2457 31.4549 19.752 31.4549Z" fill="black"/>
<path fill-rule="evenodd" clip-rule="evenodd" d="M35.2879 33.8516C35.2107 33.8467 27.564 33.3692 23.3751 36.035V37.874C27.3158 35.3013 35.463 36.3905 37.4738 36.7097V19.0664H35.688V33.4771C35.688 33.695 35.5039 33.8632 35.2877 33.8514L35.2879 33.8516ZM22.6251 36.0358C18.4337 33.3677 10.7893 33.8475 10.712 33.852C10.4954 33.8638 10.3117 33.6962 10.3117 33.4777V19.0664H8.52612V36.7099C10.5378 36.39 18.6845 35.301 22.6249 37.874V36.0356L22.6251 36.0358Z" fill="#A04B86"/>
<path fill-rule="evenodd" clip-rule="evenodd" d="M11.0615 33.0834C12.7335 33.0157 19.1175 32.933 22.9997 35.3855C26.8819 32.9334 33.2646 33.0142 34.9379 33.0834V15.4756C33.2444 15.4527 31.5683 15.5635 29.95 15.811C29.3155 18.6129 27.0878 18.3187 27.0883 24.1156C27.0885 25.2016 26.2331 26.0917 25.1608 26.1474C25.1597 26.1839 25.159 26.2192 25.159 26.2522C25.1593 27.374 24.2464 28.2868 23.1248 28.2868H22.8756C21.7538 28.2868 20.841 27.374 20.841 26.2522C20.841 26.2192 20.8401 26.1839 20.8391 26.1474C19.767 26.0913 18.912 25.2014 18.912 24.1156C18.912 18.3181 16.6849 18.613 16.0502 15.8118C14.432 15.5639 12.7563 15.4523 11.0617 15.4763V33.0834H11.0615ZM22.6251 29.4729C22.6251 28.9792 23.3751 28.9794 23.3751 29.4729V33.8109C23.3751 34.3046 22.6251 34.3044 22.6251 33.8109V29.4729ZM32.0524 23.5779H28.7871C28.2934 23.5779 28.2934 22.8279 28.7871 22.8279H32.0524C32.5461 22.8279 32.5459 23.5779 32.0524 23.5779ZM32.0524 20.6187H28.7871C28.2934 20.6187 28.2936 19.8687 28.7871 19.8687H32.0524C32.5461 19.8687 32.5461 20.6187 32.0524 20.6187ZM19.752 31.4546H13.9481C13.4546 31.4546 13.4546 30.7046 13.9481 30.7046H19.752C20.2457 30.7046 20.2457 31.4546 19.752 31.4546ZM19.752 29.0422H13.9481C13.4546 29.0422 13.4546 28.2922 13.9481 28.2922H19.752C20.2457 28.2922 20.2457 29.0422 19.752 29.0422ZM18.0302 26.5364H13.9483C13.4548 26.5364 13.4548 25.7864 13.9483 25.7864H18.0302C18.5237 25.7864 18.5239 26.5364 18.0302 26.5364ZM17.2134 23.5779H13.9481C13.4546 23.5779 13.4544 22.8279 13.9481 22.8279H17.2134C17.7071 22.8279 17.7073 23.5779 17.2134 23.5779ZM13.9481 20.6187C13.4544 20.6187 13.4544 19.8687 13.9481 19.8687H17.2134C17.7069 19.8687 17.7073 20.6187 17.2134 20.6187H13.9481ZM32.0524 31.4546H26.2485C25.7548 31.4546 25.755 30.7046 26.2485 30.7046H32.0524C32.5459 30.7046 32.5459 31.4546 32.0524 31.4546ZM32.0524 29.0422H26.2485C25.7548 29.0422 25.755 28.2922 26.2485 28.2922H32.0524C32.5459 28.2922 32.5459 29.0422 32.0524 29.0422ZM32.0524 26.5364H27.9703C27.4767 26.5364 27.4768 25.7864 27.9703 25.7864H32.0524C32.5459 25.7864 32.5459 26.5364 32.0524 26.5364Z" fill="#FFD08C"/>
<path fill-rule="evenodd" clip-rule="evenodd" d="M21.5909 26.1504C21.5909 28.0153 24.4091 28.0159 24.4091 26.1504H21.5909ZM19.6593 23.7763H26.3409C26.3454 23.4682 26.3561 23.1774 26.3726 22.9023H19.6278C19.6441 23.1774 19.6548 23.4684 19.6595 23.7763H19.6593Z" fill="#C2C2C2"/>
<path fill-rule="evenodd" clip-rule="evenodd" d="M26.2713 24.5264H19.7292C19.9775 25.2602 20.5648 25.3997 21.2159 25.4005L25.0541 25.3999C25.6188 25.3999 26.0996 25.0337 26.2713 24.5264Z" fill="#A0A0A0"/>
<path fill-rule="evenodd" clip-rule="evenodd" d="M21.0883 14.0451C21.0883 15.0992 21.9459 15.9568 23 15.9568C24.0541 15.9568 24.9118 15.0992 24.9118 14.0451C24.9118 12.9909 24.0541 12.1333 23 12.1333C21.9459 12.1333 21.0883 12.9909 21.0883 14.0451Z" fill="#D6E3FF"/>
<path fill-rule="evenodd" clip-rule="evenodd" d="M23.0001 16.7067C21.5323 16.7067 20.3383 15.5127 20.3383 14.0449C20.3383 12.5772 21.5323 11.3832 23.0001 11.3832C24.4678 11.3832 25.662 12.5772 25.662 14.0449C25.662 15.5129 24.4676 16.7067 23.0001 16.7067ZM22.3641 18.3651H23.6363C23.6363 16.7661 23.5554 17.3318 24.4988 16.822C24.8513 16.6315 25.1698 17.1139 25.6054 17.5497L26.5048 16.6501C25.378 15.523 25.7141 15.9839 26.0239 14.9487C26.1385 14.5652 26.7058 14.6811 27.3205 14.6809V13.4091C25.7207 13.4091 26.2873 13.4895 25.7773 12.547C25.5866 12.1945 26.0704 11.8748 26.5048 11.4402L25.6054 10.5407C24.478 11.6682 24.9396 11.331 23.9042 11.0217C23.5206 10.9071 23.6364 10.3401 23.6364 9.7251H22.3643C22.3643 11.326 22.4443 10.758 21.5016 11.2682C21.1494 11.4589 20.8309 10.9763 20.3949 10.5405L19.4955 11.44C20.6229 12.5674 20.2858 12.106 19.9764 13.1414C19.8617 13.525 19.2952 13.4091 18.6801 13.4091V14.6813C20.2798 14.6813 19.7132 14.6009 20.2232 15.5438C20.4139 15.8963 19.9301 16.2158 19.4955 16.6504L20.3951 17.5499C21.5235 16.4215 21.0615 16.7598 22.0963 17.0689C22.4799 17.1835 22.3641 17.7505 22.3641 18.3653V18.3651Z" fill="#4A5254"/>
<path fill-rule="evenodd" clip-rule="evenodd" d="M23.7328 19.1152C21.6161 19.1152 21.614 19.2899 21.614 17.6967C21.5412 17.669 21.4692 17.6392 21.3982 17.6071C20.273 18.7323 20.3814 18.5969 18.8966 17.1121C18.3393 16.5548 19.0687 16.016 19.4377 15.647C19.4056 15.5759 19.3756 15.5039 19.3481 15.4312C17.7551 15.4312 17.9298 15.4291 17.9298 13.3124C17.9298 12.5245 18.8266 12.6593 19.3481 12.6593C19.3756 12.5864 19.4056 12.5142 19.4377 12.4433C18.3114 11.317 18.4353 11.441 19.9331 9.94226C20.489 9.38594 21.0511 10.1367 21.3982 10.4838C21.4693 10.4517 21.5413 10.4217 21.614 10.3941C21.614 8.80113 21.6159 8.97569 23.7331 8.9755C24.521 8.9755 24.3864 9.87232 24.3864 10.3939C24.4588 10.4215 24.5308 10.4515 24.602 10.4836C25.7276 9.35744 25.6187 9.49451 27.1035 10.9784C27.6605 11.5351 26.9312 12.074 26.562 12.4433C26.5938 12.5144 26.6237 12.5864 26.6516 12.6591C28.2454 12.6591 28.0704 12.6614 28.0704 14.7779C28.0704 15.5658 27.1732 15.431 26.6518 15.431C26.6241 15.5038 26.5942 15.5758 26.5622 15.6468C27.6866 16.7712 27.5677 16.6484 26.067 18.1482C25.5103 18.7045 24.9483 17.9536 24.602 17.6071C24.531 17.639 24.4588 17.6692 24.3862 17.6967C24.3862 18.2185 24.5206 19.1154 23.7328 19.1154V19.1152ZM19.5658 22.1521H26.4345C26.9501 17.3675 29.3672 18.026 29.367 14.117C29.3666 10.6062 26.5106 7.75 23 7.75C19.4894 7.75 16.6331 10.6062 16.6331 14.1168C16.6331 18.026 19.0503 17.3667 19.5658 22.1521Z" fill="#FFCC00"/>
</g>
<defs>
<clipPath id="clip0_40_11762">
<rect width="32" height="32" fill="white" transform="translate(7 7)"/>
</clipPath>
</defs>
</svg>
