<svg width="65" height="65" viewBox="0 0 65 65" fill="none" xmlns="http://www.w3.org/2000/svg">
<circle cx="32.5" cy="32.5" r="32.5" fill="white"/>
<g clip-path="url(#clip0_33_7806)">
<path d="M31.5185 52.9815C42.8301 52.9815 52 43.8116 52 32.5C52 21.1884 42.8301 12.0186 31.5185 12.0186C20.2069 12.0186 11.037 21.1884 11.037 32.5C11.037 43.8116 20.2069 52.9815 31.5185 52.9815Z" fill="#FCBD5E"/>
<path d="M27.1662 47.0928H28.4463V48.3729H27.1662V47.0928ZM31.0065 47.0928H32.2866V48.3729H31.0065V47.0928ZM34.8467 47.0928H36.1268V48.3729H34.8467V47.0928Z" fill="#183651"/>
<path d="M22.0341 20.5654L20.9327 21.2179L20.2803 20.1165L21.3816 19.4641L22.0341 20.5654Z" fill="#183651"/>
<path d="M25.3463 18.5732L24.2451 19.2259L23.5924 18.1248L24.6936 17.4721L25.3463 18.5732Z" fill="#183651"/>
<path d="M28.6357 16.6689L27.5343 17.3213L26.882 16.2199L27.9834 15.5675L28.6357 16.6689Z" fill="#183651"/>
<path d="M51.0399 39.7961L41.9513 26.8672V15.6024H42.0793C42.9113 15.6024 43.5514 14.9624 43.5514 14.1303C43.5514 13.2983 42.9113 12.6582 42.0793 12.6582H35.1028C34.2707 12.6582 33.6307 13.2983 33.6307 14.1303C33.6307 14.9624 34.2707 15.6024 35.1028 15.6024H35.2308V26.8672L26.2062 39.7961C25.3741 40.9482 26.2062 42.6123 27.6783 42.6123H49.6318C51.0399 42.6123 51.8719 41.0122 51.0399 39.7961Z" fill="white"/>
<path d="M49.5678 43.2528H27.6143C26.7182 43.2528 25.8861 42.7407 25.5021 41.9727C25.054 41.1406 25.1181 40.2445 25.6941 39.4765L34.6547 26.6756V16.1788C33.7586 15.9228 33.0546 15.0908 33.0546 14.1307C33.0546 12.9787 34.0147 12.0186 35.1668 12.0186H42.0793C43.2314 12.0186 44.1915 12.9786 44.1915 14.1307C44.1915 15.0908 43.4874 15.9228 42.5914 16.1788V26.6756L51.552 39.4765C52.0641 40.2445 52.128 41.2046 51.744 41.9727C51.2959 42.7408 50.4638 43.2528 49.5678 43.2528ZM35.1028 13.2987C34.6547 13.2987 34.2707 13.6827 34.2707 14.1307C34.2707 14.5788 34.6547 14.9628 35.1028 14.9628H35.2308C35.6148 14.9628 35.8708 15.2188 35.8708 15.6028V26.8676C35.8708 26.9956 35.8068 27.1237 35.7428 27.2516L26.7182 40.1806C26.4621 40.5646 26.4621 40.9486 26.6541 41.3326C26.8461 41.7166 27.2302 41.9727 27.6782 41.9727H49.6317C50.0797 41.9727 50.4638 41.7166 50.6558 41.3326C50.8478 40.9486 50.8478 40.5005 50.5917 40.1806L41.4391 27.2516C41.3751 27.1237 41.3111 26.9956 41.3111 26.8676V15.6028C41.3111 15.2188 41.5672 14.9628 41.9512 14.9628H42.0791C42.5272 14.9628 42.9112 14.5788 42.9112 14.1307C42.9112 13.6827 42.5272 13.2987 42.0791 13.2987H35.1028Z" fill="#183651"/>
<path d="M35.1028 31.3477L28.9584 40.1163H48.2237L42.0792 31.3477H35.1028Z" fill="#F05F50"/>
<path d="M39.3271 24.4357C39.822 24.4357 40.2232 24.0345 40.2232 23.5396C40.2232 23.0447 39.822 22.6436 39.3271 22.6436C38.8322 22.6436 38.431 23.0447 38.431 23.5396C38.431 24.0345 38.8322 24.4357 39.3271 24.4357Z" fill="#F05F50"/>
<path d="M37.855 30.1322C38.4912 30.1322 39.007 29.6164 39.007 28.9802C39.007 28.3439 38.4912 27.8281 37.855 27.8281C37.2187 27.8281 36.7029 28.3439 36.7029 28.9802C36.7029 29.6164 37.2187 30.1322 37.855 30.1322Z" fill="#F05F50"/>
<path d="M37.855 19.2512C38.3499 19.2512 38.7511 18.85 38.7511 18.3551C38.7511 17.8602 38.3499 17.459 37.855 17.459C37.3601 17.459 36.9589 17.8602 36.9589 18.3551C36.9589 18.85 37.3601 19.2512 37.855 19.2512Z" fill="#F05F50"/>
<path d="M19.5497 37.6201L12.0612 48.7569C11.3571 49.845 11.6131 51.2531 12.7012 51.9572C13.7893 52.6613 15.1974 52.4052 15.9015 51.3171L23.39 40.2444L19.5497 37.6201Z" fill="#E1E6E8"/>
<path d="M13.9813 52.9811C13.4053 52.9811 12.8293 52.7891 12.3172 52.4691C10.9731 51.573 10.5891 49.7169 11.4852 48.3728L19.0377 37.3C19.2297 36.98 19.6137 36.916 19.9338 37.108L23.7741 39.6682C23.9021 39.7322 24.0301 39.9242 24.0301 40.0522C24.0942 40.2442 24.0301 40.3722 23.9022 40.5643L16.4136 51.701C15.9014 52.4691 15.0054 52.9811 13.9813 52.9811ZM19.7417 38.5162L12.5732 49.0769C12.0611 49.8449 12.2532 50.869 13.0212 51.381C13.7892 51.8931 14.8133 51.701 15.3254 50.933L22.4299 40.3723L19.7417 38.5162Z" fill="#183651"/>
<path d="M23.8258 45.0694C29.128 45.0694 33.4264 40.771 33.4264 35.4688C33.4264 30.1665 29.128 25.8682 23.8258 25.8682C18.5235 25.8682 14.2252 30.1665 14.2252 35.4688C14.2252 40.771 18.5235 45.0694 23.8258 45.0694Z" fill="white"/>
<path d="M18.1416 44.0205C13.4693 40.8842 12.1892 34.4837 15.3894 29.7474C18.5256 25.075 24.9261 23.795 29.6624 26.9312C34.3347 30.0675 35.6148 36.4679 32.4146 41.2042C29.2143 45.8766 22.8139 47.1566 18.1416 44.0205ZM16.4135 30.4515C13.6613 34.5478 14.7494 40.1802 18.8456 42.9324C23.0059 45.6846 28.5743 44.5965 31.3265 40.5002C34.0787 36.404 32.9906 30.7716 28.8944 28.0193C24.7341 25.2031 19.1657 26.3551 16.4135 30.4515Z" fill="#183651"/>
<path d="M19.6137 41.8443C23.1339 44.2125 27.8702 43.2523 30.2384 39.7321C32.6066 36.2119 31.6465 31.4755 28.1903 29.1073C24.67 26.7391 19.9337 27.6993 17.5655 31.2195C15.1334 34.6757 16.0934 39.4761 19.6137 41.8443Z" fill="#2AA0DA"/>
<path d="M20.1257 32.3716C20.4457 32.6277 20.8937 32.4996 21.1498 32.1796C22.1098 30.7715 24.03 30.3875 25.438 31.3476C25.758 31.6036 26.2061 31.4755 26.4621 31.1556C26.7181 30.8356 26.5901 30.3875 26.2701 30.1315C24.1579 28.7234 21.3418 29.2994 19.9336 31.3476C19.6777 31.6676 19.8057 32.1156 20.1257 32.3716Z" fill="white"/>
</g>
<defs>
<clipPath id="clip0_33_7806">
<rect width="41" height="41" fill="white" transform="translate(11 12)"/>
</clipPath>
</defs>
</svg>
