<svg width="65" height="65" viewBox="0 0 65 65" fill="none" xmlns="http://www.w3.org/2000/svg">
<circle cx="32.5" cy="32.5" r="32.5" fill="white"/>
<g clip-path="url(#clip0_119_7)">
<path fill-rule="evenodd" clip-rule="evenodd" d="M32 12.002C43.5978 12.002 53 21.4016 53 32.9989C53 44.5962 43.5979 54.0018 32 54.0018C20.4021 54.0018 11 44.5962 11 32.9989C11 21.4017 20.4022 12.002 32 12.002Z" fill="url(#paint0_linear_119_7)"/>
<path fill-rule="evenodd" clip-rule="evenodd" d="M37.9306 21.704L38.4639 23.4208C38.4865 23.4936 38.5321 23.5573 38.594 23.6026C38.6559 23.6478 38.7308 23.6722 38.8078 23.6722C38.8848 23.6722 38.9597 23.6478 39.0216 23.6026C39.0835 23.5573 39.1291 23.4936 39.1517 23.4208L39.685 21.704L41.4199 21.1768C41.4934 21.1543 41.5577 21.1091 41.6034 21.0478C41.649 20.9865 41.6736 20.9124 41.6736 20.8363C41.6736 20.7602 41.649 20.686 41.6034 20.6248C41.5577 20.5635 41.4934 20.5183 41.4199 20.4958L39.685 19.968L39.1517 18.2517C39.1291 18.1788 39.0835 18.115 39.0216 18.0697C38.9597 18.0244 38.8848 18 38.8078 18C38.7308 18 38.6559 18.0244 38.594 18.0697C38.5321 18.115 38.4865 18.1788 38.4639 18.2517L37.9306 19.968L36.1962 20.4958C36.1225 20.518 36.0579 20.5631 36.012 20.6244C35.9662 20.6857 35.9414 20.76 35.9414 20.8363C35.9414 20.9126 35.9662 20.9868 36.012 21.0481C36.0579 21.1094 36.1225 21.1545 36.1962 21.1768L37.9306 21.704ZM46.7456 25.2259C46.8192 25.2482 46.8837 25.2933 46.9295 25.3546C46.9753 25.4158 47 25.49 47 25.5662C47 25.6424 46.9753 25.7166 46.9295 25.7779C46.8837 25.8392 46.8192 25.8843 46.7456 25.9066L44.4557 26.6026L43.7522 28.8681C43.7296 28.9409 43.6839 29.0047 43.622 29.0499C43.56 29.0952 43.485 29.1197 43.408 29.1197C43.331 29.1197 43.256 29.0952 43.194 29.0499C43.1321 29.0047 43.0865 28.9409 43.0638 28.8681L42.3617 26.6026L40.0721 25.9066C39.9985 25.8843 39.934 25.8392 39.8882 25.7779C39.8424 25.7166 39.8177 25.6424 39.8177 25.5662C39.8177 25.49 39.8424 25.4158 39.8882 25.3546C39.934 25.2933 39.9985 25.2482 40.0721 25.2259L42.3617 24.5295L43.0644 22.2642C43.087 22.1913 43.1326 22.1275 43.1946 22.0822C43.2565 22.0368 43.3315 22.0124 43.4086 22.0124C43.4856 22.0124 43.5606 22.0368 43.6226 22.0822C43.6846 22.1275 43.7302 22.1913 43.7528 22.2642L44.456 24.5295L46.7459 25.2259H46.7456ZM22.2173 33.663C22.2173 33.7575 22.1793 33.8482 22.1118 33.915C22.0443 33.9819 21.9526 34.0194 21.8571 34.0194C21.7616 34.0194 21.67 33.9819 21.6024 33.915C21.5349 33.8482 21.4969 33.7575 21.4969 33.663C21.4922 32.4118 21.7463 31.1729 22.2436 30.0225C22.7409 28.8721 23.4709 27.8346 24.3886 26.9738C24.4227 26.9409 24.463 26.915 24.5073 26.8976C24.5515 26.8802 24.5988 26.8717 24.6464 26.8725C24.694 26.8733 24.741 26.8835 24.7846 26.9024C24.8282 26.9213 24.8676 26.9486 24.9005 26.9827C24.9333 27.0168 24.9591 27.057 24.9761 27.101C24.9932 27.145 25.0013 27.1919 24.9999 27.239C24.9985 27.2861 24.9877 27.3324 24.968 27.3753C24.9484 27.4183 24.9204 27.4569 24.8856 27.4891C24.0386 28.2836 23.365 29.2412 22.9061 30.303C22.4472 31.3647 22.2128 32.5082 22.2173 33.663ZM34.4017 41.4508C34.3274 41.4508 34.2548 41.429 34.193 41.3882C34.1312 41.3473 34.0831 41.2893 34.0547 41.2214C34.0262 41.1534 34.0188 41.0787 34.0333 41.0066C34.0478 40.9345 34.0836 40.8683 34.1361 40.8163C34.1886 40.7643 34.2555 40.7289 34.3284 40.7146C34.4013 40.7002 34.4768 40.7076 34.5454 40.7357C34.6141 40.7639 34.6727 40.8115 34.714 40.8726C34.7553 40.9338 34.7773 41.0056 34.7773 41.0791C34.7771 41.1776 34.7375 41.2721 34.6671 41.3417C34.5967 41.4114 34.5012 41.4506 34.4017 41.4508ZM34.4017 39.9947C34.1851 39.9947 33.9734 40.0582 33.7933 40.1773C33.6132 40.2964 33.4728 40.4656 33.3899 40.6636C33.307 40.8616 33.2852 41.0794 33.3275 41.2897C33.3697 41.4999 33.4739 41.693 33.627 41.8446C33.7801 41.9962 33.9752 42.0994 34.1876 42.1413C34.4 42.1832 34.6202 42.1618 34.8204 42.0799C35.0205 41.998 35.1916 41.8592 35.312 41.6811C35.4324 41.5029 35.4968 41.2934 35.4969 41.0791C35.4967 40.7917 35.3813 40.5161 35.176 40.3128C34.9706 40.1095 34.6922 39.9951 34.4017 39.9947ZM38.1064 29.7538C38.1065 29.8273 38.0845 29.8992 38.0432 29.9603C38.002 30.0215 37.9433 30.0691 37.8747 30.0973C37.8061 30.1254 37.7306 30.1328 37.6577 30.1185C37.5848 30.1041 37.5179 30.0688 37.4654 30.0168C37.4128 29.9648 37.3771 29.8986 37.3626 29.8265C37.3481 29.7544 37.3556 29.6796 37.384 29.6117C37.4125 29.5438 37.4606 29.4858 37.5224 29.445C37.5842 29.4042 37.6568 29.3824 37.7311 29.3824C37.8306 29.3825 37.9261 29.4216 37.9964 29.4913C38.0668 29.5609 38.1064 29.6553 38.1064 29.7538ZM36.6352 29.7538C36.6351 29.9683 36.6993 30.178 36.8196 30.3564C36.9399 30.5348 37.111 30.6739 37.3112 30.756C37.5115 30.8382 37.7318 30.8597 37.9444 30.818C38.157 30.7762 38.3523 30.673 38.5056 30.5214C38.6589 30.3698 38.7634 30.1766 38.8057 29.9662C38.848 29.7559 38.8264 29.5378 38.7435 29.3396C38.6606 29.1415 38.5201 28.9721 38.3399 28.8529C38.1597 28.7337 37.9478 28.6701 37.7311 28.6701C37.4407 28.6704 37.1623 28.7847 36.9568 28.9879C36.7514 29.191 36.6358 29.4665 36.6352 29.7538ZM33.4061 35.9959C33.2354 35.9959 33.0685 35.9458 32.9266 35.8519C32.7847 35.758 32.6741 35.6246 32.6089 35.4686C32.5436 35.3125 32.5265 35.1408 32.5598 34.9752C32.5932 34.8095 32.6754 34.6574 32.7961 34.5379C32.9168 34.4185 33.0706 34.3372 33.238 34.3043C33.4054 34.2714 33.579 34.2883 33.7366 34.353C33.8943 34.4176 34.0291 34.5271 34.1239 34.6675C34.2187 34.808 34.2693 34.9731 34.2693 35.142C34.269 35.3684 34.178 35.5855 34.0161 35.7456C33.8543 35.9057 33.6349 35.9957 33.4061 35.9959ZM33.4061 33.5755C33.0929 33.5755 32.7868 33.6673 32.5265 33.8395C32.2661 34.0116 32.0632 34.2563 31.9434 34.5426C31.8235 34.8289 31.7922 35.1439 31.8533 35.4478C31.9144 35.7517 32.0652 36.0308 32.2866 36.2499C32.508 36.469 32.7901 36.6182 33.0973 36.6787C33.4044 36.7391 33.7227 36.7081 34.012 36.5895C34.3013 36.4709 34.5486 36.2701 34.7225 36.0124C34.8965 35.7548 34.9893 35.4519 34.9893 35.142C34.9889 34.7266 34.8219 34.3284 34.5251 34.0347C34.2283 33.741 33.8258 33.5759 33.4061 33.5755ZM26.2332 34.6648C26.5073 34.6647 26.7753 34.5842 27.0032 34.4335C27.2311 34.2827 27.4087 34.0685 27.5136 33.8178C27.6184 33.5672 27.6458 33.2914 27.5923 33.0253C27.5387 32.7593 27.4067 32.5149 27.2128 32.3232C27.0189 32.1314 26.7719 32.0008 26.503 31.9479C26.2341 31.8951 25.9554 31.9223 25.7022 32.0261C25.4489 32.13 25.2325 32.3059 25.0802 32.5314C24.928 32.757 24.8467 33.0222 24.8468 33.2935C24.8472 33.6572 24.9934 34.0058 25.2533 34.2629C25.5132 34.5201 25.8656 34.6646 26.2332 34.6648ZM26.2332 31.2092C25.8167 31.2092 25.4095 31.3315 25.0632 31.5605C24.7169 31.7895 24.447 32.115 24.2876 32.4958C24.1283 32.8766 24.0866 33.2956 24.1679 33.6998C24.2491 34.1041 24.4497 34.4754 24.7442 34.7668C25.0388 35.0583 25.414 35.2568 25.8225 35.3372C26.231 35.4176 26.6545 35.3763 27.0393 35.2186C27.4241 35.0609 27.753 34.7939 27.9845 34.4512C28.2159 34.1085 28.3395 33.7056 28.3395 33.2935C28.3389 32.7409 28.1168 32.2111 27.7219 31.8204C27.327 31.4296 26.7916 31.2098 26.2332 31.2092ZM41.291 33.663C41.2912 32.1037 40.9344 30.5645 40.2473 29.1612C39.5603 27.7578 38.5609 26.5267 37.3242 25.5602C35.625 26.5987 34.8306 27.7636 34.8306 29.2115C34.8306 30.0893 34.5482 30.6604 33.9904 30.909C33.7857 30.9966 33.5646 31.0399 33.3417 31.036C32.6167 31.036 31.6525 30.6566 30.4219 29.8897C29.4276 29.2567 28.4814 28.5526 27.5909 27.783C26.6636 26.9632 25.9006 25.978 25.3418 24.8787C23.377 26.0832 21.8713 27.8986 21.0607 30.0405C20.2501 32.1824 20.1804 34.5299 20.8624 36.7152C23.2861 37.5519 26.729 38.1219 30.844 38.1219C34.959 38.1219 38.4019 37.5519 40.8258 36.7152C41.1348 35.7266 41.2916 34.6976 41.291 33.6628V33.663ZM44.6884 33.663C44.6884 34.6156 43.5972 35.5988 41.6635 36.3982C42.1261 34.6035 42.1264 32.7226 41.6644 30.9277C43.5955 31.7214 44.6884 32.7011 44.6884 33.663ZM32.8553 43.807C34.5546 43.4736 36.1439 42.7287 37.4811 41.639C38.8183 40.5492 39.8618 39.1485 40.5182 37.5622C37.862 38.3841 34.4525 38.8344 30.844 38.8344C27.2355 38.8344 23.8256 38.3837 21.1703 37.5622C21.4344 38.2028 21.7633 38.8153 22.152 39.3904C25.4081 39.4487 29.8208 39.5502 31.5844 42.5663C31.8395 43.003 32.2776 43.4298 32.8553 43.8072V43.807ZM22.6877 40.1136C25.7006 40.1773 29.4915 40.4082 30.9617 42.9227C31.1988 43.3127 31.5003 43.6604 31.8539 43.9514C31.5217 43.9833 31.1842 44 30.8444 44C29.2772 44 27.7301 43.6506 26.3181 42.9778C24.906 42.3049 23.6653 41.326 22.6881 40.1136H22.6877ZM17 33.663C17 32.7011 18.092 31.7217 20.0234 30.9277C19.5615 32.7226 19.5617 34.6034 20.024 36.3982C18.0907 35.5988 17 34.6156 17 33.663ZM36.7026 25.1079C34.9598 26.2431 34.1104 27.5893 34.1104 29.2109C34.1104 29.7833 33.971 30.1356 33.6949 30.2587C32.6378 30.7299 29.682 28.6625 28.0676 27.2488C27.1994 26.4802 26.4866 25.5554 25.967 24.5236C27.6412 23.6467 29.5253 23.2377 31.4168 23.3407C33.3083 23.4436 35.1357 24.0546 36.7026 25.1079Z" fill="white"/>
</g>
<defs>
<linearGradient id="paint0_linear_119_7" x1="11.0001" y1="33.0019" x2="53" y2="33.0019" gradientUnits="userSpaceOnUse">
<stop stop-color="#00C2F3"/>
<stop offset="1" stop-color="#4764AF"/>
</linearGradient>
<clipPath id="clip0_119_7">
<rect width="42" height="42" fill="white" transform="translate(11 12)"/>
</clipPath>
</defs>
</svg>
