<svg width="65" height="65" viewBox="0 0 65 65" fill="none" xmlns="http://www.w3.org/2000/svg">
<circle cx="32.5" cy="32.5" r="32.5" fill="white"/>
<g clip-path="url(#clip0_40_9591)">
<path d="M25.8125 15.5625H19.0625C16.5772 15.5625 14.5625 17.5772 14.5625 20.0625V26.8125C14.5625 29.2978 16.5772 31.3125 19.0625 31.3125H25.8125C28.2978 31.3125 30.3125 29.2978 30.3125 26.8125V20.0625C30.3125 17.5772 28.2978 15.5625 25.8125 15.5625Z" fill="url(#paint0_linear_40_9591)"/>
<path d="M44.9375 15.5625H38.1875C35.7022 15.5625 33.6875 17.5772 33.6875 20.0625V26.8125C33.6875 29.2978 35.7022 31.3125 38.1875 31.3125H44.9375C47.4228 31.3125 49.4375 29.2978 49.4375 26.8125V20.0625C49.4375 17.5772 47.4228 15.5625 44.9375 15.5625Z" fill="url(#paint1_linear_40_9591)"/>
<path d="M25.8125 34.6875H19.0625C16.5772 34.6875 14.5625 36.7022 14.5625 39.1875V45.9375C14.5625 48.4228 16.5772 50.4375 19.0625 50.4375H25.8125C28.2978 50.4375 30.3125 48.4228 30.3125 45.9375V39.1875C30.3125 36.7022 28.2978 34.6875 25.8125 34.6875Z" fill="url(#paint2_linear_40_9591)"/>
<path d="M44.9375 34.6875H38.1875C35.7022 34.6875 33.6875 36.7022 33.6875 39.1875V45.9375C33.6875 48.4228 35.7022 50.4375 38.1875 50.4375H44.9375C47.4228 50.4375 49.4375 48.4228 49.4375 45.9375V39.1875C49.4375 36.7022 47.4228 34.6875 44.9375 34.6875Z" fill="url(#paint3_linear_40_9591)"/>
<path d="M27.5 22.3125H23.5625V18.375H21.3125V22.3125H17.375V24.5625H21.3125V28.5H23.5625V24.5625H27.5V22.3125ZM27.5 41.4375V43.6875H17.375V41.4375H27.5ZM46.2931 39.4181L44.7069 37.8319L41.5625 40.9706L38.4181 37.8319L36.8319 39.4181L39.9706 42.5625L36.8319 45.7069L38.4181 47.2931L41.5625 44.1544L44.7069 47.2931L46.2931 45.7069L43.1544 42.5625L46.2931 39.4181ZM46.625 22.3125V24.5625H36.5V22.3125H46.625Z" fill="white"/>
<path d="M22.4375 39.75C23.0588 39.75 23.5625 39.2463 23.5625 38.625C23.5625 38.0037 23.0588 37.5 22.4375 37.5C21.8162 37.5 21.3125 38.0037 21.3125 38.625C21.3125 39.2463 21.8162 39.75 22.4375 39.75Z" fill="white"/>
<path d="M22.4375 47.625C23.0588 47.625 23.5625 47.1213 23.5625 46.5C23.5625 45.8787 23.0588 45.375 22.4375 45.375C21.8162 45.375 21.3125 45.8787 21.3125 46.5C21.3125 47.1213 21.8162 47.625 22.4375 47.625Z" fill="white"/>
<path d="M30.3125 25.125V26.8125C30.3125 28.006 29.8384 29.1506 28.9945 29.9945C28.1506 30.8384 27.006 31.3125 25.8125 31.3125H19.0625C17.869 31.3125 16.7244 30.8384 15.8805 29.9945C15.0366 29.1506 14.5625 28.006 14.5625 26.8125V25.125C14.5625 26.3185 15.0366 27.4631 15.8805 28.307C16.7244 29.1509 17.869 29.625 19.0625 29.625H25.8125C27.006 29.625 28.1506 29.1509 28.9945 28.307C29.8384 27.4631 30.3125 26.3185 30.3125 25.125Z" fill="#CF4055"/>
<path d="M49.4375 25.125V26.8125C49.4375 28.006 48.9634 29.1506 48.1195 29.9945C47.2756 30.8384 46.131 31.3125 44.9375 31.3125H38.1875C36.994 31.3125 35.8494 30.8384 35.0055 29.9945C34.1616 29.1506 33.6875 28.006 33.6875 26.8125V25.125C33.6875 26.3185 34.1616 27.4631 35.0055 28.307C35.8494 29.1509 36.994 29.625 38.1875 29.625H44.9375C46.131 29.625 47.2756 29.1509 48.1195 28.307C48.9634 27.4631 49.4375 26.3185 49.4375 25.125Z" fill="#F6B756"/>
<path d="M30.3125 44.25V45.9375C30.3125 47.131 29.8384 48.2756 28.9945 49.1195C28.1506 49.9634 27.006 50.4375 25.8125 50.4375H19.0625C17.869 50.4375 16.7244 49.9634 15.8805 49.1195C15.0366 48.2756 14.5625 47.131 14.5625 45.9375V44.25C14.5625 45.4435 15.0366 46.5881 15.8805 47.432C16.7244 48.2759 17.869 48.75 19.0625 48.75H25.8125C27.006 48.75 28.1506 48.2759 28.9945 47.432C29.8384 46.5881 30.3125 45.4435 30.3125 44.25Z" fill="#7ECE67"/>
<path d="M49.4375 44.25V45.9375C49.4375 47.131 48.9634 48.2756 48.1195 49.1195C47.2756 49.9634 46.131 50.4375 44.9375 50.4375H38.1875C36.994 50.4375 35.8494 49.9634 35.0055 49.1195C34.1616 48.2756 33.6875 47.131 33.6875 45.9375V44.25C33.6875 45.4435 34.1616 46.5881 35.0055 47.432C35.8494 48.2759 36.994 48.75 38.1875 48.75H44.9375C46.131 48.75 47.2756 48.2759 48.1195 47.432C48.9634 46.5881 49.4375 45.4435 49.4375 44.25Z" fill="#5B8DC9"/>
</g>
<defs>
<linearGradient id="paint0_linear_40_9591" x1="22.4375" y1="31.3125" x2="22.4375" y2="15.5625" gradientUnits="userSpaceOnUse">
<stop stop-color="#DA5466"/>
<stop offset="1" stop-color="#F4929C"/>
</linearGradient>
<linearGradient id="paint1_linear_40_9591" x1="41.5625" y1="31.3125" x2="41.5625" y2="15.5625" gradientUnits="userSpaceOnUse">
<stop stop-color="#FBCC88"/>
<stop offset="1" stop-color="#FFE5C3"/>
</linearGradient>
<linearGradient id="paint2_linear_40_9591" x1="22.4375" y1="50.4375" x2="22.4375" y2="34.6875" gradientUnits="userSpaceOnUse">
<stop stop-color="#8CDD79"/>
<stop offset="1" stop-color="#D4E6B6"/>
</linearGradient>
<linearGradient id="paint3_linear_40_9591" x1="41.5625" y1="50.4375" x2="41.5625" y2="34.6875" gradientUnits="userSpaceOnUse">
<stop stop-color="#7AA8D7"/>
<stop offset="1" stop-color="#C3D2E7"/>
</linearGradient>
<clipPath id="clip0_40_9591">
<rect width="36" height="36" fill="white" transform="translate(14 15)"/>
</clipPath>
</defs>
</svg>
