<svg width="65" height="65" viewBox="0 0 65 65" fill="none" xmlns="http://www.w3.org/2000/svg">
<circle cx="32.5" cy="32.5" r="32.5" fill="white"/>
<path d="M49.7188 33.9188H40.5312C40.2702 33.9188 40.0198 33.815 39.8352 33.6304C39.6506 33.4458 39.5469 33.1954 39.5469 32.9344C39.5469 32.6733 39.6506 32.4229 39.8352 32.2383C40.0198 32.0537 40.2702 31.95 40.5312 31.95H49.7188C49.9798 31.95 50.2302 32.0537 50.4148 32.2383C50.5994 32.4229 50.7031 32.6733 50.7031 32.9344C50.7031 33.1954 50.5994 33.4458 50.4148 33.6304C50.2302 33.815 49.9798 33.9188 49.7188 33.9188ZM23.4688 33.9188H14.2812C14.0202 33.9188 13.7698 33.815 13.5852 33.6304C13.4006 33.4458 13.2969 33.1954 13.2969 32.9344C13.2969 32.6733 13.4006 32.4229 13.5852 32.2383C13.7698 32.0537 14.0202 31.95 14.2812 31.95H23.4688C23.7298 31.95 23.9802 32.0537 24.1648 32.2383C24.3494 32.4229 24.4531 32.6733 24.4531 32.9344C24.4531 33.1954 24.3494 33.4458 24.1648 33.6304C23.9802 33.815 23.7298 33.9188 23.4688 33.9188ZM32 25.4531C31.7389 25.4531 31.4885 25.3494 31.3039 25.1648C31.1193 24.9802 31.0156 24.7298 31.0156 24.4688V15.2812C31.0156 15.0202 31.1193 14.7698 31.3039 14.5852C31.4885 14.4006 31.7389 14.2969 32 14.2969C32.2611 14.2969 32.5115 14.4006 32.6961 14.5852C32.8807 14.7698 32.9844 15.0202 32.9844 15.2812V24.4688C32.9844 24.7298 32.8807 24.9802 32.6961 25.1648C32.5115 25.3494 32.2611 25.4531 32 25.4531ZM32 51.7031C31.7389 51.7031 31.4885 51.5994 31.3039 51.4148C31.1193 51.2302 31.0156 50.9798 31.0156 50.7188V45.4688C31.0156 45.2077 31.1193 44.9573 31.3039 44.7727C31.4885 44.5881 31.7389 44.4844 32 44.4844C32.2611 44.4844 32.5115 44.5881 32.6961 44.7727C32.8807 44.9573 32.9844 45.2077 32.9844 45.4688V50.7188C32.9844 50.9798 32.8807 51.2302 32.6961 51.4148C32.5115 51.5994 32.2611 51.7031 32 51.7031Z" fill="#293A4C"/>
<path d="M45.7812 51.7025H18.2194C15.5051 51.7025 13.2975 49.4948 13.2975 46.7806V19.2188C13.2975 16.5045 15.5051 14.2969 18.2194 14.2969H45.7812C48.4955 14.2969 50.7031 16.5045 50.7031 19.2188V46.7806C50.7031 49.4948 48.4955 51.7025 45.7812 51.7025ZM18.2194 16.2656C17.4364 16.2665 16.6858 16.5779 16.1321 17.1315C15.5785 17.6852 15.2671 18.4358 15.2662 19.2188V46.7806C15.2662 48.4087 16.5912 49.7337 18.2194 49.7337H45.7812C47.4094 49.7337 48.7343 48.4087 48.7343 46.7806V19.2188C48.7343 17.5906 47.4094 16.2656 45.7812 16.2656H18.2194Z" fill="#293A4C"/>
<path d="M21.4147 25.9361C21.1536 25.9361 20.9032 25.8324 20.7186 25.6478C20.534 25.4632 20.4303 25.2128 20.4303 24.9517V19.875C20.4303 19.6139 20.534 19.3635 20.7186 19.1789C20.9032 18.9943 21.1536 18.8906 21.4147 18.8906C21.6757 18.8906 21.9261 18.9943 22.1107 19.1789C22.2953 19.3635 22.399 19.6139 22.399 19.875V24.9517C22.399 25.2128 22.2953 25.4632 22.1107 25.6478C21.9261 25.8324 21.6757 25.9361 21.4147 25.9361Z" fill="#293A4C"/>
<path d="M23.9524 23.3984H18.875C18.6139 23.3984 18.3635 23.2947 18.1789 23.1101C17.9943 22.9255 17.8906 22.6751 17.8906 22.4141C17.8906 22.153 17.9943 21.9026 18.1789 21.718C18.3635 21.5334 18.6139 21.4297 18.875 21.4297H23.9524C24.2135 21.4297 24.4638 21.5334 24.6484 21.718C24.8331 21.9026 24.9368 22.153 24.9368 22.4141C24.9368 22.6751 24.8331 22.9255 24.6484 23.1101C24.4638 23.2947 24.2135 23.3984 23.9524 23.3984ZM22.4653 47.1081C22.2133 47.1081 21.962 47.0123 21.7697 46.8193L18.1794 43.2297C18.0838 43.1392 18.0073 43.0305 17.9545 42.91C17.9016 42.7896 17.8735 42.6597 17.8717 42.5281C17.8699 42.3966 17.8945 42.266 17.944 42.1441C17.9935 42.0222 18.067 41.9115 18.1601 41.8185C18.2531 41.7254 18.3639 41.652 18.4858 41.6025C18.6077 41.5531 18.7383 41.5285 18.8699 41.5304C19.0014 41.5323 19.1313 41.5605 19.2518 41.6134C19.3722 41.6663 19.4809 41.7428 19.5713 41.8384L23.1609 45.4281C23.2984 45.5658 23.3921 45.7411 23.43 45.9319C23.4679 46.1228 23.4484 46.3205 23.374 46.5003C23.2995 46.6801 23.1735 46.8337 23.0118 46.9419C22.85 47.0501 22.6599 47.1079 22.4653 47.1081Z" fill="#293A4C"/>
<path d="M18.875 47.1087C18.6804 47.1085 18.4903 47.0507 18.3286 46.9425C18.1668 46.8343 18.0408 46.6806 17.9664 46.5009C17.8919 46.3211 17.8724 46.1233 17.9103 45.9325C17.9483 45.7416 18.0419 45.5663 18.1794 45.4287L21.7691 41.839C21.8598 41.7449 21.9684 41.6699 22.0885 41.6182C22.2085 41.5666 22.3377 41.5394 22.4684 41.5382C22.5991 41.537 22.7287 41.5618 22.8497 41.6112C22.9707 41.6607 23.0807 41.7337 23.1731 41.8261C23.2656 41.9185 23.3388 42.0284 23.3883 42.1493C23.4379 42.2703 23.4628 42.3999 23.4618 42.5306C23.4607 42.6613 23.4336 42.7905 23.3821 42.9106C23.3305 43.0307 23.2556 43.1394 23.1616 43.2302L19.5713 46.8199C19.379 47.0128 19.127 47.1087 18.8756 47.1087H18.875ZM45.1243 23.5742H40.0476C39.7865 23.5742 39.5361 23.4705 39.3515 23.2859C39.1669 23.1013 39.0632 22.8509 39.0632 22.5898C39.0632 22.3288 39.1669 22.0784 39.3515 21.8938C39.5361 21.7092 39.7865 21.6055 40.0476 21.6055H45.1243C45.3854 21.6055 45.6358 21.7092 45.8204 21.8938C46.005 22.0784 46.1087 22.3288 46.1087 22.5898C46.1087 22.8509 46.005 23.1013 45.8204 23.2859C45.6358 23.4705 45.3854 23.5742 45.1243 23.5742ZM45.1243 45.3138H40.0476C39.7865 45.3138 39.5361 45.2101 39.3515 45.0255C39.1669 44.8409 39.0632 44.5905 39.0632 44.3294C39.0632 44.0684 39.1669 43.818 39.3515 43.6334C39.5361 43.4488 39.7865 43.3451 40.0476 43.3451H45.1243C45.3854 43.3451 45.6358 43.4488 45.8204 43.6334C46.005 43.818 46.1087 44.0684 46.1087 44.3294C46.1087 44.5905 46.005 44.8409 45.8204 45.0255C45.6358 45.2101 45.3854 45.3138 45.1243 45.3138ZM43.5697 46.7812C43.5697 46.5201 43.466 46.2697 43.2814 46.0851C43.0968 45.9005 42.8464 45.7968 42.5853 45.7968C42.3242 45.7968 42.0738 45.9005 41.8892 46.0851C41.7046 46.2697 41.6009 46.5201 41.6009 46.7812C41.6009 47.0423 41.7046 47.2926 41.8892 47.4772C42.0738 47.6619 42.3242 47.7656 42.5853 47.7656C42.8464 47.7656 43.0968 47.6619 43.2814 47.4772C43.466 47.2926 43.5697 47.0423 43.5697 46.7812ZM43.5697 41.8777C43.5697 42.1388 43.466 42.3891 43.2814 42.5737C43.0968 42.7584 42.8464 42.8621 42.5853 42.8621C42.3242 42.8621 42.0738 42.7584 41.8892 42.5737C41.7046 42.3891 41.6009 42.1388 41.6009 41.8777C41.6009 41.6166 41.7046 41.3662 41.8892 41.1816C42.0738 40.997 42.3242 40.8933 42.5853 40.8933C42.8464 40.8933 43.0968 40.997 43.2814 41.1816C43.466 41.3662 43.5697 41.6166 43.5697 41.8777Z" fill="#293A4C"/>
<path d="M32 23.4844C26.7533 23.4844 22.4844 27.7533 22.4844 33C22.4844 38.2467 26.7533 42.5156 32 42.5156C37.2467 42.5156 41.5156 38.2467 41.5156 33C41.5156 27.7533 37.2467 23.4844 32 23.4844ZM32.061 38.9062C31.8 38.9062 31.5496 38.8025 31.365 38.6179C31.1804 38.4333 31.0767 38.1829 31.0767 37.9219C31.0767 37.6608 31.1804 37.4104 31.365 37.2258C31.5496 37.0412 31.8 36.9375 32.061 36.9375C32.3221 36.9375 32.5725 37.0412 32.7571 37.2258C32.9417 37.4104 33.0454 37.6608 33.0454 37.9219C33.0454 38.1829 32.9417 38.4333 32.7571 38.6179C32.5725 38.8025 32.3221 38.9062 32.061 38.9062ZM33.6163 33.8321C33.2587 34.0067 33.0454 34.3092 33.0454 34.6406C33.0454 34.9017 32.9417 35.1521 32.7571 35.3367C32.5725 35.5213 32.3221 35.625 32.061 35.625C31.8 35.625 31.5496 35.5213 31.365 35.3367C31.1804 35.1521 31.0767 34.9017 31.0767 34.6406C31.0767 33.5558 31.7191 32.5682 32.7527 32.0629C33.0197 31.934 33.2447 31.7321 33.4019 31.4807C33.559 31.2293 33.6418 30.9386 33.6406 30.6421C33.6406 29.8008 32.9023 29.0625 32.061 29.0625C31.6423 29.063 31.2408 29.2296 30.9447 29.5257C30.6485 29.8218 30.482 30.2233 30.4814 30.6421C30.4814 30.9032 30.3777 31.1535 30.1931 31.3382C30.0085 31.5228 29.7581 31.6265 29.4971 31.6265C29.236 31.6265 28.9856 31.5228 28.801 31.3382C28.6164 31.1535 28.5127 30.9032 28.5127 30.6421C28.5137 29.7013 28.8879 28.7994 29.5531 28.1342C30.2183 27.469 31.1203 27.0948 32.061 27.0938C33.9838 27.0938 35.6094 28.7193 35.6094 30.6421C35.6122 31.3076 35.4266 31.9603 35.0741 32.5247C34.7215 33.0891 34.2163 33.5422 33.617 33.8315L33.6163 33.8321Z" fill="#FF5F00"/>
</svg>
