<svg width="46" height="46" viewBox="0 0 46 46" fill="none" xmlns="http://www.w3.org/2000/svg">
<rect width="46" height="46" rx="23" fill="white"/>
<g clip-path="url(#clip0_40_11771)">
<path d="M18.6552 12.3793H15.2759V9H12.3793V12.3793H9V15.2759H12.3793V18.6552H15.2759V15.2759H18.6552V12.3793Z" fill="#E9686A"/>
<path d="M37 12.3794V15.2759H27.3448V12.3794H37Z" fill="#32B1CC"/>
<path d="M37 29.7588V32.6553H27.3448V29.7588H37Z" fill="#55B56A"/>
<path d="M32.1724 28.3101C32.9723 28.3101 33.6207 27.6617 33.6207 26.8619C33.6207 26.062 32.9723 25.4136 32.1724 25.4136C31.3725 25.4136 30.7241 26.062 30.7241 26.8619C30.7241 27.6617 31.3725 28.3101 32.1724 28.3101Z" fill="#55B56A"/>
<path d="M32.1724 37.0001C32.9723 37.0001 33.6207 36.3517 33.6207 35.5518C33.6207 34.7519 32.9723 34.1035 32.1724 34.1035C31.3725 34.1035 30.7241 34.7519 30.7241 35.5518C30.7241 36.3517 31.3725 37.0001 32.1724 37.0001Z" fill="#55B56A"/>
<path d="M32.1725 22.5173H23.4828V13.8276H22.5173V22.5173H13.8276V23.4828H22.5173V32.1725H23.4828V23.4828H32.1725V22.5173Z" fill="#195C85"/>
<path d="M19.138 28.3103L16.7242 25.8965L14.3104 28.3103L11.8966 25.8965L9.48279 28.2562L11.8966 30.7241L9.48279 33.1379L11.8966 35.5517L14.3104 33.1379L16.7242 35.5517L19.138 33.1379L16.7242 30.7241L19.138 28.3103Z" fill="#F49E21"/>
</g>
<defs>
<clipPath id="clip0_40_11771">
<rect width="28" height="28" fill="white" transform="translate(9 9)"/>
</clipPath>
</defs>
</svg>
