<svg width="65" height="65" viewBox="0 0 65 65" fill="none" xmlns="http://www.w3.org/2000/svg">
<circle cx="32.5" cy="32.5" r="32.5" fill="white"/>
<g clip-path="url(#clip0_40_9627)">
<path d="M33.3389 34.3398H51V52.0009H33.3388L33.3389 34.3398Z" fill="#5BE167"/>
<path d="M41.4563 31.0872C46.7188 31.0872 51 26.8059 51 21.5434C51 16.2813 46.7188 12 41.4563 12C36.1938 12 31.9128 16.2812 31.9128 21.5438C31.9128 26.8063 36.1941 31.0872 41.4563 31.0872Z" fill="#FFDA2D"/>
<path d="M11 30.0713H31.5234L21.2618 12L11 30.0713Z" fill="#FF0059"/>
<path d="M15.9725 34.7734L11 43.3864L15.9725 51.9991H25.9176L30.8902 43.3864L25.9176 34.7734H15.9725Z" fill="#00D7DF"/>
<path d="M42.0938 34.3398H51V52.0009H42.0938V34.3398Z" fill="#1FC974"/>
<path d="M41.4562 31.0872C46.7187 31.0872 51 26.8059 51 21.5434C51 16.2813 46.7187 12 41.4562 12V31.0872Z" fill="#FDBF00"/>
<path d="M21.2502 30.0713H31.5234L21.2619 12L21.2502 30.0713Z" fill="#D20041"/>
<path d="M25.9176 34.7734H20.9219V51.9991H25.9176L30.8902 43.3864L25.9176 34.7734Z" fill="#00AADF"/>
</g>
<defs>
<clipPath id="clip0_40_9627">
<rect width="40" height="40" fill="white" transform="translate(11 12)"/>
</clipPath>
</defs>
</svg>
