<svg width="65" height="65" viewBox="0 0 65 65" fill="none" xmlns="http://www.w3.org/2000/svg">
<circle cx="32.5" cy="32.5" r="32.5" fill="white"/>
<g clip-path="url(#clip0_40_9528)">
<path fill-rule="evenodd" clip-rule="evenodd" d="M46.1093 51.0907C46.8177 50.9536 47.4403 50.7822 47.983 50.5423C48.5757 50.341 49.1068 49.9908 49.5254 49.5254C50.1546 48.8559 50.596 48.0322 50.8051 47.1376C52.2504 41.8134 52.4217 24.1957 51.0907 18.8944C50.9767 18.2505 50.7948 17.6205 50.548 17.015C50.3458 16.4243 49.9957 15.8953 49.5312 15.4783C48.8608 14.8459 48.035 14.4024 47.1376 14.1929C41.8134 12.7419 24.1957 12.5763 18.8887 13.9073C18.2487 14.0221 17.6226 14.204 17.0207 14.45C16.428 14.6513 15.8969 15.0014 15.4783 15.4668C14.8461 16.1373 14.4027 16.9631 14.1929 17.8604C12.7419 23.1846 12.5763 40.8023 13.9073 46.1036C14.0387 46.8119 14.2158 47.4403 14.45 47.9887C14.6531 48.5773 15.0031 49.1043 15.4668 49.5197C16.1373 50.1519 16.9631 50.5953 17.8604 50.8051C23.1789 52.2504 40.8137 52.4217 46.1093 51.0907Z" fill="#546E7A"/>
<path fill-rule="evenodd" clip-rule="evenodd" d="M29.0296 35.5645H35.9647V36.547H29.0296V35.5645Z" fill="#FFAB00"/>
<path fill-rule="evenodd" clip-rule="evenodd" d="M26.8188 42.5456C26.9045 42.5799 26.9616 42.6656 26.933 42.7398L26.5446 43.8367C26.4817 44.0138 26.1447 43.8938 26.2133 43.7224L26.6017 42.6256C26.6303 42.5513 26.7274 42.5113 26.8188 42.5456ZM38.2326 42.5456C38.1412 42.5799 38.0898 42.6656 38.1183 42.7398L38.5011 43.8367C38.5639 44.0138 38.901 43.8938 38.8324 43.7224L38.444 42.6256C38.4211 42.5513 38.324 42.5113 38.2326 42.5456Z" fill="#FFFFFE"/>
<path fill-rule="evenodd" clip-rule="evenodd" d="M30.6462 28.8633L32.5028 29.5259L27.6186 43.2362L25.762 42.5736L30.6462 28.8633Z" fill="#FFAB00"/>
<path fill-rule="evenodd" clip-rule="evenodd" d="M34.3537 28.8633L32.4971 29.5259L37.3814 43.2362L39.238 42.5736L34.3537 28.8633Z" fill="#FFAB00"/>
<path fill-rule="evenodd" clip-rule="evenodd" d="M32.0287 34.4395H32.9656V37.6728H32.0287V34.4395Z" fill="white"/>
<path d="M33.3255 23.5573C33.3255 22.1848 32.938 21.0723 32.46 21.0723C31.982 21.0723 31.5945 22.1848 31.5945 23.5573C31.5945 24.9297 31.982 26.0422 32.46 26.0422C32.938 26.0422 33.3255 24.9297 33.3255 23.5573Z" fill="#FFAB00"/>
<path d="M34.3937 24.5918H30.6005C30.102 24.5918 29.6979 24.9959 29.6979 25.4944V29.1505C29.6979 29.6489 30.102 30.0531 30.6005 30.0531H34.3937C34.8922 30.0531 35.2963 29.6489 35.2963 29.1505V25.4944C35.2963 24.9959 34.8922 24.5918 34.3937 24.5918Z" fill="white"/>
</g>
<defs>
<clipPath id="clip0_40_9528">
<rect width="39" height="39" fill="white" transform="translate(13 13)"/>
</clipPath>
</defs>
</svg>
