<svg width="65" height="65" viewBox="0 0 65 65" fill="none" xmlns="http://www.w3.org/2000/svg">
<circle cx="32.5" cy="32.5" r="32.5" fill="white"/>
<path d="M32 14.7246C31.8819 14.7246 31.7686 14.7715 31.6851 14.855C31.6016 14.9386 31.5547 15.0518 31.5547 15.1699V20.5132H32.4453V15.1699C32.4453 15.0518 32.3984 14.9386 32.3149 14.855C32.2314 14.7715 32.1181 14.7246 32 14.7246Z" fill="#6D7486"/>
<path d="M26.8633 26.5996H37.1367V37.1535H26.8633V26.5996Z" fill="#C6AC95"/>
<path d="M26.8633 26.6738H29.0899V37.1535H26.8633V26.6738Z" fill="#EFCCAC"/>
<path d="M40.7066 31.9746L40.7474 48.9499H47.0174V31.9746H40.7066Z" fill="#C6AC95"/>
<path d="M38.4169 35.7266V37.0788H35.9388V35.7266H33.1645V37.0788H30.8355V35.7266H28.0612V37.0788H25.583V35.7266H22.9557V48.8002H41.0443V35.7266H38.4169Z" fill="#C19678"/>
<path d="M35.3436 16.8366L32.003 18.2905H32V15.2676H32.003L35.3436 16.8366Z" fill="#50DD5A"/>
<path d="M33.5808 31.2332V33.3588H30.4191V31.2332C30.4191 30.8139 30.5857 30.4118 30.8822 30.1154C31.1786 29.8189 31.5807 29.6523 32 29.6523C32.4193 29.6523 32.8214 29.8189 33.1178 30.1154C33.4143 30.4118 33.5808 30.8139 33.5808 31.2332Z" fill="#AE8567"/>
<path d="M32 19.832L25.6632 26.6735H38.3368L32 19.832Z" fill="#E26764"/>
<path d="M32 19.832L25.6632 26.6735H27.8898L33.1133 21.034L32 19.832Z" fill="#F97D7A"/>
<path d="M22.9557 35.7266H25.1823V48.8002H22.9557V35.7266Z" fill="#AD826A"/>
<path d="M28.5214 29.4313C28.4033 29.4313 28.29 29.3843 28.2065 29.3008C28.123 29.2173 28.076 29.104 28.076 28.9859V28.6445C28.076 28.5264 28.123 28.4132 28.2065 28.3296C28.29 28.2461 28.4033 28.1992 28.5214 28.1992C28.6395 28.1992 28.7527 28.2461 28.8362 28.3296C28.9198 28.4132 28.9667 28.5264 28.9667 28.6445V28.9859C28.9667 29.104 28.9198 29.2173 28.8362 29.3008C28.7527 29.3843 28.6395 29.4313 28.5214 29.4313ZM28.5214 33.5634C28.4033 33.5634 28.29 33.5165 28.2065 33.433C28.123 33.3494 28.076 33.2362 28.076 33.1181V30.3343C28.076 30.2162 28.123 30.103 28.2065 30.0195C28.29 29.9359 28.4033 29.889 28.5214 29.889C28.6395 29.889 28.7527 29.9359 28.8362 30.0195C28.9198 30.103 28.9667 30.2162 28.9667 30.3343V33.1181C28.9667 33.2362 28.9198 33.3494 28.8362 33.433C28.7527 33.5165 28.6395 33.5634 28.5214 33.5634Z" fill="#F4F8FC"/>
<path d="M25.2971 39.8471H24.2202C24.1021 39.8471 23.9889 39.8002 23.9053 39.7167C23.8218 39.6332 23.7749 39.5199 23.7749 39.4018C23.7749 39.2837 23.8218 39.1705 23.9053 39.0869C23.9889 39.0034 24.1021 38.9565 24.2202 38.9565H25.2971C25.4152 38.9565 25.5285 39.0034 25.612 39.0869C25.6955 39.1705 25.7425 39.2837 25.7425 39.4018C25.7425 39.5199 25.6955 39.6332 25.612 39.7167C25.5285 39.8002 25.4152 39.8471 25.2971 39.8471ZM30.6977 40.9742H29.3202C29.2021 40.9742 29.0889 40.9272 29.0054 40.8437C28.9218 40.7602 28.8749 40.6469 28.8749 40.5288C28.8749 40.4107 28.9218 40.2975 29.0054 40.214C29.0889 40.1304 29.2021 40.0835 29.3202 40.0835H30.6977C30.8158 40.0835 30.929 40.1304 31.0125 40.214C31.0961 40.2975 31.143 40.4107 31.143 40.5288C31.143 40.6469 31.0961 40.7602 31.0125 40.8437C30.929 40.9272 30.8158 40.9742 30.6977 40.9742ZM40.9819 39.3965H39.7547C39.6366 39.3965 39.5233 39.3496 39.4398 39.2661C39.3563 39.1825 39.3093 39.0693 39.3093 38.9512C39.3093 38.8331 39.3563 38.7198 39.4398 38.6363C39.5233 38.5528 39.6366 38.5059 39.7547 38.5059H40.9819C41.1 38.5059 41.2132 38.5528 41.2967 38.6363C41.3803 38.7198 41.4272 38.8331 41.4272 38.9512C41.4272 39.0693 41.3803 39.1825 41.2967 39.2661C41.2132 39.3496 41.1 39.3965 40.9819 39.3965ZM38.277 43.3033H37.125C37.0069 43.3033 36.8936 43.2564 36.8101 43.1729C36.7266 43.0893 36.6797 42.9761 36.6797 42.858C36.6797 42.7399 36.7266 42.6266 36.8101 42.5431C36.8936 42.4596 37.0069 42.4127 37.125 42.4127H38.277C38.3951 42.4127 38.5084 42.4596 38.5919 42.5431C38.6754 42.6266 38.7223 42.7399 38.7223 42.858C38.7223 42.9761 38.6754 43.0893 38.5919 43.1729C38.5084 43.2564 38.3951 43.3033 38.277 43.3033ZM26.7998 43.5287H25.7229C25.6048 43.5287 25.4916 43.4818 25.408 43.3983C25.3245 43.3147 25.2776 43.2015 25.2776 43.0834C25.2776 42.9653 25.3245 42.852 25.408 42.7685C25.4916 42.685 25.6048 42.6381 25.7229 42.6381H26.7998C26.9179 42.6381 27.0312 42.685 27.1147 42.7685C27.1982 42.852 27.2452 42.9653 27.2452 43.0834C27.2452 43.2015 27.1982 43.3147 27.1147 43.3983C27.0312 43.4818 26.9179 43.5287 26.7998 43.5287ZM24.2453 45.6324H22.943C22.8249 45.6324 22.7116 45.5855 22.6281 45.502C22.5446 45.4185 22.4977 45.3052 22.4977 45.1871C22.4977 45.069 22.5446 44.9557 22.6281 44.8722C22.7116 44.7887 22.8249 44.7418 22.943 44.7418H24.2453C24.3634 44.7418 24.4767 44.7887 24.5602 44.8722C24.6437 44.9557 24.6906 45.069 24.6906 45.1871C24.6906 45.3052 24.6437 45.4185 24.5602 45.502C24.4767 45.5855 24.3634 45.6324 24.2453 45.6324ZM40.9819 47.1351H39.6795C39.5614 47.1351 39.4482 47.0882 39.3647 47.0047C39.2811 46.9212 39.2342 46.8079 39.2342 46.6898C39.2342 46.5717 39.2811 46.4584 39.3647 46.3749C39.4482 46.2914 39.5614 46.2445 39.6795 46.2445H40.9819C41.1 46.2445 41.2132 46.2914 41.2967 46.3749C41.3803 46.4584 41.4272 46.5717 41.4272 46.6898C41.4272 46.8079 41.3803 46.9212 41.2967 47.0047C41.2132 47.0882 41.1 47.1351 40.9819 47.1351ZM35.1306 39.9848H34.0536C33.9355 39.9848 33.8222 39.9379 33.7387 39.8544C33.6552 39.7709 33.6083 39.6576 33.6083 39.5395C33.6083 39.4214 33.6552 39.3081 33.7387 39.2246C33.8222 39.1411 33.9355 39.0942 34.0536 39.0942H35.1306C35.2487 39.0942 35.362 39.1411 35.4455 39.2246C35.529 39.3081 35.5759 39.4214 35.5759 39.5395C35.5759 39.6576 35.529 39.7709 35.4455 39.8544C35.362 39.9379 35.2487 39.9848 35.1306 39.9848ZM36.8556 46.221H34.517C34.3989 46.221 34.2856 46.1741 34.2021 46.0905C34.1186 46.007 34.0716 45.8938 34.0716 45.7757C34.0716 45.6576 34.1186 45.5443 34.2021 45.4608C34.2856 45.3773 34.3989 45.3303 34.517 45.3303H36.8556C36.9737 45.3303 37.087 45.3773 37.1705 45.4608C37.254 45.5443 37.3009 45.6576 37.3009 45.7757C37.3009 45.8938 37.254 46.007 37.1705 46.0905C37.087 46.1741 36.9737 46.221 36.8556 46.221ZM29.4204 47.7361H27.8258C27.7077 47.7361 27.5944 47.6892 27.5109 47.6057C27.4274 47.5222 27.3805 47.4089 27.3805 47.2908C27.3805 47.1727 27.4274 47.0595 27.5109 46.976C27.5944 46.8924 27.7077 46.8455 27.8258 46.8455H29.4204C29.5385 46.8455 29.6517 46.8924 29.7352 46.976C29.8188 47.0595 29.8657 47.1727 29.8657 47.2908C29.8657 47.4089 29.8188 47.5222 29.7352 47.6057C29.6517 47.6892 29.5385 47.7361 29.4204 47.7361Z" fill="#896049"/>
<path d="M34.5167 48.718V48.8012H29.4832V45.4198C29.4831 45.0557 29.5774 44.6978 29.7571 44.3811C29.9368 44.0645 30.1956 43.7999 30.5082 43.6133L32 42.7227L33.4918 43.6133C33.8044 43.7999 34.0632 44.0645 34.2429 44.3811C34.4225 44.6978 34.5169 45.0557 34.5167 45.4198V48.718Z" fill="#7B86C8"/>
<path d="M30.5082 43.6133C30.1956 43.7999 29.9368 44.0645 29.7571 44.3811C29.5774 44.6978 29.4831 45.0557 29.4832 45.4198V48.8012H31.1902V45.4198C31.1901 45.0557 31.2845 44.6978 31.4641 44.3811C31.6438 44.0645 31.9026 43.7999 32.2152 43.6133L32.8535 43.2322L32 42.7227L30.5082 43.6133Z" fill="#6C7BB7"/>
<path d="M16.9825 32.0488V48.8742H23.3268L23.2934 32.1216L16.9825 32.0488Z" fill="#C6AC95"/>
<path d="M18.7957 32.2715H16.9825V48.8757H19.2091V32.2715H18.7957Z" fill="#EFCCAC"/>
<path d="M22.7768 27.4629V28.8152H20.9785V27.4629H19.2974V28.8152H17.4991V27.4629H15.8181V31.5197C15.818 31.6183 15.8375 31.716 15.8752 31.8071C15.913 31.8983 15.9683 31.9811 16.038 32.0508C16.1078 32.1206 16.1906 32.1759 16.2817 32.2136C16.3728 32.2514 16.4705 32.2708 16.5691 32.2708H23.7068C23.8054 32.2708 23.9031 32.2514 23.9942 32.2136C24.0853 32.1759 24.1681 32.1206 24.2379 32.0508C24.3076 31.9811 24.363 31.8983 24.4007 31.8071C24.4384 31.716 24.4579 31.6183 24.4579 31.5197V27.4629H22.7768Z" fill="#C79A83"/>
<path d="M18.0446 31.5197V28.8152H17.4991V27.4629H15.8181V31.5197C15.818 31.6183 15.8375 31.716 15.8752 31.8071C15.913 31.8983 15.9683 31.9811 16.038 32.0508C16.1078 32.1206 16.1906 32.1759 16.2817 32.2136C16.3728 32.2514 16.4705 32.2708 16.5691 32.2708H18.7957C18.6971 32.2708 18.5994 32.2514 18.5083 32.2136C18.4171 32.1759 18.3343 32.1206 18.2646 32.0508C18.1948 31.9811 18.1395 31.8983 18.1018 31.8071C18.064 31.716 18.0446 31.6183 18.0446 31.5197Z" fill="#F2C0AA"/>
<path d="M18.603 36.9289H17.0078V37.8196H18.6035C18.7216 37.8196 18.8349 37.7726 18.9184 37.6891C19.0019 37.6056 19.0488 37.4923 19.0488 37.3742C19.0488 37.2561 19.0019 37.1429 18.9184 37.0594C18.8349 36.9758 18.7216 36.9289 18.6035 36.9289H18.603ZM19.7373 44.5064H18.435C18.3169 44.5064 18.2036 44.4595 18.1201 44.376C18.0366 44.2925 17.9897 44.1792 17.9897 44.0611C17.9897 43.943 18.0366 43.8298 18.1201 43.7462C18.2036 43.6627 18.3169 43.6158 18.435 43.6158H19.7373C19.8554 43.6158 19.9687 43.6627 20.0522 43.7462C20.1357 43.8298 20.1826 43.943 20.1826 44.0611C20.1826 44.1792 20.1357 44.2925 20.0522 44.376C19.9687 44.4595 19.8554 44.5064 19.7373 44.5064ZM22.5924 47.7372H21.3652C21.2471 47.7372 21.1338 47.6903 21.0503 47.6068C20.9668 47.5232 20.9199 47.41 20.9199 47.2919C20.9199 47.1738 20.9668 47.0605 21.0503 46.977C21.1338 46.8935 21.2471 46.8466 21.3652 46.8466H22.5924C22.7105 46.8466 22.8238 46.8935 22.9073 46.977C22.9908 47.0605 23.0377 47.1738 23.0377 47.2919C23.0377 47.41 22.9908 47.5232 22.9073 47.6068C22.8238 47.6903 22.7105 47.7372 22.5924 47.7372ZM21.8786 34.7266H20.6514C20.5333 34.7266 20.4201 34.6796 20.3365 34.5961C20.253 34.5126 20.2061 34.3994 20.2061 34.2812C20.2061 34.1631 20.253 34.0499 20.3365 33.9664C20.4201 33.8829 20.5333 33.8359 20.6514 33.8359H21.8786C21.9967 33.8359 22.1099 33.8829 22.1934 33.9664C22.277 34.0499 22.3239 34.1631 22.3239 34.2812C22.3239 34.3994 22.277 34.5126 22.1934 34.5961C22.1099 34.6796 21.9967 34.7266 21.8786 34.7266ZM22.8929 41.2006H21.6657C21.5476 41.2006 21.4343 41.1537 21.3508 41.0702C21.2673 40.9866 21.2204 40.8734 21.2204 40.7553C21.2204 40.6372 21.2673 40.5239 21.3508 40.4404C21.4343 40.3569 21.5476 40.31 21.6657 40.31H22.8929C23.011 40.31 23.1243 40.3569 23.2078 40.4404C23.2913 40.5239 23.3382 40.6372 23.3382 40.7553C23.3382 40.8734 23.2913 40.9866 23.2078 41.0702C23.1243 41.1537 23.011 41.2006 22.8929 41.2006Z" fill="#AE8567"/>
<path d="M46.5009 27.4629V28.8152H44.7025V27.4629H43.0215V28.8152H41.2232V27.4629H39.5421V31.5197C39.5421 31.6183 39.5615 31.716 39.5993 31.8071C39.637 31.8983 39.6923 31.9811 39.7621 32.0508C39.8318 32.1206 39.9146 32.1759 40.0058 32.2136C40.0969 32.2514 40.1946 32.2708 40.2932 32.2708H47.4308C47.5295 32.2708 47.6271 32.2514 47.7183 32.2136C47.8094 32.1759 47.8922 32.1206 47.962 32.0508C48.0317 31.9811 48.087 31.8983 48.1248 31.8071C48.1625 31.716 48.1819 31.6183 48.1819 31.5197V27.4629H46.5009Z" fill="#C79A83"/>
<path d="M42.9339 32.2715H40.7073L40.7474 48.9499H42.974L42.9339 32.2715Z" fill="#EFCCAC"/>
<path d="M41.7687 31.5197V28.8152H41.2232V27.4629H39.5421V31.5197C39.5421 31.6183 39.5615 31.716 39.5993 31.8071C39.637 31.8983 39.6923 31.9811 39.7621 32.0508C39.8318 32.1206 39.9146 32.1759 40.0058 32.2136C40.0969 32.2514 40.1946 32.2708 40.2932 32.2708H42.5198C42.4211 32.2708 42.3235 32.2514 42.2323 32.2136C42.1412 32.1759 42.0584 32.1206 41.9886 32.0508C41.9189 31.9811 41.8636 31.8983 41.8258 31.8071C41.7881 31.716 41.7687 31.6183 41.7687 31.5197Z" fill="#F2C0AA"/>
<path d="M43.6867 37.5939H42.4595C42.3414 37.5939 42.2281 37.547 42.1446 37.4634C42.0611 37.3799 42.0142 37.2667 42.0142 37.1486C42.0142 37.0305 42.0611 36.9172 42.1446 36.8337C42.2281 36.7502 42.3414 36.7032 42.4595 36.7032H43.6867C43.8048 36.7032 43.9181 36.7502 44.0016 36.8337C44.0851 36.9172 44.132 37.0305 44.132 37.1486C44.132 37.2667 44.0851 37.3799 44.0016 37.4634C43.9181 37.547 43.8048 37.5939 43.6867 37.5939ZM42.6348 41.1253H41.4828C41.3647 41.1253 41.2514 41.0784 41.1679 40.9948C41.0844 40.9113 41.0375 40.7981 41.0375 40.68C41.0375 40.5619 41.0844 40.4486 41.1679 40.3651C41.2514 40.2816 41.3647 40.2347 41.4828 40.2347H42.6348C42.7529 40.2347 42.8662 40.2816 42.9497 40.3651C43.0332 40.4486 43.0801 40.5619 43.0801 40.68C43.0801 40.7981 43.0332 40.9113 42.9497 40.9948C42.8662 41.0784 42.7529 41.1253 42.6348 41.1253ZM45.1893 44.5063H43.887C43.7689 44.5063 43.6557 44.4594 43.5721 44.3759C43.4886 44.2924 43.4417 44.1791 43.4417 44.061C43.4417 43.9429 43.4886 43.8296 43.5721 43.7461C43.6557 43.6626 43.7689 43.6157 43.887 43.6157H45.1893C45.3075 43.6157 45.4207 43.6626 45.5042 43.7461C45.5877 43.8296 45.6347 43.9429 45.6347 44.061C45.6347 44.1791 45.5877 44.2924 45.5042 44.3759C45.4207 44.4594 45.3075 44.5063 45.1893 44.5063ZM45.3943 33.4727C45.2762 33.4727 45.163 33.5196 45.0795 33.6031C44.9959 33.6866 44.949 33.7999 44.949 33.918C44.949 34.0361 44.9959 34.1493 45.0795 34.2329C45.163 34.3164 45.2762 34.3633 45.3943 34.3633H46.9926V33.4727H45.3943ZM45.4648 47.147C45.3467 47.147 45.2335 47.1939 45.15 47.2774C45.0664 47.361 45.0195 47.4742 45.0195 47.5923C45.0195 47.7104 45.0664 47.8237 45.15 47.9072C45.2335 47.9907 45.3467 48.0376 45.4648 48.0376H46.9926V47.147H45.4648Z" fill="#AE8567"/>
<path d="M47.3744 48.8008H16.6256C16.4011 48.8008 16.1788 48.845 15.9715 48.9309C15.7641 49.0168 15.5757 49.1427 15.4169 49.3014C15.2582 49.4601 15.1323 49.6485 15.0464 49.8559C14.9605 50.0633 14.9163 50.2856 14.9163 50.51V50.8292H49.0837V50.51C49.0837 50.2856 49.0395 50.0633 48.9536 49.8559C48.8677 49.6485 48.7418 49.4601 48.5831 49.3014C48.4243 49.1427 48.2359 49.0168 48.0285 48.9309C47.8211 48.845 47.5989 48.8008 47.3744 48.8008Z" fill="#8890A4"/>
<path d="M18.8521 48.8008H16.6256C16.4011 48.8008 16.1788 48.845 15.9715 48.9309C15.7641 49.0168 15.5757 49.1427 15.4169 49.3014C15.2582 49.4601 15.1323 49.6485 15.0464 49.8559C14.9605 50.0633 14.9163 50.2856 14.9163 50.51V50.8292H17.1429V50.51C17.1429 50.2856 17.1871 50.0633 17.273 49.8559C17.3589 49.6485 17.4848 49.4601 17.6435 49.3014C17.8022 49.1427 17.9906 49.0168 18.198 48.9309C18.4054 48.845 18.6277 48.8008 18.8521 48.8008Z" fill="#B0BBD1"/>
</svg>
