<svg width="65" height="65" viewBox="0 0 65 65" fill="none" xmlns="http://www.w3.org/2000/svg">
<circle cx="32.5" cy="32.5" r="32.5" fill="white"/>
<path d="M45.3183 17.4332V43.6797C45.3183 44.471 44.6763 45.1129 43.885 45.1129H24.0604C23.2691 45.1129 22.6272 44.471 22.6272 43.6797V17.4332C22.6272 16.6419 23.2691 16 24.0604 16H43.885C44.6763 16 45.3183 16.6419 45.3183 17.4332Z" fill="#9EAFC6"/>
<path d="M30.2654 35.7539C30.2654 35.8686 30.2525 35.9909 30.2203 36.119C31.7456 36.7474 32.0856 37.5471 32.0856 38.1343V40.8308C32.0856 41.4174 31.7456 42.2171 30.2203 42.8454C30.2503 42.9648 30.2655 43.0874 30.2654 43.2105V45.1131H24.0604C23.2691 45.1131 22.6272 44.4712 22.6272 43.6799V26.2821C23.3509 26.1964 24.1203 26.1514 24.9078 26.1514C26.6977 26.1514 28.3917 26.3825 29.6769 26.8023C31.6677 27.4532 32.0856 28.3656 32.0856 29.0172V31.7137C32.0856 32.2944 31.7521 33.0838 30.2654 33.709V35.7539Z" fill="#8590A8"/>
<path d="M42.538 19.8492V23.8225C42.538 23.8732 42.5281 23.9234 42.5086 23.9703C42.4892 24.0172 42.4608 24.0598 42.4249 24.0956C42.389 24.1315 42.3464 24.16 42.2996 24.1794C42.2527 24.1988 42.2025 24.2088 42.1517 24.2088H25.7938C25.743 24.2088 25.6928 24.1988 25.6459 24.1794C25.5991 24.16 25.5565 24.1315 25.5206 24.0956C25.4847 24.0598 25.4563 24.0172 25.4369 23.9703C25.4174 23.9234 25.4075 23.8732 25.4075 23.8225V19.8492C25.4075 19.7985 25.4174 19.7482 25.4369 19.7014C25.4563 19.6545 25.4847 19.6119 25.5206 19.576C25.5565 19.5401 25.5991 19.5117 25.6459 19.4923C25.6928 19.4729 25.743 19.4629 25.7938 19.4629H42.1518C42.2542 19.4629 42.3525 19.5036 42.4249 19.5761C42.4973 19.6485 42.538 19.7468 42.538 19.8492Z" fill="#57D3D0"/>
<path d="M36.8727 19.4629L32.1274 24.2088H29.295L34.0409 19.4629H36.8727ZM41.068 19.4629L36.3222 24.2088H33.4898L38.2357 19.4629H41.068Z" fill="#8CE5E1"/>
<path d="M27.6254 29.1496H26.4298C25.9204 29.1496 25.5074 28.7366 25.5074 28.2271C25.5074 27.7177 25.9204 27.3047 26.4298 27.3047H27.6254C28.1349 27.3047 28.5479 27.7177 28.5479 28.2271C28.5478 28.7366 28.1349 29.1496 27.6254 29.1496ZM33.1782 28.2269C33.1782 28.4818 33.0745 28.7123 32.9078 28.8797C32.8222 28.9655 32.7205 29.0334 32.6086 29.0797C32.4966 29.126 32.3766 29.1497 32.2555 29.1495H31.0599C30.5506 29.1495 30.1372 28.7368 30.1372 28.2269C30.1369 28.1057 30.1607 27.9856 30.2071 27.8737C30.2535 27.7617 30.3217 27.6601 30.4076 27.5746C30.5362 27.446 30.7 27.3584 30.8783 27.3229C30.9381 27.311 30.9989 27.305 31.0599 27.3049H32.2555C32.7648 27.3049 33.1782 27.7176 33.1782 28.2269Z" fill="#ED6294"/>
<path d="M32.0856 29.0172V29.1499H31.0599C30.5506 29.1499 30.1372 28.7372 30.1372 28.2272C30.1369 28.106 30.1607 27.986 30.2071 27.874C30.2535 27.7621 30.3217 27.6604 30.4076 27.575C30.5362 27.4464 30.7 27.3588 30.8783 27.3232C31.848 27.8866 32.0856 28.5259 32.0856 29.0172Z" fill="#DC4173"/>
<path d="M36.8855 29.1496H35.6899C35.1805 29.1496 34.7675 28.7366 34.7675 28.2271C34.7675 27.7177 35.1805 27.3047 35.6899 27.3047H36.8855C37.395 27.3047 37.808 27.7177 37.808 28.2271C37.808 28.7366 37.395 29.1496 36.8855 29.1496ZM41.5155 29.1496H40.3199C39.8105 29.1496 39.3975 28.7366 39.3975 28.2271C39.3975 27.7177 39.8105 27.3047 40.3199 27.3047H41.5155C42.025 27.3047 42.438 27.7177 42.438 28.2271C42.438 28.7366 42.025 29.1496 41.5155 29.1496Z" fill="#ED6294"/>
<path d="M27.6254 33.8451H26.4298C25.9204 33.8451 25.5074 33.4321 25.5074 32.9226C25.5074 32.4132 25.9204 32.0002 26.4298 32.0002H27.6254C28.1349 32.0002 28.5479 32.4132 28.5479 32.9226C28.5478 33.4321 28.1349 33.8451 27.6254 33.8451ZM33.1782 32.9226C33.1782 33.1769 33.0745 33.4081 32.9078 33.5749C32.8223 33.6608 32.7207 33.729 32.6087 33.7754C32.4968 33.8218 32.3767 33.8456 32.2555 33.8453H31.0599C30.8397 33.8459 30.6266 33.767 30.4598 33.6232C30.3586 33.5367 30.2773 33.4293 30.2216 33.3084C30.1659 33.1874 30.1371 33.0558 30.1373 32.9227C30.1373 32.6684 30.2403 32.4372 30.4077 32.2704C30.4932 32.1846 30.5948 32.1164 30.7068 32.07C30.8187 32.0236 30.9388 31.9998 31.0599 32H32.2556C32.7648 31.9999 33.1782 32.4133 33.1782 32.9226Z" fill="#697491"/>
<path d="M30.1373 32.9227C30.1373 32.6684 30.2403 32.4372 30.4077 32.2704C30.4932 32.1846 30.5949 32.1164 30.7068 32.07C30.8187 32.0236 30.9388 31.9998 31.06 32H32.058C31.9588 32.5086 31.5648 33.1126 30.4599 33.6232C30.3586 33.5367 30.2773 33.4293 30.2216 33.3084C30.1659 33.1874 30.1371 33.0558 30.1373 32.9227Z" fill="#576384"/>
<path d="M36.8855 33.8454H35.6899C35.1804 33.8454 34.7674 33.4324 34.7674 32.9229C34.7674 32.4135 35.1804 32.0005 35.6899 32.0005H36.8855C37.3949 32.0005 37.8079 32.4135 37.8079 32.9229C37.8079 33.4324 37.3949 33.8454 36.8855 33.8454ZM41.5155 33.8454H40.3199C39.8104 33.8454 39.3974 33.4324 39.3974 32.9229C39.3974 32.4135 39.8104 32.0005 40.3199 32.0005H41.5155C42.0249 32.0005 42.4379 32.4135 42.4379 32.9229C42.4379 33.4324 42.0249 33.8454 41.5155 33.8454ZM27.6254 37.6184H26.4298C25.9204 37.6184 25.5074 37.2054 25.5074 36.696C25.5074 36.1866 25.9204 35.7736 26.4298 35.7736H27.6254C28.1349 35.7736 28.5479 36.1866 28.5479 36.696C28.5478 37.2054 28.1349 37.6184 27.6254 37.6184ZM33.1782 36.6959C33.1782 36.9502 33.0745 37.1814 32.9078 37.3482C32.8223 37.4341 32.7207 37.5023 32.6087 37.5487C32.4968 37.5951 32.3767 37.6189 32.2555 37.6186H31.0599C30.5506 37.6186 30.1372 37.2052 30.1372 36.6959C30.1369 36.5025 30.1977 36.3138 30.3111 36.1571C30.3401 36.1165 30.3723 36.0785 30.4076 36.0437C30.4931 35.9578 30.5948 35.8897 30.7067 35.8433C30.8187 35.7969 30.9387 35.7731 31.0599 35.7733H32.2555C32.7648 35.7733 33.1782 36.1866 33.1782 36.6959Z" fill="#697491"/>
<path d="M30.1373 36.6956C30.1369 36.5021 30.1978 36.3135 30.3111 36.1567C31.3593 36.6074 31.8203 37.1406 31.9942 37.6183H31.06C30.5506 37.6183 30.1373 37.2049 30.1373 36.6956Z" fill="#576384"/>
<path d="M36.8855 37.6183H35.6899C35.1804 37.6183 34.7674 37.2053 34.7674 36.6959C34.7674 36.1864 35.1804 35.7734 35.6899 35.7734H36.8855C37.3949 35.7734 37.8079 36.1864 37.8079 36.6959C37.8079 37.2053 37.3949 37.6183 36.8855 37.6183ZM41.5155 37.6183H40.3199C39.8104 37.6183 39.3974 37.2053 39.3974 36.6959C39.3974 36.1864 39.8104 35.7734 40.3199 35.7734H41.5155C42.0249 35.7734 42.4379 36.1864 42.4379 36.6959C42.4379 37.2053 42.0249 37.6183 41.5155 37.6183ZM27.6254 41.3914H26.4298C25.9204 41.3914 25.5074 40.9784 25.5074 40.4689C25.5074 39.9595 25.9204 39.5465 26.4298 39.5465H27.6254C28.1349 39.5465 28.5479 39.9595 28.5479 40.4689C28.5478 40.9784 28.1349 41.3914 27.6254 41.3914ZM33.1782 40.4689C33.1782 40.7232 33.0745 40.9544 32.9078 41.1211C32.8223 41.2071 32.7207 41.2752 32.6087 41.3216C32.4968 41.3681 32.3767 41.3918 32.2555 41.3916H31.0599C30.5506 41.3916 30.1372 40.9782 30.1372 40.4689C30.1372 40.2146 30.2402 39.9841 30.4076 39.8167C30.4933 39.731 30.5949 39.6631 30.7069 39.6168C30.8188 39.5705 30.9388 39.5468 31.0599 39.5469H32.2555C32.7648 39.5468 33.1782 39.9596 33.1782 40.4689Z" fill="#697491"/>
<path d="M31.0599 39.5469H32.0856V40.8308C32.0856 41.0027 32.0566 41.1926 31.9768 41.3916H31.0599C30.5506 41.3916 30.1372 40.9782 30.1372 40.4689C30.1372 40.2146 30.2402 39.9841 30.4076 39.8167C30.4933 39.731 30.595 39.6631 30.7069 39.6168C30.8188 39.5705 30.9388 39.5467 31.0599 39.5469Z" fill="#576384"/>
<path d="M36.8855 41.3913H35.6899C35.1805 41.3913 34.7675 40.9783 34.7675 40.4688C34.7675 39.9594 35.1805 39.5464 35.6899 39.5464H36.8855C37.395 39.5464 37.808 39.9594 37.808 40.4688C37.808 40.9783 37.395 41.3913 36.8855 41.3913ZM41.5155 41.3913H40.3199C39.8105 41.3913 39.3975 40.9783 39.3975 40.4688C39.3975 39.9594 39.8105 39.5464 40.3199 39.5464H41.5155C42.025 39.5464 42.438 39.9594 42.438 40.4688C42.438 40.9783 42.025 41.3913 41.5155 41.3913Z" fill="#697491"/>
<path d="M16.6818 43.2104V45.9068C16.6818 47.0628 19.5497 47.9999 23.0874 47.9999C26.6251 47.9999 29.4929 47.0628 29.4929 45.9068V43.2104H16.6818Z" fill="#EFAE2E"/>
<path d="M29.4927 43.2102C29.4927 44.3666 26.625 45.3034 23.0876 45.3034C19.5496 45.3034 16.6818 44.3666 16.6818 43.2102C16.6818 42.7061 17.2284 42.2432 18.1388 41.8819C19.3132 41.4151 21.0941 41.1177 23.0876 41.1177C26.5161 41.1177 29.3163 41.9979 29.4844 43.1046C29.4901 43.1394 29.4927 43.1748 29.4927 43.2102Z" fill="#FFE28F"/>
<path d="M29.4844 43.1046C28.225 43.4864 26.6095 43.6957 24.9079 43.6957C23.1173 43.6957 21.4233 43.4646 20.1381 43.0447C19.0957 42.7041 18.4847 42.2914 18.1389 41.8819C19.3133 41.4151 21.0942 41.1177 23.0877 41.1177C26.5162 41.1177 29.3164 41.9979 29.4844 43.1046Z" fill="#FFD243"/>
<path d="M18.5021 38.1338V40.8302C18.5021 41.9861 21.37 42.9232 24.9076 42.9232C28.4453 42.9232 31.3132 41.9862 31.3132 40.8302V38.1338H18.5021Z" fill="#EFAE2E"/>
<path d="M31.313 38.1343C31.313 39.29 28.4452 40.2268 24.9078 40.2268C21.3698 40.2268 18.502 39.29 18.502 38.1343C18.502 38.0988 18.5046 38.0635 18.5104 38.0286C18.6785 36.9212 21.4786 36.041 24.9078 36.041C26.9012 36.041 28.6815 36.3385 29.8559 36.8053C30.7663 37.1666 31.313 37.6295 31.313 38.1343Z" fill="#FFE28F"/>
<path d="M29.8559 36.8053C29.5108 37.2148 28.8998 37.6275 27.8567 37.9681C26.5716 38.3879 24.8775 38.6197 23.0876 38.6197C21.3852 38.6197 19.7698 38.4105 18.5103 38.0286C18.6784 36.9212 21.4785 36.041 24.9078 36.041C26.9012 36.041 28.6814 36.3385 29.8559 36.8053Z" fill="#FFD243"/>
<path d="M16.6818 33.0571V35.7535C16.6818 36.9094 19.5497 37.8466 23.0874 37.8466C26.6251 37.8466 29.4929 36.9095 29.4929 35.7535V33.0571H16.6818Z" fill="#EFAE2E"/>
<path d="M29.4927 33.0571C29.4927 33.5136 29.0465 33.9353 28.2887 34.2791C27.1259 34.8064 25.2297 35.1502 23.0876 35.1502C19.5496 35.1502 16.6818 34.2128 16.6818 33.0571C16.6818 32.6308 17.072 32.2342 17.7416 31.9039C18.8876 31.3373 20.854 30.9639 23.0876 30.9639C26.625 30.9639 29.4927 31.9014 29.4927 33.0571Z" fill="#FFE28F"/>
<path d="M29.4927 33.0571C29.4927 33.5136 29.0465 33.9354 28.2887 34.2792C27.2682 34.4742 26.1099 34.5786 24.9078 34.5786C23.1172 34.5786 21.4238 34.3474 20.138 33.9276C18.3352 33.3385 17.822 32.5343 17.7416 31.9039C18.8876 31.3373 20.854 30.9639 23.0876 30.9639C26.625 30.9639 29.4927 31.9014 29.4927 33.0571Z" fill="#FFD243"/>
<path d="M18.5021 29.0171V31.7135C18.5021 32.8694 21.37 33.8065 24.9076 33.8065C28.4453 33.8065 31.3132 32.8695 31.3132 31.7135V29.0171H18.5021Z" fill="#EFAE2E"/>
<path d="M24.9075 31.11C28.4452 31.11 31.3131 30.1729 31.3131 29.0169C31.3131 27.8609 28.4452 26.9238 24.9075 26.9238C21.3698 26.9238 18.5019 27.8609 18.5019 29.0169C18.5019 30.1729 21.3698 31.11 24.9075 31.11Z" fill="#FFE28F"/>
<path d="M20.5805 26.0169H18.9478C18.8198 26.0169 18.697 25.966 18.6064 25.8754C18.5158 25.7849 18.465 25.6621 18.465 25.534C18.465 25.4059 18.5158 25.2831 18.6064 25.1926C18.697 25.102 18.8198 25.0511 18.9478 25.0511H20.5805C20.7086 25.0511 20.8314 25.102 20.922 25.1926C21.0125 25.2831 21.0634 25.4059 21.0634 25.534C21.0634 25.6621 21.0125 25.7849 20.922 25.8754C20.8314 25.966 20.7086 26.0169 20.5805 26.0169ZM20.5805 24.5204H18.9478C18.8198 24.5204 18.697 24.4696 18.6064 24.379C18.5158 24.2884 18.465 24.1656 18.465 24.0376C18.465 23.9095 18.5158 23.7867 18.6064 23.6961C18.697 23.6056 18.8198 23.5547 18.9478 23.5547H20.5805C20.7086 23.5547 20.8314 23.6056 20.922 23.6961C21.0125 23.7867 21.0634 23.9095 21.0634 24.0376C21.0634 24.1656 21.0125 24.2884 20.922 24.379C20.8314 24.4696 20.7086 24.5204 20.5805 24.5204Z" fill="#9EAFC6"/>
<path d="M20.5837 22.8603H20.5773C20.4492 22.8603 20.3264 22.8094 20.2359 22.7189C20.1453 22.6283 20.0944 22.5055 20.0944 22.3774C20.0944 22.2493 20.1453 22.1265 20.2359 22.036C20.3264 21.9454 20.4492 21.8945 20.5773 21.8945C20.844 21.8945 21.0634 22.1107 21.0634 22.3774C21.0634 22.644 20.8504 22.8603 20.5837 22.8603Z" fill="#FFD243"/>
</svg>
