<svg width="46" height="46" viewBox="0 0 46 46" fill="none" xmlns="http://www.w3.org/2000/svg">
<rect width="46" height="46" rx="23" fill="white"/>
<g clip-path="url(#clip0_40_11741)">
<path d="M36.5172 30.7665V32.4663C36.5172 33.0389 36.3106 33.5915 35.939 34.0272C35.3095 34.765 34.6185 35.448 33.8732 36.0688C33.4849 36.3922 32.8952 36.1168 32.8952 35.6114C32.8952 33.5664 31.2374 31.9086 29.1924 31.9086H13.7462C9.90588 31.9086 6.65463 29.0671 6.14895 25.2602C6.04954 24.5109 5.99979 23.756 6 23.0002C6 13.6229 13.5924 6.01894 22.9653 6.00028C32.3201 5.98155 39.9764 13.6017 39.9999 22.9564C40.0045 24.7859 39.7202 26.5483 39.1898 28.2005C39.1629 28.2851 39.1098 28.359 39.0381 28.4115C38.9664 28.464 38.8799 28.4924 38.7911 28.4925C37.5353 28.4925 36.5172 29.5106 36.5172 30.7665Z" fill="#60C8DD"/>
<path d="M37.2208 23.0001C37.2208 30.8541 30.8539 37.221 23 37.221C15.1461 37.221 8.77917 30.8541 8.77917 23.0001C8.77917 15.1462 15.1461 8.7793 23 8.7793C30.8539 8.7793 37.2208 15.1462 37.2208 23.0001Z" fill="#7CD2E3"/>
<path d="M33.8906 15.6289V36.0541C33.0808 36.7306 32.2099 37.3303 31.2891 37.8457C30.9672 38.0258 30.5703 37.7901 30.5703 37.4212V15.6289C30.5703 15.2621 30.8676 14.9648 31.2344 14.9648H33.2266C33.5933 14.9648 33.8906 15.2621 33.8906 15.6289Z" fill="#3D4EC6"/>
<path d="M11.9766 32.5625H9.98438C9.61761 32.5625 9.32031 32.2652 9.32031 31.8984V15.2969C9.32031 14.9301 9.61761 14.6328 9.98438 14.6328H11.9766C12.3433 14.6328 12.6406 14.9301 12.6406 15.2969V31.8984C12.6406 32.2652 12.3433 32.5625 11.9766 32.5625ZM39.2031 28.1588V23.2656C39.2031 22.8989 38.9058 22.6016 38.5391 22.6016H36.5469C36.1801 22.6016 35.8828 22.8989 35.8828 23.2656V34.0924C37.36 32.3784 38.5009 30.3664 39.2031 28.1588ZM23.2656 26.5859V9.98438C23.2656 9.61761 22.9683 9.32031 22.6016 9.32031H20.6094C20.2426 9.32031 19.9453 9.61761 19.9453 9.98438V26.5859C19.9453 26.9527 20.2426 27.25 20.6094 27.25H22.6016C22.9683 27.25 23.2656 26.9527 23.2656 26.5859Z" fill="#FFB52D"/>
<path d="M22.6015 15.9609H21.9388C21.5721 15.9609 21.2748 15.6636 21.2748 15.2969V9.98438C21.2748 9.61761 21.5721 9.32031 21.9388 9.32031H22.6015C22.9683 9.32031 23.2656 9.61761 23.2656 9.98438V15.2969C23.2656 15.6636 22.9683 15.9609 22.6015 15.9609ZM39.2031 27.0791V23.2656C39.2031 22.8989 38.9058 22.6016 38.539 22.6016H37.8763C37.5096 22.6016 37.2123 22.8989 37.2123 23.2656V27.0791C37.2123 27.4458 37.5096 27.7431 37.8763 27.7431H38.539C38.9058 27.7431 39.2031 27.4458 39.2031 27.0791ZM12.6406 19.6924V15.2969C12.6406 14.9301 12.3433 14.6328 11.9765 14.6328H11.3138C10.9471 14.6328 10.6498 14.9301 10.6498 15.2969V19.6924C10.6498 20.0591 10.9471 20.3564 11.3138 20.3564H11.9765C12.3433 20.3564 12.6406 20.0591 12.6406 19.6924Z" fill="#FFC14F"/>
<path d="M27.9141 32.5625H25.9219C25.5551 32.5625 25.2578 32.2652 25.2578 31.8984V16.8906C25.2578 16.5239 25.5551 16.2266 25.9219 16.2266H27.9141C28.2808 16.2266 28.5781 16.5239 28.5781 16.8906V31.8984C28.5781 32.2652 28.2808 32.5625 27.9141 32.5625ZM17.9531 29.2422V12.6406C17.9531 12.2739 17.6558 11.9766 17.2891 11.9766H15.2969C14.9301 11.9766 14.6328 12.2739 14.6328 12.6406V29.2422C14.6328 29.6089 14.9301 29.9062 15.2969 29.9062H17.2891C17.6558 29.9062 17.9531 29.6089 17.9531 29.2422ZM33.2266 34.0924H32.5639C32.1971 34.0924 31.8998 33.7951 31.8998 33.4284V15.6289C31.8998 15.2621 32.1971 14.9648 32.5639 14.9648H33.2266C33.5933 14.9648 33.8906 15.2621 33.8906 15.6289V33.4284C33.8906 33.7951 33.5933 34.0924 33.2266 34.0924Z" fill="#5766CE"/>
<path d="M17.289 16.2266H16.6263C16.2596 16.2266 15.9623 15.9293 15.9623 15.5625V12.6406C15.9623 12.2739 16.2596 11.9766 16.6263 11.9766H17.289C17.6558 11.9766 17.9531 12.2739 17.9531 12.6406V15.5625C17.9531 15.9293 17.6558 16.2266 17.289 16.2266ZM28.5781 19.8125V16.8906C28.5781 16.5239 28.2808 16.2266 27.914 16.2266H27.2513C26.8846 16.2266 26.5873 16.5239 26.5873 16.8906V19.8125C26.5873 20.1793 26.8846 20.4766 27.2513 20.4766H27.914C28.2808 20.4766 28.5781 20.1793 28.5781 19.8125Z" fill="#717ED6"/>
<path d="M32.4319 10.1658V12.6011C32.4319 12.6891 32.3969 12.7736 32.3346 12.8359C32.2723 12.8981 32.1879 12.9331 32.0998 12.9331C32.0118 12.9331 31.9273 12.8981 31.865 12.8359C31.8028 12.7736 31.7678 12.6891 31.7678 12.6011V10.9992L25.4345 17.3325C25.3722 17.3948 25.2878 17.4298 25.1997 17.4298C25.1117 17.4298 25.0272 17.3948 24.9649 17.3325L22.9204 15.288L15.2447 22.4396C15.1832 22.4971 15.1023 22.5291 15.0181 22.529C14.9515 22.529 14.8864 22.5089 14.8313 22.4714C14.7762 22.4339 14.7336 22.3807 14.7092 22.3187C14.6847 22.2567 14.6795 22.1888 14.6942 22.1238C14.7089 22.0588 14.7428 21.9997 14.7915 21.9542L22.7017 14.5837C22.7647 14.525 22.848 14.4929 22.934 14.4944C23.0201 14.4959 23.1023 14.5307 23.1631 14.5916L25.1997 16.6282L31.33 10.4978H29.6645C29.5764 10.4978 29.492 10.4628 29.4297 10.4006C29.3675 10.3383 29.3325 10.2538 29.3325 10.1658C29.3325 10.0777 29.3675 9.99326 29.4297 9.93099C29.492 9.86872 29.5764 9.83374 29.6645 9.83374H32.0998C32.1878 9.83376 32.2723 9.86875 32.3346 9.93103C32.3968 9.99331 32.4318 10.0778 32.4319 10.1658Z" fill="#FFF5F5"/>
<path d="M25.1975 19.4874C23.4413 18.5311 21.2341 18.0044 18.9824 18.0044C16.7308 18.0044 14.5235 18.5311 12.7673 19.4875C12.3259 19.728 12.0624 20.1451 12.0624 20.6035V22.1513C12.0624 23.0355 12.9071 23.7549 13.9455 23.7549H24.0193C25.0576 23.7549 25.9024 23.0355 25.9024 22.1513V20.6035C25.9025 20.1451 25.6389 19.7279 25.1975 19.4874ZM25.2384 22.1512C25.2384 22.6693 24.6916 23.0908 24.0194 23.0908H13.9456C13.2734 23.0908 12.7266 22.6693 12.7266 22.1512V20.6034C12.7266 20.392 12.8606 20.1929 13.085 20.0706C14.7455 19.1664 16.8399 18.6684 18.9825 18.6684C21.1251 18.6684 23.2196 19.1664 24.88 20.0706C25.1045 20.1929 25.2385 20.392 25.2385 20.6034V22.1512H25.2384Z" fill="#7C3F2C"/>
<path d="M29.3591 24.1374V31.5073C29.3591 36.1532 25.5637 39.9232 20.9184 39.8497C20.7758 39.8474 20.6672 39.8415 20.5985 39.8318C13.9427 38.8907 8.52621 34.095 6.68005 27.7759V24.1374C6.68005 22.7717 7.78718 21.6646 9.15289 21.6646H26.8862C28.2519 21.6646 29.3591 22.7717 29.3591 24.1374Z" fill="#954C35"/>
<path d="M31.2849 24.1374V37.8482C28.8337 39.2188 26.0081 40.0001 23.0001 40.0001C22.1849 40.0001 21.3831 39.9427 20.5985 39.8318C18.5759 37.1734 17.3751 33.8558 17.3751 30.2577C17.3751 27.0897 18.3059 24.1391 19.909 21.6646H28.812C30.1777 21.6646 31.2849 22.7717 31.2849 24.1374Z" fill="#AE583E"/>
<path d="M31.9648 24.244V26.5406C31.9648 27.1455 31.6707 27.7134 31.1748 28.0599C27.8451 30.3863 23.6026 31.7802 18.9824 31.7802C14.3622 31.7802 10.1197 30.3863 6.79004 28.0599C6.29418 27.7134 6 27.1456 6 26.5407V24.244C6 22.8028 7.16835 21.6345 8.6095 21.6345H29.3553C30.7965 21.6345 31.9648 22.8027 31.9648 24.244Z" fill="#C0694E"/>
<path d="M31.9649 24.2475V26.5442C31.9649 27.1491 31.6707 27.717 31.1749 28.0634C27.8452 30.3899 23.6027 31.7838 18.9825 31.7838C18.4562 31.7838 17.9349 31.7656 17.4192 31.7301C17.3898 31.3341 17.3751 30.9372 17.3751 30.5402C17.3751 27.2392 18.3858 24.1743 20.1144 21.6379H29.3554C30.7966 21.638 31.9649 22.8063 31.9649 24.2475Z" fill="#C97E67"/>
<path d="M21.7644 32.8357H16.2005C16.0365 32.8357 15.8793 32.7705 15.7634 32.6546C15.6474 32.5387 15.5823 32.3814 15.5823 32.2174V31.5992C15.5823 31.4352 15.6474 31.278 15.7634 31.162C15.8793 31.0461 16.0365 30.981 16.2005 30.981H21.7644C21.9284 30.981 22.0857 31.0461 22.2016 31.162C22.3175 31.278 22.3827 31.4352 22.3827 31.5992V32.2174C22.3826 32.5589 22.1058 32.8357 21.7644 32.8357Z" fill="#FF9F22"/>
<path d="M21.7644 32.8357H17.3751C17.2111 32.8357 17.0539 32.7705 16.9379 32.6546C16.822 32.5387 16.7568 32.3814 16.7568 32.2174V31.5992C16.7568 31.4352 16.822 31.278 16.9379 31.162C17.0539 31.0461 17.2111 30.981 17.3751 30.981H21.7644C21.9284 30.981 22.0856 31.0461 22.2016 31.162C22.3175 31.278 22.3826 31.4352 22.3826 31.5992V32.2174C22.3826 32.5589 22.1058 32.8357 21.7644 32.8357Z" fill="#FFC14F"/>
<path d="M21.4552 32.2176H16.5096C16.4276 32.2176 16.349 32.185 16.291 32.1271C16.233 32.0691 16.2004 31.9905 16.2004 31.9085C16.2004 31.8265 16.233 31.7479 16.291 31.6899C16.349 31.6319 16.4276 31.5994 16.5096 31.5994H21.4552C21.5372 31.5994 21.6158 31.6319 21.6738 31.6899C21.7318 31.7479 21.7644 31.8265 21.7644 31.9085C21.7644 31.9905 21.7318 32.0691 21.6738 32.1271C21.6158 32.185 21.5372 32.2176 21.4552 32.2176Z" fill="#FF9100"/>
<path d="M18.3024 32.2176H16.5096C16.4276 32.2176 16.349 32.185 16.291 32.1271C16.233 32.0691 16.2004 31.9905 16.2004 31.9085C16.2004 31.8265 16.233 31.7479 16.291 31.6899C16.349 31.6319 16.4276 31.5994 16.5096 31.5994H18.3024C18.2204 31.5994 18.1418 31.6319 18.0838 31.6899C18.0258 31.7479 17.9933 31.8265 17.9933 31.9085C17.9933 31.9905 18.0258 32.0691 18.0838 32.1271C18.1418 32.185 18.2204 32.2176 18.3024 32.2176Z" fill="#DD7D00"/>
<path d="M18.6038 18.9152C18.6038 19.5995 18.0491 20.1543 17.3648 20.1543H14.2328C13.574 20.1543 13.0399 19.8132 13.0399 19.3924V19.1184C13.0399 18.9417 13.1744 18.776 13.4011 18.6748C14.4936 18.1872 15.8011 17.84 17.2331 17.6828C17.965 17.6024 18.6038 18.1788 18.6038 18.9152Z" fill="#AE583E"/>
<path d="M24.9096 19.1182V19.3922C24.9096 19.8131 24.3755 20.1542 23.7167 20.1542H17.3705C16.6859 20.1542 16.131 19.5993 16.131 18.9147C16.131 18.2848 16.603 17.7519 17.2291 17.6831C17.8089 17.6197 18.3916 17.5881 18.9748 17.5884C21.0869 17.5884 23.0263 17.9954 24.5484 18.6747C24.7751 18.7758 24.9096 18.9416 24.9096 19.1182Z" fill="#C0694E"/>
<path d="M27.7299 10.5488C27.7299 10.6369 27.6949 10.7213 27.6327 10.7836C27.5704 10.8459 27.4859 10.8809 27.3979 10.8809H25.7075C25.6195 10.8809 25.535 10.8459 25.4727 10.7836C25.4105 10.7213 25.3755 10.6369 25.3755 10.5488C25.3755 10.4608 25.4105 10.3763 25.4727 10.314C25.535 10.2518 25.6195 10.2168 25.7075 10.2168H27.3979C27.4859 10.2168 27.5704 10.2518 27.6327 10.314C27.6949 10.3763 27.7299 10.4608 27.7299 10.5488Z" fill="#ECECF1"/>
<path d="M27.5351 12.0762C27.5351 12.1198 27.5265 12.163 27.5098 12.2032C27.4931 12.2435 27.4686 12.2801 27.4378 12.311C27.407 12.3418 27.3704 12.3662 27.3301 12.3829C27.2898 12.3996 27.2466 12.4082 27.203 12.4082H25.9025C25.8144 12.4082 25.73 12.3732 25.6677 12.311C25.6054 12.2487 25.5704 12.1642 25.5704 12.0762C25.5704 11.9881 25.6054 11.9037 25.6677 11.8414C25.73 11.7791 25.8144 11.7441 25.9025 11.7441H27.203C27.2466 11.7441 27.2898 11.7527 27.3301 11.7694C27.3704 11.7861 27.407 11.8106 27.4378 11.8414C27.4686 11.8722 27.4931 11.9088 27.5098 11.9491C27.5265 11.9894 27.5351 12.0326 27.5351 12.0762ZM25.9025 9.35352H27.2031C27.2912 9.35352 27.3756 9.31853 27.4379 9.25627C27.5001 9.194 27.5351 9.10954 27.5351 9.02148C27.5351 8.93342 27.5001 8.84897 27.4379 8.7867C27.3756 8.72443 27.2912 8.68945 27.2031 8.68945H25.9025C25.8145 8.68945 25.73 8.72443 25.6677 8.7867C25.6055 8.84897 25.5705 8.93342 25.5705 9.02148C25.5705 9.10954 25.6055 9.194 25.6677 9.25627C25.73 9.31853 25.8145 9.35352 25.9025 9.35352Z" fill="#C2EAF2"/>
</g>
<defs>
<clipPath id="clip0_40_11741">
<rect width="34" height="34" fill="white" transform="translate(6 6)"/>
</clipPath>
</defs>
</svg>
