<svg width="65" height="65" viewBox="0 0 65 65" fill="none" xmlns="http://www.w3.org/2000/svg">
<circle cx="32.5" cy="32.5" r="32.5" fill="white"/>
<path d="M53.9999 32.4983C53.9999 44.3727 44.376 54 32.5016 54C20.6272 54 10.9999 44.3727 10.9999 32.4983C10.9999 20.6239 20.6272 11 32.5016 11C44.376 11 53.9999 20.6239 53.9999 32.4983Z" fill="#B730AA"/>
<path d="M32.5 49.6398C41.9661 49.6398 49.6398 41.9661 49.6398 32.5C49.6398 23.0339 41.9661 15.3601 32.5 15.3601C23.0339 15.3601 15.3601 23.0339 15.3601 32.5C15.3601 41.9661 23.0339 49.6398 32.5 49.6398Z" fill="#A32391"/>
<path d="M50.8253 43.7437C48.7579 47.108 45.8063 49.8399 42.2925 51.6415C41.3381 52.132 40.3229 52.5479 39.9476 52.6729C37.5621 53.5528 35.0392 54.0021 32.4965 53.9998C32.4562 53.9998 32.4193 53.9998 32.379 53.9965C24.6759 53.9595 17.9336 49.8678 14.1745 43.7437H50.8253Z" fill="#4FE88D"/>
<path d="M23.3006 45.7397C23.3006 45.8763 23.2466 46.0074 23.1503 46.1043C23.054 46.2013 22.9233 46.2562 22.7867 46.257L16.9571 46.2624C16.82 46.2616 16.6888 46.2064 16.5923 46.1089C16.5201 46.037 16.471 45.9453 16.451 45.8455C16.431 45.7456 16.4412 45.6421 16.4802 45.548C16.5192 45.4539 16.5852 45.3735 16.6699 45.3171C16.7547 45.2606 16.8543 45.2305 16.9561 45.2308L22.7853 45.2257C22.8529 45.2255 22.9199 45.2387 22.9824 45.2645C23.0449 45.2902 23.1017 45.328 23.1496 45.3758C23.1975 45.4235 23.2355 45.4802 23.2614 45.5427C23.2873 45.6051 23.3006 45.6721 23.3006 45.7397ZM33.5252 52.1541C33.5248 52.2906 33.4706 52.4215 33.3743 52.5184C33.278 52.6152 33.1475 52.6702 33.0109 52.6714L32.376 52.6724C32.2394 52.6715 32.1088 52.6167 32.0123 52.5201C31.9158 52.4234 31.8614 52.2927 31.8607 52.1561C31.8604 52.0884 31.8736 52.0214 31.8993 51.9588C31.9251 51.8962 31.9629 51.8394 32.0107 51.7915C32.0585 51.7435 32.1153 51.7055 32.1778 51.6796C32.2403 51.6537 32.3073 51.6404 32.375 51.6404L33.0099 51.6398C33.0775 51.6396 33.1445 51.6528 33.207 51.6785C33.2695 51.7043 33.3263 51.7421 33.3742 51.7898C33.4221 51.8376 33.4601 51.8943 33.486 51.9567C33.5119 52.0192 33.5252 52.0865 33.5252 52.1541ZM42.2962 51.6297C41.3425 52.1212 40.328 52.5387 39.9527 52.6644L34.5542 52.6711C34.4178 52.6695 34.2875 52.6145 34.1912 52.5178C34.095 52.4211 34.0405 52.2905 34.0395 52.1541C34.0392 52.0865 34.0522 52.0195 34.0779 51.957C34.1035 51.8945 34.1413 51.8377 34.189 51.7899C34.2367 51.742 34.2935 51.7041 34.3559 51.6783C34.4184 51.6525 34.4853 51.6393 34.5529 51.6394L42.2962 51.6297ZM23.3006 50.7173C23.3011 50.8538 23.3553 50.9847 23.4516 51.0816C23.5479 51.1784 23.6784 51.2334 23.815 51.2346L27.2926 51.24C27.4292 51.2391 27.5599 51.1844 27.6565 51.0878C27.753 50.9911 27.8075 50.8603 27.8082 50.7237C27.8084 50.6561 27.7953 50.5891 27.7695 50.5266C27.7438 50.464 27.7059 50.4072 27.6582 50.3594C27.6104 50.3115 27.5537 50.2735 27.4913 50.2476C27.4288 50.2217 27.3619 50.2083 27.2943 50.2083L23.8163 50.203C23.7486 50.2027 23.6816 50.2159 23.619 50.2416C23.5564 50.2674 23.4996 50.3052 23.4517 50.353C23.4037 50.4008 23.3657 50.4576 23.3398 50.5201C23.3139 50.5826 23.3006 50.6496 23.3006 50.7173ZM47.2802 45.7387C47.2798 45.8752 47.2256 46.006 47.1294 46.1028C47.0332 46.1997 46.9027 46.2547 46.7662 46.256L41.7765 46.2634C41.64 46.2625 41.5093 46.2079 41.4128 46.1113C41.3162 46.0147 41.2617 45.884 41.2609 45.7474C41.2606 45.6798 41.2738 45.6128 41.2995 45.5502C41.3252 45.4877 41.3631 45.4308 41.4108 45.3829C41.4586 45.335 41.5153 45.297 41.5778 45.271C41.6402 45.2451 41.7072 45.2318 41.7748 45.2318L46.7645 45.2244C46.8322 45.2241 46.8992 45.2373 46.9618 45.263C47.0244 45.2888 47.0813 45.3266 47.1292 45.3744C47.1771 45.4222 47.2151 45.479 47.241 45.5415C47.2669 45.604 47.2802 45.671 47.2802 45.7387ZM41.0979 49.7024C41.0979 49.839 41.0439 49.9701 40.9476 50.0671C40.8513 50.164 40.7206 50.2189 40.5839 50.2198L38.1014 50.2208C37.9589 50.2208 37.8296 50.1603 37.7365 50.0672C37.6435 49.9742 37.586 49.8452 37.586 49.7044C37.5859 49.6368 37.599 49.5698 37.6248 49.5073C37.6505 49.4448 37.6884 49.388 37.7361 49.3401C37.7839 49.2922 37.8406 49.2543 37.903 49.2284C37.9655 49.2024 38.0324 49.1891 38.1 49.1891L40.5826 49.1881C40.6502 49.1879 40.7173 49.2011 40.7798 49.2269C40.8423 49.2526 40.8992 49.2905 40.947 49.3383C40.9949 49.3861 41.0329 49.4428 41.0588 49.5053C41.0847 49.5678 41.098 49.6348 41.0979 49.7024Z" fill="#35D175"/>
<path d="M27.4246 19.8989V46.5673C27.4246 46.9314 27.2799 47.2807 27.0224 47.5382C26.7649 47.7957 26.4156 47.9404 26.0514 47.9404C25.6872 47.9404 25.338 47.7957 25.0805 47.5382C24.823 47.2807 24.6783 46.9314 24.6783 46.5673V19.8985C24.6783 19.5344 24.823 19.1851 25.0805 18.9276C25.338 18.6701 25.6872 18.5254 26.0514 18.5254C26.4156 18.5254 26.7649 18.6701 27.0224 18.9276C27.2799 19.1851 27.4246 19.5347 27.4246 19.8989Z" fill="#FFBC50"/>
<path d="M25.9808 47.5399C26.1252 47.6844 26.3039 47.7969 26.5025 47.8631C26.3624 47.9138 26.2106 47.941 26.051 47.941C25.6866 47.9401 25.3372 47.7962 25.0778 47.5403C24.8219 47.2809 24.6779 46.9314 24.677 46.567V19.8986C24.677 19.5342 24.8218 19.1848 25.0794 18.9271C25.3371 18.6694 25.6866 18.5247 26.051 18.5247C26.2106 18.5247 26.3624 18.5519 26.5025 18.6026C26.2326 18.6952 25.9985 18.87 25.833 19.1024C25.6676 19.3349 25.5791 19.6133 25.58 19.8986V46.567C25.5809 46.9314 25.7249 47.2809 25.9808 47.5403V47.5399Z" fill="#FFB32C"/>
<path d="M33.8732 19.8989V46.5673C33.8732 46.9314 33.7286 47.2807 33.4711 47.5382C33.2135 47.7957 32.8643 47.9404 32.5001 47.9404C32.1359 47.9404 31.7867 47.7957 31.5291 47.5382C31.2716 47.2807 31.127 46.9314 31.127 46.5673V19.8985C31.127 19.5344 31.2716 19.1851 31.5291 18.9276C31.7867 18.6701 32.1359 18.5254 32.5001 18.5254C32.8643 18.5254 33.2135 18.6701 33.4711 18.9276C33.7286 19.1851 33.8732 19.5347 33.8732 19.8989Z" fill="#FFBC50"/>
<path d="M32.427 47.5399C32.5712 47.6844 32.7539 47.7969 32.9524 47.8631C32.8124 47.9138 32.6605 47.941 32.5009 47.941C32.1364 47.9408 31.7867 47.7968 31.5277 47.5403C31.4003 47.4123 31.2993 47.2605 31.2305 47.0935C31.1617 46.9265 31.1265 46.7476 31.127 46.567V19.8986C31.127 19.5342 31.2717 19.1848 31.5294 18.9271C31.7871 18.6694 32.1365 18.5247 32.5009 18.5247C32.6605 18.5247 32.8124 18.5519 32.9524 18.6026C32.6817 18.6943 32.4467 18.8688 32.2805 19.1014C32.1143 19.3339 32.0254 19.6128 32.0263 19.8986V46.567C32.0272 46.9314 32.1711 47.2809 32.427 47.5403V47.5399Z" fill="#FFB32C"/>
<path d="M40.3219 19.899V46.5674C40.3219 46.9316 40.1772 47.2809 39.9197 47.5384C39.6622 47.7959 39.3129 47.9406 38.9488 47.9406C38.5846 47.9406 38.2353 47.7959 37.9778 47.5384C37.7203 47.2809 37.5756 46.9316 37.5756 46.5674V19.8987C37.5813 19.5382 37.7284 19.1945 37.9853 18.9415C38.2422 18.6886 38.5883 18.5469 38.9488 18.5469C39.3093 18.5469 39.6553 18.6886 39.9122 18.9415C40.1691 19.1945 40.3163 19.5386 40.3219 19.899Z" fill="#FFBC50"/>
<path d="M38.877 47.5399C39.0212 47.6844 39.2002 47.7969 39.3988 47.8631C39.2587 47.9138 39.1065 47.941 38.9473 47.941C38.5841 47.94 38.2359 47.7961 37.9781 47.5403C37.722 47.2809 37.578 46.9315 37.577 46.567V19.8986C37.577 19.1398 38.1917 18.5247 38.9473 18.5247C39.1068 18.5247 39.2587 18.5519 39.3988 18.6026C39.1291 18.6956 38.8953 18.8705 38.7299 19.1029C38.5644 19.3352 38.4757 19.6134 38.4759 19.8986V46.567C38.4759 46.9446 38.6281 47.291 38.877 47.5403V47.5399Z" fill="#FFB32C"/>
<path d="M32.5009 18.081C32.5009 18.3262 32.3027 18.5248 32.0574 18.5248H26.07C25.8288 18.5248 25.6266 18.3266 25.6266 18.0813C25.6266 17.8361 25.8288 17.6372 26.07 17.6372H32.0568C32.302 17.6372 32.5009 17.8357 32.5009 18.081Z" fill="#E5F5F9"/>
<path d="M29.0448 17.5474V18.5757C29.0448 18.7397 28.9797 18.8971 28.8637 19.013C28.7477 19.129 28.5904 19.1942 28.4264 19.1942C28.2624 19.1942 28.105 19.129 27.9891 19.013C27.8731 18.8971 27.8079 18.7397 27.8079 18.5757V17.5474C27.8079 17.3834 27.8731 17.2261 27.9891 17.1101C28.105 16.9941 28.2624 16.929 28.4264 16.929C28.5904 16.929 28.7477 16.9941 28.8637 17.1101C28.9797 17.2261 29.0448 17.3834 29.0448 17.5474Z" fill="#D3E6ED"/>
<path d="M29.0131 18.7703C28.9724 18.8939 28.8935 19.0015 28.788 19.0776C28.6824 19.1538 28.5554 19.1946 28.4253 19.1943C28.344 19.1944 28.2635 19.1784 28.1883 19.1474C28.1132 19.1163 28.045 19.0707 27.9875 19.0132C27.93 18.9558 27.8844 18.8875 27.8534 18.8124C27.8223 18.7373 27.8064 18.6568 27.8065 18.5755V17.5475C27.8065 17.2754 27.9815 17.0416 28.2307 16.96C28.21 17.0228 28.1994 17.0886 28.1995 17.1548V18.1824C28.1993 18.2805 28.2224 18.3772 28.2669 18.4646C28.3114 18.552 28.3761 18.6275 28.4556 18.685C28.5351 18.7424 28.6271 18.7801 28.7241 18.7949C28.821 18.8098 28.9201 18.8013 29.0131 18.7703Z" fill="#C0D7DD"/>
<path d="M30.6708 17.5474V18.5757C30.6708 18.7397 30.6057 18.8971 30.4897 19.013C30.3737 19.129 30.2164 19.1942 30.0524 19.1942C29.8883 19.1942 29.731 19.129 29.615 19.013C29.4991 18.8971 29.4339 18.7397 29.4339 18.5757V17.5474C29.4339 17.3834 29.4991 17.2261 29.615 17.1101C29.731 16.9941 29.8883 16.929 30.0524 16.929C30.2164 16.929 30.3737 16.9941 30.4897 17.1101C30.6057 17.2261 30.6708 17.3834 30.6708 17.5474Z" fill="#D3E6ED"/>
<path d="M30.6402 18.7703C30.5994 18.8939 30.5206 19.0015 30.415 19.0776C30.3094 19.1538 30.1825 19.1946 30.0523 19.1943C29.971 19.1944 29.8905 19.1784 29.8154 19.1474C29.7403 19.1163 29.6721 19.0707 29.6146 19.0132C29.5571 18.9558 29.5115 18.8875 29.4805 18.8124C29.4494 18.7373 29.4334 18.6568 29.4335 18.5755V17.5475C29.4335 17.2754 29.6089 17.0416 29.8578 16.96C29.8372 17.0228 29.8267 17.0886 29.8269 17.1548V18.1824C29.8267 18.2805 29.8498 18.3772 29.8943 18.4645C29.9388 18.5518 30.0035 18.6274 30.0829 18.6848C30.1624 18.7422 30.2544 18.7799 30.3513 18.7948C30.4482 18.8097 30.5472 18.8013 30.6402 18.7703Z" fill="#C0D7DD"/>
<path d="M39.338 18.081C39.338 18.3262 39.1398 18.5248 38.8946 18.5248H32.7123C32.4711 18.5248 32.2689 18.3266 32.2689 18.0813C32.2689 17.8361 32.4711 17.6372 32.7123 17.6372H38.8939C39.1391 17.6372 39.3377 17.8357 39.3377 18.081H39.338Z" fill="#E5F5F9"/>
<path d="M35.4925 17.5474V18.5757C35.4925 18.7397 35.4274 18.8971 35.3114 19.013C35.1954 19.129 35.0381 19.1942 34.8741 19.1942C34.7101 19.1942 34.5527 19.129 34.4368 19.013C34.3208 18.8971 34.2556 18.7397 34.2556 18.5757V17.5474C34.2556 17.3834 34.3208 17.2261 34.4368 17.1101C34.5527 16.9941 34.7101 16.929 34.8741 16.929C35.0381 16.929 35.1954 16.9941 35.3114 17.1101C35.4274 17.2261 35.4925 17.3834 35.4925 17.5474Z" fill="#D3E6ED"/>
<path d="M35.4596 18.7703C35.4197 18.8938 35.3416 19.0013 35.2366 19.0775C35.1316 19.1537 35.0051 19.1946 34.8754 19.1943C34.7941 19.1944 34.7136 19.1784 34.6385 19.1474C34.5634 19.1163 34.4951 19.0707 34.4376 19.0132C34.3802 18.9558 34.3346 18.8875 34.3035 18.8124C34.2724 18.7373 34.2565 18.6568 34.2566 18.5755V17.5475C34.2566 17.2754 34.4316 17.0416 34.6809 16.96C34.6614 17.0184 34.6496 17.0843 34.6496 17.1548V18.1824C34.6496 18.28 34.6727 18.3763 34.717 18.4632C34.7613 18.5502 34.8256 18.6254 34.9046 18.6828C34.9835 18.7401 35.075 18.778 35.1714 18.7932C35.2678 18.8084 35.3668 18.8006 35.4596 18.7703Z" fill="#C0D7DD"/>
<path d="M37.1184 17.5475V18.5758C37.1184 18.7398 37.0533 18.897 36.9373 19.013C36.8214 19.1289 36.6641 19.1941 36.5001 19.1941C36.3361 19.1941 36.1789 19.1289 36.0629 19.013C35.947 18.897 35.8818 18.7398 35.8818 18.5758V17.5475C35.8818 17.3835 35.947 17.2262 36.0629 17.1103C36.1789 16.9943 36.3361 16.9292 36.5001 16.9292C36.6641 16.9292 36.8214 16.9943 36.9373 17.1103C37.0533 17.2262 37.1184 17.3835 37.1184 17.5475Z" fill="#D3E6ED"/>
<path d="M37.0865 18.7703C37.0457 18.8939 36.9669 19.0015 36.8613 19.0776C36.7557 19.1538 36.6288 19.1946 36.4986 19.1943C36.3346 19.1938 36.1775 19.1285 36.0616 19.0125C35.9456 18.8966 35.8803 18.7395 35.8798 18.5755V17.5475C35.8798 17.2754 36.0589 17.0416 36.3041 16.96C36.2833 17.0228 36.2728 17.0886 36.2729 17.1548V18.1824C36.2726 18.2805 36.2957 18.3772 36.3403 18.4646C36.3848 18.552 36.4495 18.6275 36.529 18.685C36.6085 18.7424 36.7005 18.7801 36.7974 18.7949C36.8944 18.8098 36.9935 18.8013 37.0865 18.7703Z" fill="#C0D7DD"/>
<g opacity="0.3">
<path d="M26.5024 28.8836C26.4133 28.8836 26.3279 28.8482 26.2649 28.7852C26.2019 28.7222 26.1665 28.6368 26.1665 28.5477V25.5242C26.1665 25.4351 26.2019 25.3497 26.2649 25.2867C26.3279 25.2237 26.4133 25.1883 26.5024 25.1883C26.5915 25.1883 26.677 25.2237 26.74 25.2867C26.803 25.3497 26.8384 25.4351 26.8384 25.5242V28.5477C26.8384 28.6368 26.803 28.7222 26.74 28.7852C26.677 28.8482 26.5915 28.8836 26.5024 28.8836ZM26.5024 24.6323C26.4133 24.6323 26.3279 24.5969 26.2649 24.5339C26.2019 24.4709 26.1665 24.3855 26.1665 24.2964V23.6245C26.1665 23.5354 26.2019 23.45 26.2649 23.387C26.3279 23.324 26.4133 23.2886 26.5024 23.2886C26.5915 23.2886 26.677 23.324 26.74 23.387C26.803 23.45 26.8384 23.5354 26.8384 23.6245V24.2964C26.8384 24.3855 26.803 24.4709 26.74 24.5339C26.677 24.5969 26.5915 24.6323 26.5024 24.6323Z" fill="white"/>
</g>
<path opacity="0.3" d="M39.3987 28.8835C39.3096 28.8835 39.2241 28.8482 39.1611 28.7852C39.0981 28.7222 39.0627 28.6367 39.0627 28.5476V25.5242C39.0627 25.4351 39.0981 25.3496 39.1611 25.2866C39.2241 25.2236 39.3096 25.1882 39.3987 25.1882C39.4878 25.1882 39.5732 25.2236 39.6362 25.2866C39.6992 25.3496 39.7346 25.4351 39.7346 25.5242V28.5476C39.7346 28.6367 39.6992 28.7222 39.6362 28.7852C39.5732 28.8482 39.4878 28.8835 39.3987 28.8835Z" fill="white"/>
<g opacity="0.3">
<path d="M32.9525 41.4675C32.8634 41.4675 32.7779 41.4321 32.7149 41.3691C32.6519 41.3061 32.6165 41.2207 32.6165 41.1316V36.4285C32.6165 36.3394 32.6519 36.2539 32.7149 36.1909C32.7779 36.1279 32.8634 36.0925 32.9525 36.0925C33.0415 36.0925 33.127 36.1279 33.19 36.1909C33.253 36.2539 33.2884 36.3394 33.2884 36.4285V41.1316C33.2884 41.2207 33.253 41.3061 33.19 41.3691C33.127 41.4321 33.0415 41.4675 32.9525 41.4675ZM32.9525 35.5359C32.8634 35.5359 32.7779 35.5005 32.7149 35.4375C32.6519 35.3745 32.6165 35.289 32.6165 35.2V34.5281C32.6165 34.439 32.6519 34.3535 32.7149 34.2905C32.7779 34.2275 32.8634 34.1921 32.9525 34.1921C33.0415 34.1921 33.127 34.2275 33.19 34.2905C33.253 34.3535 33.2884 34.439 33.2884 34.5281V35.2C33.2884 35.289 33.253 35.3745 33.19 35.4375C33.127 35.5005 33.0415 35.5359 32.9525 35.5359Z" fill="white"/>
</g>
<path d="M42.4779 32.2951L38.7792 35.9904L32.0504 42.7192L28.1367 46.6329C27.8646 46.905 27.4548 47.0125 27.0886 46.8849C24.1492 45.8569 22.1671 43.8681 21.1425 40.9253C21.0149 40.5592 21.1224 40.1493 21.3945 39.8772L35.7289 25.5461C36.1489 25.1228 36.7367 24.9078 37.3347 24.9549L40.4724 25.2102L42.8105 27.5517L43.0658 30.6893C43.1162 31.2839 42.8978 31.8718 42.4779 32.2951Z" fill="#C68142"/>
<path d="M41.3626 26.1004L38.225 25.8451C37.627 25.7981 37.0391 26.0131 36.6192 26.4363L22.2847 40.7674C22.0126 41.0395 21.9051 41.4494 22.0328 41.8156C22.4695 43.072 23.0809 44.1537 23.8703 45.0607C22.6442 44.0025 21.7338 42.6218 21.1425 40.9253C21.0149 40.5592 21.1224 40.1493 21.3945 39.8772L35.7289 25.5461C36.1489 25.1228 36.7367 24.9078 37.3347 24.9549L40.4724 25.2102L41.3626 26.1004Z" fill="#AF6223"/>
<path d="M38.7792 35.9904L32.0504 42.7193C31.5264 42.2727 31.106 41.7175 30.8183 41.0921C30.5305 40.4668 30.3824 39.7862 30.3841 39.0979C30.3841 37.2368 31.449 35.6276 33.0078 34.8479C33.4109 34.6396 33.8476 34.4885 34.3079 34.4112C34.5833 34.3608 34.8756 34.3339 35.1645 34.3306C35.4568 34.3306 35.739 34.3608 36.0178 34.4112C36.478 34.4885 36.9147 34.6396 37.3179 34.8479C37.8755 35.1301 38.3727 35.5201 38.7792 35.9904Z" fill="#AF6223"/>
<path d="M40.4661 25.2084L46.9312 18.7429L49.2747 21.0864L42.8099 27.5519L40.4661 25.2084Z" fill="#24272B"/>
<path d="M49.2801 21.0836L42.8146 27.5497L42.3997 27.1352L47.5681 21.9664C47.8013 21.7318 47.9322 21.4145 47.9322 21.0837C47.9322 20.753 47.8013 20.4357 47.5681 20.2011L46.522 19.155L46.9369 18.7397L49.2801 21.0836Z" fill="#13181E"/>
<path d="M50.9154 20.254L50.0006 21.1687C49.916 21.2518 49.8022 21.2984 49.6836 21.2984C49.5651 21.2984 49.4512 21.2518 49.3667 21.1687L46.8529 18.6552C46.7697 18.5706 46.7231 18.4567 46.7231 18.3381C46.7231 18.2195 46.7697 18.1056 46.8529 18.021L47.7676 17.1062C47.9477 16.9262 48.2359 16.9265 48.4086 17.0995L50.9224 19.613C51.0954 19.786 51.0954 20.0739 50.9154 20.254Z" fill="#24272B"/>
<g opacity="0.3">
<path d="M42.1786 24.822C42.1496 24.793 42.1266 24.7586 42.1109 24.7207C42.0952 24.6829 42.0872 24.6423 42.0872 24.6013C42.0872 24.5603 42.0952 24.5197 42.1109 24.4818C42.1266 24.444 42.1496 24.4096 42.1786 24.3806L44.7579 21.8013C44.8165 21.7427 44.8959 21.7098 44.9786 21.7098C45.0614 21.7098 45.1408 21.7427 45.1993 21.8013C45.2579 21.8598 45.2908 21.9392 45.2908 22.022C45.2908 22.1047 45.2579 22.1841 45.1993 22.2427L42.62 24.822C42.591 24.851 42.5566 24.874 42.5188 24.8897C42.4809 24.9054 42.4403 24.9134 42.3993 24.9134C42.3583 24.9134 42.3177 24.9054 42.2799 24.8897C42.242 24.874 42.2076 24.851 42.1786 24.822ZM45.6337 21.3672C45.6047 21.3382 45.5816 21.3038 45.5659 21.2659C45.5502 21.228 45.5421 21.1874 45.5421 21.1463C45.5421 21.1053 45.5502 21.0647 45.5659 21.0268C45.5816 20.9889 45.6047 20.9544 45.6337 20.9255L45.8753 20.6843C45.904 20.6543 45.9385 20.6303 45.9766 20.6138C46.0147 20.5973 46.0558 20.5886 46.0973 20.5882C46.1389 20.5877 46.1801 20.5956 46.2185 20.6113C46.257 20.627 46.2919 20.6502 46.3213 20.6796C46.3507 20.709 46.3739 20.744 46.3896 20.7825C46.4052 20.8209 46.4131 20.8622 46.4126 20.9037C46.4122 20.9452 46.4034 20.9863 46.3869 21.0244C46.3703 21.0625 46.3464 21.097 46.3163 21.1257L46.0751 21.3669C46.0462 21.3959 46.0117 21.4189 45.9739 21.4346C45.936 21.4502 45.8954 21.4583 45.8544 21.4583C45.8134 21.4583 45.7728 21.4502 45.735 21.4346C45.6971 21.4189 45.6627 21.3962 45.6337 21.3672Z" fill="white"/>
</g>
<path opacity="0.3" d="M38.7584 34.3888C38.7294 34.3598 38.7063 34.3254 38.6906 34.2876C38.6749 34.2497 38.6668 34.2091 38.6668 34.1681C38.6668 34.1271 38.6749 34.0865 38.6906 34.0486C38.7063 34.0107 38.7294 33.9763 38.7584 33.9474L41.3377 31.368C41.3667 31.339 41.4011 31.3161 41.439 31.3004C41.4768 31.2847 41.5174 31.2766 41.5584 31.2766C41.5994 31.2766 41.64 31.2847 41.6779 31.3004C41.7157 31.3161 41.7502 31.339 41.7791 31.368C41.8081 31.397 41.8311 31.4314 41.8468 31.4693C41.8625 31.5072 41.8706 31.5478 41.8706 31.5887C41.8706 31.6297 41.8625 31.6703 41.8468 31.7082C41.8311 31.7461 41.8081 31.7805 41.7791 31.8095L39.2001 34.3888C39.1712 34.4178 39.1368 34.4408 39.0989 34.4565C39.061 34.4721 39.0204 34.4802 38.9794 34.4802C38.9384 34.4802 38.8979 34.4721 38.86 34.4565C38.8221 34.4408 38.7874 34.4178 38.7584 34.3888Z" fill="white"/>
<path d="M39.0887 39.0978C39.0887 40.631 38.2092 41.9526 36.934 42.5972C36.6025 42.7672 36.2433 42.8918 35.8657 42.956C35.6356 42.9977 35.4055 43.0205 35.166 43.0205C34.9265 43.0205 34.6873 42.9977 34.4615 42.956C34.0892 42.8916 33.7289 42.7706 33.3932 42.5972C32.7442 42.272 32.1987 41.7722 31.8181 41.154C31.4375 40.5358 31.2368 39.8237 31.2385 39.0978C31.2385 37.5692 32.1133 36.2477 33.3932 35.6077C33.7289 35.4342 34.0892 35.313 34.4615 35.2486C34.6939 35.206 34.9297 35.1844 35.166 35.1841C35.4055 35.1841 35.6356 35.2073 35.8657 35.2486C36.2433 35.3131 36.6025 35.4374 36.934 35.608C38.2092 36.2524 39.0887 37.5692 39.0887 39.0978Z" fill="#FC545D"/>
<path d="M39.0877 39.1005C39.0879 39.8255 38.8866 40.5363 38.5061 41.1535C38.1257 41.7707 37.5811 42.27 36.9333 42.5956C36.6007 42.7693 36.2433 42.8936 35.8661 42.9581C35.6376 42.9977 35.4041 43.0226 35.166 43.0226C34.9295 43.0213 34.6936 42.9997 34.4608 42.9581C34.0883 42.8938 33.7282 42.7715 33.3936 42.5956C32.9103 42.3534 32.4825 42.0136 32.1371 41.5979C32.6583 42.0387 33.2871 42.3332 33.9593 42.4515C34.8384 42.608 35.6954 42.4679 36.4318 42.094C37.7026 41.449 38.5865 40.1281 38.5865 38.5942C38.5874 37.6893 38.2712 36.8127 37.6929 36.1167C38.1308 36.4806 38.4829 36.9368 38.7241 37.4526C38.9652 37.9684 39.0892 38.5311 39.0877 39.1005Z" fill="#F14448"/>
<path d="M35.8661 35.2486V42.956C35.6356 42.9977 35.4055 43.0205 35.166 43.0205C34.9265 43.0205 34.6873 42.9977 34.4615 42.956V35.2486C34.694 35.206 34.9297 35.1844 35.166 35.1841C35.4055 35.1841 35.636 35.2073 35.8661 35.2486Z" fill="white"/>
<path d="M35.8657 42.3264V42.957C35.6373 42.9969 35.4041 43.0218 35.1656 43.0218C34.9293 43.0204 34.6935 42.9987 34.4608 42.957V42.5055C34.694 42.5414 35.3578 42.4961 35.8657 42.3264Z" fill="#E5F5F9"/>
<path d="M33.963 38.3505C34.1001 38.3505 34.2112 38.2394 34.2112 38.1023C34.2112 37.9652 34.1001 37.854 33.963 37.854C33.8259 37.854 33.7147 37.9652 33.7147 38.1023C33.7147 38.2394 33.8259 38.3505 33.963 38.3505Z" fill="white"/>
<path d="M36.3642 38.3505C36.5013 38.3505 36.6124 38.2394 36.6124 38.1023C36.6124 37.9652 36.5013 37.854 36.3642 37.854C36.2271 37.854 36.1159 37.9652 36.1159 38.1023C36.1159 38.2394 36.2271 38.3505 36.3642 38.3505Z" fill="white"/>
<path d="M36.3642 37.3478C36.5013 37.3478 36.6124 37.2367 36.6124 37.0996C36.6124 36.9625 36.5013 36.8513 36.3642 36.8513C36.2271 36.8513 36.1159 36.9625 36.1159 37.0996C36.1159 37.2367 36.2271 37.3478 36.3642 37.3478Z" fill="white"/>
<path d="M33.963 39.3486C34.1001 39.3486 34.2112 39.2374 34.2112 39.1003C34.2112 38.9632 34.1001 38.8521 33.963 38.8521C33.8259 38.8521 33.7147 38.9632 33.7147 39.1003C33.7147 39.2374 33.8259 39.3486 33.963 39.3486Z" fill="white"/>
<path d="M34.0574 36.325C33.9878 36.3596 33.8686 36.3549 33.7843 36.2702C33.7392 36.2237 33.7143 36.1613 33.7147 36.0966C33.7147 36.0321 33.7396 35.9676 33.7843 35.9229C33.8317 35.8774 33.8949 35.8521 33.9606 35.8521C34.0264 35.8521 34.0895 35.8774 34.137 35.9229C34.2744 36.0334 34.2049 36.2756 34.0574 36.325Z" fill="white"/>
<path d="M36.3642 40.3513C36.5013 40.3513 36.6124 40.2401 36.6124 40.103C36.6124 39.9659 36.5013 39.8547 36.3642 39.8547C36.2271 39.8547 36.1159 39.9659 36.1159 40.103C36.1159 40.2401 36.2271 40.3513 36.3642 40.3513Z" fill="white"/>
<path d="M36.5926 42.0142C36.6074 42.0441 36.6124 42.0736 36.6124 42.1082C36.6116 42.1738 36.5851 42.2365 36.5388 42.2829C36.4924 42.3294 36.4298 42.3559 36.3642 42.3568C36.2986 42.3559 36.2359 42.3294 36.1896 42.2829C36.1432 42.2365 36.1168 42.1738 36.1159 42.1082C36.116 42.0751 36.1226 42.0422 36.1354 42.0116C36.1482 41.981 36.1669 41.9532 36.1905 41.9299C36.3131 41.8133 36.5389 41.8533 36.5926 42.0142Z" fill="white"/>
<path d="M33.963 41.3544C34.1001 41.3544 34.2112 41.2433 34.2112 41.1062C34.2112 40.9691 34.1001 40.8579 33.963 40.8579C33.8259 40.8579 33.7147 40.9691 33.7147 41.1062C33.7147 41.2433 33.8259 41.3544 33.963 41.3544Z" fill="white"/>
<path d="M33.963 40.3513C34.1001 40.3513 34.2112 40.2401 34.2112 40.103C34.2112 39.9659 34.1001 39.8547 33.963 39.8547C33.8259 39.8547 33.7147 39.9659 33.7147 40.103C33.7147 40.2401 33.8259 40.3513 33.963 40.3513Z" fill="white"/>
<path d="M33.963 37.3478C34.1001 37.3478 34.2112 37.2367 34.2112 37.0996C34.2112 36.9625 34.1001 36.8513 33.963 36.8513C33.8259 36.8513 33.7147 36.9625 33.7147 37.0996C33.7147 37.2367 33.8259 37.3478 33.963 37.3478Z" fill="white"/>
<path d="M36.3642 41.3544C36.5013 41.3544 36.6124 41.2433 36.6124 41.1062C36.6124 40.9691 36.5013 40.8579 36.3642 40.8579C36.2271 40.8579 36.1159 40.9691 36.1159 41.1062C36.1159 41.2433 36.2271 41.3544 36.3642 41.3544Z" fill="white"/>
<path d="M36.116 36.0968C36.116 36.0323 36.1459 35.9678 36.1906 35.9231C36.2847 35.829 36.4486 35.829 36.538 35.9231C36.585 35.9607 36.6125 36.0333 36.6125 36.0968C36.6121 36.1625 36.5858 36.2254 36.5393 36.2718C36.4929 36.3183 36.43 36.3446 36.3643 36.345C36.2986 36.3447 36.2356 36.3184 36.1891 36.2719C36.1426 36.2254 36.1164 36.1625 36.116 36.0968ZM34.2113 42.109C34.2113 42.2521 34.085 42.3573 33.963 42.3573C33.9303 42.3577 33.8978 42.3515 33.8674 42.3392C33.8371 42.3268 33.8096 42.3085 33.7864 42.2854C33.7633 42.2622 33.745 42.2346 33.7327 42.2043C33.7204 42.1739 33.7143 42.1414 33.7147 42.1087C33.7147 41.9219 33.9046 41.8168 34.0574 41.8806C34.1303 41.9048 34.2113 42.0002 34.2113 42.109Z" fill="white"/>
<path d="M36.3642 39.3486C36.5013 39.3486 36.6124 39.2374 36.6124 39.1003C36.6124 38.9632 36.5013 38.8521 36.3642 38.8521C36.2271 38.8521 36.1159 38.9632 36.1159 39.1003C36.1159 39.2374 36.2271 39.3486 36.3642 39.3486Z" fill="white"/>
</svg>
