<svg width="65" height="65" viewBox="0 0 65 65" fill="none" xmlns="http://www.w3.org/2000/svg">
<circle cx="32.5" cy="32.5" r="32.5" fill="white"/>
<g clip-path="url(#clip0_27_654)">
<path d="M51.339 44.7293C51.339 48.748 42.7595 52 32.1706 52C21.5814 52 13.0019 48.748 13.0019 44.7293C13.0019 42.7263 15.1304 40.9087 18.5874 39.5933C19.1106 40.3545 19.6988 41.0689 20.3455 41.7284C20.4645 41.8539 20.5836 41.9729 20.7091 42.0851C20.9471 42.3231 21.1917 42.5413 21.4428 42.7528C21.4559 42.7662 21.4625 42.7793 21.4759 42.7858C21.7005 42.9778 21.9251 43.1628 22.1631 43.3345C22.2173 43.3806 22.2747 43.4225 22.3351 43.46C22.5731 43.6451 22.8177 43.8171 23.0688 43.9822C23.1048 44.0069 23.1423 44.0289 23.181 44.0482C23.3795 44.1872 23.5776 44.3062 23.7826 44.4253C23.9477 44.5308 24.1197 44.6233 24.2916 44.7159C24.5229 44.8483 24.7608 44.967 25.0054 45.0795C25.1971 45.1785 25.4021 45.2646 25.6003 45.3571C25.9043 45.4892 26.215 45.6082 26.5258 45.7207C26.6975 45.7801 26.8629 45.8396 27.0346 45.8926C27.2726 45.9718 27.5106 46.0447 27.7552 46.1107C27.7692 46.1191 27.7849 46.1235 27.8014 46.1238C27.8067 46.1288 27.8139 46.1313 27.8213 46.1304C27.9798 46.1768 28.145 46.2164 28.3104 46.2493C28.3159 46.2558 28.3233 46.2606 28.3315 46.263C28.3397 46.2654 28.3484 46.2653 28.3566 46.2627C28.5218 46.3095 28.6896 46.347 28.859 46.3749C28.9213 46.3946 28.9855 46.4079 29.0507 46.4148C29.2292 46.4478 29.4077 46.4808 29.5928 46.5073C30.1006 46.5913 30.6124 46.6486 31.1263 46.679C31.2253 46.6856 31.3244 46.6924 31.4169 46.6924C31.9189 46.7186 32.4219 46.7186 32.9239 46.6924C33.0164 46.6924 33.1155 46.6856 33.2149 46.679C33.7287 46.6486 34.2406 46.5913 34.7484 46.5073C34.9335 46.4808 35.112 46.4478 35.2902 46.4148C35.3553 46.4079 35.4196 46.3946 35.4821 46.3749C35.6515 46.3469 35.8192 46.3095 35.9843 46.2627C36.001 46.2679 36.0191 46.2627 36.0308 46.2493C36.1954 46.2168 36.3584 46.1771 36.5196 46.1304C36.5232 46.1308 36.5268 46.1305 36.5303 46.1293C36.5337 46.1282 36.5369 46.1263 36.5395 46.1238C36.5559 46.1235 36.5717 46.119 36.586 46.1107C36.8305 46.0447 37.0683 45.9718 37.3063 45.8926C37.4782 45.8396 37.6433 45.7801 37.8153 45.7207C38.1259 45.6082 38.4365 45.4891 38.7407 45.357C38.9388 45.2646 39.1438 45.1786 39.3354 45.0795C39.58 44.967 39.818 44.8483 40.0495 44.7159C40.2212 44.6234 40.3931 44.5308 40.5583 44.4252C40.7632 44.3062 40.9614 44.1872 41.1599 44.0482C41.1988 44.0288 41.2364 44.0067 41.2724 43.9822C41.5235 43.8171 41.7681 43.6451 42.0058 43.46C42.0662 43.4225 42.1236 43.3806 42.1778 43.3345C42.4158 43.1628 42.6404 42.9777 42.865 42.7858C42.8784 42.7793 42.885 42.7662 42.8984 42.7528C43.1494 42.5413 43.394 42.3232 43.6317 42.0851C43.7576 41.973 43.8763 41.8539 43.9954 41.7284C44.6421 41.0688 45.2304 40.3545 45.7538 39.5933C49.2105 40.9088 51.339 42.7263 51.339 44.7293V44.7293Z" fill="#71C285"/>
<path d="M46.7121 44.7292C46.7121 42.1738 40.2015 40.1023 32.1706 40.1023C24.1393 40.1023 17.6288 42.1738 17.6288 44.7292C17.6288 47.2844 24.1393 49.3561 32.1706 49.3561C40.2015 49.3561 46.7121 47.2844 46.7121 44.7292Z" fill="#4C8056"/>
<path d="M48.0076 34.9004C47.9546 35.0724 47.902 35.2441 47.8425 35.416C47.7366 35.7597 47.6109 36.0968 47.4723 36.4273C47.4063 36.5925 47.3334 36.751 47.2608 36.9165C47.1897 37.0791 47.1147 37.24 47.0361 37.3991C46.9171 37.6567 46.7847 37.9079 46.6461 38.159C46.56 38.3179 46.4676 38.4765 46.375 38.635C46.1834 38.9588 45.9784 39.2827 45.7538 39.5934C45.2305 40.3545 44.6421 41.0688 43.9954 41.7284C43.8764 41.8474 43.7577 41.9665 43.6318 42.0851H38.7803L35.4753 36.1364L38.7803 30.1875H45.3902L48.0076 34.9004Z" fill="white"/>
<path d="M43.6317 42.085C43.3941 42.3165 43.1495 42.5411 42.8984 42.7526C42.885 42.7661 42.8784 42.7792 42.865 42.7857C42.6403 42.9776 42.4158 43.1627 42.1778 43.3343C42.1237 43.3804 42.0662 43.4224 42.0058 43.4599C41.7681 43.645 41.5235 43.8169 41.2723 43.9821C41.2363 44.0068 41.1986 44.0288 41.1599 44.0481C40.9664 44.1847 40.7656 44.3106 40.5583 44.4251C40.3932 44.5307 40.2212 44.6232 40.0495 44.7158C39.8115 44.8413 39.5734 44.9668 39.3354 45.0793C39.1373 45.1784 38.9457 45.2644 38.7407 45.357C38.4366 45.4891 38.126 45.608 37.8153 45.7205C37.6499 45.7866 37.4782 45.8395 37.3063 45.8925C37.0683 45.9721 36.8281 46.0448 36.586 46.1106C36.5717 46.119 36.5559 46.1234 36.5395 46.1237L38.7802 42.085H43.6317ZM27.8014 46.1237C27.7851 46.1234 27.7692 46.1189 27.7552 46.1106C27.513 46.0448 27.2727 45.9721 27.0347 45.8925C26.8629 45.8395 26.6909 45.7866 26.5259 45.7205C26.2149 45.608 25.9044 45.489 25.6002 45.3569C25.3956 45.2644 25.2036 45.1784 25.0054 45.0793C24.7674 44.9668 24.5294 44.8413 24.2917 44.7158C24.1198 44.6233 23.9478 44.5307 23.7826 44.4251C23.5754 44.3104 23.3745 44.1845 23.181 44.048C23.1424 44.0288 23.1048 44.0068 23.0689 43.9821C22.8177 43.8169 22.5732 43.645 22.3351 43.4599C22.2747 43.4224 22.2173 43.3804 22.1632 43.3343C21.9251 43.1627 21.7005 42.9776 21.4759 42.7857C21.4625 42.7792 21.4559 42.7661 21.4428 42.7526C21.1917 42.5411 20.9471 42.3165 20.7091 42.085H25.5607L27.8014 46.1237Z" fill="#35495E"/>
<path d="M28.8657 36.1364L25.5607 42.0851H20.7091C20.5836 41.9665 20.4646 41.8475 20.3456 41.7285C19.6989 41.069 19.1106 40.3546 18.5875 39.5934C18.3626 39.2827 18.1579 38.9588 17.966 38.635C17.8734 38.4765 17.7809 38.3179 17.6949 38.159C17.5562 37.9079 17.4241 37.6567 17.3051 37.3991C17.2263 37.24 17.1513 37.0791 17.0802 36.9165C17.0076 36.751 16.9349 36.5925 16.8689 36.4273C16.73 36.0968 16.6045 35.7597 16.4985 35.416C16.4393 35.2441 16.3863 35.0724 16.3334 34.9004L18.9507 30.1875H25.5607L28.8657 36.1364Z" fill="white"/>
<path d="M18.9507 30.1874L16.3334 34.9003C15.417 31.8253 15.417 28.5499 16.3334 25.4749L18.9507 30.1874Z" fill="#35495E"/>
<path d="M28.8657 24.2386L25.5607 30.1874H18.9507L16.3334 25.4749C17.1423 22.7401 18.6506 20.2636 20.7092 18.2898H25.5607L28.8657 24.2386Z" fill="white"/>
<path d="M38.7803 30.1873L35.4753 36.1362H28.8657L25.5607 30.1873L28.8657 24.2385H35.4753L38.7803 30.1873Z" fill="#35495E"/>
<path d="M38.7803 42.0851L36.5396 46.1238C36.5369 46.1263 36.5338 46.1282 36.5303 46.1293C36.5269 46.1305 36.5232 46.1308 36.5196 46.1304C36.3583 46.1763 36.1952 46.216 36.0308 46.2493C36.0252 46.2558 36.0178 46.2605 36.0096 46.2629C36.0013 46.2653 35.9926 46.2652 35.9844 46.2627C35.8192 46.3089 35.6538 46.342 35.4821 46.3749C35.4197 46.3946 35.3554 46.4079 35.2902 46.4148C35.112 46.4544 34.9269 46.4808 34.7485 46.5073C34.2407 46.5913 33.7288 46.6486 33.215 46.679C33.1224 46.6856 33.023 46.6924 32.924 46.6924C32.422 46.7186 31.919 46.7186 31.417 46.6924C31.318 46.6924 31.2189 46.6856 31.1263 46.679C30.6125 46.6486 30.1006 46.5913 29.5928 46.5073C29.4143 46.4808 29.2293 46.4544 29.0507 46.4148C28.9855 46.4079 28.9213 46.3946 28.8591 46.3749C28.6871 46.3419 28.522 46.3089 28.3566 46.2627C28.3485 46.2653 28.3397 46.2654 28.3315 46.263C28.3233 46.2606 28.316 46.2558 28.3105 46.2493C28.1459 46.2161 27.9828 46.1764 27.8213 46.1304C27.8177 46.1308 27.8141 46.1305 27.8106 46.1293C27.8072 46.1282 27.8041 46.1263 27.8014 46.1238L25.5607 42.0851L28.8657 36.1363H35.4753L38.7803 42.0851ZM48.0076 25.4749L45.3902 30.1874H38.7803L35.4753 24.2387L38.7803 18.2898H43.6318C45.6904 20.2635 47.1987 22.7401 48.0076 25.4749Z" fill="white"/>
<path d="M43.6317 18.2899H38.7802L36.5395 14.2515C39.2072 14.9759 41.6474 16.3654 43.6317 18.2899ZM27.8014 14.2515L25.5607 18.2899H20.7091C22.6935 16.3655 25.1337 14.976 27.8014 14.2515Z" fill="#35495E"/>
<path d="M38.7803 18.29L35.4753 24.2387H28.8657L25.5607 18.29L27.8014 14.2515C30.6613 13.4669 33.6797 13.4669 36.5396 14.2515L38.7803 18.29Z" fill="white"/>
<path d="M48.6951 30.1874C48.6976 31.7835 48.466 33.3714 48.0076 34.9002L45.3901 30.1874L48.0076 25.4749C48.466 27.0036 48.6976 28.5914 48.6951 30.1874Z" fill="#35495E"/>
<path d="M49.3429 29.5397V29.4683C49.3363 29.3157 49.3289 29.163 49.317 29.025C49.303 28.7822 49.2827 28.5385 49.251 28.2595C49.2244 28.0268 49.1968 27.7897 49.1605 27.576C49.1248 27.3267 49.0816 27.0705 49.0281 26.8423C48.9292 26.3196 48.8015 25.8028 48.6455 25.2942L48.6422 25.2824C48.5866 25.1032 48.5318 24.9248 48.4771 24.7662C48.3653 24.4056 48.2355 24.0509 48.0882 23.7033C48.032 23.5644 47.9724 23.4297 47.9124 23.2928L47.8681 23.1937C47.791 23.0185 47.7142 22.8506 47.638 22.7001C47.5125 22.4282 47.3738 22.1634 47.2289 21.9015C47.1369 21.7331 47.042 21.5662 46.9442 21.4011C46.7571 21.0911 46.564 20.7804 46.3605 20.4888C46.2236 20.2907 46.0861 20.097 45.9438 19.9086C45.4966 19.3032 45.0068 18.7304 44.4781 18.1946C44.3459 18.0554 44.2135 17.923 44.096 17.8186C43.8568 17.5853 43.6101 17.3559 43.3579 17.1444C43.338 17.1252 43.3175 17.1067 43.2962 17.0891C43.0551 16.8825 42.8071 16.684 42.5527 16.494C42.4982 16.4497 42.4412 16.4085 42.3822 16.3705C42.1424 16.1864 41.8956 16.0113 41.6426 15.8457C41.5983 15.8151 41.5523 15.787 41.5048 15.7618C41.3155 15.6288 41.1192 15.5064 40.9166 15.3949C40.744 15.2839 40.5637 15.186 40.3418 15.0643C40.1011 14.9376 39.861 14.8111 39.633 14.7034C39.4441 14.6088 39.2603 14.5258 39.0065 14.4107C38.6893 14.2732 38.3653 14.1494 38.0633 14.0405C37.8809 13.967 37.6916 13.9084 37.5179 13.8554C37.2824 13.7765 37.0448 13.704 36.8053 13.638C36.7673 13.6237 36.7282 13.6124 36.6884 13.6044C36.5191 13.5573 36.3578 13.5163 36.1879 13.4827L36.163 13.4773C36.0019 13.4321 35.8387 13.3952 35.6738 13.3669C35.5846 13.3395 35.4932 13.3197 35.4007 13.3075C35.2225 13.2699 35.0428 13.2396 34.8622 13.2164C34.3318 13.1283 33.7971 13.0682 33.2604 13.0363C33.1533 13.0292 33.0376 13.0226 32.979 13.0238C32.8023 13.0092 32.6333 13.0092 32.5009 13.0098C32.2965 12.9967 32.0915 12.9967 31.887 13.0098C31.7097 13.0098 31.5393 13.0098 31.4175 13.0232C31.3033 13.0232 31.1875 13.0303 31.0873 13.0378C30.5421 13.0696 29.9991 13.1303 29.4603 13.2196C29.2905 13.2446 29.1155 13.2711 28.9448 13.3073C28.8731 13.3148 28.8023 13.3294 28.7335 13.3511C28.5437 13.3874 28.3607 13.4252 28.1781 13.476L28.1551 13.482C27.9951 13.5146 27.8364 13.5529 27.6791 13.5968C27.6423 13.6041 27.6062 13.6148 27.5714 13.6287C27.3182 13.6947 27.0718 13.7721 26.8442 13.8494C26.6541 13.9075 26.4649 13.9664 26.3036 14.0318C25.9805 14.1488 25.6564 14.2725 25.2792 14.4371C25.0855 14.5249 24.9016 14.6081 24.7252 14.6968C24.4845 14.8105 24.2447 14.9366 23.9612 15.086C23.782 15.1833 23.6014 15.2844 23.4666 15.369C23.2515 15.4882 23.0425 15.6184 22.8407 15.7589C22.7954 15.7834 22.7511 15.8102 22.7085 15.839C22.4534 16.0058 22.2047 16.1821 21.9629 16.3678C21.8989 16.4096 21.8371 16.4549 21.7778 16.5031C21.5262 16.6858 21.2866 16.8819 21.0507 17.0848C21.0302 17.1026 21.0099 17.1205 20.9912 17.1393C20.7032 17.3823 20.4658 17.6019 20.2584 17.8075C20.126 17.9309 20.0046 18.0544 19.879 18.1803C19.3479 18.7176 18.8555 19.2919 18.4056 19.8988C18.2627 20.0889 18.124 20.2821 17.9898 20.4785C17.7829 20.7744 17.5899 21.0851 17.3949 21.4037C17.3002 21.5655 17.2075 21.7283 17.1167 21.8923C16.9697 22.1565 16.8311 22.421 16.7133 22.6768C16.6294 22.8447 16.5529 23.0125 16.4756 23.1877L16.4312 23.2868C16.3711 23.4237 16.3116 23.5585 16.2592 23.6882C16.1164 24.0222 15.9914 24.3636 15.8846 24.7108C15.8131 24.8951 15.7521 25.0833 15.702 25.2746L15.6982 25.2883C15.5443 25.79 15.4181 26.2997 15.3199 26.8152C15.2625 27.0645 15.2197 27.3208 15.1879 27.5522C15.156 27.7837 15.1218 28.0208 15.09 28.2886C15.0617 28.5326 15.0412 28.7763 15.0272 29.0045C15.0153 29.1571 15.0082 29.3097 15.0016 29.4624V29.5338C14.9948 29.7513 14.9882 29.9628 14.9882 30.1815C14.9882 30.4005 14.9948 30.6121 15.0016 30.8295V30.9027C15.0087 31.0547 15.0153 31.2068 15.0272 31.3443C15.0412 31.5867 15.0617 31.8307 15.0933 32.1097C15.1197 32.3424 15.1477 32.5796 15.184 32.7932C15.2197 33.0423 15.2625 33.2987 15.3161 33.5269C15.4146 34.0509 15.5419 34.569 15.6975 35.0788V35.0907C15.7531 35.2699 15.8079 35.4484 15.8626 35.607C15.9745 35.9675 16.1043 36.3222 16.2515 36.6698C16.3074 36.8087 16.3669 36.9435 16.4273 37.0803L16.4714 37.1794C16.5487 37.3547 16.6255 37.5225 16.7014 37.6734C16.8272 37.945 16.9659 38.2098 17.1108 38.4716C17.2018 38.6385 17.2958 38.8038 17.3928 38.9673C17.6196 39.3502 17.8332 39.6805 18.0387 39.9634C18.5812 40.7531 19.1912 41.4943 19.8617 42.1785C19.9939 42.3178 20.126 42.4501 20.2438 42.5546C20.4836 42.7879 20.7297 43.0173 20.9829 43.2288C21.0019 43.2482 21.0225 43.2669 21.0436 43.2842C21.2847 43.4907 21.5327 43.6892 21.7871 43.8792C21.8415 43.9232 21.8983 43.9646 21.957 44.0027C22.1971 44.1868 22.444 44.3619 22.6972 44.5275C22.7422 44.5582 22.7883 44.5864 22.8362 44.612C23.0249 44.7449 23.2209 44.8672 23.4232 44.9783C23.5955 45.0893 23.7761 45.1872 23.998 45.3089C24.2387 45.4365 24.4794 45.5627 24.7062 45.6698C24.8957 45.765 25.0802 45.8483 25.3333 45.9632C25.6505 46.1006 25.9745 46.2244 26.2765 46.3333C26.4589 46.4068 26.6481 46.4656 26.8219 46.5183C27.0574 46.5974 27.295 46.6699 27.5345 46.7358C27.5725 46.7502 27.6116 46.7616 27.6514 46.7697C27.8207 46.8165 27.982 46.8575 28.1519 46.8911L28.1747 46.8971C28.3366 46.942 28.5009 46.9785 28.6666 47.0063C28.7559 47.0337 28.8472 47.0535 28.9397 47.0658C29.1102 47.1021 29.2872 47.1318 29.4782 47.1568C30.0077 47.2447 30.5414 47.3048 31.0772 47.3368C31.1837 47.3439 31.2914 47.3472 31.3786 47.3499C31.6431 47.3645 31.9073 47.371 32.1673 47.371C32.4271 47.371 32.696 47.3645 32.9206 47.3514C33.0349 47.3514 33.1507 47.3439 33.2512 47.3368C33.7957 47.3041 34.3378 47.2432 34.8757 47.1535C35.0456 47.1285 35.2209 47.1021 35.3914 47.0658C35.4625 47.0583 35.5327 47.0438 35.6011 47.022C35.7907 46.9857 35.9736 46.9479 36.1563 46.8971L36.1792 46.8911C36.3392 46.8586 36.498 46.8203 36.6552 46.7762C36.6921 46.7691 36.7282 46.7584 36.763 46.7444C37.0162 46.6784 37.2628 46.6011 37.4902 46.5237C37.6806 46.4656 37.8695 46.4068 38.0307 46.3413C38.3539 46.2243 38.6779 46.1006 39.054 45.9366C39.2482 45.8483 39.4328 45.765 39.6086 45.6763C39.849 45.5627 40.0897 45.4365 40.3733 45.2871C40.5523 45.1898 40.733 45.0887 40.8677 45.0042C41.0825 44.8852 41.2909 44.7552 41.4923 44.6147C41.5378 44.5902 41.582 44.5633 41.6247 44.5341C41.8799 44.3672 42.1288 44.1908 42.3709 44.0053C42.4347 43.9647 42.4963 43.9206 42.5553 43.8733C42.807 43.6909 43.0462 43.4945 43.2822 43.2916C43.3028 43.2737 43.3233 43.2559 43.3416 43.2375C43.5891 43.0276 43.829 42.8088 44.0608 42.5817C44.0695 42.5742 44.0769 42.5659 44.0846 42.5579L44.09 42.5531C44.2166 42.4382 44.3388 42.3185 44.4563 42.1944C45.1261 41.5115 45.7355 40.772 46.2777 39.984C46.4925 39.6879 46.7062 39.3573 46.935 38.9706C47.0298 38.809 47.1225 38.6462 47.2132 38.4823C47.3599 38.2178 47.4988 37.9533 47.6163 37.6977C47.7003 37.5296 47.777 37.3618 47.8543 37.1866L47.8987 37.0875C47.9588 36.9506 48.0183 36.8159 48.0704 36.6864C48.2167 36.3427 48.3453 35.9916 48.4556 35.6346C48.5178 35.4555 48.5729 35.277 48.6276 35.0999L48.6315 35.086C48.7855 34.5845 48.9118 34.0748 49.0097 33.5594C49.0671 33.31 49.1102 33.0536 49.1417 32.8224C49.1736 32.5909 49.2081 32.3535 49.2396 32.086C49.2682 31.842 49.2887 31.5981 49.3018 31.3702C49.3143 31.2181 49.3209 31.0661 49.3283 30.914V30.8406C49.3348 30.623 49.3414 30.4115 49.3414 30.1928C49.3414 29.9742 49.3494 29.7572 49.3429 29.5397ZM46.1462 30.1874L47.7624 27.2793C47.7949 27.4431 47.8284 27.6097 47.8523 27.7816C47.8868 27.989 47.9106 28.2026 47.9388 28.4465C47.9641 28.6653 47.9831 28.8849 47.9962 29.1187C48.0081 29.2551 48.0141 29.3909 48.0215 29.5814C48.0281 29.7864 48.034 29.9845 48.034 30.1902C48.034 30.3958 48.0281 30.5942 48.0201 30.8513C48.0145 30.9924 48.0064 31.1335 47.9957 31.2743C47.9822 31.5058 47.962 31.7368 47.935 31.967C47.9106 32.1753 47.8868 32.3886 47.8489 32.6141C47.8264 32.7688 47.7942 32.9334 47.7618 33.0979L46.1462 30.1874ZM44.8811 20.696C45.0146 20.8747 45.1447 21.056 45.2712 21.2398C45.4616 21.5121 45.638 21.7966 45.8041 22.072C45.893 22.2262 45.9823 22.3795 46.0683 22.5348C46.2004 22.7722 46.3242 23.0093 46.4458 23.2705C46.5205 23.4198 46.5887 23.5693 46.6565 23.7245L46.7014 23.8257C46.7559 23.9486 46.81 24.0688 46.8642 24.2024C46.9976 24.5203 47.1159 24.8444 47.2185 25.1735C47.2441 25.2494 47.2672 25.3268 47.2917 25.4029L45.0007 29.5267H39.1697L37.5172 26.5523L36.2316 24.2387L37.5166 21.9254L39.1692 18.951H43.3617C43.4152 19.0039 43.4681 19.0515 43.525 19.1117C44.014 19.607 44.4672 20.1365 44.8811 20.696H44.8811ZM35.0862 35.4756H29.2549L27.6024 32.5011L26.317 30.1875L27.6018 27.8743L29.2543 24.8998H35.0856L36.7381 27.8742L38.0243 30.1875L36.7393 32.5011L35.0862 35.4756ZM38.5161 15.6461C38.6937 15.7267 38.863 15.8019 39.0493 15.8959C39.2737 16.0015 39.4962 16.1194 39.7521 16.2542C39.902 16.3354 40.0541 16.416 40.2373 16.5317C40.4234 16.6348 40.6037 16.7481 40.7774 16.8709C40.8036 16.8894 40.877 16.9338 40.9062 16.9483C41.143 17.103 41.3737 17.267 41.5976 17.4398C41.6247 17.4604 41.6925 17.5122 41.7223 17.5285C41.7309 17.535 41.7785 17.5728 41.7886 17.5787C41.811 17.5951 41.8315 17.6151 41.8547 17.6318H39.1698L37.9362 15.4061C38.1234 15.4776 38.3138 15.5534 38.5161 15.6461ZM28.5351 14.7488C28.6833 14.7071 28.8306 14.6789 29.0474 14.6333C29.0688 14.6265 29.0912 14.6215 29.1135 14.6182C29.1403 14.6155 29.167 14.6113 29.1934 14.6054C29.344 14.5718 29.5003 14.5495 29.7022 14.5197C30.1884 14.4391 30.6784 14.384 31.1703 14.3549C31.2485 14.3498 31.3316 14.3439 31.4705 14.3412C31.6094 14.3384 31.7448 14.3305 31.9332 14.3287C32.0111 14.3239 32.0959 14.3239 32.1706 14.3239C32.2453 14.3239 32.3303 14.3239 32.4547 14.3305C32.5922 14.3305 32.7291 14.3305 32.9239 14.3439C33.0079 14.3439 33.0912 14.3498 33.1727 14.3558C33.6808 14.3862 34.1869 14.4435 34.6889 14.5275C34.8395 14.5495 34.9957 14.5718 35.1462 14.6054C35.1727 14.6113 35.1995 14.6155 35.2262 14.6182C35.2709 14.6256 35.3149 14.636 35.3583 14.6491C35.5125 14.6789 35.6597 14.7071 35.8079 14.7488L35.829 14.7541C35.8537 14.7625 35.8787 14.7691 35.9043 14.7741C35.9703 14.7872 36.0367 14.8065 36.1028 14.8223L38.0242 18.2897L37.4902 19.2517L35.0861 23.5777H29.2548L26.851 19.2507L26.317 18.2897L28.2403 14.8229C28.3062 14.8072 28.3726 14.7878 28.4387 14.7747C28.4642 14.7698 28.4894 14.7632 28.514 14.7547L28.5351 14.7488ZM22.6523 17.4926C22.682 17.4763 22.7107 17.4578 22.7377 17.437C22.9624 17.2626 23.1923 17.1008 23.4747 16.9175C23.5037 16.9031 23.5315 16.8866 23.558 16.8681C23.744 16.7371 23.9371 16.6164 24.1364 16.5066C24.281 16.4132 24.433 16.3326 24.6148 16.2341C24.8389 16.1166 25.0617 15.9987 25.2982 15.8865C25.472 15.7991 25.6413 15.7238 25.8609 15.6221C26.0332 15.5474 26.2176 15.4807 26.3982 15.4111L25.1715 17.6289H22.4818C22.5115 17.6063 22.5381 17.5845 22.569 17.5628L22.6523 17.4926ZM17.1304 25.1535C17.2257 24.8456 17.3393 24.535 17.4816 24.1943C17.5318 24.0702 17.5859 23.95 17.6401 23.8269L17.685 23.7256C17.7511 23.5703 17.8214 23.421 17.9046 23.2538C18.0176 23.0107 18.1417 22.7732 18.2753 22.5326C18.3586 22.3794 18.4479 22.2261 18.5318 22.0806C18.7029 21.7965 18.8796 21.5121 19.073 21.2359C19.1989 21.0519 19.3286 20.8705 19.4619 20.6917C19.8749 20.1346 20.3266 19.6072 20.8135 19.1134C20.8656 19.0613 20.9251 19.0045 20.9793 18.9509H25.1716L26.8236 21.9253L28.1094 24.2386L26.8246 26.5522L25.1721 29.5266H19.3402L17.0453 25.396C17.0697 25.3208 17.0962 25.2421 17.1304 25.1535ZM16.5785 33.0958C16.5461 32.9319 16.5125 32.7652 16.4887 32.5936C16.4544 32.3859 16.4306 32.1726 16.402 31.9286C16.3764 31.7052 16.3572 31.481 16.3446 31.2564C16.3333 31.1241 16.3268 30.9848 16.3193 30.7938C16.3128 30.5915 16.3068 30.3931 16.3068 30.1875C16.3068 29.9818 16.3128 29.7837 16.3209 29.5267C16.3268 29.3898 16.3327 29.2535 16.3452 29.1024C16.3577 28.8834 16.3771 28.6641 16.4059 28.4094C16.4306 28.2015 16.4545 27.9878 16.4919 27.7622C16.5145 27.6078 16.547 27.4431 16.5791 27.2785L18.1947 30.1874L16.5785 33.0958ZM19.1233 39.2047C18.9329 38.9402 18.7406 38.6447 18.5372 38.3005C18.4469 38.1475 18.3588 37.9933 18.2727 37.8379C18.1406 37.6005 18.0167 37.3633 17.8954 37.1021C17.8208 36.9527 17.7526 36.8034 17.6844 36.6481L17.6395 36.5469C17.5854 36.424 17.5312 36.3035 17.4768 36.1702C17.3432 35.8523 17.2251 35.5282 17.1227 35.199C17.0968 35.1232 17.0736 35.0458 17.0492 34.9696L19.3402 30.8486H25.1715L26.8237 33.8229L28.1093 36.1363L26.8246 38.4499L25.1721 41.4242H20.9787C20.9257 41.3713 20.8731 41.3237 20.8174 41.2657C20.1943 40.6294 19.6274 39.9402 19.1233 39.2059V39.2047ZM25.8252 44.7325C25.6478 44.6519 25.4788 44.5758 25.2902 44.4814C25.0661 44.3761 24.8436 44.2586 24.5883 44.1238C24.4384 44.0423 24.2863 43.9616 24.1034 43.8462C23.9175 43.7431 23.7374 43.6298 23.564 43.507C23.5359 43.4879 23.4646 43.4448 23.4315 43.4297C23.195 43.2743 22.965 43.1125 22.7404 42.9378C22.7145 42.9182 22.6425 42.8646 22.6139 42.848C22.6053 42.842 22.5592 42.8052 22.5479 42.7992C22.5256 42.7825 22.505 42.7629 22.4818 42.7462H25.1688L26.402 44.9697C26.2218 44.8976 26.0272 44.8218 25.8252 44.7325ZM35.8058 45.626C35.658 45.6677 35.5104 45.6963 35.2938 45.7417C35.2721 45.7486 35.25 45.7537 35.2275 45.757C35.2007 45.7596 35.1738 45.7638 35.1477 45.7695C34.9969 45.8034 34.8409 45.8257 34.6386 45.8554C34.1525 45.9359 33.6625 45.9908 33.1706 46.0199C33.0926 46.0252 33.0093 46.0313 32.8897 46.0319C32.3997 46.0586 31.9085 46.0586 31.4185 46.0319C31.3342 46.0319 31.2509 46.0259 31.1697 46.02C30.6616 45.9896 30.1555 45.9323 29.6535 45.8483C29.5027 45.8262 29.3468 45.804 29.1962 45.7703C29.1698 45.7644 29.1431 45.7602 29.1162 45.7575C29.0714 45.75 29.0272 45.7397 28.9837 45.7266C28.8299 45.6969 28.6824 45.6685 28.5344 45.6269L28.5133 45.6215C28.4886 45.6133 28.4634 45.6066 28.4378 45.6016C28.3717 45.5886 28.3057 45.5692 28.2396 45.5535L26.317 42.0851L26.8511 41.1235L29.2548 36.7974H35.0861L37.4902 41.1241L38.0242 42.0851L36.1007 45.5522C36.0346 45.568 35.9686 45.587 35.9025 45.6004C35.8769 45.6052 35.8517 45.6118 35.827 45.6201L35.8058 45.626ZM41.6841 42.8837C41.655 42.8997 41.6276 42.9176 41.6014 42.9378C41.3768 43.1125 41.1465 43.2744 40.8683 43.455C40.838 43.4702 40.8085 43.4877 40.7806 43.507C40.5947 43.6379 40.4018 43.7586 40.2027 43.8685C40.0581 43.9616 39.9061 44.0422 39.7243 44.1402C39.5009 44.2586 39.278 44.3761 39.04 44.4885C38.8656 44.5758 38.6964 44.6519 38.4782 44.7531C38.3057 44.8277 38.1212 44.8944 37.9409 44.9637L39.1697 42.7462H41.8591C41.8294 42.7688 41.8029 42.7905 41.7719 42.8122L41.6841 42.8837ZM47.2111 35.2217C47.1159 35.5296 47.0022 35.8402 46.8603 36.1806C46.81 36.305 46.7559 36.4251 46.7014 36.548L46.6565 36.6492C46.5904 36.8046 46.5205 36.9539 46.4372 37.1214C46.3241 37.3644 46.1997 37.6019 46.0662 37.8423C45.9832 37.9958 45.8939 38.1491 45.8073 38.2985C45.6011 38.6462 45.4107 38.9428 45.2122 39.2193C44.7079 39.9519 44.141 40.6395 43.5181 41.2743C43.4705 41.3243 43.4218 41.374 43.3714 41.4243H39.1697L37.5172 38.4499L36.2316 36.1363L37.5166 33.823L39.1692 30.8486H45.0001L47.2899 34.9705C47.2647 35.0536 47.2408 35.1309 47.2105 35.2217H47.2111Z" fill="#2C3E50"/>
</g>
<defs>
<clipPath id="clip0_27_654">
<rect width="39" height="39" fill="white" transform="translate(13 13)"/>
</clipPath>
</defs>
</svg>
