<svg width="46" height="46" viewBox="0 0 46 46" fill="none" xmlns="http://www.w3.org/2000/svg">
<rect width="46" height="46" rx="23" fill="white"/>
<path d="M24.5175 25.8963C24.2438 25.4995 24.1263 25.0157 24.1875 24.5375C24.1983 24.4546 24.2037 24.3711 24.2038 24.2875C24.2038 23.8916 24.0832 23.5051 23.8582 23.1794L15.6138 11.2325C15.4632 11.0136 15.271 10.8265 15.0481 10.6818C14.8252 10.5372 14.576 10.4378 14.3147 10.3895C14.0535 10.3411 13.7852 10.3447 13.5253 10.4001C13.2654 10.4554 13.019 10.5613 12.8 10.7119C12.5811 10.8625 12.394 11.0547 12.2493 11.2776C12.1047 11.5005 12.0053 11.7497 11.957 12.011C11.9086 12.2722 11.9122 12.5405 11.9676 12.8004C12.0229 13.0603 12.1289 13.3067 12.2794 13.5257L17.6613 21.3244L22.9225 27.6894C23.1094 26.9625 23.9313 26.4619 24.9 26.4507L24.5175 25.8963Z" fill="#C79A83"/>
<path d="M19.5362 21.3245L14.1544 13.5257C14.0035 13.3072 13.8972 13.0611 13.8416 12.8015C13.786 12.5419 13.7822 12.2738 13.8304 12.0127C13.8786 11.7516 13.9778 11.5026 14.1224 11.2799C14.267 11.0572 14.4542 10.8653 14.6731 10.7151C14.741 10.6687 14.8116 10.6263 14.8845 10.5884C14.4843 10.3779 14.0251 10.3076 13.5803 10.3888C13.1355 10.47 12.7308 10.6979 12.4308 11.0362C12.1308 11.3745 11.9528 11.8036 11.9254 12.2549C11.8979 12.7063 12.0226 13.1537 12.2794 13.5259L17.6612 21.3246L22.9225 27.6896C23.0419 27.2251 23.4209 26.8533 23.9317 26.6422L19.5362 21.3245Z" fill="#A07C6B"/>
<path d="M23.8194 37.4419C25.1631 37.4419 26.2525 36.3526 26.2525 35.0088C26.2525 33.665 25.1631 32.5757 23.8194 32.5757C22.4756 32.5757 21.3862 33.665 21.3862 35.0088C21.3862 36.3526 22.4756 37.4419 23.8194 37.4419Z" fill="#F2CD6D"/>
<path d="M26.7356 32.7676L30.1193 34.6001L28.6825 35.5882L26.7356 32.7676Z" fill="#AF826E"/>
<path d="M30.1194 34.6001L31.6419 35.4245C31.5547 35.7321 31.3625 35.9994 31.0988 36.1801L30.1125 36.8582C29.8121 37.0648 29.442 37.1437 29.0835 37.0777C28.725 37.0118 28.4072 36.8063 28.2 36.5063C28.1442 36.4262 28.1143 36.3309 28.1144 36.2332C28.1143 36.1548 28.1333 36.0776 28.1698 36.0082C28.2062 35.9389 28.2591 35.8794 28.3238 35.8351L28.6825 35.5882L30.1194 34.6001Z" fill="#C79A83"/>
<path d="M29.4138 23.605V23.6056L27.9413 26.7943L27.1094 26.8481L26.01 26.6131L27.7525 22.8406C28.2522 23.1994 28.8162 23.4589 29.4138 23.605Z" fill="#516061"/>
<path d="M25.5825 26.5219L24.4063 32.0057L24.3794 32.0001C24.1563 31.9526 23.07 32.0063 22.5457 31.1207C22.9312 30.0206 23.0601 28.847 22.9225 27.6894C23.1094 26.9626 23.9313 26.4619 24.9 26.4507C25.1203 26.4479 25.3403 26.4699 25.5557 26.5163L25.5825 26.5219Z" fill="#4689D3"/>
<path d="M27.1094 26.8482L26.6619 28.9363L26.3638 30.3251L25.9331 32.3326L24.4062 32.0057L25.5825 26.522L26.01 26.6132L27.1094 26.8482Z" fill="#5FA8ED"/>
<path d="M35.3056 35.145C35.3293 35.1783 35.3445 35.2169 35.3499 35.2575C35.3554 35.298 35.351 35.3393 35.3371 35.3777C35.3231 35.4162 35.3001 35.4507 35.2699 35.4783C35.2397 35.5059 35.2033 35.5257 35.1637 35.5362L33.5344 35.975C33.1591 36.0762 32.7593 36.0294 32.4175 35.8443L31.6419 35.4243L30.1194 34.6L26.7356 32.7675V32.7668L25.9331 32.3325L26.3637 30.325L33.4562 32.8962C33.686 32.9806 33.8849 33.1324 34.0269 33.3318L35.3056 35.145Z" fill="#C1D1E5"/>
<path d="M36.6094 31.4307C36.6409 31.4589 36.6648 31.4946 36.679 31.5344C36.6932 31.5742 36.6972 31.617 36.6907 31.6588C36.6842 31.7006 36.6673 31.7401 36.6417 31.7737C36.616 31.8073 36.5824 31.834 36.5438 31.8513L33.7313 33.0394C33.6463 32.9799 33.5538 32.9317 33.4563 32.8963L26.3638 30.325L26.6619 28.9363L34.1656 29.4875C34.3043 29.4975 34.4437 29.4833 34.5775 29.4457L36.6094 31.4307Z" fill="#D4E1F4"/>
<path d="M36.8419 27.6545C36.875 27.6791 36.9016 27.7113 36.9195 27.7485C36.9374 27.7856 36.946 27.8266 36.9445 27.8678C36.943 27.909 36.9315 27.9493 36.9111 27.9851C36.8906 28.0208 36.8617 28.0511 36.8269 28.0732L34.8981 29.3026C34.7989 29.3659 34.6909 29.4142 34.5775 29.4457C34.4437 29.4834 34.3043 29.4976 34.1656 29.4876L26.6619 28.9364L27.1094 26.8482L27.9412 26.7945L34.4887 26.372C34.8519 26.3445 35.2128 26.4486 35.5056 26.6651L36.8419 27.6545Z" fill="#C1D1E5"/>
<path d="M12.9844 30.9364L9.92624 33.9889C8.70963 32.779 7.93896 31.1925 7.73999 29.4883C8.66477 29.2562 9.6339 29.2676 10.553 29.5214C11.472 29.7752 12.3097 30.2627 12.9844 30.9364Z" fill="#EA8E60"/>
<path d="M12.9844 30.9363C13.6589 31.6084 14.1472 32.4442 14.4015 33.3618C14.6558 34.2793 14.6673 35.2473 14.435 36.1707C12.729 35.9728 11.14 35.2039 9.92627 33.9888L12.9844 30.9363Z" fill="#D8825B"/>
<path d="M15.3319 28.5933L20.7369 33.9889C19.9198 34.8053 18.9281 35.4259 17.8366 35.8038C16.7451 36.1817 15.582 36.3072 14.435 36.1708C14.6673 35.2474 14.6557 34.2795 14.4015 33.3619C14.1472 32.4443 13.6589 31.6085 12.9844 30.9364L15.3319 28.5933Z" fill="#CE7B51"/>
<path d="M15.3319 28.5931L12.9844 30.9363C12.3097 30.2625 11.4721 29.775 10.553 29.5212C9.63392 29.2675 8.66479 29.2561 7.74001 29.4881C7.60378 28.3425 7.72981 27.1808 8.10856 26.091C8.48731 25.0012 9.10888 24.0118 9.92626 23.1975L15.3319 28.5931Z" fill="#DF8A59"/>
<path d="M22.9225 27.6894C23.06 28.8364 22.9347 29.9996 22.556 31.091C22.1773 32.1824 21.5553 33.1734 20.7369 33.9887L15.3319 28.5931L17.6894 26.24C18.3627 26.9121 19.1982 27.3989 20.115 27.653C21.0318 27.9072 21.9987 27.9201 22.9219 27.6906C22.9219 27.69 22.9219 27.69 22.9225 27.6894Z" fill="#BA6847"/>
<path d="M17.6894 26.2401L15.3319 28.5932L9.92627 23.1976C10.7442 22.38 11.737 21.7588 12.83 21.3809C13.9229 21.0029 15.0874 20.8781 16.2356 21.0157V21.0164C16.0057 21.9385 16.0188 22.9044 16.2736 23.82C16.5284 24.7355 17.0162 25.5693 17.6894 26.2401Z" fill="#CC764C"/>
<path d="M20.7369 23.1975L17.6894 26.24C17.0162 25.5692 16.5284 24.7354 16.2736 23.8198C16.0188 22.9043 16.0058 21.9384 16.2357 21.0162V21.0156C17.9385 21.2168 19.5241 21.9854 20.7369 23.1975Z" fill="#BF6743"/>
<path d="M22.9225 27.6894C22.9218 27.69 22.9218 27.69 22.9218 27.6906C21.9986 27.9202 21.0317 27.9072 20.1149 27.653C19.1982 27.3989 18.3626 26.9121 17.6893 26.24L20.7368 23.1975C21.9509 24.4056 22.7211 25.9885 22.9225 27.6894Z" fill="#AD5A3D"/>
<path d="M9.60412 29.3483C8.9793 29.2893 8.349 29.3366 7.73999 29.4883C7.93896 31.1925 8.70963 32.779 9.92624 33.9889L10.9462 32.9708C10.221 31.9384 9.76478 30.7414 9.61874 29.4883C9.61312 29.4417 9.60874 29.395 9.60412 29.3483Z" fill="#C17A5B"/>
<path d="M16.2407 21.0258C16.2414 21.0226 16.25 21.0195 16.25 21.0164V21.0158C15.1007 20.8777 13.935 21.0024 12.8408 21.3803C11.7467 21.7582 10.7526 22.3796 9.93347 23.1976L10.9527 24.2185C11.2097 23.854 11.4978 23.5124 11.8138 23.1976C13.0082 22.0034 14.5652 21.2394 16.2407 21.0258Z" fill="#AA6549"/>
<path d="M10.9462 32.9708L9.92627 33.9888C11.14 35.2039 12.729 35.9728 14.435 36.1707C14.4705 36.0282 14.5002 35.8843 14.5241 35.7395C13.0801 35.1975 11.8332 34.2325 10.9462 32.9707V32.9708Z" fill="#B26B4F"/>
<path d="M10.949 24.2184L9.92626 23.1975C9.10888 24.0118 8.48731 25.0012 8.10856 26.091C7.72981 27.1808 7.60378 28.3425 7.74001 29.4881C8.34901 29.3365 8.97931 29.2892 9.60413 29.3482C9.42324 27.5324 9.9005 25.7119 10.949 24.2184Z" fill="#B27252"/>
<path d="M36.659 16.3445L36.9795 15.648L35.5475 14.9891L36.1395 13.7069L36.5573 13.8991L36.8778 13.2026L36.4609 13.0109L36.6583 12.5834L36.1562 11.8126L35.7644 12.6904L34.196 11.9689L34.7783 10.7077L34.0822 10.3862L33.4994 11.6482L31.9312 10.9266L32.2648 10.1777H31.4322L31.2344 10.6064L30.8187 10.4151L30.4982 11.1116L30.913 11.3024L30.321 12.5845L28.8897 11.9259L28.5693 12.6225L29.9997 13.2805L29.4075 14.5626L27.6611 13.7591L27.3406 14.4557L29.0861 15.2587L28.494 16.5409L26.9875 15.8477L26.667 16.5443L28.1732 17.2372L27.5812 18.5194L26.9255 18.2177L26.6051 18.9142L27.2597 19.2154L26.9104 19.9722L27.6064 20.2935L27.9564 19.5359L29.5252 20.2575L28.7908 21.848L29.4869 22.1694L30.2217 20.578L31.7901 21.2996L31.4401 22.0578L32.1362 22.3792L32.4867 21.6201L33.144 21.9225L33.4645 21.226L32.8082 20.924L33.4003 19.6418L34.9253 20.3435L35.2458 19.647L33.7215 18.9457L34.3125 17.6635L36.0589 18.467L36.3794 17.7705L34.6339 16.9674L35.226 15.6852L36.659 16.3445ZM35.443 13.3864L34.8509 14.6689L33.2822 13.9472L33.8742 12.665L35.443 13.3864ZM31.6095 11.6227L33.1783 12.3444L32.5862 13.6265L31.0175 12.9049L31.6095 11.6227ZM30.6961 13.601L32.2649 14.3227L31.6729 15.6049L30.1041 14.8832L30.6961 13.601ZM29.7826 15.5793L31.3514 16.3009L30.7593 17.5831L29.1906 16.8615L29.7826 15.5793ZM28.2771 18.8398L28.8692 17.5576L30.4375 18.2792L29.8455 19.5614L28.2771 18.8398ZM32.1105 20.6035L30.5418 19.8819L31.1339 18.5997L32.7026 19.3213L32.1105 20.6035ZM33.024 18.6251L31.4553 17.9035L32.0474 16.6213L33.6161 17.3429L33.024 18.6251ZM33.9375 16.6469L32.3687 15.9253L32.9608 14.6431L34.5295 15.3647L33.9375 16.6469Z" fill="#516C94"/>
<path d="M13.4521 12.9136C13.3903 12.9137 13.3293 12.8985 13.2748 12.8693C13.2203 12.8401 13.1738 12.7979 13.1396 12.7463L13.0682 12.6391C13.0401 12.5981 13.0204 12.552 13.0102 12.5033C13.0001 12.4546 12.9997 12.4045 13.0091 12.3557C13.0185 12.3068 13.0376 12.2604 13.0651 12.219C13.0927 12.1776 13.1281 12.1421 13.1695 12.1146C13.2109 12.0871 13.2573 12.068 13.3061 12.0586C13.3549 12.0491 13.4051 12.0495 13.4538 12.0596C13.5025 12.0698 13.5486 12.0895 13.5896 12.1176C13.6306 12.1458 13.6655 12.1818 13.6925 12.2235L13.7639 12.3308C13.8015 12.3872 13.8231 12.4528 13.8263 12.5206C13.8296 12.5883 13.8144 12.6557 13.7824 12.7155C13.7504 12.7753 13.7028 12.8253 13.6446 12.8602C13.5865 12.8951 13.5199 12.9135 13.4521 12.9136ZM16.7585 17.8807C16.6967 17.8807 16.6358 17.8655 16.5813 17.8363C16.5267 17.8072 16.4803 17.7649 16.446 17.7134L13.7732 13.6982C13.7193 13.6154 13.7004 13.5147 13.7203 13.418C13.7403 13.3213 13.7976 13.2364 13.8797 13.1816C13.9619 13.1269 14.0624 13.1068 14.1593 13.1257C14.2562 13.1446 14.3418 13.2009 14.3974 13.2825L17.0703 17.2978C17.1079 17.3543 17.1294 17.4199 17.1327 17.4876C17.136 17.5554 17.1208 17.6227 17.0888 17.6825C17.0568 17.7423 17.0092 17.7923 16.951 17.8272C16.8929 17.8621 16.8264 17.8806 16.7585 17.8807Z" fill="#F4F8FC"/>
<path d="M36.7713 15.8776C36.8859 15.0808 36.8525 14.2697 36.6726 13.4851C36.5826 13.1032 36.4492 12.7329 36.2751 12.3813C35.8682 11.5676 35.2476 10.9207 34.4363 10.5469C34.4357 10.5469 34.4357 10.5463 34.4351 10.5463C33.6232 10.1732 32.7269 10.1226 31.8432 10.3432C31.4629 10.4393 31.0949 10.5785 30.7463 10.7582H30.7457C30.0316 11.131 29.3922 11.632 28.8594 12.2363C28.3784 12.7762 27.9744 13.3801 27.6588 14.0307C27.6326 14.0832 27.6076 14.1369 27.5826 14.1907C27.3049 14.7895 27.1029 15.4206 26.9813 16.0694C26.8338 16.8352 26.819 17.6206 26.9376 18.3913C27.0197 18.9236 27.1822 19.4403 27.4194 19.9238C27.8263 20.7376 28.4469 21.3844 29.2582 21.7582C29.2588 21.7582 29.2588 21.7588 29.2594 21.7588C30.0701 22.1319 30.9657 22.1832 31.8501 21.9638V21.9632C32.3731 21.8299 32.8728 21.6177 33.3319 21.3338H33.3326C33.9974 20.9222 34.5868 20.3996 35.0751 19.7888C35.489 19.2761 35.8375 18.7139 36.1125 18.1151C36.1376 18.0613 36.1613 18.0076 36.1844 17.9538C36.475 17.2922 36.6725 16.5934 36.7713 15.8776ZM35.1488 9.00381C38.2182 10.4157 39.2282 14.7613 37.4051 18.7101C35.7494 22.2951 32.3269 24.3201 29.4138 23.6057V23.6051C28.8162 23.459 28.2523 23.1995 27.7526 22.8407C25.3151 21.0944 24.6344 17.1813 26.2901 13.5963C28.1132 9.64756 32.0794 7.59193 35.1488 9.00381Z" fill="#353F40"/>
</svg>
