<svg width="46" height="46" viewBox="0 0 46 46" fill="none" xmlns="http://www.w3.org/2000/svg">
<rect width="46" height="46" rx="23" fill="white"/>
<path fill-rule="evenodd" clip-rule="evenodd" d="M24.5129 29.6721V30.5245C24.5129 31.4949 23.657 32.2891 22.6109 32.2891C21.5648 32.2891 20.7089 31.4949 20.7089 30.5245V29.6721H24.5129Z" fill="#5170ED"/>
<path fill-rule="evenodd" clip-rule="evenodd" d="M26.0699 27.1274V29.0277C26.0699 29.5279 25.6296 29.9347 25.0925 29.9347H20.1278C19.5907 29.9347 19.1504 29.5279 19.1504 29.0277V27.1274H26.0699Z" fill="#8399FE"/>
<path fill-rule="evenodd" clip-rule="evenodd" d="M22.6109 13.1987C26.4519 13.1987 29.5674 16.2472 29.5674 20.0072C29.5674 24.0648 26.9045 24.0543 26.9045 26.5498C26.9045 26.9725 26.5505 27.3177 26.119 27.3177H19.101C18.6695 27.3177 18.3173 26.9725 18.3173 26.5498C18.3173 24.0543 15.6544 24.0648 15.6544 20.0072C15.6545 16.2473 18.7682 13.1987 22.6109 13.1987Z" fill="#FDD835"/>
<path fill-rule="evenodd" clip-rule="evenodd" d="M19.5466 26.0989C19.5114 25.8576 19.4497 25.6427 19.3652 25.4438C19.1151 24.845 18.6784 24.3941 18.2416 23.857C17.988 23.5471 17.7362 23.2089 17.5213 22.7969C17.1691 22.1259 16.9155 21.2612 16.9155 20.0072C16.9155 16.4551 19.6946 13.5386 23.2415 13.2269C23.0318 13.2086 22.8214 13.1992 22.611 13.1987C18.7682 13.1987 15.6545 16.2472 15.6545 20.0072C15.6545 21.2612 15.9082 22.1259 16.2604 22.7969C16.4753 23.2089 16.7271 23.5471 16.9789 23.857C17.5619 24.572 18.1448 25.1356 18.2857 26.099C18.3051 26.2399 18.3175 26.3895 18.3175 26.5498C18.3175 26.7171 18.3721 26.8738 18.4671 27.0006C18.5408 27.0992 18.6365 27.1792 18.7466 27.2342C18.8567 27.2892 18.9781 27.3178 19.1012 27.3177H20.3639C20.1747 27.3179 19.9916 27.2505 19.8478 27.1275C19.6823 26.9866 19.5784 26.7805 19.5784 26.5498C19.5783 26.3895 19.5677 26.2398 19.5466 26.0989Z" fill="#FBC02D"/>
<path fill-rule="evenodd" clip-rule="evenodd" d="M20.3637 27.3176H19.1503V29.0277C19.1503 29.5278 19.5906 29.9346 20.1277 29.9346H21.3904C21.1262 29.9346 20.8849 29.8378 20.7089 29.6775C20.5257 29.512 20.4112 29.283 20.4112 29.0277V27.3176H20.3637Z" fill="#728BF1"/>
<path fill-rule="evenodd" clip-rule="evenodd" d="M21.3905 29.9346H20.709V30.5245C20.709 31.4949 21.5649 32.2892 22.611 32.2892C22.6938 32.2892 22.7748 32.2839 22.8558 32.2733C22.9869 32.2581 23.1161 32.2298 23.2415 32.1888C23.1484 32.1581 23.0577 32.1204 22.9702 32.0761C22.8421 32.0118 22.7215 31.9332 22.6109 31.8419C22.2182 31.5178 21.9699 31.0476 21.9699 30.5245V29.9346H21.3905Z" fill="#4A68E0"/>
<path fill-rule="evenodd" clip-rule="evenodd" d="M31.7671 29.8291H33.7853C36.0871 29.8291 37.9698 31.7135 37.9698 34.0153V35.3555C36.5415 36.2414 34.7381 36.7697 32.7762 36.7697C30.8143 36.7697 29.0109 36.2414 27.5826 35.3555V34.0153C27.5826 31.7135 29.4653 29.8291 31.7671 29.8291Z" fill="#FF5BA8"/>
<path fill-rule="evenodd" clip-rule="evenodd" d="M32.7762 29.8309C34.6254 29.8309 36.1329 28.3216 36.1329 26.4742C36.1329 24.625 34.6254 23.1174 32.7762 23.1174C30.927 23.1174 29.4194 24.6249 29.4194 26.4742C29.4195 28.3216 30.927 29.8309 32.7762 29.8309Z" fill="#FFAF93"/>
<path fill-rule="evenodd" clip-rule="evenodd" d="M31.7671 29.8291H32.9065C30.367 29.8291 28.2889 31.9073 28.2889 34.4468V35.7482C28.0476 35.6282 27.8119 35.4972 27.5826 35.3555V34.0153C27.5826 31.7135 29.4653 29.8291 31.7671 29.8291Z" fill="#ED4593"/>
<path fill-rule="evenodd" clip-rule="evenodd" d="M32.7762 23.1174C32.917 23.1174 33.0562 23.1262 33.1936 23.1421C31.5363 23.3481 30.2543 24.7606 30.2543 26.4742C30.2543 28.186 31.5363 29.5984 33.1936 29.8045C33.0562 29.8203 32.9171 29.8309 32.7762 29.8309C30.9217 29.8309 29.4194 28.3269 29.4194 26.4742C29.4195 24.6197 30.9217 23.1174 32.7762 23.1174Z" fill="#EE8778"/>
<path fill-rule="evenodd" clip-rule="evenodd" d="M11.2147 29.8291H13.233C15.5348 29.8291 17.4175 31.7135 17.4175 34.0153V35.3555C15.9892 36.2414 14.1858 36.7697 12.2239 36.7697C10.262 36.7697 8.45682 36.2414 7.03027 35.3555V34.0153C7.03027 31.7135 8.91292 29.8291 11.2147 29.8291Z" fill="#00D696"/>
<path fill-rule="evenodd" clip-rule="evenodd" d="M12.2239 29.8309C14.0713 29.8309 15.5806 28.3216 15.5806 26.4742C15.5806 24.625 14.0713 23.1174 12.2239 23.1174C10.3747 23.1174 8.86719 24.6249 8.86719 26.4742C8.86719 28.3216 10.3747 29.8309 12.2239 29.8309Z" fill="#FFAF93"/>
<path fill-rule="evenodd" clip-rule="evenodd" d="M11.2147 29.8291H12.3542C9.81458 29.8291 7.73649 31.9073 7.73649 34.4468V35.7482C7.4952 35.6282 7.25955 35.4972 7.03027 35.3555V34.0153C7.03027 31.7135 8.91292 29.8291 11.2147 29.8291Z" fill="#00C78B"/>
<path fill-rule="evenodd" clip-rule="evenodd" d="M12.2239 23.1174C12.3648 23.1174 12.5039 23.1262 12.6413 23.1421C10.984 23.3481 9.70019 24.7606 9.70019 26.4742C9.70019 28.186 10.984 29.5984 12.6413 29.8045C12.5039 29.8203 12.3648 29.8309 12.2239 29.8309C10.3694 29.8309 8.86719 28.3269 8.86719 26.4742C8.86719 24.6197 10.3694 23.1174 12.2239 23.1174Z" fill="#EE8778"/>
<path d="M17.1737 10.8664C17.2354 10.9639 17.256 11.0819 17.2307 11.1944C17.2055 11.307 17.1365 11.405 17.0391 11.4667C14.1204 13.3164 12.3614 16.4417 12.3091 19.8508L13.2317 18.9281C13.2721 18.8874 13.32 18.855 13.3729 18.8329C13.4258 18.8108 13.4825 18.7993 13.5398 18.7992C13.5971 18.799 13.6539 18.8102 13.7068 18.8321C13.7598 18.8539 13.808 18.8861 13.8485 18.9266C13.889 18.9671 13.9211 19.0152 13.943 19.0682C13.9649 19.1212 13.976 19.178 13.9759 19.2353C13.9758 19.2926 13.9643 19.3493 13.9422 19.4022C13.92 19.455 13.8877 19.503 13.847 19.5433L12.2091 21.1812C12.1242 21.2661 12.0128 21.3086 11.9015 21.3086C11.7901 21.3086 11.6788 21.2661 11.5938 21.1812L9.95597 19.5433C9.91525 19.503 9.88289 19.455 9.86076 19.4022C9.83863 19.3493 9.82717 19.2926 9.82703 19.2353C9.82689 19.178 9.83807 19.1212 9.85994 19.0682C9.8818 19.0152 9.91392 18.9671 9.95444 18.9266C9.99497 18.8861 10.0431 18.8539 10.0961 18.8321C10.149 18.8102 10.2058 18.799 10.2631 18.7992C10.3204 18.7993 10.3772 18.8108 10.43 18.8329C10.4829 18.855 10.5309 18.8874 10.5712 18.9281L11.4399 19.7968C11.5099 16.1091 13.4168 12.7322 16.5734 10.7319C16.6708 10.6701 16.7888 10.6496 16.9014 10.6748C17.014 10.7001 17.1119 10.769 17.1737 10.8664ZM35.2658 18.9281C35.1842 18.8465 35.0735 18.8007 34.9582 18.8007C34.8428 18.8007 34.7321 18.8465 34.6506 18.9281L33.7819 19.7968C33.7118 16.1103 31.8049 12.7334 28.6484 10.7319C28.551 10.6727 28.4343 10.6541 28.3233 10.6801C28.2124 10.7061 28.116 10.7745 28.055 10.8708C27.994 10.967 27.9732 11.0834 27.997 11.1948C28.0209 11.3063 28.0875 11.4039 28.1826 11.4667C31.1013 13.3175 32.8603 16.4429 32.9127 19.8508L31.99 18.9282C31.9497 18.8874 31.9017 18.8551 31.8488 18.833C31.796 18.8108 31.7393 18.7994 31.682 18.7992C31.6246 18.7991 31.5679 18.8103 31.5149 18.8321C31.4619 18.854 31.4138 18.8861 31.3733 18.9266C31.3327 18.9672 31.3006 19.0153 31.2788 19.0683C31.2569 19.1212 31.2457 19.178 31.2458 19.2353C31.246 19.2926 31.2575 19.3494 31.2796 19.4022C31.3017 19.4551 31.3341 19.5031 31.3748 19.5434L33.0126 21.1812C33.0976 21.2662 33.2089 21.3086 33.3203 21.3086C33.4316 21.3086 33.543 21.2662 33.6279 21.1812L35.2658 19.5434C35.3474 19.4618 35.3932 19.3511 35.3932 19.2357C35.3932 19.1204 35.3474 19.0097 35.2658 18.9281Z" fill="#C5C5F6"/>
<path d="M23.0459 8.6655V11.3054C23.0459 11.4208 23.0001 11.5314 22.9185 11.613C22.8369 11.6946 22.7263 11.7404 22.6109 11.7404C22.4955 11.7404 22.3848 11.6946 22.3033 11.613C22.2217 11.5314 22.1758 11.4208 22.1758 11.3054V8.6655C22.1758 8.55012 22.2217 8.43947 22.3033 8.35789C22.3848 8.2763 22.4955 8.23047 22.6109 8.23047C22.7263 8.23047 22.8369 8.2763 22.9185 8.35789C23.0001 8.43947 23.0459 8.55012 23.0459 8.6655ZM27.2067 9.40387C27.1663 9.36349 27.1183 9.33146 27.0655 9.30962C27.0127 9.28778 26.9562 9.27656 26.899 9.27659C26.8419 9.27661 26.7854 9.2879 26.7326 9.30979C26.6798 9.33168 26.6319 9.36375 26.5915 9.40417L24.7248 11.2728C24.6844 11.3132 24.6523 11.3611 24.6305 11.4139C24.6087 11.4667 24.5974 11.5233 24.5975 11.5804C24.5975 11.6375 24.6088 11.6941 24.6307 11.7469C24.6526 11.7996 24.6846 11.8476 24.7251 11.8879C24.7654 11.9283 24.8133 11.9604 24.8661 11.9822C24.9188 12.0041 24.9754 12.0153 25.0325 12.0152C25.0897 12.0153 25.1463 12.004 25.1991 11.9822C25.252 11.9603 25.2999 11.9281 25.3403 11.8876L27.2071 10.019C27.2474 9.97861 27.2794 9.93064 27.3013 9.87785C27.3231 9.82506 27.3343 9.76849 27.3343 9.71137C27.3342 9.65425 27.323 9.59769 27.3011 9.54493C27.2792 9.49217 27.2471 9.44423 27.2067 9.40387ZM18.6303 9.40417C18.5487 9.32255 18.4381 9.27667 18.3228 9.27662C18.2074 9.27656 18.0967 9.32233 18.0151 9.40387C17.9335 9.4854 17.8876 9.59602 17.8876 9.71138C17.8875 9.82675 17.9333 9.93741 18.0148 10.019L19.8816 11.8876C19.922 11.9281 19.9699 11.9603 20.0227 11.9822C20.0756 12.004 20.1322 12.0153 20.1894 12.0152C20.2754 12.0152 20.3595 11.9898 20.4311 11.942C20.5026 11.8942 20.5584 11.8263 20.5913 11.7468C20.6243 11.6674 20.6329 11.5799 20.6162 11.4955C20.5994 11.4111 20.558 11.3336 20.4971 11.2728L18.6303 9.40417Z" fill="#FFA000"/>
<path fill-rule="evenodd" clip-rule="evenodd" d="M23.6077 16.911C23.7803 16.9656 23.9459 17.0361 24.1043 17.1171L25.1381 16.4637L26.1666 17.4922L25.515 18.5277C25.596 18.6845 25.6647 18.8518 25.721 19.0226L26.9133 19.2938V20.7485L25.721 21.0179C25.6655 21.1886 25.5966 21.3546 25.515 21.5145L26.1666 22.5483L25.1381 23.5768L24.1043 22.9235C23.9451 23.0065 23.779 23.0755 23.6077 23.1295L23.3382 24.3235H21.8835L21.6141 23.1295C21.4429 23.0755 21.2767 23.0065 21.1175 22.9235L20.082 23.5768L19.0534 22.5484L19.7068 21.5146C19.6258 21.3561 19.5553 21.1905 19.5008 21.018L18.3085 20.7485V19.2938L19.5008 19.0227C19.5555 18.8523 19.6245 18.6867 19.7068 18.5278L19.0534 17.4923L20.082 16.4638L21.1175 17.1171C21.2767 17.0341 21.4429 16.9651 21.6141 16.9111L21.8835 15.717H23.3382L23.6077 16.911Z" fill="#8399FE"/>
<path fill-rule="evenodd" clip-rule="evenodd" d="M23.5636 23.3268L23.3382 24.3236H21.8835L21.6141 23.1296C21.4429 23.0755 21.2767 23.0066 21.1175 22.9235L20.082 23.5769L19.0534 22.5484L19.7068 21.5146C19.6258 21.3561 19.5553 21.1905 19.5008 21.018L18.3085 20.7485V19.2938L19.5008 19.0227C19.5555 18.8523 19.6245 18.6867 19.7068 18.5278L19.0534 17.4923L20.082 16.4638L21.1175 17.1171C21.2767 17.0341 21.4429 16.9651 21.6141 16.9111L21.8835 15.717H23.3382L23.5636 16.7138C21.8554 16.9481 20.5416 18.3393 20.5416 20.0212C20.5416 21.703 21.8554 23.0943 23.5636 23.3268Z" fill="#728BF1"/>
<path fill-rule="evenodd" clip-rule="evenodd" d="M22.6109 22.1575C23.7874 22.1575 24.7472 21.1978 24.7472 20.0213C24.7472 18.8432 23.7874 17.8833 22.6109 17.8833C21.4327 17.8833 20.4729 18.8431 20.4729 20.0213C20.473 21.1978 21.4328 22.1575 22.6109 22.1575Z" fill="#DEDDFF"/>
<path fill-rule="evenodd" clip-rule="evenodd" d="M22.6109 17.8833C22.6919 17.8833 22.773 17.8886 22.8522 17.8974C21.785 18.0172 20.9555 18.9224 20.9555 20.0213C20.9555 21.1203 21.785 22.0237 22.8522 22.1453C22.7721 22.1538 22.6915 22.1579 22.6109 22.1576C21.4292 22.1576 20.4729 21.2013 20.4729 20.0214C20.473 18.8396 21.4292 17.8833 22.6109 17.8833Z" fill="#C6C6F7"/>
</svg>
