<svg width="46" height="46" viewBox="0 0 46 46" fill="none" xmlns="http://www.w3.org/2000/svg">
<rect width="46" height="46" rx="23" fill="white"/>
<g clip-path="url(#clip0_40_11738)">
<path d="M36.4465 17.0512V32.9514C36.4465 33.2474 36.3459 33.5354 36.1583 33.7644C34.9296 35.2649 33.4543 36.5453 31.7958 37.5505C31.2623 37.8737 30.6485 38.0403 30.0248 38.0403H22.2455C18.5241 38.0403 15.5073 35.0235 15.5073 31.3021V26.5721C15.5073 23.195 12.7696 20.4573 9.39248 20.4573C7.65809 20.4573 6.44903 18.7295 7.05073 17.1029C9.44096 10.6405 15.6466 6.02815 22.9333 6.00013C25.9701 5.98844 28.8301 6.78219 31.3091 8.17998C34.5005 9.97946 36.4465 13.3874 36.4465 17.0512Z" fill="#7CD2E3"/>
<path d="M31.8915 37.492C29.3046 39.0826 26.2594 39.9999 22.9999 39.9999C22.803 39.9999 22.607 39.9966 22.4117 39.99C22.1349 39.9805 21.9163 39.7513 21.9163 39.4743V38.3856C21.9163 37.8921 22.3164 37.492 22.8099 37.492H28.0043V30.6384H30.6606V37.492H31.8915Z" fill="#8078BF"/>
<path d="M30.6606 31.3904V34.8647C30.6606 35.5982 30.066 36.1928 29.3325 36.1928C28.599 36.1928 28.0044 35.5982 28.0044 34.8647V31.3904C28.0044 30.6569 28.599 30.0623 29.3325 30.0623C30.066 30.0623 30.6606 30.6569 30.6606 31.3904Z" fill="#958FCA"/>
<path d="M27.9155 8.89648V32.4637C27.9155 32.8304 27.6182 33.1277 27.2514 33.1277H10.5603C10.1935 33.1277 9.89624 32.8304 9.89624 32.4637V8.89648C9.89624 8.52972 10.1935 8.23242 10.5603 8.23242H27.2514C27.6182 8.23242 27.9155 8.52972 27.9155 8.89648Z" fill="#453D83"/>
<path d="M40 23.0001C40 26.7948 38.7568 30.299 36.6553 33.1277H31.427C24.5606 33.1277 18.9943 27.5614 18.9943 20.695V20.6651C18.9943 13.7987 24.5606 8.23242 31.427 8.23242C36.5485 11.1613 40 16.6776 40 23.0001Z" fill="#51489A"/>
<path d="M37.1245 32.4637C36.8167 32.9222 36.4869 33.3654 36.1361 33.7919H10.8929C10.1606 33.7919 9.23218 32.864 9.23218 32.1317V8.89648C9.23218 8.16416 9.82797 7.56836 10.5603 7.56836H30.1414C30.9598 7.94782 31.7467 8.39194 32.4946 8.89648H10.5603V32.4637H37.1245Z" fill="#8078BF"/>
<path d="M36.6827 15.261V26.0988C36.6827 26.4655 36.3854 26.7628 36.0186 26.7628H24.6818C24.315 26.7628 24.0177 26.4655 24.0177 26.0988V15.261C24.0177 14.8942 24.315 14.5969 24.6818 14.5969H36.0186C36.3854 14.5969 36.6827 14.8942 36.6827 15.261Z" fill="#8078BF"/>
<path d="M36.6827 15.261V26.0988C36.6827 26.4655 36.3854 26.7628 36.0187 26.7628H26.8411C26.4743 26.7628 26.177 26.4655 26.177 26.0988V15.261C26.177 14.8942 26.4743 14.5969 26.8411 14.5969H36.0187C36.3854 14.5969 36.6827 14.8942 36.6827 15.261Z" fill="#958FCA"/>
<path d="M29.8516 24.8656V25.252C29.8516 25.6187 29.5543 25.916 29.1876 25.916H28.7308C28.364 25.916 28.0667 25.6187 28.0667 25.252V24.8656C28.0667 24.4988 28.364 24.2015 28.7308 24.2015H29.1876C29.5543 24.2015 29.8516 24.4988 29.8516 24.8656ZM26.4054 15.4529H25.9486C25.5818 15.4529 25.2845 15.7502 25.2845 16.1169V16.5034C25.2845 16.8701 25.5818 17.1674 25.9486 17.1674H26.4054C26.7722 17.1674 27.0695 16.8701 27.0695 16.5034V16.1169C27.0695 15.7502 26.7722 15.4529 26.4054 15.4529ZM29.1876 15.4529H28.7308C28.364 15.4529 28.0667 15.7502 28.0667 16.1169V16.5034C28.0667 16.8701 28.364 17.1674 28.7308 17.1674H29.1876C29.5543 17.1674 29.8516 16.8701 29.8516 16.5034V16.1169C29.8516 15.7502 29.5543 15.4529 29.1876 15.4529ZM26.4054 24.2015H25.9486C25.5818 24.2015 25.2845 24.4988 25.2845 24.8656V25.252C25.2845 25.6187 25.5818 25.916 25.9486 25.916H26.4054C26.7722 25.916 27.0695 25.6187 27.0695 25.252V24.8656C27.0695 24.4988 26.7722 24.2015 26.4054 24.2015ZM34.752 15.4529H34.2951C33.9284 15.4529 33.6311 15.7502 33.6311 16.1169V16.5034C33.6311 16.8701 33.9284 17.1674 34.2951 17.1674H34.752C35.1187 17.1674 35.416 16.8701 35.416 16.5034V16.1169C35.416 15.7502 35.1187 15.4529 34.752 15.4529ZM31.9698 24.2015H31.513C31.1462 24.2015 30.8489 24.4988 30.8489 24.8656V25.252C30.8489 25.6187 31.1462 25.916 31.513 25.916H31.9698C32.3366 25.916 32.6339 25.6187 32.6339 25.252V24.8656C32.6339 24.4988 32.3365 24.2015 31.9698 24.2015ZM34.752 24.2015H34.2951C33.9284 24.2015 33.6311 24.4988 33.6311 24.8656V25.252C33.6311 25.6187 33.9284 25.916 34.2951 25.916H34.752C35.1187 25.916 35.416 25.6187 35.416 25.252V24.8656C35.416 24.4988 35.1187 24.2015 34.752 24.2015ZM31.9698 15.4529H31.513C31.1462 15.4529 30.8489 15.7502 30.8489 16.1169V16.5034C30.8489 16.8701 31.1462 17.1674 31.513 17.1674H31.9698C32.3366 17.1674 32.6339 16.8701 32.6339 16.5034V16.1169C32.6339 15.7502 32.3365 15.4529 31.9698 15.4529Z" fill="#453D83"/>
<path d="M31.8854 20.6333L29.0623 22.617C28.9198 22.7171 28.7236 22.6152 28.7236 22.4411V18.4737C28.7236 18.2996 28.9198 18.1976 29.0623 18.2978L31.8854 20.2815C32.0074 20.3671 32.0074 20.5476 31.8854 20.6333Z" fill="#FFF5F5"/>
<path d="M11.8397 23.034C11.8397 24.1437 10.9401 25.0433 9.83045 25.0433C9.47323 25.0438 9.12238 24.9487 8.81436 24.7678C8.47224 25.3876 7.81223 25.8074 7.05413 25.8074C6.7488 25.8074 6.02782 24.2163 6.00711 23.4977C6.00237 23.3318 6 23.1659 6 23C6 22.113 6.06793 21.2419 6.19889 20.3917C6.51795 20.2198 6.8748 20.1301 7.23722 20.1306C8.02194 20.1306 8.7103 20.5429 9.09765 21.1626C9.33117 21.0713 9.57975 21.0245 9.83051 21.0248C10.9402 21.0248 11.8397 21.9244 11.8397 23.034Z" fill="#FF9100"/>
<path d="M11.8397 23.034C11.8397 23.8908 11.3033 24.6224 10.548 24.9113C10.4448 24.8718 10.3449 24.8238 10.2496 24.7678C10.1993 24.8588 10.142 24.9459 10.0783 25.0281C9.99707 25.038 9.91433 25.0433 9.83039 25.0433C9.47317 25.0438 9.12233 24.9487 8.81431 24.7678C8.65553 25.0551 8.42909 25.2994 8.15463 25.4795C7.83129 24.9749 7.45716 24.0124 7.44235 23.4977C7.43757 23.3324 7.43518 23.1665 7.43518 23C7.43518 22.113 7.50311 21.2419 7.63407 20.3916C7.73705 20.3362 7.8443 20.2891 7.95481 20.2507C8.42859 20.4154 8.83181 20.7372 9.09753 21.1626C9.33105 21.0713 9.57963 21.0245 9.83039 21.0248C10.0739 21.0248 10.3073 21.0681 10.5233 21.1474L10.5328 21.1626L10.548 21.1568C11.3034 21.4456 11.8397 22.1772 11.8397 23.034Z" fill="#FF9F22"/>
<path d="M17.8407 20.7443C17.515 21.0709 17.0865 21.275 16.6277 21.322C16.6637 21.8788 16.4689 22.4477 16.0434 22.8732C15.2588 23.6579 13.9866 23.6579 13.2019 22.8732C12.7491 22.4205 12.5576 21.8053 12.6273 21.2152C12.4232 21.117 12.2373 20.9849 12.0773 20.8246C11.2926 20.0399 11.2926 18.7677 12.0773 17.9831C12.862 17.1984 14.1342 17.1984 14.9188 17.9831L14.9211 17.9853C14.9462 17.9572 14.9722 17.9297 14.9992 17.9027C15.7838 17.118 17.056 17.118 17.8407 17.9027C18.6254 18.6874 18.6254 19.9596 17.8407 20.7443ZM9.31341 16.3454C8.68826 15.8344 7.7771 15.8151 7.13362 16.3027C6.40973 16.8512 6.23966 17.802 6.62323 18.5396C6.61154 18.5507 6.59998 18.562 6.5885 18.5735C5.77329 19.3887 5.80503 20.7301 6.68366 21.5043C7.43989 22.1707 8.59775 22.1653 9.34821 21.4925C10.0483 20.8648 10.2 19.8734 9.80322 19.0882C9.70434 18.8925 9.7151 18.6627 9.80681 18.4635C10.1321 17.7567 9.96758 16.8801 9.31341 16.3454Z" fill="#FFC14F"/>
<path d="M8.76282 16.4686C8.29545 16.936 8.14371 17.7072 8.3074 18.3378C8.36338 18.5535 8.30734 18.782 8.155 18.9446C7.78299 19.3416 7.3054 20.1978 8.40834 21.4149C8.55457 21.5762 8.73506 21.6926 8.9192 21.7861C8.1649 22.1693 7.2192 22.0456 6.58854 21.4149C5.8426 20.669 5.80575 19.4826 6.47791 18.6932C6.51284 18.6522 6.63084 18.5656 6.53761 18.3479C6.27199 17.7277 6.43488 16.9767 6.94302 16.4686C7.52972 15.8819 8.42541 15.7925 9.10627 16.2004C8.98123 16.2754 8.86588 16.3654 8.76282 16.4686ZM15.0217 22.8733C14.5689 22.4205 14.3774 21.8054 14.4471 21.2153C14.243 21.1171 14.057 20.985 13.8971 20.8246C13.1124 20.04 13.1124 18.7678 13.8971 17.9831C14.0467 17.8332 14.2191 17.7079 14.4079 17.6118C13.6536 17.2287 12.7079 17.3524 12.0773 17.9831C11.8127 18.2469 11.6273 18.5795 11.5421 18.9432C11.8233 19.4008 11.9043 19.9465 11.7851 20.4549C11.8677 20.5891 11.9658 20.7132 12.0773 20.8246C12.2373 20.985 12.4233 21.117 12.6273 21.2153C12.5576 21.8054 12.7491 22.4205 13.2019 22.8733C13.8326 23.504 14.7782 23.6277 15.5325 23.2445C15.3437 23.1485 15.1713 23.0232 15.0217 22.8733Z" fill="#FFB52D"/>
<path d="M20.9854 22.8476C20.991 22.9089 20.9939 22.9711 20.9939 23.034C20.9939 24.1436 20.0943 25.0432 18.9847 25.0432C18.5234 25.0439 18.0761 24.8852 17.7184 24.594C17.3501 25.0131 16.8101 25.2777 16.2084 25.2777C15.0986 25.2777 14.1991 24.3781 14.1991 23.2684C14.1991 22.6281 14.4987 22.0578 14.9652 21.6898C14.8903 21.4761 14.8522 21.2511 14.8525 21.0246C14.8525 19.915 15.7521 19.0154 16.8617 19.0154C17.538 19.0154 18.1363 19.3495 18.5004 19.8617C18.8646 19.3495 19.4629 19.0154 20.1391 19.0154C21.2489 19.0154 22.1484 19.915 22.1484 21.0246C22.1485 21.8321 21.6723 22.5282 20.9854 22.8476Z" fill="#FF9F22"/>
<path d="M17.0873 21.0247V21.0317C17.0886 21.4283 16.9933 21.8222 16.7726 22.1517C16.5512 22.482 16.4332 22.8708 16.4339 23.2685C16.4339 23.9646 16.788 24.5781 17.3258 24.9386C16.9838 25.1679 16.5675 25.2949 16.1206 25.2759C15.0987 25.2324 14.2597 24.4056 14.2024 23.3844C14.1757 22.9106 14.3135 22.4698 14.5637 22.1139C14.7697 21.821 14.8697 21.4703 14.8543 21.1126C14.8505 21.0227 14.8525 20.9327 14.8604 20.8431C14.9446 19.8841 15.718 19.1093 16.6769 19.0237C17.1604 18.9804 17.6125 19.1087 17.9791 19.3545C17.4414 19.7152 17.0873 20.3286 17.0873 21.0247Z" fill="#FF9100"/>
<path d="M14.0462 21.958C14.8613 22.7731 14.8297 24.1141 13.9515 24.8885C13.1923 25.5578 12.0286 25.5493 11.2785 24.8698C10.8037 24.4397 10.5842 23.8415 10.6199 23.2558C10.6365 22.9835 10.4752 22.733 10.2266 22.6208C9.99605 22.5165 9.78732 22.3696 9.61139 22.1878C9.24279 21.8098 9.03832 21.3015 9.04242 20.7736C9.04652 20.2456 9.25887 19.7406 9.63331 19.3683C10.418 18.5837 11.6901 18.5837 12.4748 19.3684C12.8913 19.7849 13.0866 20.3387 13.061 20.8841C13.0478 21.1634 13.1944 21.4312 13.4494 21.5457C13.6718 21.6457 13.874 21.7854 14.0462 21.958ZM20.0752 18.3634C19.9345 18.1987 19.7621 18.064 19.5683 17.9672C19.3402 17.8535 19.1945 17.6205 19.1998 17.3658C19.2094 16.9009 19.0194 16.4328 18.6296 16.1009C18.0253 15.5865 17.116 15.5956 16.5212 16.1209C15.817 16.7428 15.792 17.8189 16.4461 18.473C16.5672 18.5943 16.7067 18.6955 16.8596 18.7728C17.0901 18.8891 17.2409 19.1208 17.2357 19.379C17.231 19.5963 17.2705 19.8123 17.3516 20.014C17.4328 20.2157 17.554 20.3988 17.7078 20.5524C18.3623 21.2069 19.4394 21.1814 20.061 20.4761C20.5872 19.8789 20.5937 18.9673 20.0752 18.3634Z" fill="#FFD993"/>
<path d="M19.9894 18.2708C20.4365 18.7179 20.5663 19.3621 20.3789 19.9237C19.8173 20.1112 19.1731 19.9814 18.7259 19.5342C18.572 19.3807 18.4508 19.1976 18.3697 18.9959C18.2885 18.7942 18.2491 18.5782 18.2538 18.3608C18.259 18.1028 18.1082 17.871 17.8777 17.7547C17.7249 17.6774 17.5853 17.5762 17.4642 17.4549C17.0171 17.0078 16.8873 16.3636 17.0747 15.802C17.6363 15.6145 18.2806 15.7444 18.7277 16.1914C18.8816 16.3449 19.0028 16.5281 19.0839 16.7298C19.1651 16.9314 19.2045 17.1475 19.1998 17.3648C19.1946 17.6229 19.3454 17.8546 19.5759 17.971C19.7288 18.0483 19.8683 18.1495 19.9894 18.2708ZM13.4494 21.5457C13.1944 21.4311 13.0479 21.1633 13.061 20.8841C13.0867 20.3387 12.8913 19.7849 12.4748 19.3684C11.8695 18.7631 10.9741 18.6247 10.2362 18.9533C9.90772 19.6912 10.046 20.5865 10.6513 21.1918C10.8235 21.3644 11.0258 21.5042 11.2481 21.6042C11.5031 21.7187 11.6496 21.9866 11.6365 22.2658C11.6109 22.8112 11.8063 23.365 12.2228 23.7815C12.8281 24.3868 13.7234 24.5251 14.4613 24.1966C14.7898 23.4587 14.6515 22.5634 14.0462 21.9581C13.874 21.7855 13.6718 21.6457 13.4494 21.5457ZM13.7852 13.3774C13.6139 13.3773 13.4437 13.4044 13.2809 13.4579C13.0357 13.5385 12.7652 13.4813 12.5863 13.2952C12.2928 12.9896 11.88 12.7993 11.4228 12.7993C10.4971 12.7993 9.75352 13.5789 9.81276 14.5173C9.86289 15.3116 10.5029 15.9607 11.2965 16.0211C11.5083 16.0377 11.7212 16.0125 11.9232 15.9468C12.1691 15.8667 12.443 15.9225 12.6222 16.1088C12.944 16.4435 13.4089 16.6397 13.9186 16.5987C14.7096 16.5353 15.3462 15.8859 15.3954 15.0939C15.4536 14.1561 14.7104 13.3774 13.7852 13.3774Z" fill="#FFE1AA"/>
<path d="M14.1016 15.4547C13.8842 15.455 13.669 15.4112 13.469 15.326C13.269 15.2407 13.0884 15.1159 12.938 14.9588C12.7592 14.7727 12.4887 14.7155 12.2434 14.7962C12.0807 14.8496 11.9104 14.8767 11.7391 14.8766C10.9078 14.8766 10.2234 14.2478 10.1354 13.44C10.4299 13.0508 10.8969 12.7993 11.4226 12.7993C11.64 12.799 11.8552 12.8428 12.0552 12.9281C12.2552 13.0133 12.4358 13.1382 12.5862 13.2952C12.765 13.4813 13.0355 13.5386 13.2807 13.4579C13.4435 13.4044 13.6137 13.3773 13.7851 13.3775C14.6163 13.3775 15.3007 14.0062 15.3888 14.814C15.0943 15.2032 14.6274 15.4547 14.1016 15.4547Z" fill="#FFE7C0"/>
<path d="M23.9282 23.8248C23.3788 24.3742 22.5903 24.5389 21.8977 24.3189C21.8274 24.7273 21.632 25.1037 21.3386 25.3962C20.5539 26.1809 19.2817 26.1809 18.4971 25.3962C17.7124 24.6116 17.7124 23.3394 18.4971 22.5547C19.0465 22.0053 19.8349 21.8406 20.5276 22.0606C20.5979 21.6522 20.7932 21.2758 21.0867 20.9833C21.8714 20.1986 23.1436 20.1986 23.9282 20.9833C24.7129 21.7679 24.7129 23.0401 23.9282 23.8248Z" fill="#FFB52D"/>
<path d="M23.9283 20.9834C24.0603 21.1153 24.1733 21.2648 24.2641 21.4279C24.2036 21.5101 24.1369 21.5877 24.0647 21.6599C23.7194 22.0062 23.2592 22.2141 22.7711 22.2444C22.3627 22.2701 21.9885 22.4936 21.7778 22.8443C21.6863 22.9963 21.5753 23.1355 21.4475 23.2584C20.6547 24.0219 19.4116 24.0096 18.6335 23.2312C18.5015 23.0994 18.3884 22.9498 18.2976 22.7868C18.3581 22.7045 18.4248 22.627 18.497 22.5548C18.9302 22.1216 19.5118 21.9276 20.0781 21.9727C20.3249 21.9923 20.5599 21.8497 20.6563 21.6216C20.7621 21.3713 20.9177 21.1452 21.1136 20.9569C21.9061 20.1928 23.1498 20.2049 23.9283 20.9834Z" fill="#FFC14F"/>
<path d="M21.5088 32.4636H21.8361C22.8013 32.4636 23.5351 33.3309 23.3754 34.2828L22.4174 39.9902C21.329 39.954 20.2466 39.8134 19.185 39.5703C19.1355 39.5587 19.0922 39.5287 19.0641 39.4864C19.0359 39.444 19.025 39.3925 19.0335 39.3424L19.9694 33.7661C20.0956 33.0143 20.7465 32.4636 21.5088 32.4636ZM15.4524 30.0624C16.5174 30.0624 17.3271 31.0193 17.1508 32.0697L16.0969 38.3495C16.0819 38.4389 15.9859 38.4903 15.9035 38.4524C14.9061 37.9935 13.9556 37.4389 13.0653 36.7965C13.0115 36.7573 12.9698 36.704 12.9447 36.6424C12.9196 36.5808 12.9123 36.5134 12.9234 36.4479L13.7539 31.4995C13.8931 30.67 14.6113 30.0624 15.4524 30.0624ZM9.42486 25.9163H9.73033C10.7022 25.9163 11.4412 26.7895 11.2803 27.748L10.2366 33.9664C10.2219 34.0541 10.1109 34.0854 10.0532 34.0177C9.04535 32.8351 8.20426 31.52 7.5534 30.1091C7.47497 29.939 7.45193 29.7486 7.48287 29.564L7.875 27.2277C8.00197 26.4707 8.65727 25.9163 9.42486 25.9163Z" fill="#EA552D"/>
<path d="M24.8717 25.3669L23.3673 34.3302C23.222 35.1963 22.4411 35.8089 21.5652 35.7442L21.5206 35.7409C20.5227 35.6662 19.8041 34.751 19.9697 33.7642L21.4747 24.7969C21.6322 23.8588 22.5202 23.226 23.4583 23.3834C24.3963 23.5408 25.0291 24.4288 24.8717 25.3669ZM18.2758 25.3669L17.0632 32.5917C16.8728 33.726 15.6357 34.3527 14.6107 33.831L14.5788 33.8148C13.9147 33.4752 13.5446 32.7468 13.668 32.0111L14.8788 24.7969C15.0363 23.8588 15.9243 23.226 16.8624 23.3834C17.8004 23.5408 18.4332 24.4288 18.2758 25.3669ZM11.6798 25.3669L11.1641 28.6284C10.9159 30.1076 9.02271 30.5654 8.11653 29.3701L8.08976 29.3347C7.80847 28.9619 7.69491 28.4887 7.77221 28.0281L8.2769 24.8321C8.43222 23.9066 9.28913 23.2461 10.2185 23.376C11.1828 23.5108 11.8399 24.413 11.6798 25.3669Z" fill="#F76937"/>
<path d="M8.38196 25.3669L7.57738 30.1609C6.63109 28.1262 6.07553 25.873 6.0072 23.4977C6.30005 23.3724 8.53934 24.4288 8.38196 25.3669ZM20.1782 33.6821L19.1898 39.5714C18.0527 39.3109 16.9456 38.9333 15.8863 38.4446L16.7814 33.112C16.9206 32.2824 17.6387 31.6748 18.4798 31.6748C19.5448 31.6747 20.3545 32.6317 20.1782 33.6821ZM12.4052 28.5682C13.4702 28.5682 14.28 29.5252 14.1037 30.5755L13.0602 36.7929C11.9435 35.9865 10.9282 35.0482 10.0366 33.9983L10.7067 30.0054C10.846 29.1759 11.5641 28.5682 12.4052 28.5682Z" fill="#D63030"/>
<path d="M8.37532 25.4062C8.21375 26.3689 6.91962 26.5623 6.47749 25.6919C6.37815 25.4964 6.09937 24.8527 6.08623 24.7221C6.04529 24.315 6.01893 23.9066 6.0072 23.4976C6.30409 23.3704 6.63089 23.3297 6.94991 23.3802C7.896 23.5286 8.53383 24.4617 8.37532 25.4062ZM21.5738 25.3667L20.1588 33.7973C19.9912 34.7959 18.9951 35.4298 18.0197 35.1581L17.9864 35.1489C17.1465 34.9132 16.6181 34.0839 16.7625 33.2236L18.1768 24.7966C18.3343 23.8586 19.2223 23.2257 20.1604 23.3832C21.0984 23.5406 21.7312 24.4287 21.5738 25.3667ZM14.9778 25.3667L14.0899 30.6573C13.873 31.9497 12.3435 32.5208 11.3266 31.6943L11.2967 31.67C10.8231 31.2834 10.5949 30.6711 10.6961 30.0683L11.575 24.832C11.7303 23.9065 12.5872 23.246 13.5166 23.3759C14.4808 23.5106 15.1379 24.4129 14.9778 25.3667Z" fill="#F44545"/>
<path d="M39.1773 15.681C38.5677 16.4855 36.8621 16.22 35.3679 15.0878C35.1828 14.9477 35.0056 14.7974 34.8372 14.6376C34.5383 15.4692 33.9904 16.0204 33.3929 15.9896C32.674 15.9526 32.1132 15.0848 32.0017 13.9446C31.7531 14.081 31.4834 14.1498 31.2045 14.1354C30.1075 14.0789 29.2839 12.7582 29.3649 11.1855C29.4371 9.78289 30.2044 8.65372 31.1477 8.46579C31.1356 8.43724 31.1253 8.40802 31.1167 8.37826C31.0754 8.23529 36.1268 13.2124 39.3849 14.8031C39.4212 15.1415 39.3566 15.4444 39.1773 15.681Z" fill="#FFC14F"/>
<path d="M39.3902 15.0944C35.9778 13.8459 33.0386 11.5258 31.0322 8.49373C31.0704 8.48284 31.6676 6.8956 32.7822 6.57393C33.8968 6.25226 34.9582 6.53853 35.153 7.21335C35.2428 7.5246 35.1326 7.86414 34.8783 8.17126C36.1896 8.10253 37.2704 8.5881 37.3524 9.31644C37.3804 9.5656 37.2882 9.81303 37.103 10.0397C37.8855 10.3497 38.3971 10.8891 38.3668 11.4761C38.3491 11.8199 38.1482 12.1283 37.8221 12.3707C38.8566 13.2384 39.4525 14.3065 39.3902 15.0944Z" fill="#FFF36C"/>
<path d="M36.5701 13.7541C36.5462 13.7906 36.5153 13.822 36.4793 13.8466C36.4433 13.8711 36.4027 13.8883 36.36 13.8972C36.3173 13.9061 36.2733 13.9065 36.2305 13.8983C36.1876 13.8902 36.1468 13.8737 36.1104 13.8497C35.3183 13.3304 34.457 12.6142 33.6129 11.7968C33.6254 12.4591 33.7885 13.2534 34.0344 13.7495C34.0537 13.7886 34.0652 13.8311 34.0681 13.8746C34.0711 13.9181 34.0654 13.9617 34.0515 14.0031C34.0375 14.0444 34.0156 14.0825 33.9869 14.1154C33.9582 14.1482 33.9234 14.1751 33.8843 14.1944C33.8453 14.2138 33.8028 14.2253 33.7593 14.2282C33.7158 14.2311 33.6721 14.2255 33.6308 14.2115C33.5895 14.1976 33.5513 14.1757 33.5185 14.147C33.4857 14.1183 33.4588 14.0834 33.4394 14.0444C33.0593 13.2776 32.8601 12.0151 32.9848 11.1667C32.5649 10.7305 32.1598 10.2802 31.7702 9.81669C31.6398 10.5319 31.6383 11.4096 31.789 11.9936C31.8004 12.036 31.8033 12.0802 31.7974 12.1237C31.7916 12.1671 31.7773 12.209 31.7552 12.2469C31.7331 12.2848 31.7037 12.318 31.6687 12.3444C31.6337 12.3709 31.5938 12.3902 31.5514 12.4011C31.5089 12.4121 31.4647 12.4146 31.4212 12.4083C31.3778 12.4021 31.3361 12.3873 31.2984 12.3649C31.2607 12.3424 31.2278 12.3127 31.2017 12.2775C31.1756 12.2423 31.1567 12.2022 31.1461 12.1596C30.9284 11.3165 30.9746 10.0499 31.243 9.1679C30.5207 8.24824 29.9002 7.32227 29.4668 6.48456C29.4468 6.44582 29.4346 6.40353 29.4309 6.36008C29.4272 6.31663 29.4321 6.27287 29.4453 6.23132C29.4586 6.18977 29.4798 6.15123 29.508 6.11791C29.5361 6.08459 29.5705 6.05713 29.6092 6.03711C29.6875 5.99666 29.7785 5.98893 29.8625 6.01563C29.9464 6.04233 30.0162 6.10127 30.0567 6.17948C30.4745 6.98705 31.0722 7.87948 31.7681 8.76607C32.4636 9.01317 33.626 9.06975 34.3293 8.88813C34.4146 8.86611 34.5051 8.87887 34.581 8.9236C34.6568 8.96833 34.7118 9.04136 34.7339 9.12663C34.7559 9.2119 34.7431 9.30242 34.6984 9.37828C34.6537 9.45414 34.5806 9.50913 34.4954 9.53114C34.1583 9.61813 33.7489 9.66017 33.3263 9.66017C33.0355 9.66017 32.7386 9.64031 32.4544 9.6016C32.8153 10.0223 33.1896 10.4313 33.5768 10.8279C34.0977 10.9811 34.9399 10.9824 35.445 10.8276C35.5289 10.8028 35.6192 10.8121 35.6962 10.8534C35.7733 10.8948 35.831 10.965 35.8566 11.0486C35.8823 11.1323 35.8739 11.2227 35.8332 11.3001C35.7926 11.3776 35.7231 11.436 35.6397 11.4624C35.3242 11.5592 34.9221 11.6073 34.5181 11.6073C34.4691 11.6073 34.42 11.6065 34.3712 11.6051C35.0862 12.2723 35.8059 12.8559 36.4745 13.2943C36.5482 13.3426 36.5996 13.4182 36.6175 13.5044C36.6354 13.5907 36.6184 13.6805 36.5701 13.7541Z" fill="#F29500"/>
</g>
<defs>
<clipPath id="clip0_40_11738">
<rect width="34" height="34" fill="white" transform="translate(6 6)"/>
</clipPath>
</defs>
</svg>
