<svg width="65" height="65" viewBox="0 0 65 65" fill="none" xmlns="http://www.w3.org/2000/svg">
<circle cx="32.5" cy="32.5" r="32.5" fill="white"/>
<g clip-path="url(#clip0_33_5011)">
<path d="M21.774 31.1514C21.3891 31.1514 21.0041 31.1722 20.6212 31.2132C16.1657 31.692 11.9117 35.9286 11.4169 40.3855C10.7589 46.1044 14.862 51.2736 20.5809 51.9317C22.912 52.1998 25.2653 51.6734 27.26 50.4377C28.2701 49.7803 29.4233 49.3752 30.6225 49.2564C30.9116 49.2307 31.2049 49.2182 31.5023 49.2182C31.7844 49.2182 32.0644 49.2279 32.3416 49.248C33.5593 49.3628 34.7307 49.772 35.7549 50.4405C40.6538 53.4639 47.0758 51.9435 50.0992 47.0446C51.3285 45.0534 51.8515 42.7062 51.5841 40.3814C51.0901 35.928 46.8354 31.6921 42.3798 31.2133C41.998 31.1722 41.6144 31.1516 41.2304 31.1514H21.774V31.1514Z" fill="#FFD33F"/>
<path d="M36.3664 43.6591C37.5177 43.6591 38.4511 42.7258 38.4511 41.5744C38.4511 40.4231 37.5177 39.4897 36.3664 39.4897C35.2151 39.4897 34.2817 40.4231 34.2817 41.5744C34.2817 42.7258 35.2151 43.6591 36.3664 43.6591Z" fill="#EA3836"/>
<path d="M49.6295 35.6465C41.2659 45.0197 22.4299 48.508 15.0732 49.544C18.5122 52.4514 23.4333 52.8107 27.2579 50.4342C28.2679 49.7769 29.4211 49.3717 30.6204 49.2529C30.9108 49.23 31.2054 49.2181 31.5022 49.2181C31.7843 49.2181 32.0644 49.2278 32.3416 49.248C33.5592 49.3627 34.7306 49.772 35.7548 50.4404C40.6537 53.4638 47.0757 51.9434 50.0991 47.0446C51.3284 45.0533 51.8515 42.7062 51.5841 40.3814C51.3598 38.6588 50.6856 37.0257 49.6295 35.6465Z" fill="#FFAC3E"/>
<path d="M20.3843 36.7104H23.1639V40.1849H26.6382V42.9644H23.1639V46.4388H20.3843V42.9644H16.9099V40.1849H20.3843V36.7104Z" fill="#383856"/>
<path d="M41.2305 39.4901C42.3818 39.4901 43.3152 38.5568 43.3152 37.4055C43.3152 36.2541 42.3818 35.3208 41.2305 35.3208C40.0792 35.3208 39.1458 36.2541 39.1458 37.4055C39.1458 38.5568 40.0792 39.4901 41.2305 39.4901Z" fill="#91CECE"/>
<path d="M41.2305 47.8285C42.3818 47.8285 43.3152 46.8952 43.3152 45.7439C43.3152 44.5925 42.3818 43.6592 41.2305 43.6592C40.0792 43.6592 39.1458 44.5925 39.1458 45.7439C39.1458 46.8952 40.0792 47.8285 41.2305 47.8285Z" fill="#91CECE"/>
<path d="M46.0983 43.6591C47.2496 43.6591 48.183 42.7258 48.183 41.5744C48.183 40.4231 47.2496 39.4897 46.0983 39.4897C44.947 39.4897 44.0136 40.4231 44.0136 41.5744C44.0136 42.7258 44.947 43.6591 46.0983 43.6591Z" fill="#EA3836"/>
<path d="M30.1125 31.1511V28.3716H32.8921V31.1511" fill="#874D1B"/>
<path d="M32.1972 28.3719H30.8074V26.2872C30.8074 25.5194 30.1855 24.8975 29.4177 24.8975H25.9433C24.4082 24.8975 23.1638 23.653 23.1638 22.118C23.1638 20.583 24.4082 19.3385 25.9433 19.3385H37.0612C37.8291 19.3385 38.451 18.7166 38.451 17.9487C38.451 17.1809 37.8291 16.559 37.0612 16.559H33.5868C32.0518 16.559 30.8073 15.3145 30.8073 13.7795V11H32.1971V13.7795C32.1971 14.5474 32.819 15.1692 33.5868 15.1692H37.0612C38.5962 15.1692 39.8407 16.4137 39.8407 17.9487C39.8407 19.4837 38.5962 20.7282 37.0612 20.7282H25.9433C25.1754 20.7282 24.5535 21.3501 24.5535 22.118C24.5535 22.8858 25.1754 23.5077 25.9433 23.5077H29.4177C30.9527 23.5077 32.1972 24.7522 32.1972 26.2872V28.3719Z" fill="#383856"/>
<path d="M37.4462 39.7998C37.6476 40.1241 37.7549 40.4979 37.7561 40.8797C37.7561 42.0311 36.8229 42.9643 35.6715 42.9643C35.2898 42.963 34.9159 42.8557 34.5916 42.6544C35.1851 43.637 36.4636 43.9525 37.4462 43.359C38.4287 42.7656 38.7442 41.4871 38.1508 40.5045C37.9764 40.216 37.7346 39.9742 37.4462 39.7998Z" fill="#D62121"/>
<path d="M42.3103 35.6304C42.5117 35.9547 42.6189 36.3285 42.6202 36.7102C42.6202 37.8617 41.687 38.7949 40.5355 38.7949C40.1538 38.7936 39.78 38.6863 39.4557 38.485C40.0491 39.4676 41.3277 39.7831 42.3102 39.1896C43.2928 38.5961 43.6083 37.3176 43.0148 36.3351C42.8405 36.0466 42.5988 35.8048 42.3103 35.6304Z" fill="#83B2B7"/>
<path d="M47.1746 39.7998C47.3759 40.1241 47.4832 40.498 47.4845 40.8797C47.4845 42.0311 46.5512 42.9643 45.3998 42.9643C45.0181 42.963 44.6443 42.8557 44.3199 42.6544C44.9134 43.637 46.1919 43.9525 47.1745 43.359C48.1571 42.7656 48.4726 41.4871 47.8791 40.5045C47.7047 40.216 47.463 39.9742 47.1746 39.7998Z" fill="#D62121"/>
<path d="M42.3103 43.9692C42.5117 44.2935 42.6189 44.6674 42.6202 45.0491C42.6202 46.2005 41.687 47.1338 40.5355 47.1338C40.1538 47.1324 39.78 47.0252 39.4557 46.8239C40.0491 47.8064 41.3277 48.1219 42.3102 47.5285C43.2928 46.935 43.6083 45.6565 43.0148 44.6739C42.8405 44.3855 42.5987 44.1436 42.3103 43.9692Z" fill="#83B2B7"/>
<path d="M16.9099 42.2852V42.9641H20.3843V46.4385H23.1639V42.9641H26.6383V40.1846H25.4785C22.7337 42.0983 18.5485 42.2901 16.9099 42.2852Z" fill="#202033"/>
<path d="M30.1125 30.9617V31.1514H32.8921V28.8687C32.2299 29.8615 31.2497 30.5996 30.1125 30.9617Z" fill="#6B3713"/>
</g>
<defs>
<clipPath id="clip0_33_5011">
<rect width="41" height="41" fill="white" transform="translate(11 11)"/>
</clipPath>
</defs>
</svg>
