<svg width="46" height="46" viewBox="0 0 46 46" fill="none" xmlns="http://www.w3.org/2000/svg">
<rect width="46" height="46" rx="23" fill="white"/>
<g clip-path="url(#clip0_40_11732)">
<path d="M26.2188 36H20.7812C20.531 36 20.3281 35.7802 20.3281 35.5091V24.7097C20.3281 24.4385 20.531 24.2188 20.7812 24.2188H26.2188C26.469 24.2188 26.6719 24.4385 26.6719 24.7097V35.5091C26.6719 35.7802 26.469 36 26.2188 36Z" fill="#E56161"/>
<path d="M20.7812 36H18.9688C18.7185 36 18.5156 35.7802 18.5156 35.5091V24.7097C18.5156 24.4385 18.7185 24.2188 18.9688 24.2188H20.7812C21.0315 24.2188 21.2344 24.4385 21.2344 24.7097V35.5091C21.2344 35.7802 21.0315 36 20.7812 36Z" fill="#FFD740"/>
<path d="M18.9688 36H17.1562C16.906 36 16.7031 35.7802 16.7031 35.5091V24.7097C16.7031 24.4385 16.906 24.2188 17.1562 24.2188H18.9688C19.219 24.2188 19.4219 24.4385 19.4219 24.7097V35.5091C19.4219 35.7802 19.219 36 18.9688 36Z" fill="#E56161"/>
<path d="M17.1562 36H15.3438C15.0935 36 14.8906 35.7802 14.8906 35.5091V24.7097C14.8906 24.4385 15.0935 24.2188 15.3438 24.2188H17.1562C17.4065 24.2188 17.6094 24.4385 17.6094 24.7097V35.5091C17.6094 35.7802 17.4065 36 17.1562 36Z" fill="#FFD740"/>
<path d="M15.3438 36H13.5312C13.281 36 13.0781 35.7802 13.0781 35.5091V24.7097C13.0781 24.4385 13.281 24.2188 13.5312 24.2188H15.3438C15.594 24.2188 15.7969 24.4385 15.7969 24.7097V35.5091C15.7969 35.7802 15.594 36 15.3438 36Z" fill="#E56161"/>
<path d="M28.0312 36H26.2188C25.9685 36 25.7656 35.7802 25.7656 35.5091V24.7097C25.7656 24.4385 25.9685 24.2188 26.2188 24.2188H28.0312C28.2815 24.2188 28.4844 24.4385 28.4844 24.7097V35.5091C28.4844 35.7802 28.2815 36 28.0312 36Z" fill="#FFD740"/>
<path d="M25.7656 32.5951V35.547C25.7656 35.6671 25.8134 35.7824 25.8983 35.8674C25.9833 35.9524 26.0986 36.0001 26.2188 36.0001H28.0312C28.1514 36.0001 28.2667 35.9524 28.3517 35.8674C28.4366 35.7824 28.4844 35.6671 28.4844 35.547V30.1633C27.6727 31.0738 26.7607 31.8896 25.7656 32.5951Z" fill="#FFC400"/>
<path d="M29.8438 36H28.0312C27.781 36 27.5781 35.7802 27.5781 35.5091V24.7097C27.5781 24.4385 27.781 24.2188 28.0312 24.2188H29.8438C30.094 24.2188 30.2969 24.4385 30.2969 24.7097V35.5091C30.2969 35.7802 30.094 36 29.8438 36Z" fill="#E56161"/>
<path d="M27.5781 31.1019V35.5469C27.5781 35.6671 27.6259 35.7823 27.7108 35.8673C27.7958 35.9523 27.9111 36 28.0312 36H29.8438C29.9639 36 30.0792 35.9523 30.1642 35.8673C30.2491 35.7823 30.2969 35.6671 30.2969 35.5469V27.6952C29.5487 28.9483 28.6341 30.0943 27.5781 31.1019ZM33.4688 36H31.6562C31.406 36 31.2031 35.7802 31.2031 35.5091V24.7097C31.2031 24.4385 31.406 24.2188 31.6562 24.2188H33.4688C33.719 24.2188 33.9219 24.4385 33.9219 24.7097V35.5091C33.9219 35.7802 33.719 36 33.4688 36Z" fill="#D65858"/>
<path d="M31.6562 36H29.8438C29.5935 36 29.3906 35.7802 29.3906 35.5091V24.7097C29.3906 24.4385 29.5935 24.2188 29.8438 24.2188H31.6562C31.9065 24.2188 32.1094 24.4385 32.1094 24.7097V35.5091C32.1094 35.7802 31.9065 36 31.6562 36Z" fill="#FFD740"/>
<path d="M31.6562 25.125H31.5358C31.0077 26.528 30.2856 27.8501 29.3906 29.0527V35.5469C29.3906 35.6671 29.4384 35.7823 29.5233 35.8673C29.6083 35.9523 29.7236 36 29.8438 36H31.6562C31.7764 36 31.8917 35.9523 31.9767 35.8673C32.0616 35.7823 32.1094 35.6671 32.1094 35.5469V25.5781C32.1094 25.4579 32.0616 25.3427 31.9767 25.2577C31.8917 25.1727 31.7764 25.125 31.6562 25.125Z" fill="#FFC400"/>
<path d="M9.77603 34.1685C9.71903 34.1514 9.66595 34.1232 9.61984 34.0856C9.57372 34.048 9.53547 34.0016 9.50726 33.9492C9.47905 33.8968 9.46144 33.8394 9.45544 33.7802C9.44943 33.721 9.45515 33.6611 9.47226 33.6041L12.191 24.5416C12.2256 24.4265 12.3044 24.3299 12.4103 24.2729C12.5161 24.2159 12.6402 24.2033 12.7553 24.2379C12.8704 24.2724 12.9671 24.3513 13.0241 24.4571C13.081 24.563 13.0936 24.6871 13.0591 24.8022L10.3403 33.8647C10.3232 33.9217 10.2951 33.9748 10.2575 34.0209C10.2198 34.067 10.1735 34.1053 10.1211 34.1335C10.0687 34.1617 10.0113 34.1793 9.95205 34.1853C9.89284 34.1913 9.83303 34.1856 9.77603 34.1685Z" fill="#DECBA0"/>
<path d="M9.45312 36C9.70338 36 9.90625 35.7971 9.90625 35.5469C9.90625 35.2966 9.70338 35.0938 9.45312 35.0938C9.20287 35.0938 9 35.2966 9 35.5469C9 35.7971 9.20287 36 9.45312 36Z" fill="#DECBA0"/>
<path d="M36.6598 33.8647L33.941 24.8022C33.9065 24.6871 33.919 24.563 33.976 24.4571C34.033 24.3513 34.1297 24.2724 34.2448 24.2379C34.3599 24.2033 34.484 24.2159 34.5898 24.2729C34.6957 24.3299 34.7745 24.4265 34.8091 24.5416L37.5278 33.6041C37.5624 33.7193 37.5498 33.8434 37.4928 33.9492C37.4359 34.055 37.3392 34.1339 37.2241 34.1685C37.109 34.203 36.9848 34.1904 36.879 34.1334C36.7732 34.0765 36.6943 33.9798 36.6598 33.8647Z" fill="#DECBA0"/>
<path d="M37.5469 36C37.7971 36 38 35.7971 38 35.5469C38 35.2966 37.7971 35.0938 37.5469 35.0938C37.2966 35.0938 37.0938 35.2966 37.0938 35.5469C37.0938 35.7971 37.2966 36 37.5469 36Z" fill="#DECBA0"/>
<path d="M23.5 13.3438C23.3798 13.3438 23.2646 13.296 23.1796 13.211C23.0946 13.1261 23.0469 13.0108 23.0469 12.8906V10.1719C23.0469 10.0517 23.0946 9.93644 23.1796 9.85147C23.2646 9.76649 23.3798 9.71875 23.5 9.71875C23.6202 9.71875 23.7354 9.76649 23.8204 9.85147C23.9054 9.93644 23.9531 10.0517 23.9531 10.1719V12.8906C23.9531 13.0108 23.9054 13.1261 23.8204 13.211C23.7354 13.296 23.6202 13.3438 23.5 13.3438Z" fill="#DECBA0"/>
<path d="M23.0469 10.1719V7.45311C23.0469 7.37813 23.0655 7.30432 23.101 7.2383C23.1366 7.17228 23.188 7.11612 23.2506 7.07484C23.3132 7.03356 23.385 7.00846 23.4597 7.0018C23.5344 6.99513 23.6096 7.0071 23.6785 7.03663L26.8503 8.396C26.9317 8.43105 27.0011 8.48918 27.0498 8.56319C27.0985 8.63721 27.1244 8.72388 27.1244 8.81248C27.1244 8.90109 27.0985 8.98775 27.0498 9.06177C27.0011 9.13579 26.9317 9.19391 26.8503 9.22896L23.6785 10.5883C23.6096 10.6179 23.5344 10.6298 23.4597 10.6232C23.385 10.6165 23.3132 10.5914 23.2506 10.5501C23.188 10.5088 23.1366 10.4527 23.101 10.3867C23.0655 10.3206 23.0469 10.2468 23.0469 10.1719Z" fill="#0277BD"/>
<path d="M13.9844 16.9688C13.8642 16.9688 13.7489 16.921 13.664 16.836C13.579 16.7511 13.5312 16.6358 13.5312 16.5156V13.7969C13.5312 13.6767 13.579 13.5614 13.664 13.4765C13.7489 13.3915 13.8642 13.3438 13.9844 13.3438C14.1046 13.3438 14.2198 13.3915 14.3048 13.4765C14.3898 13.5614 14.4375 13.6767 14.4375 13.7969V16.5156C14.4375 16.6358 14.3898 16.7511 14.3048 16.836C14.2198 16.921 14.1046 16.9688 13.9844 16.9688ZM13.9844 10.625C13.8642 10.625 13.7489 10.5773 13.664 10.4923C13.579 10.4073 13.5312 10.2921 13.5312 10.1719V7.45312C13.5312 7.33295 13.579 7.21769 13.664 7.13272C13.7489 7.04774 13.8642 7 13.9844 7C14.1046 7 14.2198 7.04774 14.3048 7.13272C14.3898 7.21769 14.4375 7.33295 14.4375 7.45312V10.1719C14.4375 10.2921 14.3898 10.4073 14.3048 10.4923C14.2198 10.5773 14.1046 10.625 13.9844 10.625Z" fill="#FFD740"/>
<path d="M13.9844 12.4375C14.2346 12.4375 14.4375 12.2346 14.4375 11.9844C14.4375 11.7341 14.2346 11.5312 13.9844 11.5312C13.7341 11.5312 13.5312 11.7341 13.5312 11.9844C13.5312 12.2346 13.7341 12.4375 13.9844 12.4375Z" fill="#FFD740"/>
<path d="M18.5156 12.4375H15.7969C15.6767 12.4375 15.5614 12.3898 15.4765 12.3048C15.3915 12.2198 15.3438 12.1046 15.3438 11.9844C15.3438 11.8642 15.3915 11.749 15.4765 11.664C15.5614 11.579 15.6767 11.5313 15.7969 11.5313H18.5156C18.6358 11.5313 18.7511 11.579 18.836 11.664C18.921 11.749 18.9688 11.8642 18.9688 11.9844C18.9688 12.1046 18.921 12.2198 18.836 12.3048C18.7511 12.3898 18.6358 12.4375 18.5156 12.4375ZM15.4765 10.4923C15.4344 10.4502 15.401 10.4003 15.3782 10.3453C15.3555 10.2903 15.3437 10.2314 15.3437 10.1719C15.3437 10.1124 15.3555 10.0535 15.3782 9.99848C15.401 9.9435 15.4344 9.89355 15.4765 9.85147L16.3827 8.94522C16.4677 8.86024 16.5829 8.8125 16.7031 8.8125C16.8233 8.8125 16.9386 8.86024 17.0235 8.94522C17.1085 9.0302 17.1563 9.14546 17.1563 9.26564C17.1563 9.38582 17.1085 9.50107 17.0235 9.58605L16.1173 10.4923C16.0752 10.5344 16.0253 10.5678 15.9703 10.5905C15.9153 10.6133 15.8564 10.625 15.7969 10.625C15.7374 10.625 15.6784 10.6133 15.6235 10.5905C15.5685 10.5678 15.5185 10.5344 15.4765 10.4923ZM11.7382 10.4923L10.8319 9.58605C10.7469 9.50107 10.6992 9.38582 10.6992 9.26564C10.6992 9.14546 10.7469 9.0302 10.8319 8.94522C10.9169 8.86024 11.0322 8.8125 11.1523 8.8125C11.2725 8.8125 11.3878 8.86024 11.4728 8.94522L12.379 9.85147C12.464 9.93645 12.5117 10.0517 12.5117 10.1719C12.5117 10.2921 12.464 10.4073 12.379 10.4923C12.294 10.5773 12.1788 10.625 12.0586 10.625C11.9384 10.625 11.8232 10.5773 11.7382 10.4923ZM16.3827 15.0236L15.4765 14.1173C15.3915 14.0323 15.3437 13.9171 15.3437 13.7969C15.3437 13.6767 15.3915 13.5615 15.4765 13.4765C15.5614 13.3915 15.6767 13.3437 15.7969 13.3437C15.9171 13.3437 16.0323 13.3915 16.1173 13.4765L17.0235 14.3827C17.1085 14.4677 17.1563 14.583 17.1563 14.7031C17.1563 14.8233 17.1085 14.9386 17.0235 15.0236C16.9386 15.1085 16.8233 15.1563 16.7031 15.1563C16.5829 15.1563 16.4677 15.1085 16.3827 15.0236ZM10.8319 15.0236C10.7898 14.9815 10.7565 14.9315 10.7337 14.8765C10.7109 14.8216 10.6992 14.7626 10.6992 14.7031C10.6992 14.6436 10.7109 14.5847 10.7337 14.5297C10.7565 14.4748 10.7898 14.4248 10.8319 14.3827L11.7382 13.4765C11.8232 13.3915 11.9384 13.3437 12.0586 13.3437C12.1788 13.3437 12.294 13.3915 12.379 13.4765C12.464 13.5615 12.5117 13.6767 12.5117 13.7969C12.5117 13.9171 12.464 14.0323 12.379 14.1173L11.4728 15.0236C11.4307 15.0656 11.3807 15.099 11.3258 15.1218C11.2708 15.1446 11.2119 15.1563 11.1523 15.1563C11.0928 15.1563 11.0339 15.1446 10.9789 15.1218C10.924 15.099 10.874 15.0656 10.8319 15.0236ZM12.1719 12.4375H9.45312C9.33295 12.4375 9.21769 12.3898 9.13272 12.3048C9.04774 12.2198 9 12.1046 9 11.9844C9 11.8642 9.04774 11.749 9.13272 11.664C9.21769 11.579 9.33295 11.5313 9.45312 11.5313H12.1719C12.2921 11.5313 12.4073 11.579 12.4923 11.664C12.5773 11.749 12.625 11.8642 12.625 11.9844C12.625 12.1046 12.5773 12.2198 12.4923 12.3048C12.4073 12.3898 12.2921 12.4375 12.1719 12.4375ZM34.8281 19.6875C34.7079 19.6875 34.5927 19.6398 34.5077 19.5548C34.4227 19.4698 34.375 19.3546 34.375 19.2344V18.3281C34.375 18.208 34.4227 18.0927 34.5077 18.0077C34.5927 17.9228 34.7079 17.875 34.8281 17.875C34.9483 17.875 35.0636 17.9228 35.1485 18.0077C35.2335 18.0927 35.2812 18.208 35.2812 18.3281V19.2344C35.2812 19.3546 35.2335 19.4698 35.1485 19.5548C35.0636 19.6398 34.9483 19.6875 34.8281 19.6875ZM34.8281 15.1563C34.7079 15.1563 34.5927 15.1085 34.5077 15.0235C34.4227 14.9386 34.375 14.8233 34.375 14.7031V13.7969C34.375 13.6767 34.4227 13.5615 34.5077 13.4765C34.5927 13.3915 34.7079 13.3438 34.8281 13.3438C34.9483 13.3438 35.0636 13.3915 35.1485 13.4765C35.2335 13.5615 35.2812 13.6767 35.2812 13.7969V14.7031C35.2812 14.8233 35.2335 14.9386 35.1485 15.0235C35.0636 15.1085 34.9483 15.1563 34.8281 15.1563Z" fill="#FFD740"/>
<path d="M34.8281 16.9688C35.0784 16.9688 35.2812 16.7659 35.2812 16.5156C35.2812 16.2654 35.0784 16.0625 34.8281 16.0625C34.5779 16.0625 34.375 16.2654 34.375 16.5156C34.375 16.7659 34.5779 16.9688 34.8281 16.9688Z" fill="#FFD740"/>
<path d="M37.5469 16.9688H36.6406C36.5204 16.9688 36.4052 16.921 36.3202 16.836C36.2352 16.7511 36.1875 16.6358 36.1875 16.5156C36.1875 16.3954 36.2352 16.2802 36.3202 16.1952C36.4052 16.1102 36.5204 16.0625 36.6406 16.0625H37.5469C37.6671 16.0625 37.7823 16.1102 37.8673 16.1952C37.9523 16.2802 38 16.3954 38 16.5156C38 16.6358 37.9523 16.7511 37.8673 16.836C37.7823 16.921 37.6671 16.9688 37.5469 16.9688ZM33.0156 16.9688H32.1094C31.9892 16.9688 31.8739 16.921 31.789 16.836C31.704 16.7511 31.6562 16.6358 31.6562 16.5156C31.6562 16.3954 31.704 16.2802 31.789 16.1952C31.8739 16.1102 31.9892 16.0625 32.1094 16.0625H33.0156C33.1358 16.0625 33.2511 16.1102 33.336 16.1952C33.421 16.2802 33.4688 16.3954 33.4688 16.5156C33.4688 16.6358 33.421 16.7511 33.336 16.836C33.2511 16.921 33.1358 16.9688 33.0156 16.9688Z" fill="#FFD740"/>
<path d="M25.3125 36H21.6875C21.6186 36 21.5507 35.9843 21.4888 35.9541C21.4269 35.9239 21.3727 35.88 21.3303 35.8257C21.288 35.7715 21.2585 35.7082 21.2442 35.6409C21.2299 35.5735 21.2312 35.5038 21.2479 35.437L23.0604 28.187C23.1744 27.7312 23.8255 27.7307 23.9396 28.187L25.7521 35.437C25.7688 35.5038 25.77 35.5735 25.7557 35.6409C25.7415 35.7082 25.712 35.7715 25.6696 35.8257C25.6273 35.88 25.5731 35.9239 25.5112 35.9541C25.4493 35.9843 25.3813 36 25.3125 36Z" fill="#0277BD"/>
<path d="M23.9531 28.1217V24.6719H23.0469V28.1217C18.5719 33.1182 18.492 32.9543 18.5167 33.3126C18.5405 33.6555 18.6458 33.5391 21.3974 35.895C21.4563 35.9441 21.5267 35.9774 21.6021 35.9919C21.6774 36.0064 21.7552 36.0015 21.8281 35.9776C21.901 35.9538 21.9667 35.9119 22.019 35.8558C22.0713 35.7997 22.1085 35.7312 22.1271 35.6568L23.5 30.1652L24.8729 35.6568C24.8916 35.7311 24.9289 35.7995 24.9812 35.8555C25.0335 35.9115 25.0992 35.9534 25.172 35.9772C25.2449 36.001 25.3226 36.0059 25.3979 35.9915C25.4732 35.9772 25.5436 35.9439 25.6026 35.895C28.354 33.5392 28.4595 33.6555 28.4833 33.3126C28.4918 33.1893 28.4319 33.1223 23.9531 28.1217Z" fill="#B2EBF2"/>
<path d="M34.8281 36H12.1719C12.0517 36 11.9364 35.9523 11.8515 35.8673C11.7665 35.7823 11.7188 35.6671 11.7188 35.5469C11.7188 35.4267 11.7665 35.3114 11.8515 35.2265C11.9364 35.1415 12.0517 35.0938 12.1719 35.0938H34.8281C34.9483 35.0938 35.0636 35.1415 35.1485 35.2265C35.2335 35.3114 35.2812 35.4267 35.2812 35.5469C35.2812 35.6671 35.2335 35.7823 35.1485 35.8673C35.0636 35.9523 34.9483 36 34.8281 36Z" fill="#BF4B4B"/>
<path d="M20.4792 17.875H18.9687C18.8485 17.875 18.7333 17.9227 18.6483 18.0077C18.5633 18.0927 18.5156 18.2079 18.5156 18.3281C18.5156 19.7814 14.7515 22.7571 12.3789 24.2914C12.2968 24.3445 12.2341 24.4227 12.2001 24.5144C12.1661 24.6061 12.1627 24.7064 12.1904 24.8002H16.5785C17.3566 24.0869 18.0761 23.3122 18.73 22.4836C20.212 20.5927 20.9325 19.2335 20.9325 18.3284C20.9325 18.2688 20.9208 18.2098 20.8981 18.1548C20.8753 18.0998 20.8419 18.0498 20.7998 18.0077C20.7577 17.9656 20.7077 17.9322 20.6527 17.9094C20.5977 17.8867 20.5387 17.875 20.4792 17.875Z" fill="#E56161"/>
<path d="M21.9896 17.875H20.4791C20.359 17.875 20.2437 17.9227 20.1587 18.0077C20.0737 18.0927 20.026 18.2079 20.026 18.3281C20.026 19.5899 17.5716 22.6262 15.9219 24.3593C15.8601 24.4242 15.8189 24.5059 15.8036 24.5942C15.7882 24.6824 15.7994 24.7732 15.8356 24.8552L20.2876 24.8594C20.3755 24.6658 22.4427 20.0976 22.4427 18.3281C22.4427 18.2686 22.431 18.2097 22.4082 18.1547C22.3855 18.0997 22.3521 18.0498 22.31 18.0077C22.2679 17.9656 22.218 17.9322 22.163 17.9095C22.108 17.8867 22.0491 17.875 21.9896 17.875Z" fill="#FFD740"/>
<path d="M23.4999 17.875H21.9896C21.8694 17.875 21.7541 17.9227 21.6692 18.0077C21.5842 18.0927 21.5364 18.2079 21.5364 18.3281C21.5364 19.6189 20.0391 23.2102 19.4622 24.485C19.431 24.554 19.4175 24.6297 19.4231 24.7053C19.4287 24.7808 19.4531 24.8537 19.4942 24.9174L23.9531 24.6719V18.3281C23.9531 18.2079 23.9053 18.0927 23.8203 18.0077C23.7354 17.9227 23.6201 17.875 23.4999 17.875Z" fill="#E56161"/>
<path d="M34.621 24.2914C32.2485 22.7574 28.4844 19.7824 28.4844 18.3281C28.4844 18.2079 28.4367 18.0927 28.3517 18.0077C28.2667 17.9227 28.1515 17.875 28.0313 17.875H26.5209C26.4007 17.875 26.2854 17.9227 26.2005 18.0077C26.1155 18.0927 26.0677 18.2079 26.0677 18.3281C26.0677 19.2332 26.7882 20.5924 28.2703 22.4833C28.9242 23.3119 29.6437 24.0866 30.4218 24.7999H34.8097C34.8373 24.7062 34.8339 24.606 34.7999 24.5143C34.7659 24.4227 34.7031 24.3444 34.621 24.2914Z" fill="#FFD740"/>
<path d="M31.0781 24.3593C29.4283 22.6261 26.9739 19.5899 26.9739 18.3281C26.9739 18.2079 26.9261 18.0927 26.8412 18.0077C26.7562 17.9227 26.6409 17.875 26.5208 17.875H25.0104C24.8902 17.875 24.7749 17.9227 24.69 18.0077C24.605 18.0927 24.5573 18.2079 24.5573 18.3281C24.5573 20.0976 26.6246 24.6658 26.7125 24.8594L31.1644 24.8552C31.2007 24.7732 31.2118 24.6824 31.1964 24.5942C31.181 24.5059 31.1399 24.4242 31.0781 24.3593Z" fill="#E56161"/>
<path d="M27.5058 24.9175C27.5469 24.8538 27.5713 24.7809 27.5769 24.7053C27.5825 24.6298 27.5691 24.554 27.5379 24.485C26.9607 23.2101 25.4636 19.6189 25.4636 18.3281C25.4636 18.2079 25.4158 18.0927 25.3308 18.0077C25.2459 17.9227 25.1306 17.875 25.0104 17.875H23.5V24.9175H27.5058Z" fill="#FFD740"/>
<path d="M12.1719 24.6719C12.1719 25.1526 12.3628 25.6136 12.7027 25.9535C13.0427 26.2934 13.5037 26.4844 13.9844 26.4844C14.4651 26.4844 14.9261 26.2934 15.266 25.9535C15.6059 25.6136 15.7969 25.1526 15.7969 24.6719" fill="#D65858"/>
<path d="M15.7969 24.6719C15.7969 25.1526 15.9878 25.6136 16.3277 25.9535C16.6677 26.2934 17.1287 26.4844 17.6094 26.4844C18.0901 26.4844 18.5511 26.2934 18.891 25.9535C19.2309 25.6136 19.4219 25.1526 19.4219 24.6719" fill="#FFC400"/>
<path d="M19.4219 24.6719C19.4219 25.6729 20.3348 26.4844 21.4609 26.4844C22.5871 26.4844 23.5 25.6729 23.5 24.6719" fill="#D65858"/>
<path d="M23.5 24.6719C23.5 25.6729 24.4129 26.4844 25.5391 26.4844C26.6652 26.4844 27.5781 25.6729 27.5781 24.6719" fill="#FFC400"/>
<path d="M27.5781 24.6719C27.5781 25.1526 27.7691 25.6136 28.109 25.9535C28.4489 26.2934 28.9099 26.4844 29.3906 26.4844C29.8713 26.4844 30.3323 26.2934 30.6723 25.9535C31.0122 25.6136 31.2031 25.1526 31.2031 24.6719" fill="#D65858"/>
<path d="M31.2031 24.6719C31.2031 25.1526 31.3941 25.6136 31.734 25.9535C32.0739 26.2934 32.5349 26.4844 33.0156 26.4844C33.4963 26.4844 33.9573 26.2934 34.2973 25.9535C34.6372 25.6136 34.8281 25.1526 34.8281 24.6719" fill="#FFC400"/>
<path d="M20.7812 33.7344C21.2818 33.7344 21.6875 33.3286 21.6875 32.8281C21.6875 32.3276 21.2818 31.9219 20.7812 31.9219C20.2807 31.9219 19.875 32.3276 19.875 32.8281C19.875 33.3286 20.2807 33.7344 20.7812 33.7344Z" fill="#E0F7FA"/>
<path d="M26.0205 18.3281H29.3906V18.9087C29.3906 19.3556 29.2131 19.7842 28.8971 20.1002C28.5811 20.4162 28.1525 20.5938 27.7056 20.5938C27.2587 20.5938 26.8301 20.4162 26.514 20.1002C26.198 19.7842 26.0205 19.3556 26.0205 18.9087V18.3281Z" fill="#FFC400"/>
<path d="M17.6094 18.3281H20.9795V18.9087C20.9795 19.3556 20.802 19.7842 20.4859 20.1002C20.1699 20.4162 19.7413 20.5938 19.2944 20.5938C18.8475 20.5938 18.4189 20.4162 18.1029 20.1002C17.7869 19.7842 17.6094 19.3556 17.6094 18.9087V18.3281ZM23.5 18.3281H26.0205V19.3335C26.0205 19.6677 25.8877 19.9883 25.6514 20.2246C25.415 20.461 25.0945 20.5938 24.7603 20.5938C24.426 20.5938 24.1055 20.461 23.8691 20.2246C23.6328 19.9883 23.5 19.6677 23.5 19.3335V18.3281Z" fill="#D65858"/>
<path d="M27.1249 18.7813H18.0624C17.9729 18.7811 17.8854 18.7544 17.811 18.7046C17.7366 18.6548 17.6787 18.584 17.6444 18.5013C17.6101 18.4186 17.6011 18.3276 17.6185 18.2397C17.6359 18.1519 17.6788 18.0712 17.742 18.0077L23.1795 12.5702C23.2216 12.5281 23.2716 12.4948 23.3265 12.472C23.3815 12.4492 23.4404 12.4375 23.4999 12.4375C23.5595 12.4375 23.6184 12.4492 23.6734 12.472C23.7283 12.4948 23.7783 12.5281 23.8204 12.5702L27.1249 18.7813Z" fill="#E56161"/>
<path d="M29.258 18.0078C23.517 12.2903 23.8365 12.5297 23.6516 12.4641L26.0205 18.7813H28.9375C29.0271 18.7811 29.1146 18.7544 29.189 18.7046C29.2634 18.6548 29.3213 18.5841 29.3556 18.5013C29.3899 18.4186 29.3989 18.3276 29.3815 18.2398C29.3641 18.1519 29.3211 18.0712 29.258 18.0078Z" fill="#FFD740"/>
<path d="M22.2397 20.5938C21.9055 20.5938 21.585 20.461 21.3486 20.2246C21.1123 19.9883 20.9795 19.6677 20.9795 19.3335V18.7812L21.2344 18.3281H23.5V19.3335C23.5 19.6677 23.3672 19.9883 23.1309 20.2246C22.8945 20.461 22.574 20.5938 22.2397 20.5938Z" fill="#FFC400"/>
<path d="M20.9795 18.7812H23.5V12.438C23.4487 12.438 20.9795 18.7812 20.9795 18.7812Z" fill="#FFD740"/>
</g>
<defs>
<clipPath id="clip0_40_11732">
<rect width="29" height="29" fill="white" transform="translate(9 7)"/>
</clipPath>
</defs>
</svg>
