<svg width="65" height="65" viewBox="0 0 65 65" fill="none" xmlns="http://www.w3.org/2000/svg">
<circle cx="32.5" cy="32.5" r="32.5" fill="white"/>
<g clip-path="url(#clip0_33_3909)">
<path d="M47.2722 28.2756C47.2722 34.343 43.7842 38.5028 41.3204 40.423H22.6641C20.2331 38.531 16.7279 34.3063 16.7279 28.2756C16.7279 19.8544 23.5789 13.0034 32.0001 13.0034C40.4212 13.0034 47.2722 19.8544 47.2722 28.2756Z" fill="#E17B00"/>
<path d="M47.2722 28.2755C47.2722 34.343 43.7842 38.5028 41.3204 40.4229H31.904V13.0041C39.8719 12.8096 47.2722 19.4866 47.2722 28.2755Z" fill="#DD4F00"/>
<path d="M38.7805 39.2854L25.0841 39.2009C21.3131 36.813 19.0714 32.7521 19.0714 28.2753C19.0714 21.1464 24.8712 15.3467 32 15.3467C39.1289 15.3467 44.9286 21.1464 44.9286 28.2753C44.9287 32.7494 42.581 36.9388 38.7805 39.2854Z" fill="#FABC36"/>
<path d="M44.9287 28.2756C44.9287 32.7494 42.5812 36.9389 38.7808 39.2856L31.904 39.2434V15.3478C38.7037 15.1818 44.9287 20.866 44.9287 28.2756Z" fill="#E89A18"/>
<path d="M25.8062 36.8619C23.0449 34.8741 21.4149 31.71 21.4149 28.2755C21.4149 22.4389 26.1633 17.6904 32 17.6904C37.8366 17.6904 42.585 22.4389 42.585 28.2755C42.585 31.7046 40.8755 34.9669 38.0845 36.9377L25.8062 36.8619Z" fill="#FDE07A"/>
<path d="M42.5851 28.2757C42.5851 31.7051 40.8759 34.9673 38.0847 36.9382L31.904 36.9V17.6914C37.5243 17.5542 42.5851 22.2375 42.5851 28.2757Z" fill="#FFD355"/>
<path d="M39.5525 35.3066L40.2025 36.4126V40.4232H23.7976V36.4126L24.5617 35.3066H39.5525Z" fill="#DD4F00"/>
<path d="M40.2025 36.4123V40.4229H32.0001V35.3062H39.5526L40.2025 36.4123Z" fill="#BF3100"/>
<path d="M26.5678 24.1143L26.2333 22.969L31.093 18.1116C31.5453 17.6593 32.2757 17.6539 32.7359 18.0976L32.7366 18.0984C32.7382 18.0999 32.7398 18.1015 32.7413 18.1023C32.7413 18.103 32.7421 18.103 32.7421 18.103C32.7429 18.1046 32.7437 18.1054 32.7444 18.1062C32.7452 18.1062 32.7452 18.1069 32.7452 18.1069C32.7476 18.1085 32.7476 18.1093 32.7476 18.1093C32.8366 18.1952 33.5202 18.8569 37.7729 22.969L37.5765 24.1383L26.5678 24.1143Z" fill="#DD4F00"/>
<path d="M37.773 22.9687L37.5762 24.1381L32.0001 24.1256V17.7715C32.2672 17.7887 32.5289 17.8973 32.7359 18.0972L32.7367 18.098C32.7383 18.0996 32.7398 18.1011 32.7414 18.1019C32.7414 18.1027 32.7422 18.1027 32.7422 18.1027C32.743 18.1043 32.7437 18.1051 32.7445 18.1058C32.7453 18.1058 32.7453 18.1066 32.7453 18.1066C32.7477 18.1082 32.7477 18.109 32.7477 18.109C32.8367 18.1949 33.5202 18.8565 37.773 22.9687Z" fill="#BF3100"/>
<path d="M24.5617 35.3065L24.2222 34.0687L25.8084 25.3127L26.5678 24.1143L37.5764 24.1383L38.1965 25.3127L39.7788 34.0686L39.5525 35.3064L24.5617 35.3065Z" fill="#FABC36"/>
<path d="M39.7791 34.0689L39.5526 35.3063H32.0001V24.126L37.5762 24.1385L38.1964 25.3126C38.1964 25.3126 39.3721 31.816 39.7791 34.0689Z" fill="#E89A18"/>
<path d="M23.8068 42.376C23.8068 43.533 23.1228 44.5707 22.0643 45.0198C21.1774 45.396 19.1005 46.2771 19.1005 48.1958C19.1005 52.4327 27.7665 53.0001 32.0001 53.0001C36.2342 53.0001 44.8996 52.4326 44.8996 48.1958C44.8996 46.2778 43.0627 45.4936 41.9651 45.0251C40.9066 44.5731 40.2226 43.5333 40.2226 42.376H23.8068Z" fill="#E5E9EC"/>
<path d="M44.8998 48.1958C44.8998 52.4322 36.2341 53.0001 32.0001 53.0001V42.376H40.2228C40.2228 43.5329 40.9063 44.5734 41.9648 45.025C43.0624 45.4937 44.8998 46.278 44.8998 48.1958Z" fill="#D5E0E5"/>
<path d="M40.2025 40.0322H23.7976V44.7072C23.7976 49.2334 27.426 52.9737 31.9521 52.9997C36.4969 53.0258 40.2025 49.3362 40.2025 44.7975V40.0322Z" fill="#93EB45"/>
<path d="M40.2025 40.0322V44.7975C40.2025 49.3205 36.5223 52.9999 32.0001 52.9999V40.0322H40.2025Z" fill="#70BE21"/>
<path d="M23.7195 45.8129C25.6178 45.8129 27.1567 44.274 27.1567 42.3757C27.1567 40.4774 25.6178 38.9385 23.7195 38.9385C21.8212 38.9385 20.2823 40.4774 20.2823 42.3757C20.2823 44.274 21.8212 45.8129 23.7195 45.8129Z" fill="#FFD355"/>
<path d="M23.7195 43.4695C24.3235 43.4695 24.8132 42.9799 24.8132 42.3759C24.8132 41.7719 24.3235 41.2822 23.7195 41.2822C23.1155 41.2822 22.6259 41.7719 22.6259 42.3759C22.6259 42.9799 23.1155 43.4695 23.7195 43.4695Z" fill="#DD4F00"/>
<path d="M40.2806 45.8129C42.1789 45.8129 43.7178 44.274 43.7178 42.3757C43.7178 40.4774 42.1789 38.9385 40.2806 38.9385C38.3823 38.9385 36.8434 40.4774 36.8434 42.3757C36.8434 44.274 38.3823 45.8129 40.2806 45.8129Z" fill="#FABC36"/>
<path d="M40.2806 43.4695C40.8846 43.4695 41.3743 42.9799 41.3743 42.3759C41.3743 41.7719 40.8846 41.2822 40.2806 41.2822C39.6766 41.2822 39.187 41.7719 39.187 42.3759C39.187 42.9799 39.6766 43.4695 40.2806 43.4695Z" fill="#BF3100"/>
<path d="M23.7976 36.4119H40.2024L39.7788 34.0684H24.2222L23.7976 36.4119Z" fill="#E17B00"/>
<path d="M40.2025 36.4124H32.0001V34.0688H39.7791C40.0306 35.4594 40.2017 36.4069 40.2025 36.4124Z" fill="#DD4F00"/>
<path d="M38.1965 25.3128L37.773 22.9692H26.2331L26.233 22.9693L25.8085 25.3128H38.1965Z" fill="#E17B00"/>
<path d="M38.1964 25.3123H32.0001V22.9688H37.773C37.8074 23.1594 37.9698 24.0601 38.1964 25.3123ZM34.5501 47.2085C33.9833 46.896 33.2707 47.1022 32.9582 47.6688C32.8637 47.8401 32.7249 47.983 32.5564 48.0825C32.3879 48.182 32.1958 48.2345 32.0001 48.2345C31.8044 48.2345 31.6122 48.182 31.4437 48.0825C31.2752 47.983 31.1365 47.8401 31.0419 47.6688C30.7296 47.1022 30.0169 46.896 29.45 47.2085C28.8834 47.521 28.6772 48.2337 28.9898 48.8004C29.5944 49.897 30.7479 50.5781 32.0001 50.5781C33.2522 50.5781 34.4057 49.897 35.0104 48.8004C35.3228 48.2337 35.1168 47.521 34.5501 47.2085Z" fill="#DD4F00"/>
<path d="M35.0107 48.8004C34.7137 49.3388 34.2777 49.7878 33.7482 50.1005C33.2187 50.4132 32.615 50.5782 32.0001 50.5783V48.2348C32.3985 48.2348 32.7656 48.0176 32.9578 47.6692C33.271 47.1021 33.9835 46.8958 34.5498 47.2083C35.117 47.5208 35.3232 48.234 35.0107 48.8004Z" fill="#BF3100"/>
<path d="M27.313 31.0486C27.9601 31.0486 28.4847 30.524 28.4847 29.8769C28.4847 29.2297 27.9601 28.7051 27.313 28.7051C26.6658 28.7051 26.1412 29.2297 26.1412 29.8769C26.1412 30.524 26.6658 31.0486 27.313 31.0486Z" fill="#DD4F00"/>
<path d="M32.0001 31.0486C32.6472 31.0486 33.1719 30.524 33.1719 29.8769C33.1719 29.2297 32.6472 28.7051 32.0001 28.7051C31.3529 28.7051 30.8283 29.2297 30.8283 29.8769C30.8283 30.524 31.3529 31.0486 32.0001 31.0486Z" fill="#DD4F00"/>
<path d="M33.1718 29.8769C33.1718 30.5237 32.6469 31.0486 32.0001 31.0486V28.7051C32.6469 28.7051 33.1718 29.23 33.1718 29.8769Z" fill="#BF3100"/>
<path d="M36.6872 31.0486C37.3343 31.0486 37.8589 30.524 37.8589 29.8769C37.8589 29.2297 37.3343 28.7051 36.6872 28.7051C36.04 28.7051 35.5154 29.2297 35.5154 29.8769C35.5154 30.524 36.04 31.0486 36.6872 31.0486Z" fill="#BF3100"/>
</g>
<defs>
<clipPath id="clip0_33_3909">
<rect width="40" height="40" fill="white" transform="translate(12 13)"/>
</clipPath>
</defs>
</svg>
