<svg width="65" height="65" viewBox="0 0 65 65" fill="none" xmlns="http://www.w3.org/2000/svg">
<circle cx="32.5" cy="32.5" r="32.5" fill="white"/>
<path d="M15.4575 46.9903C15.6455 46.5176 15.9485 46.0994 16.3391 45.7735C16.4407 45.6895 16.5687 45.8415 16.4671 45.9271C16.1023 46.2311 15.8175 46.6239 15.6431 47.0631C15.5951 47.1871 15.4087 47.1127 15.4575 46.9903Z" fill="#D2D2D2"/>
<path d="M11.8863 51.1378C11.7423 50.6114 12.0383 50.129 12.3647 49.8522C12.6607 49.601 12.9863 49.4714 13.2567 49.3002C13.791 48.9581 14.1714 48.4216 14.3175 47.8042C14.3655 47.589 14.5735 47.4522 14.7967 47.5026C14.9 47.5263 14.9897 47.59 15.0461 47.6796C15.1025 47.7693 15.121 47.8777 15.0975 47.981C14.9069 48.8065 14.3987 49.5236 13.6831 49.977C13.4079 50.1498 13.0879 50.2882 12.8831 50.4618C12.7407 50.5826 12.6183 50.7794 12.6583 50.9242C12.6865 51.0266 12.6729 51.136 12.6205 51.2284C12.5681 51.3207 12.4811 51.3884 12.3787 51.4166C12.2763 51.4449 12.167 51.4313 12.0746 51.3788C11.9823 51.3264 11.9145 51.2394 11.8863 51.137V51.1378Z" fill="#C679E2"/>
<path d="M15.212 52.8575C15.1639 52.8362 15.1204 52.8056 15.0842 52.7675C15.0479 52.7293 15.0195 52.6844 15.0006 52.6353C14.9818 52.5862 14.9728 52.5338 14.9742 52.4812C14.9756 52.4286 14.9873 52.3768 15.0088 52.3287C15.572 51.0623 14.9592 49.7047 14.9424 49.6111C14.6256 48.7015 14.6488 48.5303 14.72 47.5671C14.7245 47.4862 14.7535 47.4086 14.8031 47.3446C14.8527 47.2805 14.9206 47.233 14.9977 47.2084C15.0749 47.1838 15.1578 47.1831 15.2353 47.2066C15.3129 47.2301 15.3814 47.2766 15.432 47.3399C16.784 49.0935 17.948 50.1951 17.928 51.6503C17.9265 51.7554 17.8837 51.8557 17.8089 51.9296C17.734 52.0034 17.6331 52.0447 17.528 52.0447H17.5232C17.4172 52.0432 17.3162 51.9998 17.2422 51.9239C17.1683 51.848 17.1275 51.7459 17.1288 51.6399C17.1416 50.5983 16.2008 49.6271 15.5112 48.7279C15.5728 49.0263 15.7056 49.3519 15.8 49.6495C16.144 50.7247 16.1232 51.7919 15.74 52.6535C15.7186 52.7015 15.6881 52.7449 15.65 52.7811C15.6119 52.8173 15.5671 52.8456 15.5181 52.8645C15.469 52.8834 15.4168 52.8924 15.3642 52.8911C15.3117 52.8897 15.26 52.8789 15.212 52.8575Z" fill="#C679E2"/>
<path d="M11.1271 48.4079C11.2863 48.2559 11.5399 48.2615 11.6919 48.4223C11.8215 48.5583 12.1159 48.5271 12.3287 48.4199C12.6167 48.2735 12.9327 47.9599 13.2551 47.7471C13.88 47.3373 14.6366 47.1784 15.3735 47.3023C15.4254 47.3112 15.4749 47.3302 15.5193 47.3583C15.5638 47.3863 15.6023 47.4229 15.6326 47.4658C15.6629 47.5088 15.6845 47.5573 15.696 47.6085C15.7076 47.6598 15.7089 47.7129 15.6999 47.7647C15.6808 47.8687 15.6217 47.9611 15.5353 48.0221C15.4489 48.0831 15.342 48.1079 15.2375 48.0911C14.7013 48.0012 14.1509 48.1166 13.6959 48.4143C13.3711 48.6295 13.1047 48.9223 12.6911 49.1327C11.6079 49.6823 10.6463 48.8607 11.1271 48.4079Z" fill="#C679E2"/>
<path d="M16.2959 48.0898C15.9767 48.6002 15.5919 48.2954 15.0815 47.9754C14.5711 47.6554 14.1287 47.4426 14.4479 46.9322C14.6032 46.691 14.8473 46.5208 15.1272 46.4583C15.4072 46.3958 15.7005 46.4462 15.9435 46.5985C16.1866 46.7507 16.3599 46.9926 16.4259 47.2718C16.4918 47.5509 16.4452 47.8448 16.2959 48.0898Z" fill="#FF5252"/>
<path d="M29.912 43.1417C30.0862 42.6636 30.3765 42.2364 30.7568 41.8985C30.8528 41.8105 30.9896 41.9593 30.8896 42.0481C30.5338 42.3637 30.2622 42.7629 30.0992 43.2097C30.0544 43.3337 29.8672 43.2657 29.912 43.1417Z" fill="#D2D2D2"/>
<path d="M16.3399 45.0528C16.2909 45.034 16.246 45.0057 16.2078 44.9696C16.1697 44.9334 16.1391 44.8901 16.1177 44.8421C16.0963 44.7942 16.0845 44.7424 16.0831 44.6899C16.0818 44.6374 16.0907 44.5851 16.1095 44.536C17.3294 41.3715 17.9766 38.0152 18.0207 34.624C18.0263 34.0832 18.8287 34.112 18.8207 34.6352C18.775 38.1208 18.11 41.5704 16.8567 44.8232C16.8379 44.8723 16.8095 44.9172 16.7733 44.9553C16.737 44.9934 16.6936 45.024 16.6456 45.0454C16.5975 45.0667 16.5457 45.0783 16.4931 45.0796C16.4405 45.0809 16.389 45.0718 16.3399 45.0528Z" fill="#451326"/>
<path d="M30.7559 23.6001C31.3943 25.7689 31.4071 25.8865 31.5663 26.1113C31.8991 26.5809 32.4463 26.4593 32.6303 25.9537C32.7151 25.7193 32.7047 25.4633 32.6935 25.2137" fill="#9A32B8"/>
<path d="M51.2575 28.1352C50.5743 28.7408 49.8815 28.4312 49.1055 28.26C47.1279 27.8424 45.0583 27.9832 43.1375 27.3672C39.4287 26.216 36.8647 22.156 32.8335 21.4264C32.8279 21.4224 32.8143 21.4296 32.8127 21.42C32.7679 21.4224 32.7319 21.4136 32.6855 21.4064C32.6703 21.404 32.6415 21.4088 32.6399 21.3984C31.9463 21.3032 31.2679 21.3304 30.6079 21.1648C30.5631 21.1672 30.5255 21.1488 30.4951 21.1432C29.8495 20.9752 29.0095 20.5408 28.8391 19.8952L28.8151 19.7504C28.7503 19.1384 29.2831 18.5624 29.8151 18.2256C29.8815 17.4688 30.0551 16.588 30.3223 15.7904C30.5463 15.1208 31.0943 14.6064 31.7623 14.392C35.1975 13.2208 39.0799 12.2976 42.3559 13.728C44.5439 14.6736 45.8375 16.2784 49.4455 18.96C50.3655 19.6464 51.7167 20.256 52.4887 21.076C53.0695 21.6984 52.8935 23.052 52.8311 23.8552C52.7297 24.9612 52.4405 26.0417 51.9759 27.0504C51.7983 27.4536 51.5879 27.8424 51.2575 28.1352Z" fill="#FFCBA6"/>
<path d="M41.828 19.7719C38.6872 18.9447 35.7528 18.1951 32.66 17.9159C31.7144 17.8183 30.668 17.8039 29.8696 18.3095C29.7584 18.3815 29.6512 18.2127 29.7624 18.1415C30.5992 17.6087 31.688 17.6167 32.6792 17.7167C35.7696 17.9951 38.6392 18.7255 41.88 19.5775C42.0048 19.6111 41.9608 19.8015 41.828 19.7719Z" fill="#F78C4C"/>
<path d="M32.1655 25.5984C32.4847 25.6056 32.7559 25.3448 32.8655 25.0424C33.0063 24.6664 32.9639 24.4816 32.8311 21.852C32.7589 21.705 32.6935 21.5547 32.6351 21.4016C31.7095 21.2736 30.7751 21.3552 29.8871 20.9272C30.095 22.346 30.5829 23.7092 31.3223 24.9376C31.5175 25.2528 31.7935 25.6 32.1655 25.5984Z" fill="#FFA96D"/>
<path d="M39.8816 19.2487C39.4808 18.7223 39.0176 18.0031 38.9896 17.1095C38.965 16.2962 39.1921 15.4952 39.64 14.8159C39.7136 14.7063 39.88 14.8159 39.808 14.9271C39.3826 15.5714 39.1666 16.3313 39.1896 17.1031C39.2096 17.7567 39.4728 18.3807 40.0408 19.1271C40.1208 19.2327 39.9608 19.3543 39.8816 19.2487ZM37.3032 18.5735C36.971 18.0914 36.7839 17.5242 36.764 16.9391C36.7635 16.9259 36.7657 16.9127 36.7704 16.9004C36.7751 16.888 36.7822 16.8767 36.7913 16.8671C36.8003 16.8575 36.8112 16.8498 36.8233 16.8445C36.8354 16.8391 36.8484 16.8362 36.8616 16.8359H36.864C36.9184 16.8359 36.9632 16.8791 36.964 16.9327C36.9808 17.4743 37.16 18.0159 37.468 18.4599C37.483 18.4817 37.4888 18.5087 37.484 18.5348C37.4792 18.5609 37.4642 18.584 37.4424 18.5991C37.4205 18.6141 37.3936 18.6199 37.3675 18.6151C37.3414 18.6103 37.3182 18.5953 37.3032 18.5735Z" fill="#F78C4C"/>
<path d="M37.0216 29.0082C37.3416 29.2418 37.828 29.077 38.0616 28.7562C38.2952 28.4354 38.3288 28.013 38.32 27.6178C38.2992 26.2138 37.8456 24.8442 37.2464 23.5866C35.8808 22.5706 34.4624 21.6994 32.8112 21.4282C32.816 21.5682 32.8264 21.7122 32.8312 21.8522C34.4792 25.681 36.7352 28.789 37.0216 29.0082Z" fill="#FFA96D"/>
<path d="M41.4943 29.0048C41.5855 29.0752 41.6735 29.1512 41.7823 29.192C42.1503 29.34 42.5791 29.0544 42.7223 28.6816C42.9055 28.2208 42.7375 27.632 42.5679 27.1568C40.6135 26.3608 38.9727 24.8624 37.2463 23.5864C37.5919 24.3112 37.8807 25.0592 38.0743 25.8232C39.1387 26.9622 40.2815 28.0254 41.4943 29.0048Z" fill="#FFA96D"/>
<path d="M28.3168 18.7199C29.0408 19.4703 30.068 19.9335 31.1136 19.9327C32.4656 19.9327 32.9824 17.8735 31.3656 17.6007C30.5868 17.4696 29.7942 17.4406 29.008 17.5143C28.6544 17.5471 28.3624 17.5479 28.1864 17.8983C28.0488 18.1703 28.1064 18.5023 28.3168 18.7199ZM37.4576 29.4727C37.6224 29.7655 37.3752 29.8759 37.1816 29.6135C36.76 29.0423 36.3472 28.4559 35.9872 27.8439C35.9112 27.7159 35.6408 27.3263 35.9336 27.2359C36.224 27.1479 36.468 27.7087 37.4576 29.4727ZM41.0744 28.3119L42.3992 29.5999C42.64 29.8343 42.4344 30.0103 42.1736 29.8135C41.608 29.3855 41.0456 28.9407 40.5272 28.4559C40.4184 28.3543 40.048 28.0575 40.3032 27.8879C40.5208 27.7439 40.9512 28.1919 41.0744 28.3119Z" fill="#9A32B8"/>
<path d="M38.2175 25.9937L37.1111 23.6817C37.0535 23.5633 37.2335 23.4769 37.2911 23.5953L38.3975 25.9073C38.4033 25.9192 38.4066 25.9321 38.4074 25.9454C38.4081 25.9586 38.4061 25.9718 38.4017 25.9842C38.3972 25.9967 38.3903 26.0081 38.3813 26.0178C38.3724 26.0276 38.3615 26.0354 38.3495 26.0409C38.3258 26.0521 38.2985 26.0535 38.2738 26.0446C38.249 26.0358 38.2288 26.0175 38.2175 25.9937ZM32.8967 22.5601C32.8716 22.56 32.8474 22.5505 32.8289 22.5335C32.8104 22.5165 32.7989 22.4932 32.7967 22.4681L32.7231 21.5369C32.7135 21.4089 32.9111 21.3833 32.9231 21.5209L32.9967 22.4513C32.9987 22.4779 32.99 22.5043 32.9727 22.5245C32.9553 22.5448 32.9305 22.5573 32.9039 22.5593H32.8959L32.8967 22.5601Z" fill="#F78C4C"/>
<path d="M26.3687 34.8097C26.8175 34.7329 27.2295 34.4617 27.4767 34.0801C27.7239 33.6985 27.9455 33.1609 27.8335 32.7201C28.7287 32.2017 28.9567 31.0369 28.5815 30.2721C28.8895 29.9465 29.0503 29.4881 29.0119 29.0417C28.9727 28.5953 28.7527 28.0417 28.3935 27.7745C28.9503 26.7281 28.1863 25.4817 27.2095 25.3329C27.1935 24.1609 26.0439 23.3705 25.1015 23.5409C25.021 23.3161 24.8902 23.1128 24.719 22.9465C24.5478 22.7802 24.3408 22.6552 24.1138 22.5812C23.8869 22.5073 23.646 22.4862 23.4097 22.5197C23.1733 22.5532 22.9478 22.6403 22.7503 22.7745C22.3647 21.7969 21.0263 21.6545 20.4439 22.5297C19.5631 21.9129 18.5199 22.3737 18.2543 23.2681C17.8383 23.1985 17.3423 23.2473 16.9999 23.4921C16.6545 23.7422 16.4212 24.118 16.3503 24.5385C15.4783 24.6761 14.7871 25.6713 15.1143 26.6281C14.7128 26.9019 14.4112 27.2991 14.2554 27.7595C14.0995 28.2199 14.0977 28.7186 14.2503 29.1801C13.9898 29.5372 13.8704 29.9781 13.915 30.4179C13.9596 30.8578 14.165 31.2656 14.4919 31.5633C14.2279 32.5793 14.7375 33.5257 15.6287 33.9001C15.6079 34.9753 16.6103 35.9137 17.7575 35.7305C17.8551 36.2193 18.2279 36.7337 18.6855 36.9297C19.1439 37.1257 19.6975 37.0817 20.1191 36.8137C20.7263 37.4017 21.8607 37.5393 22.6679 36.9313C23.3607 37.2233 24.3935 36.9201 24.7815 36.0769C25.1151 36.1377 25.4743 35.9993 25.7535 35.8065C26.0327 35.6145 26.3071 35.1425 26.3695 34.8097H26.3687Z" fill="#FF5252"/>
<path d="M25.9991 34.4238C26.2069 34.3868 26.405 34.3077 26.5812 34.1915C26.7574 34.0752 26.9081 33.9243 27.0239 33.7478C27.2535 33.395 27.4575 32.8982 27.3535 32.4902C28.1823 32.0102 28.3935 30.9318 28.0463 30.2238C28.3311 29.9238 28.4799 29.4982 28.4439 29.0854C28.4079 28.6726 28.2039 28.1606 27.8719 27.9134C28.3871 26.9454 27.6807 25.791 26.7759 25.6534C26.7615 24.5694 25.6975 23.8374 24.8263 23.9958C24.7518 23.7879 24.6307 23.5998 24.4722 23.4459C24.3138 23.292 24.1222 23.1763 23.9122 23.1078C23.7022 23.0394 23.4793 23.0198 23.2606 23.0508C23.0419 23.0817 22.8331 23.1622 22.6503 23.2862C22.2935 22.3822 21.0543 22.2502 20.5159 23.0598C19.7007 22.4886 18.7351 22.9158 18.4895 23.743C18.1055 23.679 17.6463 23.7238 17.3295 23.951C17.0098 24.1823 16.7937 24.5299 16.7279 24.919C15.9207 25.0462 15.2807 25.967 15.5839 26.8518C15.2122 27.1052 14.9331 27.4727 14.7887 27.8988C14.6444 28.3248 14.6427 28.7863 14.7839 29.2134C14.5429 29.5441 14.4324 29.9521 14.4738 30.3591C14.5151 30.7662 14.7053 31.1436 15.0079 31.419C14.7639 32.3598 15.2351 33.235 16.0599 33.5814C16.0407 34.5766 16.9679 35.4454 18.0303 35.2758C18.1199 35.7278 18.4647 36.2038 18.8887 36.3854C19.3127 36.567 19.8255 36.5254 20.2151 36.2782C20.7775 36.8222 21.8271 36.9494 22.5735 36.3862C23.2151 36.6574 24.1711 36.3766 24.5295 35.5958C24.8383 35.6518 25.1711 35.5238 25.4295 35.3462C25.6879 35.1686 25.9415 34.7318 25.9991 34.4238Z" fill="#E6033A"/>
<path d="M24.736 26.3186L24.1376 26.5058L24.248 25.9466L24.6896 25.561L24.736 26.3186Z" fill="#EAEAEA"/>
<path d="M25.1207 24.7107L24.6895 25.5611L24.4335 25.0059L24.5695 24.3179L25.1207 24.7107Z" fill="#D2D2D2"/>
<path d="M24.1375 26.5058L23.6799 27.3322L23.0967 26.9554L23.6247 26.4922H23.6255L24.1375 26.5058Z" fill="#C7C7C7"/>
<path d="M22.4512 26.5214L22.0344 26.7902C21.9395 26.5859 21.8839 26.3655 21.8704 26.1406L22.4512 26.5214Z" fill="#D2D2D2"/>
<path d="M24.7359 26.3184C24.4615 26.7928 24.0799 27.1472 23.6799 27.3312L24.1375 26.5056L24.7359 26.3184Z" fill="#DEDEDE"/>
<path d="M24.1375 26.5058L23.6255 26.493L24.2471 25.9482L24.1375 26.5058Z" fill="#FFFAF4"/>
<path d="M22.3727 25.2793L21.8695 26.1393C21.8519 25.9073 21.8711 25.6601 21.9271 25.4065L22.3727 25.2793Z" fill="#D2D2D2"/>
<path d="M22.3727 25.279L21.9271 25.407C21.9935 25.1158 22.1071 24.831 22.2431 24.5942L22.3727 25.279Z" fill="#D2D2D2"/>
<path d="M22.8727 24.4041L22.2551 24.5729C22.3991 24.3225 22.5735 24.1065 22.7647 23.9297L22.8727 24.4041Z" fill="#FFFAF4"/>
<path d="M23.3368 23.5454L22.8728 24.4038L22.7648 23.9294C22.944 23.763 23.1384 23.6334 23.3368 23.5454Z" fill="#D2D2D2"/>
<path d="M23.9519 23.9598L23.3375 23.5454C23.5503 23.4502 23.7679 23.4046 23.9775 23.415L23.9519 23.9598Z" fill="#DEDEDE"/>
<path d="M24.4336 25.0059L24.1544 24.3995L24.5704 24.3179L24.4336 25.0059Z" fill="#EAEAEA"/>
<path d="M24.9679 24.1135L24.5695 24.3175L24.5927 23.6343C24.7519 23.7559 24.8783 23.9199 24.9679 24.1143V24.1135Z" fill="#DEDEDE"/>
<path d="M25.1207 24.7103L24.5695 24.3175L24.9679 24.1143C25.0495 24.2911 25.1007 24.4935 25.1207 24.7103Z" fill="#FFFAF4"/>
<path d="M24.736 26.3184L24.6896 25.5608L25.1216 24.7104C25.172 25.264 25.0072 25.8624 24.736 26.3184Z" fill="#DEDEDE"/>
<path d="M23.6247 26.4918L23.0967 26.955L22.8959 26.4878L23.6247 26.4918Z" fill="#FFFAF4"/>
<path d="M24.2479 25.9465V25.9481L23.6255 26.4921L22.8959 26.4881L22.6143 25.8393V25.8377L22.6591 25.6201L24.2479 25.9465Z" fill="#EAEAEA"/>
<path d="M24.2479 25.9465L22.6591 25.6201L22.8239 24.9033L23.4671 24.3657L24.1551 24.3993L24.4335 25.0057L24.2479 25.9465Z" fill="#FFFAF4"/>
<path d="M23.9519 23.9598L23.4671 24.3654L22.8727 24.4038L23.3375 23.5454L23.9519 23.9598Z" fill="#EAEAEA"/>
<path d="M24.1544 24.3992L23.4664 24.3656L23.952 23.96L24.1544 24.3992Z" fill="#DEDEDE"/>
<path d="M24.5696 24.3174L24.1544 24.399L23.952 23.9598L23.9776 23.415C24.2064 23.4238 24.416 23.5014 24.592 23.6342L24.5696 24.3174Z" fill="#D2D2D2"/>
<path d="M24.6895 25.5611L24.2479 25.9467L24.4335 25.0059L24.6895 25.5611Z" fill="#DEDEDE"/>
<path d="M22.4512 26.5217L21.8696 26.1401L22.3736 25.2793L22.6144 25.8377L22.4512 26.5217Z" fill="#C7C7C7"/>
<path d="M22.6143 25.8377L22.3727 25.2793L22.8239 24.9033L22.6591 25.6201L22.6143 25.8377Z" fill="#EAEAEA"/>
<path d="M23.4672 24.3657L22.3728 25.2793L22.2432 24.5945L22.2552 24.5729L22.8728 24.4049L23.4672 24.3657Z" fill="#DEDEDE"/>
<path d="M22.8952 26.4882L22.4512 26.521L22.6144 25.8394L22.8952 26.4882Z" fill="#FFFAF4"/>
<path d="M23.6792 27.3319C23.2832 27.5159 22.84 27.5399 22.476 27.3047L23.0968 26.9551L23.6792 27.3319Z" fill="#D2D2D2"/>
<path d="M22.4656 27.2994C22.2769 27.1734 22.1273 26.9972 22.0336 26.7906L22.4512 26.521L22.4656 27.2994Z" fill="#EAEAEA"/>
<path d="M23.0968 26.955L22.476 27.3046L22.4656 27.299L22.4512 26.5206L22.8952 26.4878L23.0968 26.955Z" fill="#C7C7C7"/>
<path d="M21.2207 24.7282L21.0927 25.3418L20.6591 24.973L20.5367 24.3994L21.2207 24.7282Z" fill="#EAEAEA"/>
<path d="M20.0048 23.6079L20.5368 24.3991L19.9272 24.3511L19.3928 23.8975L20.0048 23.6079Z" fill="#D2D2D2"/>
<path d="M21.0928 25.3418L21.592 26.1442L20.9784 26.4698L20.8312 25.7826L21.0928 25.3418Z" fill="#C7C7C7"/>
<path d="M20.284 26.8218L20.316 27.3178C20.0915 27.3006 19.8722 27.2414 19.6696 27.1434L20.284 26.8218Z" fill="#D2D2D2"/>
<path d="M21.2208 24.728C21.5016 25.1992 21.6256 25.704 21.5912 26.1432L21.0928 25.3416L21.2208 24.728Z" fill="#DEDEDE"/>
<path d="M21.0927 25.3416L20.8319 25.7816L20.6591 24.9736L21.0927 25.3416Z" fill="#FFFAF4"/>
<path d="M19.1616 26.2847L19.668 27.1431C19.4449 27.0382 19.2386 26.9007 19.056 26.7351L19.1616 26.2847Z" fill="#D2D2D2"/>
<path d="M19.1615 26.2848L19.0559 26.736C18.8391 26.5402 18.6521 26.3138 18.5007 26.064L19.1615 26.2848Z" fill="#D2D2D2"/>
<path d="M18.6415 25.4215L18.4879 26.0431C18.3459 25.8074 18.2402 25.5518 18.1743 25.2847L18.6415 25.4215Z" fill="#FFFAF4"/>
<path d="M18.1183 24.5986L18.6415 25.4218L18.1743 25.285C18.1178 25.0609 18.0988 24.829 18.1183 24.5986Z" fill="#D2D2D2"/>
<path d="M18.7799 24.2634L18.1183 24.5978C18.1391 24.3658 18.2055 24.153 18.3159 23.9746L18.7799 24.2634Z" fill="#DEDEDE"/>
<path d="M19.9271 24.3519L19.2615 24.2999L19.3927 23.8975L19.9271 24.3519Z" fill="#EAEAEA"/>
<path d="M19.4095 23.4512L19.3927 23.8976L18.8079 23.5448C18.9919 23.4648 19.1959 23.4344 19.4095 23.4512Z" fill="#DEDEDE"/>
<path d="M20.0048 23.608L19.3928 23.8976L19.4088 23.4512C19.604 23.4656 19.8056 23.5192 20.0048 23.608Z" fill="#FFFAF4"/>
<path d="M21.2208 24.7279L20.5368 24.3991L20.0048 23.6079C20.5128 23.8327 20.9552 24.2687 21.2208 24.7279Z" fill="#DEDEDE"/>
<path d="M20.8311 25.7822L20.9783 26.4694L20.4719 26.4174L20.8311 25.7822Z" fill="#FFFAF4"/>
<path d="M20.6592 24.9727L20.832 25.7815L20.472 26.4175L19.768 26.3463L19.6 26.2007L20.6592 24.9727Z" fill="#EAEAEA"/>
<path d="M20.6591 24.9726L19.5991 26.2006L19.0535 25.707L18.8975 24.8838L19.2615 24.2998L19.9271 24.3518L20.6591 24.9726Z" fill="#FFFAF4"/>
<path d="M18.7799 24.2632L18.8975 24.884L18.6415 25.4216L18.1183 24.5976L18.7799 24.2632Z" fill="#EAEAEA"/>
<path d="M19.2616 24.3L18.8976 24.884L18.78 24.2632L19.2616 24.3Z" fill="#DEDEDE"/>
<path d="M19.3927 23.8977L19.2615 24.3001L18.7799 24.2633L18.3159 23.9753C18.4317 23.7849 18.6032 23.6347 18.8071 23.5449L19.3927 23.8977Z" fill="#D2D2D2"/>
<path d="M20.5367 24.3993L20.6591 24.9729L19.9271 24.3521L20.5367 24.3993Z" fill="#DEDEDE"/>
<path d="M20.284 26.8215L19.668 27.1439L19.1616 26.2847L19.768 26.3455L20.284 26.8215Z" fill="#C7C7C7"/>
<path d="M19.7679 26.3454L19.1615 26.2846L19.0535 25.707L19.5991 26.2006L19.7679 26.3454Z" fill="#EAEAEA"/>
<path d="M18.8975 24.8838L19.1615 26.2838L18.5007 26.0638C18.4975 26.0582 18.5007 26.0654 18.4879 26.043L18.6415 25.4214L18.8975 24.8838Z" fill="#DEDEDE"/>
<path d="M20.4719 26.4174L20.2847 26.8214L19.7679 26.3462L20.4719 26.4174Z" fill="#FFFAF4"/>
<path d="M21.5911 26.144C21.5583 26.5792 21.3631 26.9784 20.9807 27.1824L20.9783 26.4696L21.5911 26.144Z" fill="#D2D2D2"/>
<path d="M20.9711 27.1882C20.7743 27.2922 20.5519 27.333 20.3167 27.317L20.2847 26.8218L20.9711 27.1882Z" fill="#EAEAEA"/>
<path d="M20.9783 26.4695L20.9807 27.1815L20.9711 27.1879L20.2847 26.8215L20.4719 26.4175L20.9783 26.4695Z" fill="#C7C7C7"/>
<path d="M18.0487 26.3838L18.3015 26.9574L17.7335 26.9094L17.3007 26.5134L18.0487 26.3838Z" fill="#EAEAEA"/>
<path d="M16.408 26.1802L17.3008 26.5138L16.7776 26.8298L16.0784 26.7714L16.408 26.1802Z" fill="#D2D2D2"/>
<path d="M18.3015 26.9575L19.1735 27.3199L18.8639 27.9415L18.3455 27.4679L18.3015 26.9575Z" fill="#C7C7C7"/>
<path d="M18.5048 28.6318L18.8184 29.0158C18.6392 29.1278 18.4264 29.2078 18.1912 29.251L18.5048 28.6318Z" fill="#D2D2D2"/>
<path d="M18.0488 26.3838C18.5512 26.6038 18.9448 26.9422 19.1728 27.3198L18.3008 26.9574L18.0488 26.3838Z" fill="#DEDEDE"/>
<path d="M18.3016 26.9578L18.3456 27.4674L17.7344 26.9106L18.3016 26.9578Z" fill="#FFFAF4"/>
<path d="M17.2783 28.8472L18.1903 29.252C17.9478 29.2964 17.7 29.3045 17.4551 29.276L17.2783 28.8472Z" fill="#D2D2D2"/>
<path d="M17.2783 28.8472L17.4551 29.276C17.165 29.243 16.8812 29.1678 16.6127 29.0528L17.2783 28.8472Z" fill="#D2D2D2"/>
<path d="M16.3535 28.4482L16.5903 29.0434C16.3379 28.9344 16.1033 28.7879 15.8943 28.609L16.3535 28.4482Z" fill="#FFFAF4"/>
<path d="M15.4495 28.0825L16.3535 28.4481L15.8943 28.6081C15.7087 28.4481 15.5583 28.2705 15.4495 28.0825Z" fill="#D2D2D2"/>
<path d="M15.7919 27.4258L15.4479 28.0818C15.3335 27.8931 15.265 27.6802 15.2479 27.4602L15.7919 27.4258Z" fill="#DEDEDE"/>
<path d="M16.7776 26.8294L16.2056 27.175L16.0784 26.771L16.7776 26.8294Z" fill="#EAEAEA"/>
<path d="M15.8327 26.3984L16.0783 26.7712L15.3975 26.8248C15.4999 26.6528 15.6495 26.5088 15.8327 26.3984Z" fill="#DEDEDE"/>
<path d="M16.408 26.1802L16.0784 26.7722L15.8328 26.3986C15.9992 26.2978 16.1944 26.2242 16.408 26.1802Z" fill="#FFFAF4"/>
<path d="M18.0488 26.3842L17.3008 26.5138L16.408 26.1802C16.952 26.0682 17.5648 26.165 18.0488 26.3842Z" fill="#DEDEDE"/>
<path d="M18.3455 27.4683L18.8639 27.9419L18.4223 28.1939L18.3455 27.4683Z" fill="#FFFAF4"/>
<path d="M17.7336 26.9097L18.3456 27.4673L18.4224 28.1937L17.808 28.5457L17.5864 28.5257L17.7336 26.9097Z" fill="#EAEAEA"/>
<path d="M17.7336 26.9098L17.5864 28.5258L16.8544 28.4418L16.2488 27.8626L16.2056 27.1746L16.7776 26.8306L17.7336 26.9098Z" fill="#FFFAF4"/>
<path d="M15.7919 27.4258L16.2487 27.8626L16.3535 28.4482L15.4487 28.0818L15.7919 27.4258Z" fill="#EAEAEA"/>
<path d="M16.2055 27.1753L16.2487 27.8625L15.7927 27.4257L16.2055 27.1753Z" fill="#DEDEDE"/>
<path d="M16.0784 26.771L16.2064 27.175L15.792 27.4254L15.248 27.4598C15.2316 27.2381 15.2835 27.0167 15.3968 26.8254L16.0784 26.771Z" fill="#D2D2D2"/>
<path d="M17.2999 26.5137L17.7335 26.9097L16.7775 26.8297L17.2999 26.5137Z" fill="#DEDEDE"/>
<path d="M18.5047 28.6321L18.1911 29.2521C18.1095 29.2161 17.1975 28.8121 17.2791 28.8473L17.8071 28.5449L18.5047 28.6321Z" fill="#C7C7C7"/>
<path d="M17.8072 28.5454L17.2792 28.847L16.8552 28.4414L17.5864 28.5254L17.8072 28.5454Z" fill="#EAEAEA"/>
<path d="M16.2487 27.8623L17.2783 28.8471L16.6127 29.0527L16.5903 29.0431L16.3535 28.4479L16.2487 27.8623Z" fill="#DEDEDE"/>
<path d="M18.4215 28.1938L18.5047 28.6322L17.8087 28.5458L18.4215 28.1938Z" fill="#FFFAF4"/>
<path d="M19.1736 27.3208C19.4 27.6936 19.4736 28.1312 19.2808 28.52L18.864 27.9416L19.1736 27.3208Z" fill="#D2D2D2"/>
<path d="M19.276 28.5303C19.176 28.7287 19.02 28.8919 18.8184 29.0159L18.5048 28.6319L19.276 28.5303Z" fill="#EAEAEA"/>
<path d="M18.864 27.9414L19.2808 28.5198L19.276 28.5302L18.5048 28.6318L18.4216 28.1942V28.1934L18.864 27.9414Z" fill="#C7C7C7"/>
<path d="M16.9391 29.5962L17.4567 29.9498L16.9495 30.209L16.3735 30.1018L16.9391 29.5962Z" fill="#EAEAEA"/>
<path d="M15.4384 30.2904L16.3728 30.1016L16.096 30.6464L15.472 30.9664L15.4384 30.2904Z" fill="#D2D2D2"/>
<path d="M17.4567 29.9495L18.3887 29.7959L18.4543 30.4871L17.7639 30.3591L17.4567 29.9495Z" fill="#C7C7C7"/>
<path d="M18.5143 31.2632L18.9839 31.4232C18.8824 31.6242 18.744 31.8044 18.5759 31.9544L18.5143 31.2632Z" fill="#D2D2D2"/>
<path d="M16.9391 29.5962C17.4815 29.517 17.9951 29.5962 18.3871 29.7962L17.4567 29.9498L16.9391 29.5962Z" fill="#DEDEDE"/>
<path d="M17.4567 29.9497L17.7639 30.3593L16.9503 30.2089L17.4567 29.9497Z" fill="#FFFAF4"/>
<path d="M17.588 32.0945L18.5752 31.9561C18.4048 32.1137 18.1984 32.2521 17.964 32.3641L17.588 32.0945ZM17.588 32.0945L17.964 32.3641C17.6952 32.4921 17.4016 32.5809 17.1312 32.6209L17.588 32.0945Z" fill="#D2D2D2"/>
<path d="M16.592 32.2441L17.1072 32.6241C16.8208 32.6665 16.544 32.6641 16.2864 32.6241L16.592 32.2441Z" fill="#FFFAF4"/>
<path d="M15.6312 32.4121L16.5912 32.2441L16.2864 32.6233C16.0575 32.5898 15.8358 32.5184 15.6304 32.4121H15.6312Z" fill="#D2D2D2"/>
<path d="M15.5744 31.6738L15.6304 32.4122C15.433 32.3128 15.2617 32.1684 15.1304 31.9906L15.5744 31.6738Z" fill="#DEDEDE"/>
<path d="M16.0959 30.6465L15.7927 31.2417L15.4719 30.9665L16.0959 30.6465Z" fill="#EAEAEA"/>
<path d="M15.0655 30.7803L15.4719 30.9667L14.9215 31.3723C14.9183 31.1723 14.9687 30.9715 15.0655 30.7803Z" fill="#DEDEDE"/>
<path d="M15.4384 30.2905L15.472 30.9665L15.0656 30.7801C15.1536 30.6065 15.28 30.4409 15.4384 30.2905Z" fill="#FFFAF4"/>
<path d="M16.9392 29.5962L16.3728 30.1018L15.4384 30.2906C15.8408 29.9074 16.4128 29.6666 16.9392 29.5962Z" fill="#DEDEDE"/>
<path d="M17.7639 30.3599L18.4543 30.4871L18.2127 30.9351L17.7639 30.3599Z" fill="#FFFAF4"/>
<path d="M16.9495 30.2098L16.9503 30.209L17.7639 30.3594L18.2119 30.9354L17.8775 31.5578L17.6783 31.6586L16.9495 30.2098Z" fill="#EAEAEA"/>
<path d="M16.9495 30.2095L17.6783 31.6575L17.0135 31.9735L16.1927 31.8023L15.7927 31.2423L16.0959 30.6463L16.9495 30.2095Z" fill="#FFFAF4"/>
<path d="M15.5743 31.6738L16.1927 31.8018L16.5919 32.2442L15.6295 32.4122L15.5743 31.6738Z" fill="#EAEAEA"/>
<path d="M15.7927 31.2417L16.1927 31.8017L15.5743 31.6737L15.7927 31.2417Z" fill="#DEDEDE"/>
<path d="M15.472 30.9663L15.7928 31.2415L15.5744 31.6735L15.1304 31.9903C14.924 31.7063 14.936 31.4567 14.9216 31.3719L15.472 30.9663Z" fill="#D2D2D2"/>
<path d="M16.3727 30.1016L16.9495 30.2088L16.0959 30.6464L16.3727 30.1016Z" fill="#DEDEDE"/>
<path d="M18.5144 31.2632L18.576 31.9552L17.588 32.0944L17.876 31.5584H17.8776L18.5144 31.2632Z" fill="#C7C7C7"/>
<path d="M17.876 31.5586L17.588 32.0946L17.0135 31.9738L17.6784 31.6586L17.876 31.5586Z" fill="#EAEAEA"/>
<path d="M16.1927 31.8018L17.5879 32.0946L17.1311 32.621L17.1071 32.6242L16.5919 32.2442L16.1927 31.8018Z" fill="#DEDEDE"/>
<path d="M18.2128 30.9351L18.5144 31.2631L17.8776 31.5575L18.2128 30.9351Z" fill="#FFFAF4"/>
<path d="M18.3887 29.7969C18.7783 29.9937 19.0719 30.3265 19.1143 30.7577L18.4543 30.4873L18.3887 29.7969Z" fill="#D2D2D2"/>
<path d="M19.1159 30.7695C19.1359 30.9903 19.0887 31.2111 18.9839 31.4231L18.5143 31.2631L19.1159 30.7695Z" fill="#EAEAEA"/>
<path d="M18.4544 30.4873L19.1144 30.7577C19.1144 30.7609 19.1144 30.7657 19.116 30.7697L18.5144 31.2633L18.2128 30.9353L18.4544 30.4873Z" fill="#C7C7C7"/>
<path d="M24.9159 26.813L24.6647 27.3882C24.7447 27.3802 25.3127 27.3314 25.2327 27.3386L25.6639 26.941L24.9159 26.813Z" fill="#EAEAEA"/>
<path d="M26.5559 26.604L25.6639 26.9408L26.1879 27.2552L26.8863 27.1952L26.5559 26.604Z" fill="#D2D2D2"/>
<path d="M24.6647 27.3882L23.7927 27.753L24.1047 28.3738L24.6223 27.8986L24.6647 27.3882Z" fill="#C7C7C7"/>
<path d="M24.4664 29.0625L24.1536 29.4473C24.3328 29.5593 24.5456 29.6385 24.7816 29.6809L24.4664 29.0625Z" fill="#D2D2D2"/>
<path d="M24.916 26.813C24.4136 27.0346 24.02 27.3754 23.7944 27.7522L24.6648 27.3882L24.916 26.813Z" fill="#DEDEDE"/>
<path d="M24.6647 27.388L24.6215 27.8976L25.2311 27.3384L24.6647 27.388Z" fill="#FFFAF4"/>
<path d="M25.6927 29.2744L24.7831 29.6816C25.0111 29.7248 25.2599 29.7328 25.5175 29.7032L25.6927 29.2744Z" fill="#D2D2D2"/>
<path d="M25.6927 29.2744L25.5175 29.7032C25.8135 29.6696 26.1095 29.5872 26.3599 29.4776L25.6927 29.2744Z" fill="#D2D2D2"/>
<path d="M26.6167 28.8721L26.3815 29.4681C26.6463 29.3513 26.8799 29.2025 27.0767 29.0313L26.6167 28.8721Z" fill="#FFFAF4"/>
<path d="M27.52 28.5039L26.616 28.8719L27.0768 29.0319C27.2608 28.8703 27.412 28.6919 27.52 28.5039Z" fill="#D2D2D2"/>
<path d="M27.1752 27.8481L27.5208 28.5033C27.6384 28.3017 27.7072 28.0905 27.72 27.8809L27.1752 27.8481Z" fill="#DEDEDE"/>
<path d="M26.1879 27.2553L26.7607 27.5993L26.8863 27.1953L26.1879 27.2553Z" fill="#EAEAEA"/>
<path d="M27.132 26.8208L26.8864 27.1952L27.568 27.2464C27.4597 27.0709 27.31 26.9248 27.132 26.8208Z" fill="#DEDEDE"/>
<path d="M26.556 26.604L26.8864 27.1952L27.132 26.8208C26.9537 26.7165 26.7589 26.6426 26.556 26.604Z" fill="#FFFAF4"/>
<path d="M24.916 26.8128L25.664 26.9408L26.5552 26.6048C26.0112 26.4928 25.3992 26.5928 24.916 26.8128Z" fill="#DEDEDE"/>
<path d="M24.6223 27.8984L24.1047 28.3736L24.5479 28.624L24.6223 27.8984Z" fill="#FFFAF4"/>
<path d="M25.232 27.3374L25.2312 27.3382L24.6216 27.8982L24.548 28.6238L25.1624 28.9734L25.3848 28.9534L25.232 27.3374Z" fill="#EAEAEA"/>
<path d="M25.2319 27.3378L25.3839 28.9538L26.1151 28.8674L26.7191 28.2858L26.7607 27.5986L26.1879 27.2554L25.2319 27.3378Z" fill="#FFFAF4"/>
<path d="M27.1752 27.8481L26.7192 28.2857L26.6168 28.8721L27.5208 28.5033L27.1752 27.8481Z" fill="#EAEAEA"/>
<path d="M26.7607 27.5986L26.7191 28.2866L27.1751 27.8482L26.7607 27.5986Z" fill="#DEDEDE"/>
<path d="M26.8863 27.1953L26.7607 27.5985L27.1751 27.8481L27.7191 27.8809C27.735 27.659 27.6825 27.4376 27.5687 27.2465L26.8863 27.1953Z" fill="#D2D2D2"/>
<path d="M25.6639 26.9409L25.2319 27.3385L26.1879 27.2553L25.6639 26.9409Z" fill="#DEDEDE"/>
<path d="M24.4664 29.0624L24.7816 29.6808L24.7832 29.6816L25.6928 29.2744L25.1632 28.9736L24.4664 29.0624Z" fill="#C7C7C7"/>
<path d="M25.1639 28.9734L25.6927 29.2742L26.1151 28.8662L25.3847 28.9534L25.1639 28.9734Z" fill="#EAEAEA"/>
<path d="M26.7191 28.2856L25.6927 29.2744L26.3599 29.4776L26.3815 29.468L26.6167 28.872L26.7191 28.2856Z" fill="#DEDEDE"/>
<path d="M24.548 28.625L24.4664 29.0626L25.1624 28.9746L24.548 28.625Z" fill="#FFFAF4"/>
<path d="M23.7935 27.7534C23.5855 28.0998 23.5183 28.4766 23.6359 28.8238C23.6511 28.8678 23.6687 28.9118 23.6895 28.9526L24.1055 28.3734L23.7935 27.7534Z" fill="#D2D2D2"/>
<path d="M23.6943 28.9639C23.7951 29.1615 23.9519 29.3239 24.1535 29.4471L24.4663 29.0631L23.6943 28.9639Z" fill="#EAEAEA"/>
<path d="M24.1048 28.3735L23.6896 28.9527L23.6944 28.9639L24.4664 29.0623L24.548 28.6247L24.1048 28.3735Z" fill="#C7C7C7"/>
<path d="M26.1159 30.479L25.4919 30.5398L25.8119 31.0118L26.3687 31.195L26.1159 30.479Z" fill="#EAEAEA"/>
<path d="M27.0975 31.8097L26.3695 31.1953L26.3495 31.8065L26.7431 32.3865L27.0975 31.8097Z" fill="#D2D2D2"/>
<path d="M25.4919 30.5399L24.7495 29.9583L24.7487 29.9575L24.3583 30.5319L25.0247 30.7519H25.0255L25.4919 30.5399Z" fill="#C7C7C7"/>
<path d="M23.9327 31.1833L23.4447 31.0977C23.4343 31.3089 23.4687 31.5337 23.5463 31.7609L23.9327 31.1833Z" fill="#D2D2D2"/>
<path d="M26.116 30.4793C25.6784 30.1497 25.1888 29.9713 24.7496 29.9585L25.492 30.5401L26.116 30.4793Z" fill="#DEDEDE"/>
<path d="M25.492 30.54L25.0256 30.752L25.8112 31.0112L25.492 30.54Z" fill="#FFFAF4"/>
<path d="M24.3455 32.3577L23.5463 31.7617C23.6199 31.9817 23.7343 32.2025 23.8855 32.4137L24.3455 32.3577Z" fill="#D2D2D2"/>
<path d="M24.3456 32.3574L23.8856 32.4134C24.0592 32.6558 24.2752 32.8734 24.4936 33.039L24.3456 32.3574Z" fill="#D2D2D2"/>
<path d="M25.1472 32.9683L24.512 33.0539C24.7432 33.2283 24.9872 33.3595 25.232 33.4483L25.1472 32.9683Z" fill="#FFFAF4"/>
<path d="M25.908 33.5779L25.1472 32.9683L25.232 33.4483C25.4624 33.5307 25.692 33.5755 25.9088 33.5779H25.908Z" fill="#D2D2D2"/>
<path d="M26.3135 32.957L25.9095 33.5778C26.1423 33.5826 26.3607 33.5394 26.5495 33.449L26.3135 32.957Z" fill="#DEDEDE"/>
<path d="M26.3495 31.8066L26.3287 32.4738L26.7431 32.3866L26.3495 31.8066Z" fill="#EAEAEA"/>
<path d="M27.1888 32.4182L26.7432 32.3862L27.0312 33.0062C27.1296 32.8326 27.1824 32.6318 27.1888 32.4182Z" fill="#DEDEDE"/>
<path d="M27.0976 31.8096L26.7432 32.3864L27.1888 32.4184C27.1933 32.212 27.1624 32.0056 27.0976 31.8096Z" fill="#FFFAF4"/>
<path d="M26.116 30.479L26.3688 31.195L27.0968 31.8094C26.9288 31.2798 26.5432 30.7934 26.116 30.479Z" fill="#DEDEDE"/>
<path d="M25.0248 30.7522L24.3584 30.5322L24.3552 31.041L25.0248 30.7522Z" fill="#FFFAF4"/>
<path d="M25.8119 31.012L25.8111 31.0112L25.0255 30.752L24.3551 31.04V31.0416L24.3495 31.748V31.7488L24.4759 31.9328L25.8119 31.012Z" fill="#EAEAEA"/>
<path d="M25.812 31.0122L24.476 31.9322L24.908 32.5282L25.7088 32.773L26.3288 32.4738L26.3496 31.8066L25.812 31.0122Z" fill="#FFFAF4"/>
<path d="M26.3136 32.9569L25.7088 32.7729L25.1472 32.9681L25.9096 33.5777L26.3136 32.9569Z" fill="#EAEAEA"/>
<path d="M26.3287 32.4736L25.7087 32.7728L26.3135 32.9568L26.3287 32.4736Z" fill="#DEDEDE"/>
<path d="M26.7431 32.3862L26.3287 32.4734L26.3135 32.9566L26.5503 33.4486C26.7517 33.354 26.9193 33.1999 27.0303 33.007L26.7431 32.3862Z" fill="#D2D2D2"/>
<path d="M26.3687 31.1952L25.812 31.0112L26.3495 31.8064L26.3687 31.1952Z" fill="#DEDEDE"/>
<path d="M23.9327 31.1831L23.5455 31.7607L24.3455 32.3575L24.3503 31.7495L23.9327 31.1831Z" fill="#C7C7C7"/>
<path d="M24.3503 31.749L24.3455 32.3578L24.9071 32.5282L24.4751 31.9322L24.3503 31.749Z" fill="#EAEAEA"/>
<path d="M25.7087 32.7726L24.3455 32.3574L24.4927 33.039L24.5119 33.0534L25.1471 32.9678L25.7087 32.7726Z" fill="#DEDEDE"/>
<path d="M24.3551 31.0415L23.9327 31.1831L24.3487 31.7479L24.3551 31.0415Z" fill="#FFFAF4"/>
<path d="M24.7479 29.9585C24.3119 29.9441 23.8943 30.0945 23.6503 30.4521L24.3583 30.5321L24.7479 29.9585Z" fill="#D2D2D2"/>
<path d="M23.6432 30.4614C23.5192 30.6454 23.4536 30.8614 23.444 31.0974L23.9328 31.183L23.6432 30.4614Z" fill="#EAEAEA"/>
<path d="M24.3583 30.5322L23.6503 30.4521L23.6423 30.4617L23.9327 31.1833L24.3551 31.0417L24.3583 30.5322Z" fill="#C7C7C7"/>
<path d="M24.1263 33.4537L23.5823 33.1401L23.5687 33.7097L23.9159 34.1833L24.1263 33.4537Z" fill="#EAEAEA"/>
<path d="M24.1512 35.1071L23.916 34.1831L23.5448 34.6687L23.5272 35.3703L24.1512 35.1071Z" fill="#D2D2D2"/>
<path d="M23.5831 33.14L23.3175 32.2344L22.6655 32.4744L23.0799 33.0416H23.0807L23.5831 33.14Z" fill="#C7C7C7"/>
<path d="M21.9407 32.7569L21.5927 32.4033C21.4556 32.5822 21.3533 32.7851 21.2911 33.0017L21.9407 32.7569Z" fill="#D2D2D2"/>
<path d="M24.1264 33.4538C23.9624 32.9306 23.668 32.5018 23.3184 32.2354L23.5824 33.1402L24.1264 33.4538Z" fill="#DEDEDE"/>
<path d="M23.5831 33.1399L23.0807 33.0415L23.5687 33.7087L23.5831 33.1399Z" fill="#FFFAF4"/>
<path d="M21.5935 33.952L21.2903 33.0024C21.2223 33.2248 21.1863 33.4712 21.1863 33.7304L21.5935 33.952Z" fill="#D2D2D2"/>
<path d="M21.5935 33.9521L21.1863 33.7305C21.1871 34.0289 21.2367 34.3313 21.3175 34.5921L21.5935 33.9521Z" fill="#D2D2D2"/>
<path d="M21.8904 34.9152L21.3248 34.6152C21.4112 34.8912 21.5328 35.1408 21.6808 35.3544L21.8904 34.9152Z" fill="#FFFAF4"/>
<path d="M22.1559 35.8534L21.8903 34.915L21.6807 35.355C21.8199 35.5558 21.9807 35.7254 22.1559 35.8534Z" fill="#D2D2D2"/>
<path d="M22.8463 35.584L22.1567 35.8544C22.3431 35.9936 22.5455 36.0856 22.7527 36.1216L22.8463 35.584Z" fill="#DEDEDE"/>
<path d="M23.5448 34.6689L23.14 35.2001L23.5272 35.3705L23.5448 34.6689Z" fill="#EAEAEA"/>
<path d="M23.8712 35.6554L23.5272 35.3706L23.4008 36.0426C23.5824 35.9578 23.7416 35.8258 23.8712 35.6554Z" fill="#DEDEDE"/>
<path d="M24.1512 35.1074L23.5272 35.3706L23.8712 35.6554C23.9904 35.501 24.084 35.3146 24.1512 35.1074Z" fill="#FFFAF4"/>
<path d="M24.1264 33.4536L23.916 34.1832L24.1512 35.1072C24.3216 34.5784 24.2912 33.9584 24.1264 33.4536Z" fill="#DEDEDE"/>
<path d="M23.0799 33.0418L22.6655 32.4746L22.3679 32.8866L23.0799 33.0418Z" fill="#FFFAF4"/>
<path d="M23.5687 33.7094L23.0807 33.0414L22.3679 32.8862L21.9511 33.4582V33.4598L21.9471 33.6814L23.5687 33.7094Z" fill="#EAEAEA"/>
<path d="M23.5687 33.7096L21.9471 33.6816L21.9511 34.4176L22.4615 35.0824L23.1399 35.2L23.5447 34.6688L23.5687 33.7096Z" fill="#FFFAF4"/>
<path d="M22.8463 35.5842L22.4623 35.0826L21.8903 34.9146L22.1567 35.8546L22.8463 35.5842Z" fill="#EAEAEA"/>
<path d="M23.1399 35.2001L22.4615 35.0825L22.8463 35.5841L23.1399 35.2001Z" fill="#DEDEDE"/>
<path d="M23.5271 35.3698L23.1399 35.2002L22.8463 35.5842L22.7527 36.1218C23.0199 36.1698 23.2047 36.1186 23.4007 36.0418L23.5271 35.3698Z" fill="#D2D2D2"/>
<path d="M23.9159 34.1831L23.5687 33.7095L23.5447 34.6695L23.9159 34.1831Z" fill="#DEDEDE"/>
<path d="M21.9407 32.7568L21.2903 33.0016L21.5935 33.952L21.9511 33.46L21.9407 32.7568Z" fill="#C7C7C7"/>
<path d="M21.9512 33.46L21.5936 33.952L21.9512 34.4176L21.9472 33.6816L21.9512 33.46Z" fill="#EAEAEA"/>
<path d="M22.4616 35.0826L21.5936 33.9521L21.3176 34.5921L21.3248 34.6161L21.8904 34.9154L22.4616 35.0826Z" fill="#DEDEDE"/>
<path d="M22.3671 32.8864L21.9407 32.7568L21.9511 33.4584L22.3671 32.8864Z" fill="#FFFAF4"/>
<path d="M23.3159 32.2337C22.9703 31.9689 22.5431 31.8481 22.1359 31.9977L22.6655 32.4745L23.3159 32.2337Z" fill="#D2D2D2"/>
<path d="M22.1248 32.0015C21.9168 32.0791 21.7384 32.2175 21.5928 32.4031L21.9408 32.7567L22.1248 32.0015Z" fill="#EAEAEA"/>
<path d="M22.6655 32.4744L22.1359 31.9976C22.1327 31.9976 22.1295 32 22.1247 32.0008L21.9407 32.7568L22.3671 32.8864L22.6655 32.4744Z" fill="#C7C7C7"/>
<path d="M20.812 34.2099L20.5176 33.6562L20.2048 34.1323L20.2488 34.7171L20.812 34.2099Z" fill="#EAEAEA"/>
<path d="M19.9599 35.6256L20.2479 34.7168L19.6767 34.9328L19.2911 35.5192L19.9599 35.6256Z" fill="#D2D2D2"/>
<path d="M20.5175 33.6559L20.7711 32.7463L20.0911 32.6055L20.1431 33.3063L20.5175 33.6559Z" fill="#C7C7C7"/>
<path d="M19.3264 32.4623L19.2176 31.9775C19.0065 32.0569 18.8122 32.1752 18.6448 32.3263L19.3264 32.4623Z" fill="#D2D2D2"/>
<path d="M20.8119 34.2095C20.9495 33.6783 20.9271 33.1583 20.7703 32.7471L20.5175 33.6559L20.8119 34.2095Z" fill="#DEDEDE"/>
<path d="M20.5175 33.6562L20.1431 33.3066L20.2047 34.1306L20.5175 33.6562Z" fill="#FFFAF4"/>
<path d="M18.3991 33.2935L18.6439 32.3271C18.4687 32.4791 18.3079 32.6695 18.1719 32.8895L18.3991 33.2935ZM18.3991 33.2935L18.1719 32.8895C18.0151 33.1431 17.8959 33.4255 17.8271 33.6903L18.3991 33.2935Z" fill="#D2D2D2"/>
<path d="M18.1423 34.2675L17.8207 33.7139C17.7479 33.9939 17.7199 34.2699 17.7327 34.5299L18.1423 34.2675Z" fill="#FFFAF4"/>
<path d="M17.8711 35.2041L18.1431 34.2681L17.7319 34.5297C17.7439 34.7745 17.7911 35.0033 17.8711 35.2041Z" fill="#D2D2D2"/>
<path d="M18.5999 35.3406L17.8719 35.2046C17.9567 35.4222 18.0799 35.607 18.2359 35.747L18.5999 35.3406Z" fill="#DEDEDE"/>
<path d="M19.6767 34.9336L19.0527 35.1696L19.2911 35.5192L19.6767 34.9336Z" fill="#EAEAEA"/>
<path d="M19.4327 35.943L19.2911 35.519L18.8287 36.0222C19.0271 36.047 19.2327 36.019 19.4327 35.9422V35.943Z" fill="#DEDEDE"/>
<path d="M19.9599 35.6254L19.2911 35.519L19.4327 35.943C19.6151 35.8742 19.7927 35.7662 19.9599 35.6254Z" fill="#FFFAF4"/>
<path d="M20.812 34.2095L20.2488 34.7167L19.96 35.6255C20.384 35.2671 20.6856 34.7247 20.812 34.2095Z" fill="#DEDEDE"/>
<path d="M20.1431 33.3055L20.0911 32.6055L19.6191 32.7975L20.1431 33.3055Z" fill="#FFFAF4"/>
<path d="M20.2039 34.1323L20.2047 34.1315L20.1431 33.3067L19.6199 32.7979L18.9639 33.0635L18.8423 33.2507L20.2039 34.1323Z" fill="#EAEAEA"/>
<path d="M20.2039 34.1321L18.8423 33.2505L18.4567 33.8777L18.5383 34.7121L19.0527 35.1697L19.6767 34.9337L20.2039 34.1321Z" fill="#FFFAF4"/>
<path d="M18.5999 35.3407L18.5383 34.7119L18.1423 34.2671L17.8719 35.2055L18.5999 35.3407Z" fill="#EAEAEA"/>
<path d="M19.0519 35.1695L18.5383 34.7119L18.5999 35.3407L19.0519 35.1695Z" fill="#DEDEDE"/>
<path d="M19.2912 35.519L19.0528 35.1694L18.6 35.3406L18.236 35.747C18.4968 35.983 18.7456 35.9982 18.828 36.0222L19.2912 35.519Z" fill="#D2D2D2"/>
<path d="M20.2488 34.7166L20.2048 34.1318L19.6768 34.9334L20.2488 34.7166Z" fill="#DEDEDE"/>
<path d="M19.3264 32.4627L18.6448 32.3267L18.3992 33.2939L18.964 33.0643L19.3264 32.4627Z" fill="#C7C7C7"/>
<path d="M18.964 33.064L18.3992 33.2936L18.4568 33.8776L18.8424 33.2504L18.964 33.064Z" fill="#EAEAEA"/>
<path d="M18.5383 34.7119L18.3991 33.2935L17.8263 33.6903L17.8207 33.7143L18.1423 34.2671L18.5383 34.7119Z" fill="#DEDEDE"/>
<path d="M19.6199 32.7974L19.3263 32.4614L18.9639 33.063L19.6199 32.7974Z" fill="#FFFAF4"/>
<path d="M20.7704 32.7454C20.6168 32.3374 20.3176 32.0094 19.8936 31.9214L20.0912 32.6054L20.7704 32.7454Z" fill="#D2D2D2"/>
<path d="M19.8823 31.9178C19.6597 31.8755 19.4297 31.8963 19.2183 31.9778L19.3263 32.4626L19.8823 31.9178Z" fill="#EAEAEA"/>
<path d="M20.0912 32.6055L19.8936 31.9207L19.8824 31.9175L19.3264 32.4615L19.6192 32.7975L20.0912 32.6055Z" fill="#C7C7C7"/>
<path d="M23.0272 31.2458L22.1976 31.205L22.3744 30.6074L22.3752 30.6066L22.9992 30.3506L23.0272 31.2458Z" fill="#03E08B"/>
<path d="M23.6303 29.5536L22.9991 30.3496L22.6735 29.5976L22.8919 28.8608L23.6303 29.5536ZM22.1975 31.2048L21.5319 31.9632L20.7487 31.276L21.4951 30.9688L22.1975 31.2048ZM19.8823 30.496L19.2983 30.6288C19.1818 30.3695 19.1156 30.0905 19.1031 29.8064L19.8823 30.496Z" fill="#04BF73"/>
<path d="M23.0271 31.2454C22.638 31.6653 22.1038 31.9215 21.5327 31.9622L22.1967 31.2046L23.0271 31.2454Z" fill="#049E5C"/>
<path d="M22.1976 31.205L21.496 30.9698L22.3744 30.6074L22.1976 31.205Z" fill="#00FFA4"/>
<path d="M19.8328 29.0264L19.1032 29.8048C19.0888 29.5296 19.1264 29.2512 19.2152 28.9824L19.8328 29.0264Z" fill="#049E5C"/>
<path d="M19.8327 29.0264L19.2159 28.9824C19.3199 28.6752 19.4879 28.3944 19.6863 28.1792L19.8327 29.0264Z" fill="#04BF73"/>
<path d="M20.5599 28.2305L19.7039 28.1601C19.9143 27.9329 20.1623 27.7569 20.4327 27.6353L20.5599 28.2305Z" fill="#03E08B"/>
<path d="M21.2359 27.4385L20.5599 28.2305L20.4327 27.6353C20.686 27.5206 20.9584 27.4539 21.2359 27.4385Z" fill="#04BF73"/>
<path d="M22.0608 28.1816L21.2368 27.4376C21.5336 27.42 21.8344 27.4608 22.1216 27.5624L22.0608 28.1816Z" fill="#049E5C"/>
<path d="M22.6736 29.5987L22.3184 28.7771L22.892 28.8611L22.6736 29.5987ZM23.448 28.7979L22.892 28.8611L22.956 28.0811C23.168 28.2907 23.3344 28.5347 23.448 28.7979Z" fill="#03E08B"/>
<path d="M23.6304 29.5537L22.892 28.8609L23.448 28.7969C23.552 29.0369 23.6136 29.2937 23.6304 29.5537Z" fill="#00FFA4"/>
<path d="M23.0271 31.2455L22.9991 30.3495L23.6303 29.5527C23.6511 29.8612 23.6083 30.1706 23.5046 30.4618C23.4008 30.753 23.2383 31.0198 23.0271 31.2455Z" fill="#049E5C"/>
<path d="M21.4951 30.9686L20.7487 31.2758L20.4943 30.6494L21.4951 30.9686Z" fill="#00FFA4"/>
<path d="M22.3752 30.6063L21.4952 30.9695L20.4952 30.6487H20.4936L20.1384 29.7775L20.2104 29.5439L22.3752 30.6063Z" fill="#03E08B"/>
<path d="M22.3751 30.6062L20.2095 29.5438L20.4695 28.7854L21.3767 28.4414L22.3183 28.7766L22.6735 29.5982L22.3751 30.6062Z" fill="#00FFA4"/>
<path d="M22.0607 28.1817L21.3767 28.4417L20.5599 28.2305L21.2375 27.4385L22.0607 28.1817Z" fill="#03E08B"/>
<path d="M22.3184 28.7768L21.3768 28.4408L22.0608 28.1816L22.3184 28.7768Z" fill="#049E5C"/>
<path d="M22.8919 28.8609L22.3183 28.7769L22.0607 28.1817L22.1215 27.5625C22.5871 27.7249 22.8151 27.9705 22.9551 28.0809L22.8919 28.8609Z" fill="#00FFA4"/>
<path d="M22.9991 30.3497L22.3751 30.6057L22.6735 29.5977L22.9991 30.3497Z" fill="#049E5C"/>
<path d="M19.8824 30.496L19.1024 29.8056L19.8328 29.0264L20.1392 29.7768L20.1384 29.7776L19.8824 30.496Z" fill="#03E08B"/>
<path d="M20.1392 29.7778L19.8328 29.0266L20.4696 28.7866L20.2096 29.5442L20.1392 29.7778Z" fill="#04BF73"/>
<path d="M21.3767 28.4418L19.8327 29.0266L19.6863 28.1786L19.7039 28.1602L20.5599 28.2306L21.3767 28.4418Z" fill="#049E5C"/>
<path d="M20.4935 30.6498L19.8823 30.4962L20.1383 29.7778L20.4935 30.6498Z" fill="#00FFA4"/>
<path d="M21.5311 31.9623C21.2333 31.9849 20.9339 31.9481 20.6504 31.8539C20.3669 31.7596 20.105 31.6099 19.8799 31.4135L20.7487 31.2759L21.5311 31.9623Z" fill="#049E5C"/>
<path d="M19.8663 31.4017C19.6234 31.1881 19.4297 30.9245 19.2983 30.6289L19.8823 30.4961L19.8663 31.4017Z" fill="#00FFA4"/>
<path d="M20.7487 31.2761L19.8799 31.4137C19.8759 31.4105 19.8719 31.4057 19.8663 31.4025L19.8823 30.4961L20.4935 30.6489H20.4943L20.7487 31.2761Z" fill="#04BF73"/>
<path opacity="0.52" d="M22.6471 30.9353C22.4395 30.8926 22.2573 30.7691 22.1406 30.5921C22.0239 30.4151 21.9822 30.199 22.0247 29.9913C22.0605 29.7882 22.0411 29.5791 21.9685 29.3861C21.8958 29.193 21.7727 29.023 21.6119 28.8937C21.5261 28.831 21.4536 28.7518 21.3987 28.6607C21.3438 28.5696 21.3076 28.4685 21.2923 28.3633C21.2769 28.2581 21.2827 28.1509 21.3092 28.0479C21.3358 27.945 21.3826 27.8483 21.447 27.7637C21.5113 27.679 21.5919 27.608 21.684 27.5549C21.7761 27.5017 21.8778 27.4675 21.9833 27.4541C22.0888 27.4407 22.1959 27.4485 22.2983 27.477C22.4008 27.5055 22.4965 27.5542 22.5799 27.6201C22.9808 27.9316 23.2876 28.348 23.4662 28.8232C23.6449 29.2983 23.6884 29.8137 23.5919 30.3121C23.571 30.4152 23.5299 30.5131 23.471 30.6002C23.4121 30.6874 23.3367 30.7621 23.2489 30.82C23.1612 30.878 23.0629 30.9181 22.9596 30.938C22.8563 30.9579 22.7502 30.9565 22.6471 30.9353Z" fill="white"/>
<path d="M31.9431 40.4734C31.6079 40.7814 31.1351 40.287 31.4663 39.9694C32.9263 38.603 33.5471 36.3182 33.3143 33.1726C33.1455 30.783 32.5703 28.0726 33.2215 25.5134C33.5367 24.2526 34.0775 23.2342 34.5655 21.959C34.7807 22.0534 34.9911 22.1534 35.1895 22.2702C33.8551 25.6798 33.2711 25.9774 33.8391 31.3318C33.9031 31.9342 33.9655 32.527 34.0087 33.123C34.2575 36.4854 33.5623 38.9566 31.9431 40.4734ZM35.7183 18.2414L34.9823 18.0982C34.9727 18.0998 34.9663 18.0958 34.9575 18.0982C34.6575 17.215 33.9335 16.327 32.9831 16.1846C32.0903 16.0566 31.2831 16.9078 30.5935 17.7134C30.1911 18.2022 29.6967 18.763 28.8399 19.8958C27.598 21.5203 26.4541 23.2175 25.4143 24.9782C25.3672 25.0565 25.2913 25.1131 25.2029 25.136C25.1145 25.1589 25.0207 25.1462 24.9415 25.1006C24.8635 25.0524 24.8067 24.9763 24.7829 24.8876C24.7592 24.799 24.7701 24.7047 24.8135 24.6238C26.4551 21.851 28.3319 19.2718 30.0711 17.2614C30.6887 16.5318 31.7383 15.3078 33.0807 15.5014C34.4567 15.6934 35.4367 17.0118 35.7183 18.2414Z" fill="#451326"/>
<path d="M52.748 29.8976C51.2384 29.7448 50.132 29.4104 49.3472 28.3744C50.5272 25.572 51.0896 22.9088 51.3152 20.0928C52.5808 20.2664 53.6304 20.6488 54.6456 21.4344C55.044 24.2608 54.0752 27.3448 52.748 29.8976Z" fill="#04BF73"/>
<path d="M54.7288 23.1042C54.708 23.8202 54.6112 24.5434 54.4576 25.273C54.3952 25.0858 54.3192 24.9122 54.152 24.801C53.7416 24.5226 53.1016 24.8562 52.7056 24.557C52.2816 24.237 52.4688 23.4794 52.0656 23.1386C51.7736 22.8954 51.336 22.9994 50.9456 22.9922C51.092 22.2066 51.2032 21.4074 51.2656 20.6074C51.3152 20.8506 51.3776 21.0874 51.5584 21.2474C51.996 21.6298 52.7744 21.1986 53.22 21.5674C53.6232 21.9082 53.436 22.6658 53.86 22.9786C54.096 23.1594 54.4232 23.1106 54.7288 23.1042ZM53.936 27.1722C53.6792 27.9162 53.3728 28.653 53.0184 29.3626C52.9352 29.0698 52.8728 28.7642 52.6288 28.597C52.2184 28.3194 51.5856 28.6458 51.1824 28.3474C50.7584 28.0338 50.9464 27.2754 50.5424 26.9354C50.3824 26.8034 50.1744 26.7754 49.952 26.7754C50.14 26.261 50.2992 25.7322 50.4456 25.2042C50.8696 25.2458 51.3704 25.0858 51.6976 25.3642C52.1008 25.6978 51.9128 26.4554 52.3376 26.7754C52.7896 27.117 53.5808 26.6386 53.936 27.1722Z" fill="#03E08B"/>
<path d="M52.7679 29.8974C51.2519 29.751 50.1463 29.4174 49.3607 28.3886C49.4511 28.1798 49.5343 27.9646 49.6111 27.7486C50.3207 28.2702 51.2175 28.479 52.3303 28.5902C53.5607 26.2678 54.3671 23.6318 54.3047 21.1982C54.4167 21.2678 54.5207 21.3438 54.6319 21.4278C55.0207 24.1398 54.1727 27.2198 52.7679 29.8974Z" fill="#049E5C"/>
<path d="M51.796 28.7185C52.3284 28.7185 52.76 28.2869 52.76 27.7545C52.76 27.2221 52.3284 26.7905 51.796 26.7905C51.2636 26.7905 50.832 27.2221 50.832 27.7545C50.832 28.2869 51.2636 28.7185 51.796 28.7185Z" fill="#FFE8B6"/>
<path d="M33.7832 40.8551C33.0576 42.7911 30.3248 42.7431 29.6704 40.8071C29.2704 39.6231 29.9456 38.4151 31.0352 38.0471C32.7616 37.4631 34.3768 39.1511 33.7832 40.8551Z" fill="#F9E662"/>
<path d="M33.7831 40.8551C33.3663 41.9671 32.1791 42.5167 31.1319 42.1991L31.7327 40.1095C31.7327 40.1095 30.5687 39.5735 29.7631 39.1879C29.986 38.7067 30.3778 38.3241 30.8642 38.1127C31.3505 37.9012 31.8976 37.8756 32.4015 38.0407L32.0991 39.8455L33.7831 40.8551Z" fill="#FFC700"/>
<path d="M18.1015 45.6638C17.6779 46.0562 17.1158 46.2642 16.5388 46.2421C15.9618 46.22 15.4172 45.9697 15.0247 45.5462C13.8183 44.2446 14.6071 42.0902 16.3863 41.9046C18.4279 41.6926 19.6615 44.2182 18.1015 45.6638Z" fill="#F9E662"/>
<path d="M18.7975 43.908C18.8719 45.0936 18.0135 46.08 16.9279 46.2184L16.6215 44.0664C16.6215 44.0664 15.3399 44.0528 14.4471 44.0304C14.4539 43.5 14.655 42.9906 15.0125 42.5988C15.37 42.207 15.8588 41.96 16.3863 41.9048L16.8479 43.6752L18.7975 43.908Z" fill="#FFC700"/>
<path d="M26.4696 47.3959C26.3096 46.8767 26.5896 46.3847 26.9072 46.0975C27.2008 45.8335 27.5184 45.6975 27.7832 45.5175C28.3064 45.1587 28.67 44.611 28.7976 43.9895C28.8204 43.8879 28.882 43.7992 28.9692 43.7423C29.0565 43.6853 29.1624 43.6647 29.2647 43.6847C29.3669 43.7047 29.4573 43.7638 29.5166 43.8494C29.5759 43.935 29.5995 44.0404 29.5824 44.1431C29.4176 44.9741 28.9318 45.7065 28.2304 46.1815C27.96 46.3631 27.6448 46.5095 27.444 46.6911C27.284 46.8367 27.1952 47.0327 27.2336 47.1583C27.2651 47.2596 27.2551 47.3693 27.2057 47.4632C27.1813 47.5097 27.1479 47.551 27.1075 47.5846C27.0671 47.6182 27.0205 47.6435 26.9704 47.6591C26.8691 47.6906 26.7594 47.6806 26.6655 47.6312C26.5715 47.5819 26.5011 47.4972 26.4696 47.3959Z" fill="#C679E2"/>
<path d="M29.9975 49.0433C29.9319 49.0433 29.8673 49.027 29.8094 48.9961C29.7515 48.9652 29.7021 48.9204 29.6656 48.8659C29.629 48.8113 29.6065 48.7486 29.5999 48.6833C29.5934 48.618 29.603 48.5521 29.6279 48.4913C30.1511 47.2089 29.4975 45.8721 29.4775 45.7777C29.1335 44.8809 29.1511 44.7001 29.1927 43.7409C29.1946 43.6597 29.2211 43.581 29.2688 43.5153C29.3165 43.4495 29.383 43.3999 29.4596 43.3729C29.5362 43.3459 29.6192 43.3428 29.6976 43.3641C29.7759 43.3854 29.846 43.4301 29.8983 43.4921C31.3143 45.2169 32.4999 46.2721 32.5247 47.7241C32.5335 48.2561 31.7335 48.2705 31.7247 47.7385C31.7071 46.6993 30.7423 45.7609 30.0191 44.8761C30.1551 45.4561 31.0751 47.0617 30.3679 48.7937C30.338 48.8675 30.2868 48.9306 30.2208 48.9751C30.1548 49.0195 30.0771 49.0433 29.9975 49.0433Z" fill="#C679E2"/>
<path d="M25.6264 44.6912C25.7011 44.6159 25.8026 44.5733 25.9087 44.5729C26.0147 44.5724 26.1166 44.6141 26.192 44.6888C26.3248 44.8192 26.6192 44.7808 26.8288 44.6664C27.1072 44.5144 27.4232 44.184 27.7328 43.9656C28.3459 43.5378 29.0975 43.3562 29.8384 43.4568C29.9434 43.4717 30.0382 43.5276 30.102 43.6124C30.1657 43.6972 30.1932 43.8038 30.1784 43.9088C30.1717 43.9611 30.1547 44.0116 30.1282 44.0572C30.1017 44.1028 30.0663 44.1426 30.0242 44.1743C29.9821 44.206 29.934 44.2289 29.8828 44.2417C29.8317 44.2545 29.7785 44.2569 29.7264 44.2488C29.1873 44.1751 28.6403 44.3074 28.1944 44.6192C27.876 44.8432 27.62 45.1448 27.2128 45.368C26.1512 45.9496 25.16 45.1624 25.6264 44.6912Z" fill="#C679E2"/>
<path d="M30.7839 44.215C30.4799 44.735 30.0863 44.4414 29.5663 44.1374C29.0463 43.8334 28.5983 43.6342 28.9015 43.115C28.972 42.988 29.0671 42.8762 29.1813 42.7865C29.2955 42.6967 29.4265 42.6306 29.5666 42.5921C29.7067 42.5537 29.853 42.5436 29.9971 42.5625C30.1411 42.5814 30.2799 42.6289 30.4054 42.7022C30.5308 42.7755 30.6403 42.8731 30.7275 42.9893C30.8147 43.1055 30.8778 43.238 30.913 43.3789C30.9483 43.5199 30.955 43.6664 30.9329 43.81C30.9107 43.9536 30.8601 44.0913 30.7839 44.215Z" fill="#FF5252"/>
<path opacity="0.52" d="M47.9368 20.5955L43.2936 17.0515C43.2087 16.9882 43.1372 16.9088 43.0832 16.8178C43.0293 16.7267 42.9939 16.6259 42.9792 16.5211C42.9645 16.4163 42.9707 16.3096 42.9975 16.2072C43.0243 16.1048 43.0712 16.0088 43.1354 15.9246C43.1996 15.8405 43.2798 15.7699 43.3715 15.717C43.4632 15.6641 43.5644 15.6299 43.6694 15.6164C43.7743 15.6029 43.8809 15.6104 43.983 15.6383C44.0851 15.6663 44.1806 15.7143 44.264 15.7795L48.9072 19.3235C48.992 19.3867 49.0635 19.4661 49.1175 19.5571C49.1715 19.6482 49.2068 19.749 49.2215 19.8538C49.2362 19.9586 49.23 20.0653 49.2032 20.1677C49.1764 20.2701 49.1295 20.3661 49.0653 20.4503C49.0011 20.5344 48.9209 20.605 48.8292 20.6579C48.7376 20.7108 48.6363 20.745 48.5314 20.7585C48.4264 20.772 48.3198 20.7646 48.2177 20.7366C48.1157 20.7086 48.0202 20.6606 47.9368 20.5955Z" fill="white"/>
<path d="M32.9856 39.6737C32.9596 39.6737 32.9346 39.6636 32.916 39.6456C32.8973 39.6275 32.8864 39.6029 32.8856 39.5769C32.8725 39.3414 32.7866 39.1157 32.6397 38.9311C32.4928 38.7465 32.2922 38.6121 32.0656 38.5465C31.94 38.5137 31.9856 38.3233 32.1176 38.3545C32.652 38.4945 33.0672 39.0185 33.0856 39.5705C33.0861 39.5837 33.084 39.5969 33.0794 39.6093C33.0749 39.6217 33.0679 39.633 33.0589 39.6427C33.0499 39.6524 33.039 39.6602 33.027 39.6656C33.015 39.6711 33.002 39.6741 32.9888 39.6745L32.9856 39.6737ZM17.268 43.2137C17.1174 43.0229 16.9134 42.8814 16.6819 42.8073C16.4504 42.7332 16.2021 42.7299 15.9688 42.7977C15.8408 42.8369 15.7848 42.6457 15.9096 42.6073C16.1822 42.5276 16.4724 42.5313 16.7429 42.618C17.0134 42.7047 17.2517 42.8704 17.4272 43.0937C17.5072 43.1985 17.348 43.3201 17.268 43.2137Z" fill="white"/>
</svg>
