<svg width="46" height="46" viewBox="0 0 46 46" fill="none" xmlns="http://www.w3.org/2000/svg">
<rect width="46" height="46" rx="23" fill="white"/>
<g clip-path="url(#clip0_40_11735)">
<path d="M43 24.2621V26.3316C43 26.3316 42.3397 27.4945 41.9033 27.6758H33.988L33.4066 27.4945L33.1515 28.076H13.3983L13.3457 28.0572L12.4542 27.7484L5.7368 28.6199C5.7368 28.6199 5.52423 28.6099 5.21912 28.5699C4.36382 28.4586 2.78451 28.1122 3.15839 27.0944C3.15839 27.0944 2.80201 25.1649 3.15839 24.0445C3.15839 24.0445 3.26718 22.4827 4.61015 21.9376C5.95438 21.3936 9.91203 20.3395 12.0903 20.0144C12.0903 20.0144 14.0147 19.4329 14.85 18.6701C14.85 18.6701 16.7344 17.2621 19.0615 16.2418C20.3157 15.6928 21.6574 15.369 23.0204 15.2414C25.6576 14.9938 31.3896 14.6125 35.0384 15.5103C38.1383 16.2743 40.1927 18.0249 41.2744 19.1953C41.8683 19.8381 42.1922 20.6771 42.1922 21.5524V22.3377L42.446 23.2455C42.4473 23.2455 43 23.6444 43 24.2621Z" fill="#E14B4B"/>
<path d="M13.3619 27.6883C13.3619 27.8121 13.3569 27.9359 13.3457 28.0572L12.4541 27.7483L5.73674 28.6199C5.73674 28.6199 5.52417 28.6099 5.21906 28.5699C5.15557 28.2803 5.12371 27.9847 5.12403 27.6883C5.12403 25.4137 6.96843 23.5693 9.24298 23.5693C11.5175 23.5693 13.3619 25.4137 13.3619 27.6883Z" fill="#2E3235"/>
<path d="M9.24302 31.0546C11.1021 31.0546 12.6092 29.5476 12.6092 27.6885C12.6092 25.8294 11.1021 24.3223 9.24302 24.3223C7.38393 24.3223 5.87683 25.8294 5.87683 27.6885C5.87683 29.5476 7.38393 31.0546 9.24302 31.0546Z" fill="#3E4347"/>
<path d="M33.3278 27.6733L33.4065 27.4932L33.988 27.6745H41.5644C41.5569 25.4062 39.7163 23.5693 37.4467 23.5693C35.1759 23.5693 33.3353 25.4062 33.3278 27.6733Z" fill="#2E3235"/>
<path d="M37.4455 31.0546C39.3046 31.0546 40.8117 29.5476 40.8117 27.6885C40.8117 25.8294 39.3046 24.3223 37.4455 24.3223C35.5864 24.3223 34.0793 25.8294 34.0793 27.6885C34.0793 29.5476 35.5864 31.0546 37.4455 31.0546Z" fill="#3E4347"/>
<path d="M25.4688 16.0243C24.7698 16.0481 24.3272 16.0718 24.3184 16.0731L24.2934 16.0743H24.2684C24.1984 16.0718 24.1284 16.0718 24.0583 16.0718C21.006 16.0718 17.9649 17.885 16.4231 18.9653C15.7266 19.453 15.1789 20.1395 14.8613 20.9148L24.5885 20.1382L25.4688 16.0243ZM34.5558 16.6333C33.5892 16.2106 31.2871 15.978 28.0635 15.978C27.6859 15.978 27.3195 15.9818 26.9744 15.9868L26.6242 19.9744L36.2639 19.2054C36.2952 19.0254 36.3214 18.854 36.3402 18.6977L36.3414 18.6852L36.3439 18.6727C36.4452 18.0825 35.3473 17.1159 34.5558 16.6333Z" fill="#3E4347"/>
<path d="M3.86109 23.4343C3.86109 23.4343 5.20031 21.875 6.70084 21.9926C7.06597 22.0213 8.15761 22.5102 6.45075 23.4343C5.91681 23.7232 4.86644 23.8932 4.06741 23.9057C3.41968 23.9145 3.86109 23.4343 3.86109 23.4343ZM42.1934 22.3377V21.5524C42.1934 21.2135 42.1309 20.8847 42.0371 20.5658C41.4969 20.4983 40.8204 20.4645 40.6003 20.6846C40.3077 20.9772 40.3077 22.0476 40.6003 22.3402C40.8454 22.5853 41.6632 22.5165 42.2197 22.4352L42.1934 22.3377Z" fill="#FFD83B"/>
<path d="M9.24302 29.9355C10.484 29.9355 11.4901 28.9295 11.4901 27.6884C11.4901 26.4474 10.484 25.4414 9.24302 25.4414C8.00201 25.4414 6.99597 26.4474 6.99597 27.6884C6.99597 28.9295 8.00201 29.9355 9.24302 29.9355Z" fill="#CBD6E0"/>
<path d="M9.24306 29.5215C10.2555 29.5215 11.0762 28.7008 11.0762 27.6884C11.0762 26.676 10.2555 25.8552 9.24306 25.8552C8.23064 25.8552 7.40991 26.676 7.40991 27.6884C7.40991 28.7008 8.23064 29.5215 9.24306 29.5215Z" fill="#939799"/>
<path d="M9.24304 29.0076C9.97163 29.0076 10.5623 28.4169 10.5623 27.6884C10.5623 26.9598 9.97163 26.3691 9.24304 26.3691C8.51446 26.3691 7.92383 26.9598 7.92383 27.6884C7.92383 28.4169 8.51446 29.0076 9.24304 29.0076Z" fill="#CBD6E0"/>
<path d="M37.4455 29.9355C38.6865 29.9355 39.6926 28.9295 39.6926 27.6884C39.6926 26.4474 38.6865 25.4414 37.4455 25.4414C36.2045 25.4414 35.1985 26.4474 35.1985 27.6884C35.1985 28.9295 36.2045 29.9355 37.4455 29.9355Z" fill="#CBD6E0"/>
<path d="M37.4455 29.5215C38.4579 29.5215 39.2786 28.7008 39.2786 27.6884C39.2786 26.676 38.4579 25.8552 37.4455 25.8552C36.433 25.8552 35.6123 26.676 35.6123 27.6884C35.6123 28.7008 36.433 29.5215 37.4455 29.5215Z" fill="#939799"/>
<path d="M37.4456 29.0076C38.1741 29.0076 38.7648 28.4169 38.7648 27.6884C38.7648 26.9598 38.1741 26.3691 37.4456 26.3691C36.717 26.3691 36.1263 26.9598 36.1263 27.6884C36.1263 28.4169 36.717 29.0076 37.4456 29.0076Z" fill="#CBD6E0"/>
<path d="M17.1359 20.7322L19.1828 20.5684L21.7575 16.3819C20.8622 16.612 20.0131 16.9508 19.2316 17.3247L17.1359 20.7322ZM19.9043 20.5108L20.9722 20.4258L23.6319 16.1005C23.2655 16.1205 22.9017 16.1605 22.5403 16.2243L19.9043 20.5108ZM27.1807 19.9306L29.2276 19.7668L31.4872 16.0918C30.917 16.0493 30.2843 16.018 29.5965 16.0005L27.1807 19.9306ZM29.9479 19.7093L31.0158 19.6243L33.0803 16.2668C32.7676 16.2177 32.4536 16.1776 32.1387 16.1468L29.9479 19.7093Z" fill="#5A5F63"/>
</g>
<defs>
<clipPath id="clip0_40_11735">
<rect width="40" height="40" fill="white" transform="translate(3 3)"/>
</clipPath>
</defs>
</svg>
