<svg width="65" height="65" viewBox="0 0 65 65" fill="none" xmlns="http://www.w3.org/2000/svg">
<circle cx="32.5" cy="32.5" r="32.5" fill="white"/>
<g clip-path="url(#clip0_33_4584)">
<path d="M51.4696 34.6373C51.4138 33.5092 50.9946 32.4285 50.3058 31.5319C48.7525 29.5096 48.4497 27.904 48.4497 27.904C47.2301 24.7084 46.1459 22.5792 45.3491 21.2278C44.5106 19.8086 43.0607 18.8527 41.4255 18.6426C38.1373 18.2175 27.8603 18.2175 24.5721 18.6426C23.765 18.7474 22.9923 19.0347 22.3127 19.4827C21.633 19.9306 21.0643 20.5274 20.6497 21.2278C19.8528 22.5792 18.7699 24.7084 17.5491 27.904C17.5491 27.904 17.2463 29.5096 15.693 31.5319C15.0054 32.4285 14.585 33.5092 14.5304 34.6373C14.4128 37.0848 15.1218 37.6227 15.756 43.1614C15.78 43.3718 15.8807 43.566 16.0389 43.7069C16.197 43.8477 16.4016 43.9253 16.6134 43.9249H49.3879C49.8273 43.9249 50.1954 43.596 50.2453 43.1614C50.4234 41.6081 50.9519 38.4576 50.9519 38.4576C51.4149 36.8912 51.5159 35.6146 51.4696 34.6373Z" fill="#E95353"/>
<path d="M47.7597 27.7758C46.7978 25.3687 45.8169 23.2668 44.8408 21.5912C44.1009 20.3241 42.7958 19.4394 41.3518 19.2459C38.0564 18.8088 27.921 18.8124 24.6493 19.2459C23.2053 19.4394 21.9001 20.3242 21.1603 21.5912C20.1711 23.2882 19.1771 25.4186 18.2295 27.7758C28.0577 28.5489 37.9315 28.5489 47.7597 27.7758Z" fill="#168DE2"/>
<path d="M46.3644 30.5592C45.9891 30.6768 45.64 30.8419 45.3479 31.0057C44.8158 31.3026 44.2696 31.5793 43.6996 31.7955C42.7543 32.1541 42.594 32.6897 42.594 32.6897C42.5655 32.7265 42.5382 32.7633 42.512 32.8013C41.7947 33.8665 42.7364 35.2844 44.0083 35.1039C45.8477 34.8438 47.363 34.3107 48.1325 34.0019C48.5731 33.8249 48.9174 33.4569 49.0303 32.9949C49.041 32.9509 49.0505 32.907 49.0587 32.8642C49.3415 31.3395 47.8452 30.0973 46.3644 30.5592Z" fill="white"/>
<path d="M48.3297 39.0942H46.2836C45.9761 39.0942 45.8217 39.4659 46.039 39.6844L48.0851 41.7306C48.3024 41.9479 48.6753 41.7935 48.6753 41.486V39.4398C48.6754 39.3944 48.6665 39.3495 48.6491 39.3075C48.6318 39.2656 48.6063 39.2274 48.5742 39.1953C48.5421 39.1632 48.504 39.1378 48.462 39.1204C48.4201 39.1031 48.3751 39.0942 48.3297 39.0942Z" fill="#FFE21F"/>
<path d="M50.2452 43.1589C50.2212 43.3698 50.1204 43.5644 49.962 43.7057C49.8037 43.847 49.5988 43.925 49.3866 43.9248H45.45V46.2096C45.45 47.0183 46.1054 47.675 46.9154 47.675H49.3878C50.1966 47.675 50.8533 47.0196 50.8533 46.2096V39.0571C50.6906 40.0476 50.3747 42.0272 50.2452 43.1589Z" fill="black"/>
<path d="M51.9719 26.1762C51.8531 25.6442 51.3533 25.2832 50.8081 25.2832H49.8201C49.1871 25.2832 48.6741 25.7962 48.6741 26.4292V27.1333H48.1505L48.4509 27.8471H49.6028C50.199 27.8471 50.7892 27.7188 51.3307 27.4706C51.57 27.3613 51.7644 27.173 51.8811 26.9373C51.9979 26.7015 52.03 26.4328 51.9719 26.1762Z" fill="#ED6262"/>
<path d="M47.0127 33.8453C47.8083 33.8453 48.4532 33.2004 48.4532 32.4048C48.4532 31.6093 47.8083 30.9644 47.0127 30.9644C46.2172 30.9644 45.5723 31.6093 45.5723 32.4048C45.5723 33.2004 46.2172 33.8453 47.0127 33.8453Z" fill="#FFBD49"/>
<path d="M44.1152 34.5996C44.6995 34.5996 45.1732 34.1258 45.1732 33.5415C45.1732 32.9571 44.6995 32.4834 44.1152 32.4834C43.5308 32.4834 43.0571 32.9571 43.0571 33.5415C43.0571 34.1258 43.5308 34.5996 44.1152 34.5996Z" fill="#FFDB6F"/>
<path d="M41.3732 33.5425L39.719 36.4234H26.281L24.6267 33.5425H41.3732Z" fill="#393838"/>
<path d="M23.4867 32.8012C23.4612 32.7627 23.4338 32.7254 23.4047 32.6896C23.4047 32.6896 23.2444 32.1541 22.2991 31.7954C21.7291 31.5792 21.184 31.3025 20.6508 31.0056C20.3575 30.8418 20.0096 30.6767 19.6343 30.5591C18.1546 30.096 16.6572 31.3393 16.9386 32.8641C16.947 32.908 16.9565 32.9508 16.966 32.9948C17.0788 33.4567 17.4231 33.8248 17.8637 34.0018C18.6332 34.3106 20.1485 34.8437 21.9892 35.1038C23.2622 35.2843 24.2039 33.8664 23.4867 32.8012Z" fill="white"/>
<path d="M19.7163 39.0942H17.6702C17.6248 39.0942 17.5798 39.1031 17.5379 39.1204C17.4959 39.1378 17.4578 39.1632 17.4257 39.1953C17.3936 39.2274 17.3681 39.2656 17.3508 39.3075C17.3334 39.3495 17.3245 39.3944 17.3246 39.4398V41.486C17.3246 41.7935 17.6975 41.9479 17.9148 41.7306L19.9609 39.6844C20.1782 39.4671 20.0238 39.0942 19.7163 39.0942Z" fill="#FFE21F"/>
<path d="M46.6232 42.665C44.4928 38.979 42.043 39.0941 42.043 39.0941H23.9558C23.9558 39.0941 21.5071 38.979 19.3755 42.665H15.693L15.7382 43.14C15.7578 43.3547 15.857 43.5543 16.0163 43.6996C16.1756 43.8448 16.3835 43.9252 16.5991 43.925H49.401C49.6165 43.9252 49.8244 43.8448 49.9837 43.6996C50.143 43.5544 50.2423 43.3548 50.2619 43.1401L50.3071 42.6651L46.6232 42.665Z" fill="#181818"/>
<path d="M16.6133 43.9262C16.4011 43.9262 16.1964 43.8481 16.0381 43.7068C15.8798 43.5656 15.7789 43.3711 15.7548 43.1603C15.6253 42.0286 15.3082 40.0478 15.1467 39.0586V46.2111C15.1467 47.0198 15.8022 47.6765 16.6122 47.6765H19.0845C19.8933 47.6765 20.55 47.021 20.55 46.2111V43.9263H16.6133V43.9262Z" fill="black"/>
<path d="M17.3246 27.1333V26.4292C17.3246 25.7962 16.8115 25.2832 16.1798 25.2832H15.1918C14.6468 25.2832 14.1468 25.6442 14.028 26.1762C13.9702 26.4326 14.0024 26.7011 14.1192 26.9366C14.236 27.1721 14.4302 27.3602 14.6693 27.4694C15.2115 27.7175 15.8008 27.8459 16.3971 27.8458H17.5491L17.8495 27.1321H17.3246V27.1333Z" fill="#ED6262"/>
<path d="M18.9859 33.8453C19.7815 33.8453 20.4264 33.2004 20.4264 32.4048C20.4264 31.6093 19.7815 30.9644 18.9859 30.9644C18.1904 30.9644 17.5455 31.6093 17.5455 32.4048C17.5455 33.2004 18.1904 33.8453 18.9859 33.8453Z" fill="#FFBD49"/>
<path d="M21.8859 34.5996C22.4703 34.5996 22.944 34.1258 22.944 33.5415C22.944 32.9571 22.4703 32.4834 21.8859 32.4834C21.3015 32.4834 20.8278 32.9571 20.8278 33.5415C20.8278 34.1258 21.3015 34.5996 21.8859 34.5996Z" fill="#FFDB6F"/>
<path d="M40.6583 40.1025H25.3416C25.2266 40.1026 25.1164 40.1482 25.0351 40.2295C24.9538 40.3108 24.9082 40.421 24.9081 40.536C24.9081 40.5929 24.9192 40.6493 24.941 40.702C24.9627 40.7546 24.9946 40.8024 25.0349 40.8427C25.0752 40.8829 25.123 40.9148 25.1756 40.9366C25.2282 40.9584 25.2846 40.9695 25.3416 40.9694H40.6571C40.7721 40.9694 40.8823 40.9237 40.9636 40.8425C41.0449 40.7612 41.0905 40.6509 41.0906 40.536C41.0918 40.2961 40.897 40.1025 40.6583 40.1025ZM40.6583 41.8328H25.3416C25.2266 41.8328 25.1164 41.8785 25.0351 41.9598C24.9538 42.0411 24.9082 42.1513 24.9081 42.2662C24.9081 42.3232 24.9192 42.3796 24.941 42.4322C24.9627 42.4848 24.9946 42.5326 25.0349 42.5729C25.0752 42.6132 25.123 42.6451 25.1756 42.6669C25.2282 42.6886 25.2846 42.6998 25.3416 42.6997H40.6571C40.7721 42.6997 40.8823 42.654 40.9636 42.5727C41.0449 42.4914 41.0905 42.3812 41.0906 42.2662C41.0918 42.0264 40.897 41.8328 40.6583 41.8328Z" fill="#393838"/>
<path d="M46.1542 24.1039V24.2523C46.1542 24.8497 45.6637 25.3283 45.0546 25.3033C44.4928 25.2677 44.063 24.7654 44.063 24.1918V22.0614C44.063 21.5591 43.645 21.1767 43.1427 21.1898H43.1071C42.6048 21.1779 42.1868 21.5603 42.1868 22.0614V23.9887C42.1868 24.5861 41.6726 25.0647 41.0753 25.0278C40.5135 25.0041 40.0837 24.4899 40.0837 23.9282V22.2526C40.0837 21.7503 39.6657 21.3323 39.1515 21.3323H39.0803C38.6017 21.3323 38.2074 21.7265 38.2074 22.2051V24.3842C38.2074 24.9815 37.7051 25.4589 37.0959 25.4352C36.5342 25.3996 36.1162 24.8973 36.1162 24.3237V21.4023C36.1162 20.9368 35.7101 20.5425 35.2315 20.5781H35.1602C34.6697 20.5781 34.2767 20.9724 34.2767 21.451V24.4377C34.2767 25.0112 33.8112 25.4886 33.2257 25.4886C32.664 25.4886 32.1985 25.035 32.1866 24.4733V21.9665C32.1866 21.3929 31.7568 20.8918 31.1951 20.855C30.5859 20.8313 30.0954 21.3086 30.0954 21.9059L30.0835 24.2217C30.0835 24.819 29.5943 25.2964 28.9839 25.2726C28.4329 25.2382 28.0149 24.7537 27.9982 24.205V21.4878C27.9982 20.9237 27.5743 20.419 27.0102 20.3858C26.4057 20.3597 25.9069 20.8358 25.9069 21.4344V24.2809C25.8903 24.864 25.4011 25.3283 24.8013 25.3045C24.2396 25.269 23.8216 24.7666 23.8216 24.193V22.0614C23.8216 21.5591 23.3917 21.1767 22.8894 21.1898H22.8657C22.3515 21.1779 21.9335 21.5603 21.9335 22.0614V23.9887C21.9335 24.5861 21.4312 25.0647 20.8339 25.0278C20.3137 25.0076 19.9266 24.5731 19.8601 24.0695C19.3079 25.2131 18.7605 26.4516 18.2285 27.7746C28.0566 28.5488 37.9305 28.5488 47.7586 27.7746C47.2289 26.4481 46.6921 25.2249 46.1542 24.1039Z" fill="#68BCF8"/>
</g>
<defs>
<clipPath id="clip0_33_4584">
<rect width="38" height="38" fill="white" transform="translate(14 14)"/>
</clipPath>
</defs>
</svg>
